<?xml version="1.0" encoding="utf-8"?>
<!-- Generator: Adobe Illustrator 28.1.0, SVG Export Plug-In . SVG Version: 6.00 Build 0)  -->
<svg version="1.1" id="Layer_1" xmlns="http://www.w3.org/2000/svg" xmlns:xlink="http://www.w3.org/1999/xlink" x="0px" y="0px"
	 width="40px" height="13.7px" viewBox="0 0 40 13.7" style="enable-background:new 0 0 40 13.7;" xml:space="preserve">
<style type="text/css">
	.st0{clip-path:url(#SVGID_00000062889528568957718950000016442061209858859145_);}
	.st1{clip-path:url(#SVGID_00000062889528568957718950000016442061209858859145_);fill:#D81E5B;}
</style>
<g>
	<g>
		<g>
			<defs>
				<rect id="SVGID_1_" y="0" width="40" height="13.7"/>
			</defs>
			<clipPath id="SVGID_00000052825928117303147320000000192801521010002088_">
				<use xlink:href="#SVGID_1_"  style="overflow:visible;"/>
			</clipPath>
			
				<rect x="32.1" y="2.2" style="clip-path:url(#SVGID_00000052825928117303147320000000192801521010002088_);" width="3.1" height="10.2"/>
			<path style="clip-path:url(#SVGID_00000052825928117303147320000000192801521010002088_);fill:#D81E5B;" d="M1.9,13.7h10.6V0H1.9
				C0.9,0,0,0.9,0,1.9v9.9C0,12.8,0.9,13.7,1.9,13.7 M14.1,13.7h11.8V0H14.1V13.7z M34.7,2.6l-0.3,5.8h-1.6l-0.2-5.8
				C32.6,2.6,34.7,2.6,34.7,2.6z M32.9,9.5h1.6v1.6l0,0h-1.6V9.5z M40,11.8V1.9c0-1-0.9-1.9-1.9-1.9H27.5v13.7h10.6
				C39.1,13.7,40,12.8,40,11.8"/>
		</g>
	</g>
</g>
</svg>
