<?xml version="1.0" encoding="utf-8"?>
<!-- Generator: Adobe Illustrator 23.0.1, SVG Export Plug-In . SVG Version: 6.00 Build 0)  -->
<svg version="1.1" id="Layer_1" xmlns="http://www.w3.org/2000/svg" xmlns:xlink="http://www.w3.org/1999/xlink" x="0px" y="0px"
	 viewBox="0 0 32 32" style="enable-background:new 0 0 32 32;" xml:space="preserve">
<style type="text/css">
	.st0{fill:none;}
	.st1{fill:none;stroke:#000;stroke-linecap:round;stroke-miterlimit:10;}
</style>
<rect class="st0" width="32" height="32"/>
<line class="st1" x1="14.4" y1="9" x2="14.4" y2="21"/>
<line class="st1" x1="17.6" y1="14.8" x2="17.6" y2="21"/>
<path class="st1" d="M10.2,4.6h11.7c1,0,1.8,0.9,1.8,1.9v19.5c0,1.1-0.8,1.9-1.8,1.9H10.2c-1,0-1.8-0.9-1.8-1.9V6.5
	C8.3,5.5,9.2,4.6,10.2,4.6z"/>
<path class="st1" d="M11.2,6.2h9.7c0.6,0,1.1,0.5,1.1,1.1v14.9c0,0.6-0.5,1.1-1.1,1.1h-9.7c-0.6,0-1.1-0.5-1.1-1.1V7.4
	C10.1,6.7,10.6,6.2,11.2,6.2z"/>
</svg>
