<?xml version="1.0" encoding="utf-8"?>
<!-- Generator: Adobe Illustrator 23.0.1, SVG Export Plug-In . SVG Version: 6.00 Build 0)  -->
<svg version="1.1" id="Layer_1" xmlns="http://www.w3.org/2000/svg" xmlns:xlink="http://www.w3.org/1999/xlink" x="0px" y="0px"
	 viewBox="0 0 32 32" style="enable-background:new 0 0 32 32;" xml:space="preserve">
<style type="text/css">
	.st0{fill:none;}
	.st1{fill:#6C7171;}
	.st2{fill:none;stroke:#000;stroke-miterlimit:10;}
</style>
<rect class="st0" width="32" height="32"/>
<path class="st1" d="M16,17.2"/>
<path class="st2" d="M16,10.7c-3.1,0-5.7,2.9-5.7,2.9s2.6,2.9,5.7,2.9s5.7-2.9,5.7-2.9S19.1,10.7,16,10.7z M16,16.2
	c-1.4,0-2.5-1.1-2.5-2.5c0-1.4,1.1-2.5,2.5-2.5s2.5,1.1,2.5,2.5C18.5,15.1,17.4,16.2,16,16.2z"/>
<circle class="st2" cx="16" cy="13.4" r="8.9"/>
<path class="st2" d="M7.1,13.4H5.2c0,0,0.4,10.8,10.8,10.8s10.7-10.8,10.7-10.8h-1.8"/>
<line class="st2" x1="9.8" y1="27.5" x2="22.2" y2="27.5"/>
<circle class="st2" cx="16" cy="25.8" r="1.6"/>
</svg>
