<?xml version="1.0" encoding="utf-8"?>
<!-- Generator: Adobe Illustrator 26.1.0, SVG Export Plug-In . SVG Version: 6.00 Build 0)  -->
<svg version="1.1" xmlns="http://www.w3.org/2000/svg" xmlns:xlink="http://www.w3.org/1999/xlink" x="0px" y="0px" width="22px"
	 height="22px" viewBox="0 0 22 22" style="enable-background:new 0 0 22 22;" xml:space="preserve">
<style type="text/css">
	.st0{fill:none;stroke:#000000;stroke-width:1.45;stroke-linejoin:round;stroke-miterlimit:10;}
	.st1{fill:none;stroke:#000000;stroke-width:1.45;stroke-linecap:square;stroke-linejoin:round;stroke-miterlimit:10;}
	.st2{fill:none;stroke:#000000;stroke-width:1.45;stroke-linecap:round;stroke-linejoin:round;stroke-miterlimit:10;}
	.st3{fill:none;stroke:#000000;stroke-width:1.45;stroke-miterlimit:10;}
	.st4{fill:none;stroke:#000000;stroke-width:1.45;stroke-linecap:round;stroke-miterlimit:10;}
	.st5{fill:none;stroke:#000000;stroke-width:1.45;stroke-linecap:square;stroke-linejoin:round;}
	.st6{fill:none;stroke:#000000;stroke-width:1.4;stroke-linejoin:round;stroke-miterlimit:10;}
	.st7{stroke:#000000;stroke-width:1.45;stroke-linejoin:round;stroke-miterlimit:10;}
	.st8{display:none;fill:none;stroke:#000000;stroke-width:1.45;stroke-linejoin:round;stroke-miterlimit:10;}
	.st9{fill:none;stroke:#000000;stroke-width:1.45;stroke-linejoin:round;}
	.st10{fill:#E0002D;stroke:#E0002D;stroke-width:1.45;stroke-linejoin:round;stroke-miterlimit:10;}
	.st11{fill:#227C7C;stroke:#227C7C;stroke-width:1.45;stroke-linejoin:round;stroke-miterlimit:10;}
	.st12{fill:none;stroke:#000000;stroke-width:1.45;stroke-linecap:square;stroke-miterlimit:10;}
	.st13{stroke:#000000;stroke-width:1.45;stroke-miterlimit:10;}
	.st14{fill:none;stroke:#000000;stroke-linejoin:round;stroke-miterlimit:10;}
	.st15{fill:#FFFFFF;}
	.st16{fill:#E6002E;stroke:#E6002E;stroke-width:1.45;stroke-linejoin:round;stroke-miterlimit:10;}
	.st17{fill:none;}
	.st18{opacity:0.4;fill:#6EA03C;}
	.st19{fill:none;stroke:#000000;stroke-width:1.45;stroke-linejoin:round;stroke-dasharray:3.8466,3.8466;}
	.st20{fill:none;stroke:#000000;stroke-width:3;stroke-linejoin:round;stroke-miterlimit:10;}
	.st21{opacity:0.4;fill:none;stroke:#000000;stroke-width:1.45;stroke-linejoin:round;stroke-miterlimit:10;}
	.st22{fill:none;stroke:#707070;stroke-width:2;stroke-linejoin:round;stroke-miterlimit:10;}
	.st23{fill:#333333;}
	.st24{fill:#D6002B;}
	.st25{stroke:#000000;stroke-width:0.7;stroke-miterlimit:10;}
	.st26{fill:none;stroke:#000000;stroke-width:2;stroke-linejoin:round;stroke-miterlimit:10;}
	.st27{fill:none;stroke:#383838;stroke-width:1.45;stroke-linejoin:round;stroke-miterlimit:10;}
	.st28{fill:none;stroke:#1E1E1E;stroke-width:2;stroke-linejoin:round;stroke-miterlimit:10;}
	.st29{fill:none;stroke:#FFFFFF;stroke-width:2;stroke-linejoin:round;stroke-miterlimit:10;}
	.st30{fill:#757575;}
	.st31{fill:none;stroke:#FFFFFF;stroke-width:1.45;stroke-linejoin:round;stroke-miterlimit:10;}
</style>
<g id="cat-pg">
	<g>
		<path class="st30" d="M16.2,19.2c-0.2,0-0.4-0.1-0.5-0.2L11,14.3L6.3,19c-0.3,0.3-0.7,0.3-1,0L3,16.7c-0.3-0.3-0.3-0.7,0-1L7.7,11
			L3,6.3C2.7,6,2.7,5.6,3,5.3L5.3,3c0.3-0.3,0.7-0.3,1,0L11,7.7L15.7,3c0.3-0.3,0.7-0.3,1,0L19,5.3c0.3,0.3,0.3,0.7,0,1L14.3,11
			l4.7,4.7c0.3,0.3,0.3,0.7,0,1L16.7,19C16.6,19.2,16.4,19.2,16.2,19.2z M11,12.6c0.2,0,0.4,0.1,0.5,0.2l4.7,4.7l1.3-1.3l-4.7-4.7
			c-0.3-0.3-0.3-0.7,0-1l4.7-4.7l-1.3-1.3l-4.7,4.7c-0.3,0.3-0.7,0.3-1,0L5.8,4.5L4.5,5.8l4.7,4.7c0.3,0.3,0.3,0.7,0,1l-4.7,4.7
			l1.3,1.3l4.7-4.7C10.6,12.7,10.8,12.6,11,12.6z"/>
	</g>
</g>
<g id="Guidelines">
</g>
</svg>
