<?xml version="1.0" encoding="utf-8"?>
<!-- Generator: Adobe Illustrator 26.0.3, SVG Export Plug-In . SVG Version: 6.00 Build 0)  -->
<svg version="1.1" xmlns="http://www.w3.org/2000/svg" xmlns:xlink="http://www.w3.org/1999/xlink" x="0px" y="0px" width="22px"
	 height="22px" viewBox="0 0 22 22" style="enable-background:new 0 0 22 22;" xml:space="preserve">
<style type="text/css">
	.st0{fill:none;stroke:#000000;stroke-width:1.45;stroke-linejoin:round;stroke-miterlimit:10;}
	.st1{fill:none;stroke:#000000;stroke-width:1.45;stroke-linecap:square;stroke-linejoin:round;stroke-miterlimit:10;}
	.st2{fill:none;stroke:#000000;stroke-width:1.45;stroke-linecap:round;stroke-linejoin:round;stroke-miterlimit:10;}
	.st3{fill:none;stroke:#000000;stroke-width:1.45;stroke-miterlimit:10;}
	.st4{fill:none;stroke:#000000;stroke-width:1.45;stroke-linecap:round;stroke-miterlimit:10;}
	.st5{fill:none;stroke:#000000;stroke-width:1.45;stroke-linecap:square;stroke-linejoin:round;}
	.st6{fill:none;stroke:#000000;stroke-width:1.4;stroke-linejoin:round;stroke-miterlimit:10;}
	.st7{stroke:#000000;stroke-width:1.45;stroke-linejoin:round;stroke-miterlimit:10;}
	.st8{display:none;fill:none;stroke:#000000;stroke-width:1.45;stroke-linejoin:round;stroke-miterlimit:10;}
	.st9{fill:none;stroke:#000000;stroke-width:1.45;stroke-linejoin:round;}
	.st10{fill:#E0002D;stroke:#E0002D;stroke-width:1.45;stroke-linejoin:round;stroke-miterlimit:10;}
	.st11{fill:#227C7C;stroke:#227C7C;stroke-width:1.45;stroke-linejoin:round;stroke-miterlimit:10;}
	.st12{fill:none;stroke:#000000;stroke-width:1.45;stroke-linecap:square;stroke-miterlimit:10;}
	.st13{stroke:#000000;stroke-width:1.45;stroke-miterlimit:10;}
	.st14{fill:none;stroke:#000000;stroke-linejoin:round;stroke-miterlimit:10;}
	.st15{fill:#FFFFFF;}
	.st16{fill:#E6002E;stroke:#E6002E;stroke-width:1.45;stroke-linejoin:round;stroke-miterlimit:10;}
	.st17{fill:none;}
	.st18{opacity:0.4;fill:#6EA03C;}
	.st19{fill:none;stroke:#000000;stroke-width:1.45;stroke-linejoin:round;stroke-dasharray:3.8466,3.8466;}
	.st20{fill:none;stroke:#000000;stroke-width:3;stroke-linejoin:round;stroke-miterlimit:10;}
	.st21{opacity:0.4;fill:none;stroke:#000000;stroke-width:1.45;stroke-linejoin:round;stroke-miterlimit:10;}
	.st22{fill:none;stroke:#707070;stroke-width:2;stroke-linejoin:round;stroke-miterlimit:10;}
	.st23{fill:#333333;}
	.st24{fill:#D6002B;}
	.st25{stroke:#000000;stroke-width:0.7;stroke-miterlimit:10;}
	.st26{fill:none;stroke:#000000;stroke-width:2;stroke-linejoin:round;stroke-miterlimit:10;}
	.st27{fill:none;stroke:#383838;stroke-width:1.45;stroke-linejoin:round;stroke-miterlimit:10;}
	.st28{fill:none;stroke:#1E1E1E;stroke-width:2;stroke-linejoin:round;stroke-miterlimit:10;}
	.st29{fill:none;stroke:#FFFFFF;stroke-width:2;stroke-linejoin:round;stroke-miterlimit:10;}
	.st30{fill:#757575;}
	.st31{fill:none;stroke:#FFFFFF;stroke-width:1.45;stroke-linejoin:round;stroke-miterlimit:10;}
</style>
<g id="cat-pg">
	<g>
		<polygon points="3.5,11.4 5.3,9.7 8.8,13.2 16.7,5.3 18.5,7 8.8,16.7 		"/>
		<path d="M8.8,17.5c-0.2,0-0.4-0.1-0.5-0.2L3,12c-0.3-0.3-0.3-0.7,0-1l1.8-1.8c0.3-0.3,0.7-0.3,1,0l3,3l7.4-7.4
			c0.3-0.3,0.7-0.3,1,0L19,6.5c0.3,0.3,0.3,0.7,0,1l-9.7,9.7C9.2,17.4,9,17.5,8.8,17.5z M4.5,11.4l4.3,4.3L17.5,7l-0.7-0.7l-7.4,7.4
			c-0.3,0.3-0.7,0.3-1,0l-3-3L4.5,11.4z"/>
	</g>
</g>
<g id="Guidelines">
</g>
</svg>
