<?xml version="1.0" encoding="utf-8"?>
<!-- Generator: Adobe Illustrator 28.1.0, SVG Export Plug-In . SVG Version: 6.00 Build 0)  -->
<svg version="1.1" id="Layer_1" xmlns="http://www.w3.org/2000/svg" xmlns:xlink="http://www.w3.org/1999/xlink" x="0px" y="0px"
	 width="220px" height="240px" viewBox="0 0 220 240" style="enable-background:new 0 0 220 240;" xml:space="preserve">
<style type="text/css">
	.st0{clip-path:url(#SVGID_00000131352529137284210940000009356226282287989417_);}
	.st1{fill:#FFA583;}
</style>
<g>
	<defs>
		<rect id="SVGID_1_" y="0" width="220" height="240"/>
	</defs>
	<clipPath id="SVGID_00000098180530770776461050000015288060457772659132_">
		<use xlink:href="#SVGID_1_"  style="overflow:visible;"/>
	</clipPath>
	<g style="clip-path:url(#SVGID_00000098180530770776461050000015288060457772659132_);">
		<path class="st1" d="M102.5,207.5v25c0,4.1,3.4,7.5,7.5,7.5s7.5-3.4,7.5-7.5v-25c0-4.1-3.4-7.5-7.5-7.5S102.5,203.4,102.5,207.5
			 M117.5,32.5v-25c0-4.1-3.4-7.5-7.5-7.5s-7.5,3.4-7.5,7.5v25c0,4.1,3.4,7.5,7.5,7.5S117.5,36.6,117.5,32.5 M140,120
			c0-16.6-13.4-30-30-30s-30,13.4-30,30s13.4,30,30,30S140,136.6,140,120 M162.5,120c0,29-23.5,52.5-52.5,52.5S57.5,149,57.5,120
			S81,67.5,110,67.5S162.5,91,162.5,120 M220,120c0-4.1-3.4-7.5-7.5-7.5h-32.9C175.9,77.4,146.1,50,110,50s-65.8,27.4-69.6,62.5H7.5
			c-4.1,0-7.5,3.4-7.5,7.5s3.4,7.5,7.5,7.5h32.9C44.2,162.6,73.9,190,110,190s65.8-27.4,69.6-62.5h32.9
			C216.6,127.5,220,124.1,220,120"/>
	</g>
</g>
</svg>
