<?xml version="1.0" encoding="utf-8"?>
<!-- Generator: Adobe Illustrator 24.2.3, SVG Export Plug-In . SVG Version: 6.00 Build 0)  -->
<svg version="1.1" id="Layer_1" xmlns="http://www.w3.org/2000/svg" xmlns:xlink="http://www.w3.org/1999/xlink" x="0px" y="0px"
	 viewBox="0 0 32 32" style="enable-background:new 0 0 32 32;" xml:space="preserve">
<style type="text/css">
	.st0{fill:#B93156;}
	.st1{fill:#BC3157;}
	.st2{fill:#B83156;}
	.st3{fill:#B83155;}
	.st4{fill:#AE2E51;}
	.st5{fill:#AF2E52;}
	.st6{fill:#B42F54;}
	.st7{fill:#902643;}
	.st8{fill:#9C2848;}
	.st9{fill:#A92C4E;}
	.st10{fill:#AD2E50;}
	.st11{fill:#A52B4D;}
	.st12{fill:#A22B4C;}
	.st13{fill:#A92D4F;}
	.st14{fill:#A72C4E;}
	.st15{fill:#882340;}
	.st16{fill:#8E2442;}
	.st17{fill:#A02A4A;}
	.st18{fill:#9F294A;}
	.st19{fill:#9E294A;}
	.st20{fill:#942645;}
	.st21{fill:#A12A4B;}
	.st22{fill:#80213C;}
	.st23{fill:#8A2440;}
	.st24{fill:#9B2848;}
	.st25{fill:#932644;}
	.st26{fill:#972847;}
</style>
<polyline class="st0" points="0,8 8,8 8,0 "/>
<polyline class="st1" points="8,0 0,0 0,8 "/>
<polyline class="st2" points="8,8 16,8 16,0 "/>
<polyline class="st3" points="16,0 8,0 8,8 "/>
<polyline class="st4" points="16,0 16,8 24,8 "/>
<polyline class="st5" points="24,8 24,0 16,0 "/>
<polyline class="st6" points="0,16 8,16 8,8 "/>
<polyline class="st0" points="8,8 0,8 0,16 "/>
<polyline class="st7" points="24,16 32,16 32,8 "/>
<polyline class="st8" points="32,8 24,8 24,16 "/>
<polyline class="st9" points="8,8 16,8 16,16 "/>
<polyline class="st10" points="16,16 8,16 8,8 "/>
<polyline class="st11" points="16,8 24,8 24,16 "/>
<polyline class="st12" points="24,16 16,16 16,8 "/>
<polyline class="st13" points="0,16 8,16 8,24 "/>
<polyline class="st14" points="8,24 0,24 0,16 "/>
<polyline class="st15" points="24,24 32,24 32,16 "/>
<polyline class="st16" points="32,16 24,16 24,24 "/>
<polyline class="st17" points="8,24 8,16 16,16 "/>
<polyline class="st18" points="16,16 16,24 8,24 "/>
<polyline class="st19" points="16,24 16,16 24,16 "/>
<polyline class="st20" points="24,16 24,24 16,24 "/>
<polyline class="st21" points="0,24 8,24 8,32 "/>
<polyline class="st21" points="8,32 0,32 0,24 "/>
<polyline class="st22" points="32,24 32,32 24,32 "/>
<polyline class="st23" points="24,32 24,24 32,24 "/>
<polyline class="st24" points="8,24 16,24 16,32 "/>
<polyline class="st25" points="16,32 8,32 8,24 "/>
<polyline class="st21" points="32,8 32,0 24,0 "/>
<polyline class="st17" points="24,0 24,8 32,8 "/>
<polyline class="st26" points="16,32 16,24 24,24 "/>
<polyline class="st7" points="24,24 24,32 16,32 "/>
</svg>
