<?xml version="1.0" encoding="utf-8"?>
<!-- Generator: Adobe Illustrator 24.2.3, SVG Export Plug-In . SVG Version: 6.00 Build 0)  -->
<svg version="1.1" id="Layer_1" xmlns="http://www.w3.org/2000/svg" xmlns:xlink="http://www.w3.org/1999/xlink" x="0px" y="0px"
	 viewBox="0 0 32 32" style="enable-background:new 0 0 32 32;" xml:space="preserve">
<style type="text/css">
	.st0{fill:url(#SVGID_1_);}
	.st1{fill:#84AAA6;}
	.st2{fill:#86ACA8;}
	.st3{fill:#83A9A5;}
	.st4{fill:#7DA39F;}
	.st5{fill:#7EA4A0;}
	.st6{fill:#81A7A3;}
	.st7{fill:#6A918C;}
	.st8{fill:#729893;}
	.st9{fill:#7AA09B;}
	.st10{fill:#7CA29E;}
	.st11{fill:#789E9A;}
	.st12{fill:#769C98;}
	.st13{fill:#7AA09C;}
	.st14{fill:#799F9B;}
	.st15{fill:#658C87;}
	.st16{fill:#69908B;}
	.st17{fill:#749A96;}
	.st18{fill:#739A95;}
	.st19{fill:#739995;}
	.st20{fill:#6D938F;}
	.st21{fill:#759B97;}
	.st22{fill:#759C97;}
	.st23{fill:#608782;}
	.st24{fill:#668D88;}
	.st25{fill:#719893;}
	.st26{fill:#6C938E;}
	.st27{fill:#6F9691;}
</style>
<linearGradient id="SVGID_1_" gradientUnits="userSpaceOnUse" x1="0" y1="16" x2="32" y2="16">
	<stop  offset="0" style="stop-color:#86ACA8"/>
	<stop  offset="1" style="stop-color:#608782"/>
</linearGradient>
<rect y="0" class="st0" width="32" height="32"/>
<g>
	<polyline class="st1" points="0,8 8,8 8,0 	"/>
	<polyline class="st2" points="8,0 0,0 0,8 	"/>
	<g>
		<polyline class="st1" points="8,8 16,8 16,0 		"/>
	</g>
	<polyline class="st3" points="16,0 8,0 8,8 	"/>
	<polyline class="st4" points="16,0 16,8 24,8 	"/>
	<polyline class="st5" points="24,8 24,0 16,0 	"/>
	<polyline class="st6" points="0,16 8,16 8,8 	"/>
	<polyline class="st1" points="8,8 0,8 0,16 	"/>
	<polyline class="st7" points="24,16 32,16 32,8 	"/>
	<polyline class="st8" points="32,8 24,8 24,16 	"/>
	<polyline class="st9" points="8,8 16,8 16,16 	"/>
	<polyline class="st10" points="16,16 8,16 8,8 	"/>
	<polyline class="st11" points="16,8 24,8 24,16 	"/>
	<polyline class="st12" points="24,16 16,16 16,8 	"/>
	<polyline class="st13" points="0,16 8,16 8,24 	"/>
	<polyline class="st14" points="8,24 0,24 0,16 	"/>
	<polyline class="st15" points="24,24 32,24 32,16 	"/>
	<polyline class="st16" points="32,16 24,16 24,24 	"/>
	<polyline class="st17" points="8,24 8,16 16,16 	"/>
	<polyline class="st18" points="16,16 16,24 8,24 	"/>
	<polyline class="st19" points="16,24 16,16 24,16 	"/>
	<polyline class="st20" points="24,16 24,24 16,24 	"/>
	<polyline class="st21" points="0,24 8,24 8,32 	"/>
	<polyline class="st22" points="8,32 0,32 0,24 	"/>
	<polyline class="st23" points="32,24 32,32 24,32 	"/>
	<polyline class="st24" points="24,32 24,24 32,24 	"/>
	<polyline class="st25" points="8,24 16,24 16,32 	"/>
	<polyline class="st26" points="16,32 8,32 8,24 	"/>
	<polyline class="st22" points="32,8 32,0 24,0 	"/>
	<polyline class="st17" points="24,0 24,8 32,8 	"/>
	<polyline class="st27" points="16,32 16,24 24,24 	"/>
	<polyline class="st7" points="24,24 24,32 16,32 	"/>
</g>
</svg>
