<?xml version="1.0" encoding="utf-8"?>
<!-- Generator: Adobe Illustrator 24.2.3, SVG Export Plug-In . SVG Version: 6.00 Build 0)  -->
<svg version="1.1" id="Layer_1" xmlns="http://www.w3.org/2000/svg" xmlns:xlink="http://www.w3.org/1999/xlink" x="0px" y="0px"
	 viewBox="0 0 32 32" style="enable-background:new 0 0 32 32;" xml:space="preserve">
<style type="text/css">
	.st0{fill:#6D80B5;}
	.st1{fill:#6F83B7;}
	.st2{fill:#6D80B4;}
	.st3{fill:#6C7FB3;}
	.st4{fill:#6578AC;}
	.st5{fill:#6679AD;}
	.st6{fill:#697DB1;}
	.st7{fill:#506294;}
	.st8{fill:#586B9D;}
	.st9{fill:#6174A7;}
	.st10{fill:#6477AB;}
	.st11{fill:#5F72A5;}
	.st12{fill:#5D70A3;}
	.st13{fill:#6274A8;}
	.st14{fill:#6073A6;}
	.st15{fill:#4A5C8E;}
	.st16{fill:#4F6193;}
	.st17{fill:#5B6DA0;}
	.st18{fill:#5A6DA0;}
	.st19{fill:#5A6C9F;}
	.st20{fill:#536597;}
	.st21{fill:#5C6EA1;}
	.st22{fill:#445687;}
	.st23{fill:#4B5D8F;}
	.st24{fill:#586A9D;}
	.st25{fill:#526496;}
	.st26{fill:#5D6FA2;}
	.st27{fill:#55689A;}
</style>
<polyline class="st0" points="0,8 8,8 8,0 "/>
<polyline class="st1" points="8,0 0,0 0,8 "/>
<polyline class="st2" points="8,8 16,8 16,0 "/>
<polyline class="st3" points="16,0 8,0 8,8 "/>
<polyline class="st4" points="16,0 16,8 24,8 "/>
<polyline class="st5" points="24,8 24,0 16,0 "/>
<polyline class="st6" points="0,16 8,16 8,8 "/>
<polyline class="st0" points="8,8 0,8 0,16 "/>
<polyline class="st7" points="24,16 32,16 32,8 "/>
<polyline class="st8" points="32,8 24,8 24,16 "/>
<polyline class="st9" points="8,8 16,8 16,16 "/>
<polyline class="st10" points="16,16 8,16 8,8 "/>
<polyline class="st11" points="16,8 24,8 24,16 "/>
<polyline class="st12" points="24,16 16,16 16,8 "/>
<polyline class="st13" points="0,16 8,16 8,24 "/>
<polyline class="st14" points="8,24 0,24 0,16 "/>
<polyline class="st15" points="24,24 32,24 32,16 "/>
<polyline class="st16" points="32,16 24,16 24,24 "/>
<polyline class="st17" points="8,24 8,16 16,16 "/>
<polyline class="st18" points="16,16 16,24 8,24 "/>
<polyline class="st19" points="16,24 16,16 24,16 "/>
<polyline class="st20" points="24,16 24,24 16,24 "/>
<polyline class="st21" points="0,24 8,24 8,32 "/>
<polyline class="st21" points="8,32 0,32 0,24 "/>
<polyline class="st22" points="32,24 32,32 24,32 "/>
<polyline class="st23" points="24,32 24,24 32,24 "/>
<polyline class="st24" points="8,24 16,24 16,32 "/>
<polyline class="st25" points="16,32 8,32 8,24 "/>
<polyline class="st26" points="32,8 32,0 24,0 "/>
<polyline class="st17" points="24,0 24,8 32,8 "/>
<polyline class="st27" points="16,32 16,24 24,24 "/>
<polyline class="st7" points="24,24 24,32 16,32 "/>
</svg>
