<?xml version="1.0" encoding="UTF-8"?><svg id="Layer_1" xmlns="http://www.w3.org/2000/svg" viewBox="0 0 33.19 33.19"><defs><style>.cls-1{fill:#71af7a;}.cls-1,.cls-2,.cls-3,.cls-4,.cls-5,.cls-6,.cls-7,.cls-8,.cls-9,.cls-10,.cls-11,.cls-12,.cls-13,.cls-14,.cls-15,.cls-16,.cls-17,.cls-18,.cls-19,.cls-20,.cls-21,.cls-22,.cls-23,.cls-24,.cls-25,.cls-26,.cls-27{stroke-width:0px;}.cls-2{fill:#5f9d68;}.cls-3{fill:#5e9c67;}.cls-4{fill:#609e69;}.cls-5{fill:#82c08b;}.cls-6{fill:#74b27e;}.cls-7{fill:#4a8853;}.cls-8{fill:#518f5a;}.cls-9{fill:#80be8a;}.cls-10{fill:#33743e;}.cls-11{fill:#4d8b56;}.cls-12{fill:#5b9964;}.cls-13{fill:#53915d;}.cls-14{fill:#70ad79;}.cls-15{fill:#70ae7a;}.cls-16{fill:#7fbc87;}.cls-17{fill:#3a7a44;}.cls-18{fill:#599662;}.cls-19{fill:#579561;}.cls-20{fill:#41804b;}.cls-21{fill:#8fcd99;}.cls-22{fill:#64a26d;}.cls-23{fill:#7ebb86;}.cls-24{fill:#8ac893;}.cls-25{fill:#fefefe;}.cls-26{fill:#66a470;}.cls-27{fill:#68a571;}</style></defs><path class="cls-3" d="m10.76,33.19h-4.88c-.18-.13-.19-.33-.19-.52.02-1.74-.07-3.49.05-5.23,0-.05,0-.11,0-.16-.13-2.74-.03-5.48-.06-8.22,0-.73-.04-1.46.03-2.19.04-.11.1-.2.24-.2.21.06.37.2.53.36,3.22,3.22,6.44,6.45,9.67,9.67.18.18.31.38.45.59.01.04.01.08,0,.12-.16.27-.37.51-.59.73-1.49,1.49-2.99,2.98-4.47,4.47-.24.24-.48.45-.79.57Z"/><path class="cls-17" d="m32.12,33.19h-4.88c-.14-.11-.18-.27-.18-.44-.02-1.6-.01-3.21,0-4.81,0-.14.05-.27.06-.41,0-.05,0-.09.01-.14.12-.28.32-.51.53-.72,1.62-1.62,3.24-3.25,4.87-4.87.16-.16.31-.36.57-.32.07.06.06.13.06.2,0,3.44,0,6.89,0,10.33-.1.61-.52.93-1.03,1.17Z"/><path class="cls-5" d="m0,16.63v-4.88c.13-.31.33-.56.57-.8,1.54-1.52,3.06-3.06,4.6-4.58.2-.2.38-.48.74-.42.04.04.06.08.07.12.07.27.08.54.08.82,0,2.97,0,5.94,0,8.91,0,.26.04.53-.1.77-.03.04-.07.08-.12.11-.16.14-.36.13-.55.13-1.56,0-3.13,0-4.69,0-.22,0-.45.02-.6-.19Z"/><path class="cls-15" d="m0,16.63h5.88s.03.04.02.06c0,.02-.01.03-.02.03v10.59s-.07.04-.11.04c-.25-.12-.45-.3-.65-.5-1.51-1.52-3.03-3.04-4.55-4.55-.24-.23-.45-.48-.57-.79v-4.88Z"/><path class="cls-7" d="m27.23,27.31v.08c-.12.31-.34.56-.57.79-1.48,1.47-2.96,2.95-4.43,4.43-.23.24-.48.45-.79.57h-4.88c-.18-.13-.18-.33-.19-.52-.01-1.54,0-3.07,0-4.61,0-.24.07-.46.19-.66v-.08s.04-.04.05-.06c.05-.03.1-.05.15-.06.26-.05.52-.08.78-.08,2.96,0,5.93,0,8.89,0,.26,0,.53-.05.76.12.02.02.03.05.05.07Z"/><path class="cls-24" d="m5.88,5.96h-.08c-.23.14-.48.19-.75.19-1.48,0-2.96,0-4.44,0-.22,0-.45.02-.6-.19V1.08C.24.56.56.15,1.16.04c1.43,0,2.86,0,4.29,0,.15,0,.3-.03.45.03.16.13.16.31.16.49.01,1.64.01,3.28,0,4.92,0,.15,0,.31-.12.43-.02.02-.05.03-.07.05Z"/><path class="cls-26" d="m5.8,27.31h.08v.08c-.12.31-.34.56-.57.79-1.48,1.47-2.96,2.95-4.43,4.43-.23.24-.48.45-.79.57-.07.02-.09-.01-.08-.08,0-.87,0-1.74,0-2.61v-3.19c.13-.18.33-.18.52-.19,1.54-.01,3.07,0,4.61,0,.24,0,.46.07.66.19Z"/><path class="cls-23" d="m0,5.96h5.79c.01.07-.05.09-.09.13-1.86,1.86-3.72,3.72-5.58,5.58-.04.04-.06.1-.13.09v-5.79Z"/><path class="cls-6" d="m5.8,27.31H0v-5.79c.07-.01.09.05.13.09,1.86,1.86,3.72,3.72,5.58,5.58.04.04.1.06.09.13Z"/><path class="cls-4" d="m.08,33.19c-.01-.07.05-.09.09-.13,1.86-1.86,3.72-3.72,5.58-5.58.04-.04.06-.1.13-.09v5.79H.08Z"/><path class="cls-8" d="m16.56,27.39v5.79h-5.79c-.01-.07.05-.09.09-.13,1.86-1.86,3.72-3.72,5.58-5.58.04-.04.06-.1.13-.09Z"/><path class="cls-20" d="m21.44,33.19c-.01-.07.05-.09.09-.13,1.86-1.86,3.72-3.72,5.58-5.58.04-.04.06-.1.13-.09v5.79h-5.79Z"/><path class="cls-25" d="m5.88.08H1C.66.25.33.4,0,.08,0,.06,0,0,0,0,.13,0,.25,0,.37,0h32.82v32.81c0,.12,0,.25,0,.37,0,0-.05,0-.08,0-.31-.33-.17-.66,0-.99v-10.68c-.18-.11-.18-.3-.18-.47,0-1.47-.03-2.94.02-4.4-.06-1.63,0-3.26-.03-4.89.06-.17.02-.35.02-.53,0-1.75-.04-3.5.01-5.24-.05-1.7-.01-3.41-.03-5.11,0-.16.05-.33-.08-.47-.17-.16-.39-.11-.59-.11-1.68-.02-3.36.03-5.04-.03-1.8.04-3.6.04-5.4,0-.13,0-.25,0-.37.04-1.63-.04-3.26.03-4.89-.03-1.81.04-3.62.04-5.43,0-.13,0-.24.01-.36.04-1.4-.03-2.8,0-4.2-.01-.24,0-.5.04-.69-.19Z"/><path class="cls-21" d="m0,.08h.99C.7.45.37.78,0,1.08V.08Z"/><path class="cls-10" d="m33.11,32.19v.99h-.99c.3-.37.63-.7.99-.99Z"/><path class="cls-22" d="m5.88,16.72v-.08c.21-.25.5-.19.77-.19,2.93,0,5.87,0,8.8,0,.15,0,.3,0,.45,0,.23.01.47.03.68.15.16.17.16.38.16.58,0,3.14,0,6.29,0,9.43,0,.25-.01.5-.19.7-.13-.05-.21-.17-.3-.26-3.36-3.35-6.71-6.71-10.07-10.07-.09-.09-.17-.21-.3-.26Z"/><path class="cls-11" d="m33.11,16.63v4.88c-.13.05-.21.17-.3.26-1.76,1.75-3.51,3.51-5.27,5.26-.09.09-.17.21-.3.26-.25-.21-.19-.5-.19-.77,0-2.88,0-5.75,0-8.63,0-.4,0-.8.09-1.19.02-.05.04-.1.08-.14.18-.14.39-.13.59-.13,1.57,0,3.13,0,4.7,0,.22,0,.45-.02.6.19Z"/><path class="cls-6" d="m16.56,16.63H5.88V5.96s.07-.04.11-.04c.24.12.43.28.62.47,3.17,3.18,6.35,6.35,9.52,9.52.19.19.35.38.47.62,0,.02,0,.04,0,.06-.01.02-.02.03-.03.05Z"/><path class="cls-19" d="m27.23,16.63v.08c-.12.31-.34.56-.57.79-3.08,3.07-6.16,6.15-9.23,9.23-.24.24-.48.45-.79.57h-.08v-10.68c.21-.25.5-.19.77-.19,3.03,0,6.07,0,9.1,0,.12,0,.25,0,.37,0,.14,0,.28.01.39.11.02.02.03.05.05.07Z"/><path class="cls-8" d="m16.64,27.31c0-.08.07-.11.12-.16,3.44-3.44,6.88-6.88,10.32-10.32.05-.05.07-.12.16-.12v10.59h-10.59Z"/><path class="cls-9" d="m5.96,5.96h-.08V.08h4.88c.33.13.58.35.82.6,1.5,1.51,3.01,3.02,4.52,4.52.19.19.35.38.44.6,0,.18-.07.26-.2.31-.19.04-.38.04-.58.04-2.98,0-5.95,0-8.93,0-.31,0-.61-.02-.87-.19Z"/><path class="cls-13" d="m33.11,16.63h-5.88c-.25-.21-.19-.5-.19-.77,0-3.03,0-6.06,0-9.09,0-.22,0-.44.04-.66.02-.04.04-.09.07-.13.02-.02.03-.03.05-.05.02,0,.04-.02.06-.03.27.04.46.23.64.41,1.61,1.6,3.21,3.21,4.82,4.81.18.18.28.4.4.62v4.88Z"/><path class="cls-14" d="m16.56.08h4.88c.31.12.56.34.79.57,1.51,1.52,3.03,3.04,4.55,4.55.19.19.37.4.5.65,0,.04-.02.08-.04.11-.21.25-.5.19-.77.19-2.89,0-5.78,0-8.67,0-.26,0-.52,0-.78,0-.17,0-.33-.02-.45-.16-.17-.39-.19-.79-.19-1.21,0-1.35,0-2.7,0-4.04,0-.23-.03-.48.19-.65Z"/><path class="cls-2" d="m27.23,5.96v-.08c-.14-.23-.19-.48-.19-.75,0-1.48,0-2.96,0-4.44,0-.22-.02-.45.19-.6,1.87,0,3.74,0,5.61,0,.09,0,.22-.08.27.08-.12.31-.34.56-.57.79-1.53,1.52-3.06,3.05-4.58,4.58-.18.18-.37.37-.64.42h-.08Z"/><path class="cls-16" d="m16.56.08v5.88s-.03.01-.04.02c-.01,0-.03-.01-.04-.02-.01-.05.02-.11-.03-.15-.08-.07-.16-.15-.23-.23-1.73-1.73-3.46-3.46-5.19-5.19-.09-.09-.21-.17-.26-.3h5.79Z"/><path class="cls-1" d="m27.23.08v5.79c-.07.01-.09-.05-.13-.09-1.86-1.86-3.72-3.72-5.58-5.58-.04-.04-.1-.06-.09-.13h5.79Z"/><path class="cls-12" d="m27.31,5.96c-.01-.07.05-.09.09-.13,1.86-1.86,3.72-3.72,5.58-5.58.04-.04.06-.1.13-.09v5.79c-.13.18-.33.18-.52.19-1.54.01-3.07,0-4.61,0-.24,0-.46-.07-.66-.19Z"/><path class="cls-18" d="m27.31,5.96h5.79v5.79c-.07.01-.09-.05-.13-.09-1.86-1.86-3.72-3.72-5.58-5.58-.04-.04-.1-.06-.09-.13Z"/><path class="cls-27" d="m16.56,5.96h10.68v10.68h-10.68v-.08c-.14-.23-.19-.48-.19-.75,0-3.07,0-6.13,0-9.2,0-.23-.03-.48.19-.65Z"/><path class="cls-14" d="m16.56,5.96v10.59c-.08,0-.11-.07-.16-.12-3.44-3.44-6.88-6.88-10.32-10.32-.05-.05-.12-.07-.12-.16h10.59Z"/></svg>