<?xml version="1.0" encoding="utf-8"?>
<!-- Generator: Adobe Illustrator 24.2.3, SVG Export Plug-In . SVG Version: 6.00 Build 0)  -->
<svg version="1.1" xmlns="http://www.w3.org/2000/svg" xmlns:xlink="http://www.w3.org/1999/xlink" x="0px" y="0px"
	 viewBox="0 0 32 32" style="enable-background:new 0 0 32 32;" xml:space="preserve">
<style type="text/css">
	.st0{fill:url(#SVGID_1_);}
	.st1{fill:#B93156;}
	.st2{fill:#BC3157;}
	.st3{fill:#B83156;}
	.st4{fill:#B83155;}
	.st5{fill:#AE2E51;}
	.st6{fill:#AF2E52;}
	.st7{fill:#B42F54;}
	.st8{fill:#902643;}
	.st9{fill:#9C2848;}
	.st10{fill:#A92C4E;}
	.st11{fill:#AD2E50;}
	.st12{fill:#A52B4D;}
	.st13{fill:#A22B4C;}
	.st14{fill:#A92D4F;}
	.st15{fill:#A72C4E;}
	.st16{fill:#882340;}
	.st17{fill:#8E2442;}
	.st18{fill:#A02A4A;}
	.st19{fill:#9F294A;}
	.st20{fill:#9E294A;}
	.st21{fill:#942645;}
	.st22{fill:#A12A4B;}
	.st23{fill:#80213C;}
	.st24{fill:#8A2440;}
	.st25{fill:#9B2848;}
	.st26{fill:#932644;}
	.st27{fill:#972847;}
</style>
<g id="Ebene_2">
	<linearGradient id="SVGID_1_" gradientUnits="userSpaceOnUse" x1="0" y1="16" x2="32" y2="16">
		<stop  offset="0" style="stop-color:#BC3157"/>
		<stop  offset="1" style="stop-color:#80213C"/>
	</linearGradient>
	<rect y="0" class="st0" width="32" height="32"/>
</g>
<g id="Layer_1">
	<polyline class="st1" points="0,8 8,8 8,0 	"/>
	<polyline class="st2" points="8,0 0,0 0,8 	"/>
	<polyline class="st3" points="8,8 16,8 16,0 	"/>
	<polyline class="st4" points="16,0 8,0 8,8 	"/>
	<polyline class="st5" points="16,0 16,8 24,8 	"/>
	<polyline class="st6" points="24,8 24,0 16,0 	"/>
	<polyline class="st7" points="0,16 8,16 8,8 	"/>
	<polyline class="st1" points="8,8 0,8 0,16 	"/>
	<polyline class="st8" points="24,16 32,16 32,8 	"/>
	<polyline class="st9" points="32,8 24,8 24,16 	"/>
	<polyline class="st10" points="8,8 16,8 16,16 	"/>
	<polyline class="st11" points="16,16 8,16 8,8 	"/>
	<polyline class="st12" points="16,8 24,8 24,16 	"/>
	<polyline class="st13" points="24,16 16,16 16,8 	"/>
	<polyline class="st14" points="0,16 8,16 8,24 	"/>
	<polyline class="st15" points="8,24 0,24 0,16 	"/>
	<polyline class="st16" points="24,24 32,24 32,16 	"/>
	<polyline class="st17" points="32,16 24,16 24,24 	"/>
	<polyline class="st18" points="8,24 8,16 16,16 	"/>
	<polyline class="st19" points="16,16 16,24 8,24 	"/>
	<polyline class="st20" points="16,24 16,16 24,16 	"/>
	<polyline class="st21" points="24,16 24,24 16,24 	"/>
	<polyline class="st22" points="0,24 8,24 8,32 	"/>
	<polyline class="st22" points="8,32 0,32 0,24 	"/>
	<polyline class="st23" points="32,24 32,32 24,32 	"/>
	<polyline class="st24" points="24,32 24,24 32,24 	"/>
	<polyline class="st25" points="8,24 16,24 16,32 	"/>
	<polyline class="st26" points="16,32 8,32 8,24 	"/>
	<polyline class="st22" points="32,8 32,0 24,0 	"/>
	<polyline class="st18" points="24,0 24,8 32,8 	"/>
	<polyline class="st27" points="16,32 16,24 24,24 	"/>
	<polyline class="st8" points="24,24 24,32 16,32 	"/>
</g>
</svg>
