<?xml version="1.0" encoding="utf-8"?>
<!-- Generator: Adobe Illustrator 24.2.3, SVG Export Plug-In . SVG Version: 6.00 Build 0)  -->
<svg version="1.1" id="Layer_1" xmlns="http://www.w3.org/2000/svg" xmlns:xlink="http://www.w3.org/1999/xlink" x="0px" y="0px"
	 viewBox="0 0 32 32" style="enable-background:new 0 0 32 32;" xml:space="preserve">
<style type="text/css">
	.st0{fill:#64959C;}
	.st1{fill:#65979E;}
	.st2{fill:#64959B;}
	.st3{fill:#63939A;}
	.st4{fill:#5F8D94;}
	.st5{fill:#5F8E94;}
	.st6{fill:#629198;}
	.st7{fill:#51797E;}
	.st8{fill:#578186;}
	.st9{fill:#5D8A90;}
	.st10{fill:#5E8D92;}
	.st11{fill:#5B878D;}
	.st12{fill:#5A858B;}
	.st13{fill:#5C888E;}
	.st14{fill:#4D7478;}
	.st15{fill:#50787D;}
	.st16{fill:#588489;}
	.st17{fill:#588388;}
	.st18{fill:#537C81;}
	.st19{fill:#59858A;}
	.st20{fill:#4A6E72;}
	.st21{fill:#4E7579;}
	.st22{fill:#568186;}
	.st23{fill:#527B80;}
	.st24{fill:#557F83;}
</style>
<polyline class="st0" points="0,8 8,8 8,0 "/>
<polyline class="st1" points="8,0 0,0 0,8 "/>
<polyline class="st2" points="8,8 16,8 16,0 "/>
<polyline class="st3" points="16,0 8,0 8,8 "/>
<polyline class="st4" points="16,0 16,8 24,8 "/>
<polyline class="st5" points="24,8 24,0 16,0 "/>
<polyline class="st6" points="0,16 8,16 8,8 "/>
<polyline class="st0" points="8,8 0,8 0,16 "/>
<polyline class="st7" points="24,16 32,16 32,8 "/>
<polyline class="st8" points="32,8 24,8 24,16 "/>
<polyline class="st9" points="8,8 16,8 16,16 "/>
<polyline class="st10" points="16,16 8,16 8,8 "/>
<polyline class="st11" points="16,8 24,8 24,16 "/>
<polyline class="st12" points="24,16 16,16 16,8 "/>
<polyline class="st9" points="0,16 8,16 8,24 "/>
<polyline class="st13" points="8,24 0,24 0,16 "/>
<polyline class="st14" points="24,24 32,24 32,16 "/>
<polyline class="st15" points="32,16 24,16 24,24 "/>
<polyline class="st16" points="8,24 8,16 16,16 "/>
<polyline class="st17" points="16,16 16,24 8,24 "/>
<polyline class="st17" points="16,24 16,16 24,16 "/>
<polyline class="st18" points="24,16 24,24 16,24 "/>
<polyline class="st19" points="0,24 8,24 8,32 "/>
<polyline class="st12" points="8,32 0,32 0,24 "/>
<polyline class="st20" points="32,24 32,32 24,32 "/>
<polyline class="st21" points="24,32 24,24 32,24 "/>
<polyline class="st22" points="8,24 16,24 16,32 "/>
<polyline class="st23" points="16,32 8,32 8,24 "/>
<polyline class="st12" points="32,8 32,0 24,0 "/>
<polyline class="st16" points="24,0 24,8 32,8 "/>
<polyline class="st24" points="16,32 16,24 24,24 "/>
<polyline class="st7" points="24,24 24,32 16,32 "/>
<image style="overflow:visible;" width="400" height="389" xlink:href="../../trianglify/f3_gruen3_trianglify_59A0A6_Moonstone.png"  transform="matrix(8.226223e-02 0 0 8.226223e-02 32.936 -9.918267e-06)">
</image>
</svg>
