<?xml version="1.0" encoding="utf-8"?>
<!-- Generator: Adobe Illustrator 24.2.3, SVG Export Plug-In . SVG Version: 6.00 Build 0)  -->
<svg version="1.1" xmlns="http://www.w3.org/2000/svg" xmlns:xlink="http://www.w3.org/1999/xlink" x="0px" y="0px"
	 viewBox="0 0 32 32" style="enable-background:new 0 0 32 32;" xml:space="preserve">
<style type="text/css">
	.st0{fill:url(#SVGID_1_);}
	.st1{fill:#E75154;}
	.st2{fill:#E85457;}
	.st3{fill:#E75254;}
	.st4{fill:#E44D4D;}
	.st5{fill:#E44E4E;}
	.st6{fill:#E65052;}
	.st7{fill:#E85355;}
	.st8{fill:#D93D39;}
	.st9{fill:#DD4440;}
	.st10{fill:#E24A4A;}
	.st11{fill:#E34C4D;}
	.st12{fill:#E14847;}
	.st13{fill:#DF4745;}
	.st14{fill:#E24B4A;}
	.st15{fill:#E14948;}
	.st16{fill:#D63933;}
	.st17{fill:#D83C37;}
	.st18{fill:#DE4543;}
	.st19{fill:#DE4442;}
	.st20{fill:#DA3F3B;}
	.st21{fill:#DF4644;}
	.st22{fill:#DF4744;}
	.st23{fill:#D2342E;}
	.st24{fill:#D63934;}
	.st25{fill:#DD4340;}
	.st26{fill:#DA3F3A;}
	.st27{fill:#DB423E;}
	.st28{fill:#D83D38;}
</style>
<g id="Ebene_2">
	<linearGradient id="SVGID_1_" gradientUnits="userSpaceOnUse" x1="0" y1="16" x2="32" y2="16">
		<stop  offset="0" style="stop-color:#E85457"/>
		<stop  offset="1" style="stop-color:#D2342E"/>
	</linearGradient>
	<rect y="0" class="st0" width="32" height="32"/>
</g>
<g id="Layer_1">
	<polyline class="st1" points="0,8 8,8 8,0 	"/>
	<polyline class="st2" points="8,0 0,0 0,8 	"/>
	<polyline class="st3" points="8,8 16,8 16,0 	"/>
	<polyline class="st1" points="16,0 8,0 8,8 	"/>
	<polyline class="st4" points="16,0 16,8 24,8 	"/>
	<polyline class="st5" points="24,8 24,0 16,0 	"/>
	<polyline class="st6" points="0,16 8,16 8,8 	"/>
	<polyline class="st7" points="8,8 0,8 0,16 	"/>
	<polyline class="st8" points="24,16 32,16 32,8 	"/>
	<polyline class="st9" points="32,8 24,8 24,16 	"/>
	<polyline class="st10" points="8,8 16,8 16,16 	"/>
	<polyline class="st11" points="16,16 8,16 8,8 	"/>
	<polyline class="st12" points="16,8 24,8 24,16 	"/>
	<polyline class="st13" points="24,16 16,16 16,8 	"/>
	<polyline class="st14" points="0,16 8,16 8,24 	"/>
	<polyline class="st15" points="8,24 0,24 0,16 	"/>
	<polyline class="st16" points="24,24 32,24 32,16 	"/>
	<polyline class="st17" points="32,16 24,16 24,24 	"/>
	<polyline class="st18" points="8,24 8,16 16,16 	"/>
	<polyline class="st18" points="16,16 16,24 8,24 	"/>
	<polyline class="st19" points="16,24 16,16 24,16 	"/>
	<polyline class="st20" points="24,16 24,24 16,24 	"/>
	<polyline class="st21" points="0,24 8,24 8,32 	"/>
	<polyline class="st22" points="8,32 0,32 0,24 	"/>
	<polyline class="st23" points="32,24 32,32 24,32 	"/>
	<polyline class="st24" points="24,32 24,24 32,24 	"/>
	<polyline class="st25" points="8,24 16,24 16,32 	"/>
	<polyline class="st26" points="16,32 8,32 8,24 	"/>
	<polyline class="st22" points="32,8 32,0 24,0 	"/>
	<polyline class="st18" points="24,0 24,8 32,8 	"/>
	<polyline class="st27" points="16,32 16,24 24,24 	"/>
	<polyline class="st28" points="24,24 24,32 16,32 	"/>
</g>
</svg>
