<?xml version="1.0" encoding="utf-8"?>
<!-- Generator: Adobe Illustrator 24.2.3, SVG Export Plug-In . SVG Version: 6.00 Build 0)  -->
<svg version="1.1" xmlns="http://www.w3.org/2000/svg" xmlns:xlink="http://www.w3.org/1999/xlink" x="0px" y="0px"
	 viewBox="0 0 32 32" style="enable-background:new 0 0 32 32;" xml:space="preserve">
<style type="text/css">
	.st0{fill:url(#SVGID_1_);}
	.st1{fill:#9A94A7;}
	.st2{fill:#9D97A9;}
	.st3{fill:#9A94A6;}
	.st4{fill:#9992A5;}
	.st5{fill:#918B9E;}
	.st6{fill:#928C9F;}
	.st7{fill:#9690A3;}
	.st8{fill:#797287;}
	.st9{fill:#827B90;}
	.st10{fill:#8D869A;}
	.st11{fill:#90899D;}
	.st12{fill:#8A8497;}
	.st13{fill:#888195;}
	.st14{fill:#8D879A;}
	.st15{fill:#8B8599;}
	.st16{fill:#726B80;}
	.st17{fill:#777085;}
	.st18{fill:#857F93;}
	.st19{fill:#857E92;}
	.st20{fill:#847D91;}
	.st21{fill:#7C758A;}
	.st22{fill:#868094;}
	.st23{fill:#878195;}
	.st24{fill:#6B657A;}
	.st25{fill:#736D82;}
	.st26{fill:#817B8F;}
	.st27{fill:#7B7489;}
	.st28{fill:#878194;}
	.st29{fill:#7F788D;}
	.st30{fill:#787286;}
</style>
<g id="Ebene_2">
	<linearGradient id="SVGID_1_" gradientUnits="userSpaceOnUse" x1="46.0353" y1="16" x2="46.5353" y2="16">
		<stop  offset="0" style="stop-color:#9D97A9"/>
		<stop  offset="1" style="stop-color:#6B657A"/>
	</linearGradient>
	<rect y="0" class="st0" width="32" height="32"/>
</g>
<g id="Layer_1">
	<polyline class="st1" points="0,8 8,8 8,0 	"/>
	<polyline class="st2" points="8,0 0,0 0,8 	"/>
	<polyline class="st3" points="8,8 16,8 16,0 	"/>
	<polyline class="st4" points="16,0 8,0 8,8 	"/>
	<polyline class="st5" points="16,0 16,8 24,8 	"/>
	<polyline class="st6" points="24,8 24,0 16,0 	"/>
	<polyline class="st7" points="0,16 8,16 8,8 	"/>
	<polyline class="st1" points="8,8 0,8 0,16 	"/>
	<polyline class="st8" points="24,16 32,16 32,8 	"/>
	<polyline class="st9" points="32,8 24,8 24,16 	"/>
	<polyline class="st10" points="8,8 16,8 16,16 	"/>
	<polyline class="st11" points="16,16 8,16 8,8 	"/>
	<polyline class="st12" points="16,8 24,8 24,16 	"/>
	<polyline class="st13" points="24,16 16,16 16,8 	"/>
	<polyline class="st14" points="0,16 8,16 8,24 	"/>
	<polyline class="st15" points="8,24 0,24 0,16 	"/>
	<polyline class="st16" points="24,24 32,24 32,16 	"/>
	<polyline class="st17" points="32,16 24,16 24,24 	"/>
	<polyline class="st18" points="8,24 8,16 16,16 	"/>
	<polyline class="st19" points="16,16 16,24 8,24 	"/>
	<polyline class="st20" points="16,24 16,16 24,16 	"/>
	<polyline class="st21" points="24,16 24,24 16,24 	"/>
	<polyline class="st22" points="0,24 8,24 8,32 	"/>
	<polyline class="st23" points="8,32 0,32 0,24 	"/>
	<polyline class="st24" points="32,24 32,32 24,32 	"/>
	<polyline class="st25" points="24,32 24,24 32,24 	"/>
	<polyline class="st26" points="8,24 16,24 16,32 	"/>
	<polyline class="st27" points="16,32 8,32 8,24 	"/>
	<polyline class="st28" points="32,8 32,0 24,0 	"/>
	<polyline class="st18" points="24,0 24,8 32,8 	"/>
	<polyline class="st29" points="16,32 16,24 24,24 	"/>
	<polyline class="st30" points="24,24 24,32 16,32 	"/>
</g>
</svg>
