<?xml version="1.0" encoding="utf-8"?>
<!-- Generator: Adobe Illustrator 24.2.3, SVG Export Plug-In . SVG Version: 6.00 Build 0)  -->
<svg version="1.1" id="Layer_1" xmlns="http://www.w3.org/2000/svg" xmlns:xlink="http://www.w3.org/1999/xlink" x="0px" y="0px"
	 viewBox="0 0 32 32" style="enable-background:new 0 0 32 32;" xml:space="preserve">
<style type="text/css">
	.st0{fill:url(#SVGID_1_);}
	.st1{fill:#91BF91;}
	.st2{fill:#94C294;}
	.st3{fill:#90BF91;}
	.st4{fill:#88B688;}
	.st5{fill:#84B385;}
	.st6{fill:#86B486;}
	.st7{fill:#8BBA8C;}
	.st8{fill:#639162;}
	.st9{fill:#709E6F;}
	.st10{fill:#7EAC7E;}
	.st11{fill:#82B183;}
	.st12{fill:#7AA97B;}
	.st13{fill:#77A577;}
	.st14{fill:#7EAD7F;}
	.st15{fill:#7CAB7C;}
	.st16{fill:#5A8859;}
	.st17{fill:#608E60;}
	.st18{fill:#73A274;}
	.st19{fill:#73A173;}
	.st20{fill:#72A072;}
	.st21{fill:#679566;}
	.st22{fill:#75A375;}
	.st23{fill:#76A576;}
	.st24{fill:#517F4F;}
	.st25{fill:#5B8A5B;}
	.st26{fill:#6F9D6E;}
	.st27{fill:#669465;}
	.st28{fill:#6B996B;}
	.st29{fill:#629061;}
</style>
<linearGradient id="SVGID_1_" gradientUnits="userSpaceOnUse" x1="0" y1="16" x2="32" y2="16">
	<stop  offset="0" style="stop-color:#94C294"/>
	<stop  offset="1" style="stop-color:#517F4F"/>
</linearGradient>
<rect y="0" class="st0" width="32" height="32"/>
<g>
	<polyline class="st1" points="0,8 8,8 8,0 	"/>
	<polyline class="st2" points="8,0 0,0 0,8 	"/>
	<g>
		<polyline class="st3" points="8,8 16,8 16,0 		"/>
	</g>
	<polyline class="st4" points="16,0 8,0 8,8 	"/>
	<polyline class="st5" points="16,0 16,8 24,8 	"/>
	<polyline class="st6" points="24,8 24,0 16,0 	"/>
	<polyline class="st7" points="0,16 8,16 8,8 	"/>
	<polyline class="st1" points="8,8 0,8 0,16 	"/>
	<polyline class="st8" points="24,16 32,16 32,8 	"/>
	<polyline class="st9" points="32,8 24,8 24,16 	"/>
	<polyline class="st10" points="8,8 16,8 16,16 	"/>
	<polyline class="st11" points="16,16 8,16 8,8 	"/>
	<polyline class="st12" points="16,8 24,8 24,16 	"/>
	<polyline class="st13" points="24,16 16,16 16,8 	"/>
	<polyline class="st14" points="0,16 8,16 8,24 	"/>
	<polyline class="st15" points="8,24 0,24 0,16 	"/>
	<polyline class="st16" points="24,24 32,24 32,16 	"/>
	<polyline class="st17" points="32,16 24,16 24,24 	"/>
	<polyline class="st18" points="8,24 8,16 16,16 	"/>
	<polyline class="st19" points="16,16 16,24 8,24 	"/>
	<polyline class="st20" points="16,24 16,16 24,16 	"/>
	<polyline class="st21" points="24,16 24,24 16,24 	"/>
	<polyline class="st22" points="0,24 8,24 8,32 	"/>
	<polyline class="st23" points="8,32 0,32 0,24 	"/>
	<polyline class="st24" points="32,24 32,32 24,32 	"/>
	<polyline class="st25" points="24,32 24,24 32,24 	"/>
	<polyline class="st26" points="8,24 16,24 16,32 	"/>
	<polyline class="st27" points="16,32 8,32 8,24 	"/>
	<polyline class="st23" points="32,8 32,0 24,0 	"/>
	<polyline class="st18" points="24,0 24,8 32,8 	"/>
	<polyline class="st28" points="16,32 16,24 24,24 	"/>
	<polyline class="st29" points="24,24 24,32 16,32 	"/>
</g>
</svg>
