<?xml version="1.0" encoding="utf-8"?>
<!-- Generator: Adobe Illustrator 15.0.2, SVG Export Plug-In . SVG Version: 6.00 Build 0)  -->
<!DOCTYPE svg PUBLIC "-//W3C//DTD SVG 1.1//EN" "http://www.w3.org/Graphics/SVG/1.1/DTD/svg11.dtd">
<svg version="1.1" id="Layer_1" xmlns="http://www.w3.org/2000/svg" xmlns:xlink="http://www.w3.org/1999/xlink" x="0px" y="0px"
	 width="32px" height="32px" viewBox="0 0 32 32" enable-background="new 0 0 32 32" xml:space="preserve">
<g>
	<g>
		<defs>
			<path id="SVGID_1_" d="M23.9,12.6v1.6H18.1v-1.6h-5.7l1.3,6.3H26.1l1.9-6.3H23.9z M5,11c-0.6,0-1,0.5-1,1c0,0.6,0.5,1,1,1h3.2
				l2.2,9.4H25l0.6-2H12.1l-2-9.5H5V11z"/>
		</defs>
		<use xlink:href="#SVGID_1_"  overflow="visible" fill="#64788D"/>
		<clipPath id="SVGID_2_">
			<use xlink:href="#SVGID_1_"  overflow="visible"/>
		</clipPath>
		<rect x="4" y="11" clip-path="url(#SVGID_2_)" fill="#64788D" width="24" height="11.5"/>
	</g>
</g>
<g>
	<g>
		<defs>
			<path id="SVGID_3_" d="M12.7,25.8c0,1.2,1,2.2,2.2,2.2c1.2,0,2.2-1,2.2-2.2s-1-2.2-2.2-2.2C13.7,23.6,12.7,24.6,12.7,25.8"/>
		</defs>
		<use xlink:href="#SVGID_3_"  overflow="visible" fill="#64788D"/>
		<clipPath id="SVGID_4_">
			<use xlink:href="#SVGID_3_"  overflow="visible"/>
		</clipPath>
		<rect x="12.7" y="23.6" clip-path="url(#SVGID_4_)" fill="#64788D" width="4.399" height="4.4"/>
	</g>
</g>
<g>
	<g>
		<defs>
			<path id="SVGID_5_" d="M19.4,25.8c0,1.2,1,2.2,2.199,2.2c1.2,0,2.2-1,2.2-2.2s-1-2.2-2.2-2.2C20.4,23.6,19.4,24.6,19.4,25.8"/>
		</defs>
		<use xlink:href="#SVGID_5_"  overflow="visible" fill="#64788D"/>
		<clipPath id="SVGID_6_">
			<use xlink:href="#SVGID_5_"  overflow="visible"/>
		</clipPath>
		<rect x="19.4" y="23.6" clip-path="url(#SVGID_6_)" fill="#64788D" width="4.399" height="4.4"/>
	</g>
</g>
<g>
	<g>
		<defs>
			<polygon id="SVGID_7_" points="25.5,6.8 22.7,6.8 22.7,4 19.3,4 19.3,6.8 16.5,6.8 16.5,10.2 19.3,10.2 19.3,13 22.7,13 
				22.7,10.2 25.5,10.2 			"/>
		</defs>
		<use xlink:href="#SVGID_7_"  overflow="visible" fill="#D6002B"/>
		<clipPath id="SVGID_8_">
			<use xlink:href="#SVGID_7_"  overflow="visible"/>
		</clipPath>
		<rect x="16.5" y="4" clip-path="url(#SVGID_8_)" fill="#D6002B" width="9" height="9"/>
	</g>
</g>
</svg>
