<?xml version="1.0" encoding="utf-8"?>
<!-- Generator: Adobe Illustrator 15.0.2, SVG Export Plug-In . SVG Version: 6.00 Build 0)  -->
<!DOCTYPE svg PUBLIC "-//W3C//DTD SVG 1.1//EN" "http://www.w3.org/Graphics/SVG/1.1/DTD/svg11.dtd">
<svg version="1.1" id="Ebene_1" xmlns="http://www.w3.org/2000/svg" xmlns:xlink="http://www.w3.org/1999/xlink" x="0px" y="0px"
	 width="400px" height="400px" viewBox="0 0 400 400" enable-background="new 0 0 400 400" xml:space="preserve">
<g>
	<g>
		<g>
			<g>
				<g>
					<path id="SVGID_4_" fill="#64788D" d="M29.193,31.848c0,0-7.693,0-7.693,7.693v323.75c0,0,0,7.709,7.693,7.709h262.083
						c0,0,7.725,0,7.725-7.709V39.542c0,0,0-7.693-7.725-7.693L29.193,31.848L29.193,31.848z"/>
				</g>
				<g>
					<g>
						<defs>
							<path id="SVGID_6_" d="M29.193,31.848c0,0-7.693,0-7.693,7.693v323.75c0,0,0,7.709,7.693,7.709h262.083
								c0,0,7.725,0,7.725-7.709V39.542c0,0,0-7.693-7.725-7.693L29.193,31.848L29.193,31.848z"/>
						</defs>
						<clipPath id="SVGID_8_">
							<use xlink:href="#SVGID_6_"  overflow="visible"/>
						</clipPath>
						<rect x="21.5" y="31.848" clip-path="url(#SVGID_8_)" fill="#64788D" width="277.5" height="339.152"/>
					</g>
				</g>
			</g>
		</g>
	</g>
	<rect x="52.333" y="62.667" fill="#FFFFFF" width="215.833" height="277.5"/>
	<g>
		<g>
			<g>
				<g>
					<rect id="SVGID_3_" x="83.167" y="93.5" fill="#64788D" width="138.75" height="30.833"/>
				</g>
				<g>
					<g>
						<defs>
							<rect id="SVGID_9_" x="83.167" y="93.5" width="138.75" height="30.833"/>
						</defs>
						<clipPath id="SVGID_10_">
							<use xlink:href="#SVGID_9_"  overflow="visible"/>
						</clipPath>
						<rect x="83.167" y="93.5" clip-path="url(#SVGID_10_)" fill="#64788D" width="138.75" height="30.833"/>
					</g>
				</g>
			</g>
		</g>
	</g>
	<g>
		<g>
			<g>
				<g>
					<rect id="SVGID_2_" x="83.167" y="155.167" fill="#64788D" width="107.917" height="30.833"/>
				</g>
				<g>
					<g>
						<defs>
							<rect id="SVGID_11_" x="83.167" y="155.167" width="107.917" height="30.833"/>
						</defs>
						<clipPath id="SVGID_12_">
							<use xlink:href="#SVGID_11_"  overflow="visible"/>
						</clipPath>
						<rect x="83.167" y="155.167" clip-path="url(#SVGID_12_)" fill="#64788D" width="107.917" height="30.833"/>
					</g>
				</g>
			</g>
		</g>
	</g>
	<g>
		<g>
			<g>
				<g>
					<rect id="SVGID_7_" x="83.167" y="216.833" fill="#64788D" width="61.667" height="30.833"/>
				</g>
				<g>
					<g>
						<defs>
							<rect id="SVGID_13_" x="83.167" y="216.833" width="61.667" height="30.833"/>
						</defs>
						<clipPath id="SVGID_14_">
							<use xlink:href="#SVGID_13_"  overflow="visible"/>
						</clipPath>
						<rect x="83.167" y="216.833" clip-path="url(#SVGID_14_)" fill="#64788D" width="61.667" height="30.833"/>
					</g>
				</g>
			</g>
		</g>
	</g>
</g>
<g>
	<g>
		
			<rect x="-0.409" y="421" fill="none" stroke="#1D1D1B" stroke-width="1.1109" stroke-miterlimit="10" width="399.938" height="399.94"/>
		
			<rect x="399.529" y="421" fill="none" stroke="#1D1D1B" stroke-width="1.1109" stroke-miterlimit="10" width="248.738" height="399.94"/>
		
			<rect x="399.529" y="421" fill="none" stroke="#1D1D1B" stroke-width="1.1109" stroke-miterlimit="10" width="248.738" height="248.737"/>
		
			<rect x="497.066" y="669.737" fill="none" stroke="#1D1D1B" stroke-width="1.1109" stroke-miterlimit="10" width="151.201" height="151.203"/>
		
			<rect x="399.529" y="723.402" fill="none" stroke="#1D1D1B" stroke-width="1.1109" stroke-miterlimit="10" width="97.537" height="97.538"/>
		
			<rect x="399.529" y="669.737" fill="none" stroke="#1D1D1B" stroke-width="1.1109" stroke-miterlimit="10" width="53.667" height="53.665"/>
		
			<rect x="453.196" y="669.737" fill="none" stroke="#1D1D1B" stroke-width="1.1109" stroke-miterlimit="10" width="43.87" height="43.873"/>
		<path fill="none" stroke="#F6AA00" stroke-width="1.1109" stroke-miterlimit="10" d="M-0.409,820.94
			C-0.409,599.88,178.468,421,399.529,421"/>
		<path fill="none" stroke="#BD1622" stroke-width="1.1109" stroke-miterlimit="10" d="M648.268,669.737
			C648.268,532.253,537.014,421,399.529,421"/>
		<path fill="none" stroke="#E5332A" stroke-width="1.1109" stroke-miterlimit="10" d="M648.269,669.737
			c0,83.575-67.629,151.203-151.201,151.203"/>
		<path fill="none" stroke="#BD1622" stroke-width="1.1109" stroke-miterlimit="10" d="M399.529,723.402
			c0,53.913,43.626,97.538,97.537,97.538"/>
		<path fill="none" stroke="#BD1622" stroke-width="1.1109" stroke-miterlimit="10" d="M399.529,723.402
			c0-29.661,24.003-53.665,53.667-53.665"/>
		<path fill="none" stroke="#BD1622" stroke-width="1.1109" stroke-miterlimit="10" d="M497.066,713.61
			c0-24.248-19.624-43.873-43.87-43.873"/>
		<path fill="none" stroke="#009EE2" stroke-width="1.1109" stroke-miterlimit="10" d="M399.157,620.971
			c0,110.234-89.36,199.6-199.596,199.6c-110.238,0-199.6-89.364-199.6-199.6s89.362-199.599,199.6-199.599
			C309.797,421.372,399.157,510.734,399.157,620.971z"/>
		<circle fill="none" stroke="#009EE2" stroke-width="1.1109" stroke-miterlimit="10" cx="523.898" cy="545.367" r="124.369"/>
		<circle fill="none" stroke="#009EE2" stroke-width="1.1109" stroke-miterlimit="10" cx="572.667" cy="745.34" r="75.601"/>
		<circle fill="none" stroke="#009EE2" stroke-width="1.1109" stroke-miterlimit="10" cx="448.298" cy="772.172" r="48.769"/>
		<circle fill="none" stroke="#009EE2" stroke-width="1.1109" stroke-miterlimit="10" cx="426.363" cy="696.57" r="26.833"/>
		<circle fill="none" stroke="#009EE2" stroke-width="1.1109" stroke-miterlimit="10" cx="475.131" cy="691.673" r="21.935"/>
		
			<line fill="none" stroke="#99C33A" stroke-width="1.1109" stroke-miterlimit="10" x1="-0.409" y1="821.417" x2="400.009" y2="420.999"/>
		
			<line fill="none" stroke="#99C33A" stroke-width="1.1109" stroke-miterlimit="10" x1="400.009" y1="420.999" x2="647.267" y2="668.258"/>
		
			<line fill="none" stroke="#99C33A" stroke-width="1.1109" stroke-miterlimit="10" x1="648.269" y1="669.737" x2="499.354" y2="818.653"/>
		
			<line fill="none" stroke="#99C33A" stroke-width="1.1109" stroke-miterlimit="10" x1="497.066" y1="820.94" x2="400.729" y2="724.6"/>
		
			<line fill="none" stroke="#99C33A" stroke-width="1.1109" stroke-miterlimit="10" x1="399.529" y1="723.402" x2="453.869" y2="669.062"/>
		
			<line fill="none" stroke="#99C33A" stroke-width="1.1109" stroke-miterlimit="10" x1="453.869" y1="669.062" x2="497.741" y2="712.936"/>
	</g>
	
		<line fill="none" stroke="#99C33A" stroke-width="1.626" stroke-miterlimit="10" x1="399.529" y1="669.737" x2="646.055" y2="423.211"/>
</g>
<g>
	<g>
		<g>
			<path id="SVGID_1_" fill="#D6002B" d="M250.24,5.25c-29.025,0-58.931,11.428-80.92,33.424
				c-44.857,44.864-44.857,116.982,0,161.84c35.182,35.184,86.198,42.219,128.417,22.869c0.881,2.639,1.759,4.396,4.397,6.157
				c6.157,6.17,15.833,7.037,21.11,2.651l1.758-1.758L361.052,270h38.716v-38.701l-39.582-36.048l1.76-1.759
				c5.277-5.277,4.398-14.073-2.639-21.109c-1.759-1.773-4.397-3.532-6.156-4.412c19.351-42.226,12.313-94.128-22.868-128.424
				C309.171,16.678,279.266,5.25,250.24,5.25z"/>
		</g>
		<g>
			<g>
				<defs>
					<path id="SVGID_15_" d="M250.24,5.25c-29.025,0-58.931,11.428-80.92,33.424c-44.857,44.864-44.857,116.982,0,161.84
						c35.182,35.184,86.198,42.219,128.417,22.869c0.881,2.639,1.759,4.396,4.397,6.157c6.157,6.17,15.833,7.037,21.11,2.651
						l1.758-1.758L361.052,270h38.716v-38.701l-39.582-36.048l1.76-1.759c5.277-5.277,4.398-14.073-2.639-21.109
						c-1.759-1.773-4.397-3.532-6.156-4.412c19.351-42.226,12.313-94.128-22.868-128.424C309.171,16.678,279.266,5.25,250.24,5.25z"
						/>
				</defs>
				<clipPath id="SVGID_16_">
					<use xlink:href="#SVGID_15_"  overflow="visible"/>
				</clipPath>
				<polygon clip-path="url(#SVGID_16_)" fill="#D6002B" points="-7.473,137.185 262.555,-131.962 531.702,137.185 262.555,406.334 
									"/>
			</g>
		</g>
	</g>
</g>
<g>
	<g>
		<g>
			<g>
				<defs>
					<rect id="SVGID_17_" x="135.896" y="5.25" width="263.87" height="263.87"/>
				</defs>
				<clipPath id="SVGID_18_">
					<use xlink:href="#SVGID_17_"  overflow="visible"/>
				</clipPath>
				<path clip-path="url(#SVGID_18_)" fill="#FFFFFF" d="M313.568,182.923c35.183-35.183,35.183-92.348,0-126.658
					c-35.183-35.183-92.354-35.183-126.657,0c-35.183,35.183-35.183,92.354,0,126.658
					C222.094,218.105,278.387,218.105,313.568,182.923"/>
			</g>
		</g>
	</g>
</g>
<g>
	<g>
		<g>
			<path id="SVGID_5_" fill="#64788D" d="M198.346,67.707c-12.314,12.314-19.351,28.146-21.109,44.864
				c1.759-1.759,2.652-3.518,3.518-4.391c38.701-38.701,100.271-38.701,138.972,0c1.76,1.759,2.652,2.646,3.521,4.391
				c-1.761-16.719-7.903-32.537-21.11-44.864c-14.074-14.074-33.423-21.11-51.895-21.11C231.77,45.71,212.419,53.633,198.346,67.707
				"/>
		</g>
		<g>
			<g>
				<defs>
					<path id="SVGID_19_" d="M198.346,67.707c-12.314,12.314-19.351,28.146-21.109,44.864c1.759-1.759,2.652-3.518,3.518-4.391
						c38.701-38.701,100.271-38.701,138.972,0c1.76,1.759,2.652,2.646,3.521,4.391c-1.761-16.719-7.903-32.537-21.11-44.864
						c-14.074-14.074-33.423-21.11-51.895-21.11C231.77,45.71,212.419,53.633,198.346,67.707"/>
				</defs>
				<clipPath id="SVGID_20_">
					<use xlink:href="#SVGID_19_"  overflow="visible"/>
				</clipPath>
				<polygon clip-path="url(#SVGID_20_)" fill="#64788D" points="144.692,79.134 250.24,-26.414 355.788,79.134 250.24,185.562 				
					"/>
			</g>
		</g>
	</g>
</g>
</svg>
