<?xml version="1.0" encoding="utf-8"?>
<!-- Generator: Adobe Illustrator 15.0.2, SVG Export Plug-In . SVG Version: 6.00 Build 0)  -->
<!DOCTYPE svg PUBLIC "-//W3C//DTD SVG 1.1//EN" "http://www.w3.org/Graphics/SVG/1.1/DTD/svg11.dtd">
<svg version="1.1" id="Layer_1" xmlns="http://www.w3.org/2000/svg" xmlns:xlink="http://www.w3.org/1999/xlink" x="0px" y="0px"
	 width="20px" height="20px" viewBox="0 0 20 20" enable-background="new 0 0 20 20" xml:space="preserve">
<g>
	<g>
		<defs>
			<path id="SVGID_1_" d="M9.375,1.25c-2.062,0-4.188,0.812-5.75,2.375c-3.188,3.188-3.188,8.312,0,11.5
				c2.5,2.5,6.125,3,9.125,1.625c0.062,0.188,0.125,0.312,0.312,0.438c0.438,0.438,1.125,0.5,1.5,0.188l0.125-0.125l2.562,2.812H20
				v-2.75l-2.812-2.562l0.125-0.125c0.375-0.375,0.312-1-0.188-1.5C17,13,16.812,12.875,16.688,12.812
				c1.375-3,0.875-6.688-1.625-9.125C13.562,2.062,11.438,1.25,9.375,1.25z"/>
		</defs>
		<use xlink:href="#SVGID_1_"  overflow="visible" fill="#D6002B"/>
		<clipPath id="SVGID_2_">
			<use xlink:href="#SVGID_1_"  overflow="visible"/>
		</clipPath>
		<polygon clip-path="url(#SVGID_2_)" fill="#D6002B" points="-8.938,10.625 10.25,-8.5 29.375,10.625 10.25,29.75 		"/>
	</g>
</g>
<g>
	<g>
		<defs>
			<rect id="SVGID_3_" x="1.25" y="1.25" width="18.75" height="18.75"/>
		</defs>
		<clipPath id="SVGID_4_">
			<use xlink:href="#SVGID_3_"  overflow="visible"/>
		</clipPath>
		<path clip-path="url(#SVGID_4_)" fill="#FFFFFF" d="M13.875,13.875c2.5-2.5,2.5-6.562,0-9c-2.5-2.5-6.562-2.5-9,0
			c-2.5,2.5-2.5,6.562,0,9C7.375,16.375,11.375,16.375,13.875,13.875"/>
	</g>
</g>
<g>
	<g>
		<defs>
			<path id="SVGID_5_" d="M5.688,5.688c-0.875,0.875-1.375,2-1.5,3.188c0.125-0.125,0.188-0.25,0.25-0.312
				c2.75-2.75,7.125-2.75,9.875,0c0.125,0.125,0.188,0.188,0.25,0.312c-0.125-1.188-0.562-2.312-1.5-3.188c-1-1-2.375-1.5-3.688-1.5
				C8.062,4.125,6.688,4.688,5.688,5.688"/>
		</defs>
		<use xlink:href="#SVGID_5_"  overflow="visible" fill="#64788D"/>
		<clipPath id="SVGID_6_">
			<use xlink:href="#SVGID_5_"  overflow="visible"/>
		</clipPath>
		<polygon clip-path="url(#SVGID_6_)" fill="#64788D" points="1.875,6.5 9.375,-1 16.875,6.5 9.375,14.062 		"/>
	</g>
</g>
</svg>
