<?xml version="1.0" encoding="utf-8"?>
<!-- Generator: Adobe Illustrator 28.0.0, SVG Export Plug-In . SVG Version: 6.00 Build 0)  -->
<svg version="1.1" id="Ebene_1" xmlns="http://www.w3.org/2000/svg" xmlns:xlink="http://www.w3.org/1999/xlink" x="0px" y="0px"
	 viewBox="0 0 40 40" style="enable-background:new 0 0 40 40;" xml:space="preserve">
<g>
	<path d="M8.8,30C8.4,31.9,8,33.7,8,34.3c0,1.4,1.2,1.7,2.2,1.7c0.9,0,2-0.7,2.7-1.1c2.3-1.5,3.4-4.4,4.1-7l2.7-11.2h5.4L21.6,32
		c-0.4,1.6-0.6,2.8-0.5,3.1c0.1,0.5,0.6,0.8,1,0.8c1.9,0,4.2-4.3,4.9-5.8l1.1,0.6c-1.4,3.5-4.2,7.4-8.2,7.4c-3.1,0-4-2-3.9-5
		c-2.2,2.8-4.9,5-8.6,5c-2.5,0-4.6-0.8-4.6-3.8c0-0.7,0.3-2.4,0.7-4.1L6.1,18H2l0.4-1.3h4.8c1.6,0,3.2-0.2,4.8-0.2L8.8,30z"/>
	<path d="M32.6,7.2L32.6,7.2c0.8-0.7,1.4-1,2.2-1c1.9,0,3.2,1.7,3.2,4.1c0,2.4-1.3,5.4-5.8,5.4c-0.9,0-1.9-0.1-2.4-0.1l1.9-13.8h1.7
		L32.6,7.2z M32.6,14.4c2.4,0,3.7-1.7,3.7-4.1c0-1.6-0.7-2.6-1.9-2.6c-0.6,0-1.8,0.4-1.9,1.1l-0.8,5.5H32.6z"/>
</g>
</svg>
