<?xml version="1.0" encoding="utf-8"?>
<!-- Generator: Adobe Illustrator 15.0.2, SVG Export Plug-In . SVG Version: 6.00 Build 0)  -->
<!DOCTYPE svg PUBLIC "-//W3C//DTD SVG 1.1//EN" "http://www.w3.org/Graphics/SVG/1.1/DTD/svg11.dtd">
<svg version="1.1" id="Ebene_1" xmlns="http://www.w3.org/2000/svg" xmlns:xlink="http://www.w3.org/1999/xlink" x="0px" y="0px"
	 width="85.5px" height="86.178px" viewBox="0 0 85.5 86.178" enable-background="new 0 0 85.5 86.178" xml:space="preserve">
<g>
	<path d="M16.11,66.846c-0.991,4.462-1.858,8.675-1.858,10.286c0,3.222,2.85,3.966,5.328,3.966c2.107,0,4.709-1.611,6.444-2.727
		c5.577-3.594,8.179-10.41,9.666-16.606l6.32-26.52h12.888l-8.303,36.31c-0.867,3.718-1.363,6.568-1.239,7.436
		c0.124,1.239,1.363,1.983,2.479,1.983c4.462,0,9.915-10.286,11.524-13.88l2.727,1.487c-3.221,8.303-10.037,17.597-19.579,17.597
		c-7.436,0-9.419-4.709-9.295-11.896c-5.328,6.692-11.648,11.896-20.323,11.896c-5.824,0-11.029-1.982-11.029-8.922
		c0-1.735,0.743-5.701,1.611-9.666L9.79,38.344H0l0.868-3.099h11.4c3.842,0,7.56-0.495,11.401-0.495L16.11,66.846z"/>
	<path d="M72.74,12.666l0.094,0.095c1.756-1.755,3.18-2.372,5.172-2.372c4.459,0,7.494,3.985,7.494,9.726
		c0,5.692-3.131,12.903-13.852,12.903c-2.039,0-4.412-0.143-5.645-0.332L70.416,0h4.127L72.74,12.666z M72.598,29.697
		c5.598,0,8.775-3.938,8.775-9.678c0-3.891-1.754-6.12-4.602-6.12c-1.328,0-4.27,0.901-4.553,2.704l-1.852,13.094H72.598z"/>
</g>
</svg>
