<?xml version="1.0" encoding="utf-8"?>
<!-- Generator: Adobe Illustrator 25.4.1, SVG Export Plug-In . SVG Version: 6.00 Build 0)  -->
<svg version="1.1" id="Ebene_1" xmlns="http://www.w3.org/2000/svg" xmlns:xlink="http://www.w3.org/1999/xlink" x="0px" y="0px"
	 width="85.5px" height="86.2px" viewBox="0 0 85.5 86.2" style="enable-background:new 0 0 85.5 86.2;" xml:space="preserve">
<style type="text/css">
	.st0{fill:#FFFFFF;}
</style>
<g>
	<path class="st0" d="M16.1,66.8c-1,4.5-1.9,8.7-1.9,10.3c0,3.2,2.9,4,5.3,4c2.1,0,4.7-1.6,6.4-2.7c5.6-3.6,8.2-10.4,9.7-16.6
		L42,35.2h12.9l-8.3,36.3c-0.9,3.7-1.4,6.6-1.2,7.4c0.1,1.2,1.4,2,2.5,2c4.5,0,9.9-10.3,11.5-13.9l2.7,1.5
		c-3.2,8.3-10,17.6-19.6,17.6c-7.4,0-9.4-4.7-9.3-11.9C27.9,81,21.6,86.2,12.9,86.2c-5.8,0-11-2-11-8.9c0-1.7,0.7-5.7,1.6-9.7
		l6.3-29.2H0l0.9-3.1h11.4c3.8,0,7.6-0.5,11.4-0.5L16.1,66.8z"/>
	<path class="st0" d="M72.7,12.7L72.7,12.7c1.8-1.7,3.3-2.3,5.3-2.3c4.5,0,7.5,4,7.5,9.7c0,5.7-3.1,12.9-13.9,12.9
		c-2,0-4.4-0.1-5.6-0.3L70.4,0h4.1L72.7,12.7z M72.6,29.7c5.6,0,8.8-3.9,8.8-9.7c0-3.9-1.8-6.1-4.6-6.1c-1.3,0-4.3,0.9-4.6,2.7
		l-1.9,13.1H72.6z"/>
</g>
</svg>
