<?xml version="1.0" encoding="utf-8"?>
<!-- Generator: Adobe Illustrator 15.0.2, SVG Export Plug-In . SVG Version: 6.00 Build 0)  -->
<!DOCTYPE svg PUBLIC "-//W3C//DTD SVG 1.1//EN" "http://www.w3.org/Graphics/SVG/1.1/DTD/svg11.dtd">
<svg version="1.1" id="Ebene_1" xmlns="http://www.w3.org/2000/svg" xmlns:xlink="http://www.w3.org/1999/xlink" x="0px" y="0px"
	 width="40px" height="40px" viewBox="22.75 23.089 40 40" enable-background="new 22.75 23.089 40 40" xml:space="preserve">
<g>
	<path fill="#FFFFFF" d="M31.909,52.681c-0.403,1.801-0.756,3.502-0.756,4.154c0,1.299,1.16,1.6,2.168,1.6
		c0.858,0,1.917-0.65,2.623-1.1c2.27-1.453,3.329-4.203,3.934-6.705l2.572-10.708h5.245l-3.379,14.661
		c-0.352,1.5-0.555,2.65-0.504,3.002c0.051,0.5,0.555,0.801,1.009,0.801c1.815,0,4.034-4.154,4.69-5.605l1.109,0.602
		c-1.311,3.352-4.084,7.104-7.968,7.104c-3.026,0-3.833-1.9-3.783-4.803c-2.168,2.703-4.74,4.803-8.27,4.803
		c-2.37,0-4.488-0.799-4.488-3.602c0-0.701,0.302-2.301,0.656-3.902l2.571-11.808h-3.984l0.354-1.251h4.639
		c1.563,0,3.077-0.2,4.64-0.2L31.909,52.681z"/>
	<path fill="#FFFFFF" d="M54.955,30.806l0.037,0.038c0.715-0.708,1.295-0.958,2.105-0.958c1.814,0,3.049,1.609,3.049,3.927
		c0,2.298-1.273,5.209-5.637,5.209c-0.83,0-1.795-0.057-2.297-0.134l1.795-13.197h1.68L54.955,30.806z M54.896,37.682
		c2.277,0,3.57-1.59,3.57-3.907c0-1.571-0.713-2.471-1.873-2.471c-0.539,0-1.736,0.364-1.852,1.092l-0.754,5.287H54.896z"/>
</g>
</svg>
