<?xml version="1.0" encoding="utf-8"?>
<!-- Generator: Adobe Illustrator 15.0.2, SVG Export Plug-In . SVG Version: 6.00 Build 0)  -->
<!DOCTYPE svg PUBLIC "-//W3C//DTD SVG 1.1//EN" "http://www.w3.org/Graphics/SVG/1.1/DTD/svg11.dtd">
<svg version="1.1" id="Layer_1" xmlns="http://www.w3.org/2000/svg" xmlns:xlink="http://www.w3.org/1999/xlink" x="0px" y="0px"
	 width="32px" height="32px" viewBox="0 0 32 32" enable-background="new 0 0 32 32" xml:space="preserve">
<rect x="-1" y="-1" fill="none" width="32" height="32"/>
<g>
	<g>
		<g>
			<g>
				<path id="SVGID_1_" fill="#64788D" d="M3.499,3.001c0,0-0.499,0-0.499,0.499v21c0,0,0,0.5,0.499,0.5h17c0,0,0.501,0,0.501-0.5
					v-21c0,0,0-0.499-0.501-0.499H3.499z"/>
			</g>
			<g>
				<defs>
					<path id="SVGID_2_" d="M3.499,3.001c0,0-0.499,0-0.499,0.499v21c0,0,0,0.5,0.499,0.5h17c0,0,0.501,0,0.501-0.5v-21
						c0,0,0-0.499-0.501-0.499H3.499z"/>
				</defs>
				<clipPath id="SVGID_4_">
					<use xlink:href="#SVGID_2_"  overflow="visible"/>
				</clipPath>
				<rect x="3" y="3.001" clip-path="url(#SVGID_4_)" fill="#64788D" width="18" height="21.999"/>
			</g>
		</g>
	</g>
</g>
<rect x="5" y="5" fill="#FFFFFF" width="14" height="18"/>
<g>
	<g>
		<g>
			<g>
				<rect id="SVGID_3_" x="7" y="7" fill="#64788D" width="9" height="2"/>
			</g>
			<g>
				<defs>
					<rect id="SVGID_6_" x="7" y="7" width="9" height="2"/>
				</defs>
				<clipPath id="SVGID_8_">
					<use xlink:href="#SVGID_6_"  overflow="visible"/>
				</clipPath>
				<rect x="7" y="7" clip-path="url(#SVGID_8_)" fill="#64788D" width="9" height="2"/>
			</g>
		</g>
	</g>
</g>
<g>
	<g>
		<g>
			<g>
				<rect id="SVGID_5_" x="7" y="11" fill="#64788D" width="7" height="2"/>
			</g>
			<g>
				<defs>
					<rect id="SVGID_10_" x="7" y="11" width="7" height="2"/>
				</defs>
				<clipPath id="SVGID_11_">
					<use xlink:href="#SVGID_10_"  overflow="visible"/>
				</clipPath>
				<rect x="7" y="11" clip-path="url(#SVGID_11_)" fill="#64788D" width="7" height="2"/>
			</g>
		</g>
	</g>
</g>
<g>
	<g>
		<g>
			<g>
				<rect id="SVGID_7_" x="7" y="15" fill="#64788D" width="4" height="2"/>
			</g>
			<g>
				<defs>
					<rect id="SVGID_12_" x="7" y="15" width="4" height="2"/>
				</defs>
				<clipPath id="SVGID_13_">
					<use xlink:href="#SVGID_12_"  overflow="visible"/>
				</clipPath>
				<rect x="7" y="15" clip-path="url(#SVGID_13_)" fill="#64788D" width="4" height="2"/>
			</g>
		</g>
	</g>
</g>
<g>
	<g>
		<g>
			<g>
				<path id="SVGID_9_" fill="#D6002B" d="M13,20.001C13,23.866,16.134,27,20,27s6.999-3.134,6.999-6.999
					C26.999,16.134,23.866,13,20,13S13,16.134,13,20.001"/>
			</g>
			<g>
				<defs>
					<path id="SVGID_14_" d="M13,20.001C13,23.866,16.134,27,20,27s6.999-3.134,6.999-6.999C26.999,16.134,23.866,13,20,13
						S13,16.134,13,20.001"/>
				</defs>
				<clipPath id="SVGID_15_">
					<use xlink:href="#SVGID_14_"  overflow="visible"/>
				</clipPath>
				<rect x="13" y="13" clip-path="url(#SVGID_15_)" fill="#D6002B" width="13.999" height="14"/>
			</g>
		</g>
	</g>
</g>
<polyline fill="none" stroke="#FFFFFF" stroke-linecap="round" stroke-linejoin="round" points="20,16.001 20,20.001 24,22.001 "/>
</svg>
