<svg id="cat-pg" xmlns="http://www.w3.org/2000/svg" width="32" height="32" viewBox="0 0 32 32"><defs><style>.cls-1{fill:none;stroke:#000;stroke-linejoin:round;stroke-width:1.45px;}</style></defs><path class="cls-1" d="M15.3,22.3H12.4L7.2,28.6V22.3H7a3.7,3.7,0,0,1-3-1.6H4a3.6,3.6,0,0,1-.6-2V7.7A4.3,4.3,0,0,1,4.6,4.6h0A4.3,4.3,0,0,1,7.7,3.4H24.3a4.3,4.3,0,0,1,3.1,1.2h0a4.3,4.3,0,0,1,1.2,3.1V18.3a4,4,0,0,1-4,4Z"/><line class="cls-1" x1="7.2" y1="7.8" x2="24.8" y2="7.8"/><line class="cls-1" x1="7.2" y1="11.6" x2="24.8" y2="11.6"/><line class="cls-1" x1="7.2" y1="15.4" x2="14.1" y2="15.4"/></svg>