<?xml version="1.0" encoding="utf-8"?>
<!-- Generator: Adobe Illustrator 15.0.2, SVG Export Plug-In . SVG Version: 6.00 Build 0)  -->
<!DOCTYPE svg PUBLIC "-//W3C//DTD SVG 1.1//EN" "http://www.w3.org/Graphics/SVG/1.1/DTD/svg11.dtd">
<svg version="1.1" id="Layer_1" xmlns="http://www.w3.org/2000/svg" xmlns:xlink="http://www.w3.org/1999/xlink" x="0px" y="0px"
	 width="18.75px" height="18.75px" viewBox="25.625 3.125 18.75 18.75" enable-background="new 25.625 3.125 18.75 18.75"
	 xml:space="preserve">
<g>
	<g>
		<g>
			<path id="SVGID_1_" fill="#64788D" d="M29.922,15.156c-0.859,0-1.562-0.312-2.188-0.625c-1.25,0.547-2.109,1.562-2.109,2.734
				v4.608h8.594v-4.531c0-1.172-0.859-2.188-2.109-2.733C31.484,14.922,30.781,15.156,29.922,15.156"/>
		</g>
		<g>
			<defs>
				<path id="SVGID_2_" d="M29.922,15.156c-0.859,0-1.562-0.312-2.188-0.625c-1.25,0.547-2.109,1.562-2.109,2.734v4.608h8.594
					v-4.531c0-1.172-0.859-2.188-2.109-2.733C31.484,14.922,30.781,15.156,29.922,15.156"/>
			</defs>
			<clipPath id="SVGID_3_">
				<use xlink:href="#SVGID_2_"  overflow="visible"/>
			</clipPath>
			<rect x="25.625" y="14.531" clip-path="url(#SVGID_3_)" fill="#64788D" width="8.594" height="7.344"/>
		</g>
	</g>
</g>
<g>
	<g>
		<g>
			<defs>
				<path id="SVGID_4_" d="M26.953,10.625c0,1.797,1.328,3.203,2.969,3.203c1.641,0,2.969-1.406,2.969-3.203
					s-1.328-3.203-2.969-3.203C28.281,7.422,26.953,8.828,26.953,10.625"/>
			</defs>
			<clipPath id="SVGID_5_">
				<use xlink:href="#SVGID_4_"  overflow="visible"/>
			</clipPath>
			
				<linearGradient id="SVGID_6_" gradientUnits="userSpaceOnUse" x1="-222.8916" y1="400.8203" x2="-221.8922" y2="400.8203" gradientTransform="matrix(5.9082 0 0 -5.9082 1343.8584 2378.6777)">
				<stop  offset="0" style="stop-color:#DCB496"/>
				<stop  offset="0.0198" style="stop-color:#DCB496"/>
				<stop  offset="1" style="stop-color:#EBC3A5"/>
			</linearGradient>
			<rect x="26.953" y="7.344" clip-path="url(#SVGID_5_)" fill="url(#SVGID_6_)" width="5.938" height="6.406"/>
		</g>
	</g>
</g>
<g>
	<g>
		<g>
			<defs>
				<rect id="SVGID_7_" x="25.625" y="3.125" width="18.75" height="18.75"/>
			</defs>
			<clipPath id="SVGID_9_">
				<use xlink:href="#SVGID_7_"  overflow="visible"/>
			</clipPath>
			<path clip-path="url(#SVGID_9_)" fill="#DCB496" d="M40.078,9.531c1.641,0,2.969-1.406,2.969-3.203s-1.328-3.203-2.969-3.203
				s-2.969,1.406-2.969,3.203S38.438,9.531,40.078,9.531"/>
		</g>
	</g>
</g>
<g>
	<g>
		<g>
			<path id="SVGID_8_" fill="#FD9AAE" d="M40.078,10.938c-0.859,0-1.562-0.312-2.188-0.625c-1.25,0.547-2.109,1.562-2.109,2.734
				v4.531h8.594v-4.531c0-1.172-0.859-2.188-2.109-2.734C41.641,10.625,40.938,10.938,40.078,10.938"/>
		</g>
		<g>
			<defs>
				<path id="SVGID_10_" d="M40.078,10.938c-0.859,0-1.562-0.312-2.188-0.625c-1.25,0.547-2.109,1.562-2.109,2.734v4.531h8.594
					v-4.531c0-1.172-0.859-2.188-2.109-2.734C41.641,10.625,40.938,10.938,40.078,10.938"/>
			</defs>
			<clipPath id="SVGID_11_">
				<use xlink:href="#SVGID_10_"  overflow="visible"/>
			</clipPath>
			<rect x="35.781" y="10.312" clip-path="url(#SVGID_11_)" fill="#FD9AAE" width="8.594" height="7.344"/>
		</g>
	</g>
</g>
</svg>
