<svg id="cat-pg" xmlns="http://www.w3.org/2000/svg" width="32" height="32" viewBox="0 0 32 32"><defs><style>.cls-1,.cls-2{fill:none;stroke:#000;stroke-width:1.45px;}.cls-1{stroke-linejoin:round;}.cls-2{stroke-miterlimit:10;}</style></defs><polyline class="cls-1" points="10 13.5 7 7 4 13.5"/><line class="cls-1" x1="5.1" y1="11.1" x2="8.9" y2="11.1"/><line class="cls-1" x1="5" y1="17" x2="9" y2="17"/><polyline class="cls-1" points="4.5 21 9.5 21 4.5 27 9.5 27"/><polyline class="cls-1" points="18.1 5 14.5 5 14.5 29 24.5 29 24.5 13.5"/><line class="cls-2" x1="14.5" y1="9" x2="18" y2="9"/><line class="cls-2" x1="14.5" y1="13" x2="21.9" y2="13"/><ellipse class="cls-2" cx="25" cy="6" rx="4" ry="4"/><path class="cls-1" d="M25,2s1.2.6,1.2,4S25,10,25,10"/><path class="cls-1" d="M29,6s-.6,1-4,1-4-1-4-1"/></svg>