<?xml version="1.0" encoding="utf-8"?>
<!-- Generator: Adobe Illustrator 15.0.2, SVG Export Plug-In . SVG Version: 6.00 Build 0)  -->
<!DOCTYPE svg PUBLIC "-//W3C//DTD SVG 1.1//EN" "http://www.w3.org/Graphics/SVG/1.1/DTD/svg11.dtd">
<svg version="1.1" id="Layer_1" xmlns="http://www.w3.org/2000/svg" xmlns:xlink="http://www.w3.org/1999/xlink" x="0px" y="0px"
	 width="32px" height="32px" viewBox="0 0 32 32" enable-background="new 0 0 32 32" xml:space="preserve">
<g>
	<g>
		<g>
			<g>
				<defs>
					<path id="SVGID_1_" d="M7,21.3C7,20,8.1,19,9.4,19c1.3,0,2.4,1.1,2.4,2.4c0,1.3-1.1,2.397-2.4,2.397C8.1,23.8,7,22.6,7,21.3
						 M3.5,14.7c0-1.4,1.1-2.5,2.5-2.5s2.5,1.1,2.5,2.5c0,1.399-1.1,2.5-2.5,2.5C4.7,17.2,3.5,16.1,3.5,14.7 M13.5,5.6
						c0-1.1,0.9-1.9,2-1.9c1.1,0,2,0.9,2,1.9c0,1.1-0.9,1.9-2,1.9C14.3,7.5,13.5,6.7,13.5,5.6 M15.7,1C9.3,1.1,1,6.2,1,15.4
						c0,2.6,1.3,10.3,9.1,12.9c7.5,2.5,13-2.6,15.6-7.8c1.5-3,3.3-6.4,3.3-8.4V12c0-1.1-0.6-1.8-2-1.8c-2.6,0-2.6,2.6-6.5,1.3
						s3.9-9.1-2.6-10.3C17.3,1.1,16.6,1,16,1H15.7z"/>
				</defs>
				<clipPath id="SVGID_2_">
					<use xlink:href="#SVGID_1_"  overflow="visible"/>
				</clipPath>
				<rect x="1" y="1" clip-path="url(#SVGID_2_)" fill="#64788D" width="28" height="29.8"/>
			</g>
		</g>
	</g>
</g>
<g>
	<g>
		<g>
			<g>
				<defs>
					<rect id="SVGID_3_" x="1" y="1" width="28" height="28"/>
				</defs>
				<clipPath id="SVGID_4_">
					<use xlink:href="#SVGID_3_"  overflow="visible"/>
				</clipPath>
				<path clip-path="url(#SVGID_4_)" fill="#FFFFFF" d="M16.3,24.6c1,0,1.9-0.8,1.9-1.8S17.4,21,16.3,21c-1.1,0-1.9,0.8-1.9,1.8
					S15.3,24.6,16.3,24.6"/>
			</g>
		</g>
	</g>
</g>
</svg>
