<?xml version="1.0" encoding="utf-8"?>
<!-- Generator: Adobe Illustrator 15.0.2, SVG Export Plug-In . SVG Version: 6.00 Build 0)  -->
<!DOCTYPE svg PUBLIC "-//W3C//DTD SVG 1.1//EN" "http://www.w3.org/Graphics/SVG/1.1/DTD/svg11.dtd">
<svg version="1.1" id="Layer_1" xmlns="http://www.w3.org/2000/svg" xmlns:xlink="http://www.w3.org/1999/xlink" x="0px" y="0px"
	 width="32px" height="32px" viewBox="0 0 32 32" enable-background="new 0 0 32 32" xml:space="preserve">
<rect fill="none" width="32" height="32"/>
<g>
	<g>
		<g>
			<g>
				<defs>
					<polygon id="SVGID_1_" points="23.482,28 26.023,23.953 22.259,23.389 					"/>
				</defs>
				<clipPath id="SVGID_2_">
					<use xlink:href="#SVGID_1_"  overflow="visible"/>
				</clipPath>
				
					<linearGradient id="SVGID_3_" gradientUnits="userSpaceOnUse" x1="91.0723" y1="70.1875" x2="92.2768" y2="70.1875" gradientTransform="matrix(3.0866 0.4888 0.4888 -3.0866 -293.4564 197.4712)">
					<stop  offset="0" style="stop-color:#DBB395"/>
					<stop  offset="0.0198" style="stop-color:#DBB395"/>
					<stop  offset="1" style="stop-color:#EAC2A4"/>
				</linearGradient>
				<polygon clip-path="url(#SVGID_2_)" fill="url(#SVGID_3_)" points="22.354,22.823 26.682,23.482 25.93,28.564 21.6,27.906 				
					"/>
			</g>
		</g>
	</g>
	<g>
		<g>
			<g>
				<path id="SVGID_4_" fill="#D6002B" d="M23.765,14.353L23.765,14.353l-1.506,9.036l3.765,0.564l1.788-11.294
					C26.776,13.694,25.365,14.353,23.765,14.353"/>
			</g>
			<g>
				<defs>
					<path id="SVGID_5_" d="M23.765,14.353L23.765,14.353l-1.506,9.036l3.765,0.564l1.788-11.294
						C26.776,13.694,25.365,14.353,23.765,14.353"/>
				</defs>
				<clipPath id="SVGID_7_">
					<use xlink:href="#SVGID_5_"  overflow="visible"/>
				</clipPath>
				<polygon clip-path="url(#SVGID_7_)" fill="#D6002B" points="22.447,11.812 29.506,12.941 27.623,24.8 20.564,23.671 				"/>
			</g>
		</g>
	</g>
	<g>
		<g>
			<g>
				<polygon id="SVGID_6_" fill="#D6002B" points="23.482,28 24.141,26.87 23.105,26.683 				"/>
			</g>
			<g>
				<defs>
					<polygon id="SVGID_8_" points="23.482,28 24.141,26.87 23.105,26.683 					"/>
				</defs>
				<clipPath id="SVGID_9_">
					<use xlink:href="#SVGID_8_"  overflow="visible"/>
				</clipPath>
				<polygon clip-path="url(#SVGID_9_)" fill="#D6002B" points="23.105,26.494 24.424,26.683 24.141,28.188 22.918,28 				"/>
			</g>
		</g>
	</g>
	<g>
		<g>
			<g>
				<defs>
					<path id="SVGID_10_" d="M8.707,5.412c0,0-0.471,0-0.847,0.376L3.907,9.74c0,0-0.375,0.375-0.375,0.847v16.94
						c0,0,0,0.472,0.47,0.472h16c0,0,0.471,0,0.471-0.472V13.318c-1.412-1.034-2.353-2.729-2.353-4.611
						c0-1.224,0.376-2.353,1.035-3.293H8.707V5.412z"/>
				</defs>
				<clipPath id="SVGID_11_">
					<use xlink:href="#SVGID_10_"  overflow="visible"/>
				</clipPath>
				<rect x="3.529" y="5.412" clip-path="url(#SVGID_11_)" fill="#64788D" width="16.941" height="22.588"/>
			</g>
		</g>
	</g>
	<polygon fill="#FFFFFF" points="5.412,12 5.412,26.117 18.588,26.117 18.588,7.295 10.117,7.295 10.117,12 	"/>
	<g>
		<g>
			<g>
				<defs>
					<rect id="SVGID_12_" x="7.294" y="13.882" width="8.471" height="1.881"/>
				</defs>
				<clipPath id="SVGID_13_">
					<use xlink:href="#SVGID_12_"  overflow="visible"/>
				</clipPath>
				
					<linearGradient id="SVGID_14_" gradientUnits="userSpaceOnUse" x1="-84.3623" y1="108.0068" x2="-83.1577" y2="108.0068" gradientTransform="matrix(7.0312 0 0 -7.0312 600.4646 774.2362)">
					<stop  offset="0" style="stop-color:#4C6585"/>
					<stop  offset="0.0198" style="stop-color:#4C6585"/>
					<stop  offset="1" style="stop-color:#5A789F"/>
				</linearGradient>
				<rect x="7.294" y="13.882" clip-path="url(#SVGID_13_)" fill="url(#SVGID_14_)" width="8.471" height="1.881"/>
			</g>
		</g>
	</g>
	<g>
		<g>
			<g>
				<defs>
					<rect id="SVGID_15_" x="7.294" y="17.647" width="6.589" height="1.881"/>
				</defs>
				<clipPath id="SVGID_16_">
					<use xlink:href="#SVGID_15_"  overflow="visible"/>
				</clipPath>
				
					<linearGradient id="SVGID_17_" gradientUnits="userSpaceOnUse" x1="-49.0376" y1="88.8887" x2="-47.8325" y2="88.8887" gradientTransform="matrix(5.4688 0 0 -5.4688 275.4729 504.7052)">
					<stop  offset="0" style="stop-color:#4C6585"/>
					<stop  offset="0.0198" style="stop-color:#4C6585"/>
					<stop  offset="1" style="stop-color:#5A789F"/>
				</linearGradient>
				<rect x="7.294" y="17.647" clip-path="url(#SVGID_16_)" fill="url(#SVGID_17_)" width="6.589" height="1.881"/>
			</g>
		</g>
	</g>
	<g>
		<g>
			<g>
				<defs>
					<rect id="SVGID_18_" x="7.294" y="21.412" width="9.411" height="1.881"/>
				</defs>
				<clipPath id="SVGID_20_">
					<use xlink:href="#SVGID_18_"  overflow="visible"/>
				</clipPath>
				
					<linearGradient id="SVGID_21_" gradientUnits="userSpaceOnUse" x1="-96.7256" y1="114.4912" x2="-95.5215" y2="114.4912" gradientTransform="matrix(7.8125 0 0 -7.8125 762.9688 916.8125)">
					<stop  offset="0" style="stop-color:#4C6585"/>
					<stop  offset="0.0198" style="stop-color:#4C6585"/>
					<stop  offset="1" style="stop-color:#5A789F"/>
				</linearGradient>
				<rect x="7.294" y="21.412" clip-path="url(#SVGID_20_)" fill="url(#SVGID_21_)" width="9.411" height="1.881"/>
			</g>
		</g>
	</g>
	<g>
		<g>
			<g>
				<circle id="SVGID_19_" fill="#64788D" cx="23.765" cy="8.706" r="4.706"/>
			</g>
			<g>
				<defs>
					<circle id="SVGID_22_" cx="23.765" cy="8.706" r="4.706"/>
				</defs>
				<clipPath id="SVGID_23_">
					<use xlink:href="#SVGID_22_"  overflow="visible"/>
				</clipPath>
				<rect x="19.059" y="4" clip-path="url(#SVGID_23_)" fill="#64788D" width="9.411" height="9.412"/>
			</g>
		</g>
	</g>
	<g>
		<g>
			<g>
				<defs>
					<rect id="SVGID_24_" x="3.529" y="4" width="24.941" height="24"/>
				</defs>
				<clipPath id="SVGID_25_">
					<use xlink:href="#SVGID_24_"  overflow="visible"/>
				</clipPath>
				<path clip-path="url(#SVGID_25_)" fill="#FFFFFF" d="M25.176,6.259c-1.035,1.035-1.977,0-1.977,1.035s1.977,1.035,1.977,3.012
					c0,1.035,1.977-1.035,1.977-1.977C27.152,7.386,25.835,5.6,25.176,6.259"/>
			</g>
		</g>
		<g>
			<g>
				<defs>
					<rect id="SVGID_26_" x="3.529" y="4" width="24.941" height="24"/>
				</defs>
				<clipPath id="SVGID_27_">
					<use xlink:href="#SVGID_26_"  overflow="visible"/>
				</clipPath>
				<path clip-path="url(#SVGID_27_)" fill="#FFFFFF" d="M22.447,8.612c0.094-0.941-1.318-0.847-1.789-0.376
					c-0.471,0.471,0.376,1.6,0.659,2.353c0.188,0.659,0.188,0.753,0.753-0.188C22.354,9.835,22.354,9.741,22.447,8.612"/>
			</g>
		</g>
	</g>
</g>
</svg>
