<?xml version="1.0" encoding="utf-8"?>
<!-- Generator: Adobe Illustrator 15.0.2, SVG Export Plug-In . SVG Version: 6.00 Build 0)  -->
<!DOCTYPE svg PUBLIC "-//W3C//DTD SVG 1.1//EN" "http://www.w3.org/Graphics/SVG/1.1/DTD/svg11.dtd">
<svg version="1.1" id="Layer_1" xmlns="http://www.w3.org/2000/svg" xmlns:xlink="http://www.w3.org/1999/xlink" x="0px" y="0px"
	 width="32px" height="32px" viewBox="0 0 32 32" enable-background="new 0 0 32 32" xml:space="preserve">
<g>
	<g>
		<defs>
			<path id="SVGID_1_" d="M6,26.5c0,0.8,2.2,1.5,5,1.5s5-0.7,5-1.5c0-0.629-1.359-1.196-3.302-1.41
				C12.17,25.032,14.06,27.46,11,27.46c-3.033,0-1.202-2.426-1.742-2.364C7.34,25.312,6,25.876,6,26.5"/>
		</defs>
		<use xlink:href="#SVGID_1_"  overflow="visible" fill="#64788D"/>
		<clipPath id="SVGID_2_">
			<use xlink:href="#SVGID_1_"  overflow="visible"/>
		</clipPath>
		<rect x="6" y="25" clip-path="url(#SVGID_2_)" fill="#64788D" width="10" height="3"/>
	</g>
</g>
<g>
	<g>
		<defs>
			<path id="SVGID_3_" d="M11,4C9.9,4,9.7,4.4,9.7,5l0,0l0,0v1.2V18.6V26.4c0,0.3,0.2,0.5,1.3,0.5s1.3-0.2,1.3-0.5v-9.7
				c2.2-0.8,2.7-0.8,6.3-1.5c3.4-0.3,7.4-2,8-4.8c0.2-1,0.101-1.6-0.399-1.6c-1.4,0-3.4,0.7-5.7-1.3c-2.7-2.4-5.6-2.9-8.3-2.9
				C11.9,4.3,11.9,4,11,4z"/>
		</defs>
		<use xlink:href="#SVGID_3_"  overflow="visible" fill="#64788D"/>
		<clipPath id="SVGID_4_">
			<use xlink:href="#SVGID_3_"  overflow="visible"/>
		</clipPath>
		<rect x="9.7" y="4" clip-path="url(#SVGID_4_)" fill="#64788D" width="17.1" height="23"/>
	</g>
</g>
</svg>
