<?xml version="1.0" encoding="utf-8"?>
<!-- Generator: Adobe Illustrator 15.0.2, SVG Export Plug-In . SVG Version: 6.00 Build 0)  -->
<!DOCTYPE svg PUBLIC "-//W3C//DTD SVG 1.1//EN" "http://www.w3.org/Graphics/SVG/1.1/DTD/svg11.dtd">
<svg version="1.1" id="Layer_1" xmlns="http://www.w3.org/2000/svg" xmlns:xlink="http://www.w3.org/1999/xlink" x="0px" y="0px"
	 width="32px" height="32px" viewBox="0 0 32 32" enable-background="new 0 0 32 32" xml:space="preserve">
<g>
	<g>
		<g>
			<path id="SVGID_1_" fill="#D6002B" d="M4,6v19c0,0.6,0.4,1,1,1h22c0.6,0,1-0.4,1-1V9c0-0.6-0.4-1-1-1H11V6H4z"/>
		</g>
		<g>
			<defs>
				<path id="SVGID_2_" d="M4,6v19c0,0.6,0.4,1,1,1h22c0.6,0,1-0.4,1-1V9c0-0.6-0.4-1-1-1H11V6H4z"/>
			</defs>
			<use xlink:href="#SVGID_2_"  overflow="visible" fill="#64788D"/>
			<clipPath id="SVGID_3_">
				<use xlink:href="#SVGID_2_"  overflow="visible"/>
			</clipPath>
			<rect x="4" y="6" clip-path="url(#SVGID_3_)" fill="#64788D" width="24" height="20"/>
		</g>
	</g>
</g>
</svg>
