<?xml version="1.0" encoding="utf-8"?>
<!-- Generator: Adobe Illustrator 15.0.2, SVG Export Plug-In . SVG Version: 6.00 Build 0)  -->
<!DOCTYPE svg PUBLIC "-//W3C//DTD SVG 1.1//EN" "http://www.w3.org/Graphics/SVG/1.1/DTD/svg11.dtd">
<svg version="1.1" id="Layer_1" xmlns="http://www.w3.org/2000/svg" xmlns:xlink="http://www.w3.org/1999/xlink" x="0px" y="0px"
	 width="32px" height="32px" viewBox="0 0 32 32" enable-background="new 0 0 32 32" xml:space="preserve">
<g>
	<g>
		<defs>
			<path id="SVGID_1_" d="M5.5,17c-0.9,0-1.7-0.3-2.3-0.7C1.9,16.9,1,18,1,19.2V24h2.2v-0.8h4v-4.4L10,22v-2.8
				c0-1.2-0.9-2.3-2.2-2.9C7.2,16.7,6.4,17,5.5,17"/>
		</defs>
		<use xlink:href="#SVGID_1_"  overflow="visible" fill="#FD9AAE"/>
		<clipPath id="SVGID_2_">
			<use xlink:href="#SVGID_1_"  overflow="visible"/>
		</clipPath>
		<rect x="1" y="16.3" clip-path="url(#SVGID_2_)" fill="#FD9AAE" width="9" height="7.7"/>
	</g>
</g>
<g>
	<g>
		<defs>
			<path id="SVGID_3_" d="M2.4,12.2c0,1.9,1.4,3.4,3.1,3.4s3.1-1.5,3.1-3.4c0-1.9-1.4-3.4-3.1-3.4S2.4,10.3,2.4,12.2"/>
		</defs>
		<clipPath id="SVGID_4_">
			<use xlink:href="#SVGID_3_"  overflow="visible"/>
		</clipPath>
		
			<linearGradient id="SVGID_5_" gradientUnits="userSpaceOnUse" x1="-295.8647" y1="-435.1343" x2="-294.8643" y2="-435.1343" gradientTransform="matrix(6.1875 0 0 6.1875 1833.0625 2704.5938)">
			<stop  offset="0" style="stop-color:#DCB496"/>
			<stop  offset="0.0198" style="stop-color:#DCB496"/>
			<stop  offset="1" style="stop-color:#EBC3A5"/>
		</linearGradient>
		<rect x="2.4" y="8.8" clip-path="url(#SVGID_4_)" fill="url(#SVGID_5_)" width="6.2" height="6.8"/>
	</g>
</g>
<g>
	<g>
		<defs>
			<rect id="SVGID_6_" x="1" y="4.3" width="30" height="25.7"/>
		</defs>
		<clipPath id="SVGID_7_">
			<use xlink:href="#SVGID_6_"  overflow="visible"/>
		</clipPath>
		<path clip-path="url(#SVGID_7_)" fill="#7C655E" d="M26.5,15.6c1.7,0,3.1-1.5,3.1-3.4c0-1.9-1.399-3.4-3.1-3.4s-3.1,1.5-3.1,3.4
			C23.4,14.1,24.8,15.6,26.5,15.6"/>
	</g>
	<g>
		<defs>
			<rect id="SVGID_8_" x="1" y="4.3" width="30" height="25.7"/>
		</defs>
		<clipPath id="SVGID_9_">
			<use xlink:href="#SVGID_8_"  overflow="visible"/>
		</clipPath>
		<path clip-path="url(#SVGID_9_)" fill="#DCB496" d="M16,11.1c1.7,0,3.1-1.5,3.1-3.4c0-1.9-1.399-3.4-3.1-3.4s-3.1,1.5-3.1,3.4
			C12.9,9.6,14.3,11.1,16,11.1"/>
	</g>
</g>
<g>
	<g>
		<defs>
			<path id="SVGID_10_" d="M16,12.5c-0.9,0-1.7-0.3-2.3-0.7c-1.3,0.6-2.2,1.7-2.2,2.9v4.8h9v-4.8c0-1.2-0.9-2.3-2.2-2.9
				C17.7,12.2,16.9,12.5,16,12.5"/>
		</defs>
		<use xlink:href="#SVGID_10_"  overflow="visible" fill="#D6002B"/>
		<clipPath id="SVGID_11_">
			<use xlink:href="#SVGID_10_"  overflow="visible"/>
		</clipPath>
		<rect x="11.5" y="11.8" clip-path="url(#SVGID_11_)" fill="#D6002B" width="9" height="7.7"/>
	</g>
</g>
<g>
	<g>
		<defs>
			<path id="SVGID_12_" d="M26.5,17c-0.9,0-1.7-0.3-2.3-0.7C22.9,16.9,22,18,22,19.2V24h9v-4.8c0-1.2-0.9-2.3-2.2-2.9
				C28.2,16.7,27.4,17,26.5,17"/>
		</defs>
		<use xlink:href="#SVGID_12_"  overflow="visible" fill="#64788D"/>
		<clipPath id="SVGID_13_">
			<use xlink:href="#SVGID_12_"  overflow="visible"/>
		</clipPath>
		<rect x="22" y="16.3" clip-path="url(#SVGID_13_)" fill="#64788D" width="9" height="7.7"/>
	</g>
</g>
<g>
	<g>
		<defs>
			<polygon id="SVGID_14_" points="8,24 4,24 4,27 8,27 8,30 12,25.5 8,21 			"/>
		</defs>
		<use xlink:href="#SVGID_14_"  overflow="visible" fill="#049372"/>
		<clipPath id="SVGID_15_">
			<use xlink:href="#SVGID_14_"  overflow="visible"/>
		</clipPath>
		<rect x="4" y="21" clip-path="url(#SVGID_15_)" fill="#049372" width="8" height="9"/>
	</g>
</g>
</svg>
