<svg id="cat-pg" xmlns="http://www.w3.org/2000/svg" width="32" height="32" viewBox="0 0 32 32"><defs><style>.cls-1,.cls-2{fill:none;stroke:#000;stroke-linejoin:round;stroke-width:1.45px;}.cls-2{stroke-linecap:square;}</style></defs><path class="cls-1" d="M21.3,8.3a2.3,2.3,0,0,0,.4-1.4A2.7,2.7,0,0,0,19,4.3a2,2,0,0,0-1.3.4,4.7,4.7,0,0,0-3.2-1.2,5,5,0,0,0-5,5,2,2,0,0,0,.1.7,4.9,4.9,0,1,0,5.5,7.9,6.1,6.1,0,0,0,4.7,2.4,5.7,5.7,0,0,0,5.7-5.7A5.8,5.8,0,0,0,21.3,8.3Z"/><polyline class="cls-2" points="14.5 21 14.5 28.5 17.5 28.5 17.5 22.4"/></svg>