<?xml version="1.0" encoding="utf-8"?>
<!-- Generator: Adobe Illustrator 15.0.2, SVG Export Plug-In . SVG Version: 6.00 Build 0)  -->
<!DOCTYPE svg PUBLIC "-//W3C//DTD SVG 1.1//EN" "http://www.w3.org/Graphics/SVG/1.1/DTD/svg11.dtd">
<svg version="1.1" id="Layer_1" xmlns="http://www.w3.org/2000/svg" xmlns:xlink="http://www.w3.org/1999/xlink" x="0px" y="0px"
	 width="32px" height="32px" viewBox="0 0 32 32" enable-background="new 0 0 32 32" xml:space="preserve">
<rect fill="none" width="32" height="32"/>
<g>
	<g>
		<g>
			<defs>
				<path id="SVGID_1_" d="M9,16c0,3.867,3.133,7,7,7c3.866,0,7-3.133,7-7c0-3.866-3.134-7-7-7C12.133,9,9,12.134,9,16"/>
			</defs>
			<use xlink:href="#SVGID_1_"  overflow="visible" fill="#D6002B"/>
			<clipPath id="SVGID_2_">
				<use xlink:href="#SVGID_1_"  overflow="visible"/>
			</clipPath>
			<rect x="9" y="9" clip-path="url(#SVGID_2_)" fill="#D6002B" width="14" height="14"/>
		</g>
	</g>
</g>
<path fill="#78665D" d="M25,10c1.657,0,3-1.343,3-3s-1.343-3-3-3s-3,1.343-3,3S23.343,10,25,10"/>
<g>
	<g>
		<g>
			<defs>
				<path id="SVGID_3_" d="M4,7c0,1.657,1.343,3,3,3s2.999-1.343,2.999-3S8.657,4.001,7,4.001S4,5.343,4,7"/>
			</defs>
			<clipPath id="SVGID_4_">
				<use xlink:href="#SVGID_3_"  overflow="visible"/>
			</clipPath>
			
				<linearGradient id="SVGID_5_" gradientUnits="userSpaceOnUse" x1="-305.8052" y1="292.3301" x2="-304.8052" y2="292.3301" gradientTransform="matrix(6 0 0 -6 1838.832 1760.9766)">
				<stop  offset="0" style="stop-color:#D4B592"/>
				<stop  offset="0.0198" style="stop-color:#D4B592"/>
				<stop  offset="1" style="stop-color:#E3C4A1"/>
			</linearGradient>
			<rect x="4" y="4.001" clip-path="url(#SVGID_4_)" fill="url(#SVGID_5_)" width="5.999" height="5.999"/>
		</g>
	</g>
</g>
<g>
	<g>
		<g>
			<defs>
				<path id="SVGID_6_" d="M22,25c0,1.657,1.343,3,3,3s2.999-1.343,2.999-3S26.657,22.001,25,22.001S22,23.343,22,25"/>
			</defs>
			<clipPath id="SVGID_7_">
				<use xlink:href="#SVGID_6_"  overflow="visible"/>
			</clipPath>
			
				<linearGradient id="SVGID_8_" gradientUnits="userSpaceOnUse" x1="-305.8052" y1="292.3301" x2="-304.8052" y2="292.3301" gradientTransform="matrix(6 0 0 -6 1856.832 1778.9766)">
				<stop  offset="0" style="stop-color:#D4B592"/>
				<stop  offset="0.0198" style="stop-color:#D4B592"/>
				<stop  offset="1" style="stop-color:#E3C4A1"/>
			</linearGradient>
			<rect x="22" y="22.001" clip-path="url(#SVGID_7_)" fill="url(#SVGID_8_)" width="5.999" height="5.999"/>
		</g>
	</g>
</g>
<g>
	<g>
		<g>
			<defs>
				<path id="SVGID_9_" d="M4,25c0,1.657,1.343,3,3,3s2.999-1.343,2.999-3S8.657,22.001,7,22.001S4,23.343,4,25"/>
			</defs>
			<clipPath id="SVGID_10_">
				<use xlink:href="#SVGID_9_"  overflow="visible"/>
			</clipPath>
			
				<linearGradient id="SVGID_11_" gradientUnits="userSpaceOnUse" x1="-305.8052" y1="292.3301" x2="-304.8052" y2="292.3301" gradientTransform="matrix(6 0 0 -6 1838.832 1778.9766)">
				<stop  offset="0" style="stop-color:#D4B592"/>
				<stop  offset="0.0198" style="stop-color:#D4B592"/>
				<stop  offset="1" style="stop-color:#E3C4A1"/>
			</linearGradient>
			<rect x="4" y="22.001" clip-path="url(#SVGID_10_)" fill="url(#SVGID_11_)" width="5.999" height="5.999"/>
		</g>
	</g>
</g>
</svg>
