<?xml version="1.0" encoding="utf-8"?>
<!-- Generator: Adobe Illustrator 15.0.2, SVG Export Plug-In . SVG Version: 6.00 Build 0)  -->
<!DOCTYPE svg PUBLIC "-//W3C//DTD SVG 1.1//EN" "http://www.w3.org/Graphics/SVG/1.1/DTD/svg11.dtd">
<svg version="1.1" id="Layer_1" xmlns="http://www.w3.org/2000/svg" xmlns:xlink="http://www.w3.org/1999/xlink" x="0px" y="0px"
	 width="32px" height="32px" viewBox="0 0 32 32" enable-background="new 0 0 32 32" xml:space="preserve">
<rect fill="none" width="32" height="32"/>
<g>
	<g>
		<g>
			<g>
				<rect id="SVGID_1_" x="6.008" y="4" fill="#64788D" width="19.984" height="12.146"/>
			</g>
			<g>
				<g>
					<defs>
						<rect id="SVGID_2_" x="6.008" y="4" width="19.984" height="12.146"/>
					</defs>
					<use xlink:href="#SVGID_2_"  overflow="visible" fill="#64788D"/>
					<clipPath id="SVGID_3_">
						<use xlink:href="#SVGID_2_"  overflow="visible"/>
					</clipPath>
					<rect x="6.008" y="4" clip-path="url(#SVGID_3_)" fill="#64788D" width="19.984" height="12.146"/>
				</g>
			</g>
		</g>
	</g>
</g>
<path fill="#D6002B" d="M26,16H6v2h5.284l-3.943,8.582c-0.23,0.502-0.011,1.096,0.491,1.326C7.968,27.971,8.11,28,8.25,28
	c0.378,0,0.741-0.216,0.909-0.582l1.496-3.256h10.691l1.496,3.256C23.01,27.784,23.372,28,23.751,28c0.14,0,0.282-0.029,0.417-0.092
	c0.502-0.23,0.723-0.824,0.491-1.326L20.716,18H26V16z M18.591,18.168l1.835,3.994h-8.853l1.835-3.994
	c0.025-0.054,0.025-0.111,0.04-0.168h5.104C18.566,18.057,18.566,18.113,18.591,18.168z"/>
</svg>
