<svg id="cat-pg" xmlns="http://www.w3.org/2000/svg" width="32" height="32" viewBox="0 0 32 32">
  <defs>
    <style>
      .cls-1 {
        fill: none;
        stroke: #000;
        stroke-linejoin: round;
        stroke-width: 1.45px;
      }
    </style>
  </defs>
  <g>
    <g>
      <path class="cls-1" d="M23.78,11.59V6.42a3.53,3.53,0,0,0-1-2.52h0a3.57,3.57,0,0,0-2.52-1H6.45a3.57,3.57,0,0,0-2.52,1h0a3.53,3.53,0,0,0-1,2.52V15.5a3.07,3.07,0,0,0,.52,1.71h0A3,3,0,0,0,5.9,18.52H6v5.23l4.35-5.23h2.41"/>
      <path class="cls-1" d="M28.35,16.22h0a2.7,2.7,0,0,1,.76,1.89v4.27a2.7,2.7,0,0,1-.76,1.89h0a2.72,2.72,0,0,1-2,.83H26l-3.27,4v-4H19.29a2.72,2.72,0,0,1-1.95-.83h0a2.7,2.7,0,0,1-.77-1.89V18.11a2.7,2.7,0,0,1,.77-1.89h0a2.72,2.72,0,0,1,1.95-.83h7.1A2.72,2.72,0,0,1,28.35,16.22Z"/>
      <polyline class="cls-1" points="20.16 20.36 22 22.21 25.9 18.32"/>
    </g>
    <g>
      <path class="cls-1" d="M10.54,8.71s0-1.93,2.62-1.93h.08C15,6.81,16,8.42,15,9.6l-2,2.61v1"/>
      <line class="cls-1" x1="12.96" y1="14.02" x2="12.96" y2="15.09"/>
    </g>
  </g>
</svg>
