<?xml version="1.0" encoding="utf-8"?>
<!-- Generator: Adobe Illustrator 15.0.2, SVG Export Plug-In . SVG Version: 6.00 Build 0)  -->
<!DOCTYPE svg PUBLIC "-//W3C//DTD SVG 1.1//EN" "http://www.w3.org/Graphics/SVG/1.1/DTD/svg11.dtd">
<svg version="1.1" id="Layer_1" xmlns="http://www.w3.org/2000/svg" xmlns:xlink="http://www.w3.org/1999/xlink" x="0px" y="0px"
	 width="32px" height="32px" viewBox="0 0 32 32" enable-background="new 0 0 32 32" xml:space="preserve">
<g>
	<rect fill="none" width="31.999" height="32"/>
	<g>
		<g>
			<g>
				<g>
					<path id="SVGID_1_" fill="#D6002B" d="M5.4,1c0,0-0.401,0-0.683,0.283L1.282,4.717C1.282,4.717,1,5,1,5.4v14.4
						c0,0,0,0.4,0.399,0.4h13.6c0,0,0.401,0,0.401-0.4V1.4c0,0,0-0.4-0.401-0.4H5.4z"/>
				</g>
				<g>
					<g>
						<path id="SVGID_2_" fill="#D6002B" d="M5.4,1c0,0-0.401,0-0.683,0.283L1.282,4.717C1.282,4.717,1,5,1,5.4v14.4
							c0,0,0,0.4,0.399,0.4h13.6c0,0,0.401,0,0.401-0.4V1.4c0,0,0-0.4-0.401-0.4H5.4z"/>
					</g>
					<g>
						<defs>
							<path id="SVGID_4_" d="M5.4,1c0,0-0.401,0-0.683,0.283L1.282,4.717C1.282,4.717,1,5,1,5.4v14.4c0,0,0,0.4,0.399,0.4h13.6
								c0,0,0.401,0,0.401-0.4V1.4c0,0,0-0.4-0.401-0.4H5.4z"/>
						</defs>
						<use xlink:href="#SVGID_4_"  overflow="visible" fill="#D6002B"/>
						<clipPath id="SVGID_5_">
							<use xlink:href="#SVGID_4_"  overflow="visible"/>
						</clipPath>
						<rect x="1" y="1" clip-path="url(#SVGID_5_)" fill="#D6002B" width="14.4" height="19.2"/>
					</g>
				</g>
			</g>
		</g>
	</g>
	<polygon fill="#FFFFFF" points="2.6,6.6 2.6,18.6 13.8,18.6 13.8,2.6 6.6,2.6 6.6,6.6 	"/>
	<g>
		<g>
			<g>
				<g>
					<path id="SVGID_3_" fill="#64788D" d="M7.5,11.001c0,0-0.501,0-0.501,0.499v16c0,0,0,0.5,0.501,0.5h9.499v1.001l-3,2h10
						l-2.999-2V28h9.499c0,0,0.5,0,0.5-0.5v-16c0,0,0-0.499-0.5-0.499H7.5z"/>
				</g>
				<g>
					<g>
						<defs>
							<path id="SVGID_6_" d="M7.5,11.001c0,0-0.501,0-0.501,0.499v16c0,0,0,0.5,0.501,0.5h9.499v1.001l-3,2h10l-2.999-2V28h9.499
								c0,0,0.5,0,0.5-0.5v-16c0,0,0-0.499-0.5-0.499H7.5z"/>
						</defs>
						<use xlink:href="#SVGID_6_"  overflow="visible" fill="#64788D"/>
						<clipPath id="SVGID_7_">
							<use xlink:href="#SVGID_6_"  overflow="visible"/>
						</clipPath>
						<rect x="6.999" y="11.001" clip-path="url(#SVGID_7_)" fill="#64788D" width="24" height="20"/>
					</g>
				</g>
			</g>
		</g>
	</g>
	<rect x="9" y="13" fill="#FFFFFF" width="20" height="13"/>
</g>
</svg>
