<?xml version="1.0" encoding="utf-8"?>
<!-- Generator: Adobe Illustrator 15.0.2, SVG Export Plug-In . SVG Version: 6.00 Build 0)  -->
<!DOCTYPE svg PUBLIC "-//W3C//DTD SVG 1.1//EN" "http://www.w3.org/Graphics/SVG/1.1/DTD/svg11.dtd">
<svg version="1.1" id="Layer_1" xmlns="http://www.w3.org/2000/svg" xmlns:xlink="http://www.w3.org/1999/xlink" x="0px" y="0px"
	 width="32px" height="32px" viewBox="0 0 32 32" enable-background="new 0 0 32 32" xml:space="preserve">
<g>
	<g>
		<g>
			<defs>
				<path id="SVGID_1_" d="M17,4c0,0-0.5,0-0.5,0.5v23c0,0,0,0.5,0.5,0.5h8c0,0,0.5,0,0.5-0.5V13.4c-0.3,0.1-0.7,0.1-1,0.1
					c-3.3,0-6-2.7-6-6c0-1.3,0.4-2.5,1.1-3.5H17z"/>
			</defs>
			<use xlink:href="#SVGID_1_"  overflow="visible" fill="#64788D"/>
			<clipPath id="SVGID_2_">
				<use xlink:href="#SVGID_1_"  overflow="visible"/>
			</clipPath>
			<rect x="16.5" y="4" clip-path="url(#SVGID_2_)" fill="#64788D" width="9" height="24"/>
		</g>
	</g>
	<rect x="18.9" y="21.3" fill="#FFFFFF" width="4.5" height="1.5"/>
	<rect x="18.9" y="24.3" fill="#FFFFFF" width="4.5" height="1.5"/>
	<g>
		<g>
			<defs>
				<polygon id="SVGID_3_" points="7.3,19.2 7.3,20.5 10.4,20.5 7.2,24.4 7.2,25.8 12.4,25.8 12.4,24.5 9.1,24.5 12.4,20.6 
					12.4,19.2 				"/>
			</defs>
			<use xlink:href="#SVGID_3_"  overflow="visible" fill="#D6002B"/>
			<clipPath id="SVGID_4_">
				<use xlink:href="#SVGID_3_"  overflow="visible"/>
			</clipPath>
			<rect x="7.2" y="19.2" clip-path="url(#SVGID_4_)" fill="#D6002B" width="5.2" height="6.6"/>
		</g>
	</g>
	<g>
		<g>
			<defs>
				<rect id="SVGID_5_" x="8.5" y="14.7" width="2.7" height="1.3"/>
			</defs>
			<use xlink:href="#SVGID_5_"  overflow="visible" fill="#D6002B"/>
			<clipPath id="SVGID_6_">
				<use xlink:href="#SVGID_5_"  overflow="visible"/>
			</clipPath>
			<rect x="8.5" y="14.7" clip-path="url(#SVGID_6_)" fill="#D6002B" width="2.7" height="1.3"/>
		</g>
	</g>
	<g>
		<g>
			<defs>
				<path id="SVGID_7_" d="M9.8,6.9L9.8,6.9l0.8,2.5H9L9.8,6.9z M8.8,5.6l-2.4,6.3h1.7l0.5-1.3H11l0.5,1.3h1.8l-2.4-6.3H8.8z"/>
			</defs>
			<use xlink:href="#SVGID_7_"  overflow="visible" fill="#D6002B"/>
			<clipPath id="SVGID_8_">
				<use xlink:href="#SVGID_7_"  overflow="visible"/>
			</clipPath>
			<rect x="6.4" y="5.6" clip-path="url(#SVGID_8_)" fill="#D6002B" width="6.9" height="6.3"/>
		</g>
	</g>
	<g>
		<g>
			<defs>
				<circle id="SVGID_9_" cx="24.5" cy="7.5" r="5"/>
			</defs>
			<use xlink:href="#SVGID_9_"  overflow="visible" fill="#64788D"/>
			<clipPath id="SVGID_10_">
				<use xlink:href="#SVGID_9_"  overflow="visible"/>
			</clipPath>
			<rect x="19.5" y="2.5" clip-path="url(#SVGID_10_)" fill="#64788D" width="10" height="10"/>
		</g>
	</g>
	<g>
		<g>
			<defs>
				<rect id="SVGID_11_" x="6.4" y="2.5" width="23.1" height="25.5"/>
			</defs>
			<clipPath id="SVGID_12_">
				<use xlink:href="#SVGID_11_"  overflow="visible"/>
			</clipPath>
			<path clip-path="url(#SVGID_12_)" fill="#FFFFFF" d="M26,4.9c-1.1,1.1-2.1,0-2.1,1.1S26,7.1,26,9.2c0,1.1,2.1-1.1,2.1-2.1
				S26.7,4.2,26,4.9"/>
		</g>
		<g>
			<defs>
				<rect id="SVGID_13_" x="6.4" y="2.5" width="23.1" height="25.5"/>
			</defs>
			<clipPath id="SVGID_14_">
				<use xlink:href="#SVGID_13_"  overflow="visible"/>
			</clipPath>
			<path clip-path="url(#SVGID_14_)" fill="#FFFFFF" d="M23.1,7.4C23.2,6.4,21.7,6.5,21.2,7s0.399,1.7,0.7,2.5
				c0.199,0.7,0.199,0.8,0.8-0.2C23,8.7,23,8.6,23.1,7.4"/>
		</g>
	</g>
</g>
</svg>
