<?xml version="1.0" encoding="utf-8"?>
<!-- Generator: Adobe Illustrator 15.0.2, SVG Export Plug-In . SVG Version: 6.00 Build 0)  -->
<!DOCTYPE svg PUBLIC "-//W3C//DTD SVG 1.1//EN" "http://www.w3.org/Graphics/SVG/1.1/DTD/svg11.dtd">
<svg version="1.1" id="Layer_1" xmlns="http://www.w3.org/2000/svg" xmlns:xlink="http://www.w3.org/1999/xlink" x="0px" y="0px"
	 width="21.875px" height="21.875px" viewBox="24.062 1.562 21.875 21.875" enable-background="new 24.062 1.562 21.875 21.875"
	 xml:space="preserve">
<g>
	<g>
		<g>
			<defs>
				<rect id="SVGID_1_" x="24.062" y="1.562" width="21.875" height="21.875"/>
			</defs>
			<clipPath id="SVGID_2_">
				<use xlink:href="#SVGID_1_"  overflow="visible"/>
			</clipPath>
			<path clip-path="url(#SVGID_2_)" fill="#D6002B" d="M35,2.969c2.188,0,4.141,0.703,5.703,1.953l-2.266,2.266
				C37.422,6.562,36.25,6.172,35,6.172s-2.422,0.391-3.438,1.016l-2.266-2.344C30.859,3.672,32.812,2.969,35,2.969 M25.469,12.5
				c0-2.188,0.703-4.141,1.875-5.703l2.266,2.266c-0.625,1.016-1.016,2.188-1.016,3.438s0.391,2.422,1.016,3.438l-2.266,2.266
				C26.172,16.641,25.469,14.688,25.469,12.5 M35,17.5c-2.734,0-5-2.266-5-5c0-2.734,2.266-5,5-5c2.734,0,5,2.266,5,5
				C40,15.234,37.734,17.5,35,17.5 M35,22.031c-2.188,0-4.141-0.703-5.703-1.875l2.266-2.266c1.016,0.625,2.188,1.016,3.438,1.016
				s2.422-0.391,3.438-1.016l2.266,2.266C39.141,21.328,37.188,22.031,35,22.031 M42.656,6.797c1.172,1.562,1.875,3.594,1.875,5.703
				c0,2.188-0.703,4.141-1.953,5.703l-2.266-2.266c0.625-1.017,1.016-2.188,1.016-3.438s-0.391-2.422-1.016-3.438L42.656,6.797z
				 M45.938,12.5c0-6.016-4.922-10.938-10.938-10.938c-6.016,0-10.938,4.922-10.938,10.938c0,6.016,4.922,10.938,10.938,10.938
				C41.016,23.438,45.938,18.516,45.938,12.5"/>
		</g>
	</g>
</g>
</svg>
