<?xml version="1.0" encoding="utf-8"?>
<!-- Generator: Adobe Illustrator 15.0.2, SVG Export Plug-In . SVG Version: 6.00 Build 0)  -->
<!DOCTYPE svg PUBLIC "-//W3C//DTD SVG 1.1//EN" "http://www.w3.org/Graphics/SVG/1.1/DTD/svg11.dtd">
<svg version="1.1" id="Layer_1" xmlns="http://www.w3.org/2000/svg" xmlns:xlink="http://www.w3.org/1999/xlink" x="0px" y="0px"
	 width="32px" height="32px" viewBox="0 0 32 32" enable-background="new 0 0 32 32" xml:space="preserve">
<rect x="-1" y="-1" fill="none" width="32" height="32"/>
<g>
	<g>
		<g>
			<path id="SVGID_1_" fill="#D6002B" d="M3.651,11.256c0,0-0.651,0-0.651,0.65v6.141c0,0,0,0.651,0.651,0.651h3.498
				c0,0,0.651,0,0.651-0.651v-6.141c0,0,0-0.65-0.651-0.65H3.651z"/>
		</g>
	</g>
</g>
<path fill="#64788D" d="M19.5,22.532c-0.23,0-0.461-0.089-0.637-0.265c-0.354-0.353-0.354-0.922,0-1.272
	c0.072-0.073,1.859-1.961,1.859-5.995c0-4.035-1.787-5.923-1.863-6.001c-0.346-0.355-0.342-0.923,0.012-1.271
	c0.352-0.347,0.914-0.348,1.266,0.002c0.098,0.097,2.387,2.442,2.387,7.269s-2.289,7.171-2.387,7.269
	C19.961,22.443,19.73,22.532,19.5,22.532z"/>
<path fill="#64788D" d="M22.6,25.754c-0.246,0-0.49-0.102-0.668-0.298c-0.332-0.37-0.304-0.938,0.065-1.271
	C22.025,24.158,25.2,21.175,25.2,15c0-6.174-3.175-9.159-3.206-9.188c-0.365-0.335-0.393-0.903-0.059-1.27
	c0.332-0.367,0.897-0.396,1.267-0.064C23.357,4.617,27.001,7.98,27.001,15c0,7.021-3.644,10.383-3.799,10.521
	C23.029,25.677,22.814,25.754,22.6,25.754z"/>
<path fill="#D6002B" d="M9,11.48c0,0,0-0.39,0.328-0.603l6.544-4.24c0,0,0.328-0.212,0.328,0.178v16.324c0,0,0,0.391-0.328,0.178
	l-6.544-4.239c0,0-0.328-0.212-0.328-0.603V11.48z"/>
</svg>
