<?xml version="1.0" encoding="utf-8"?>
<!-- Generator: Adobe Illustrator 15.0.2, SVG Export Plug-In . SVG Version: 6.00 Build 0)  -->
<!DOCTYPE svg PUBLIC "-//W3C//DTD SVG 1.1//EN" "http://www.w3.org/Graphics/SVG/1.1/DTD/svg11.dtd">
<svg version="1.1" id="Layer_1" xmlns="http://www.w3.org/2000/svg" xmlns:xlink="http://www.w3.org/1999/xlink" x="0px" y="0px"
	 width="32px" height="32px" viewBox="0 0 32 32" enable-background="new 0 0 32 32" xml:space="preserve">
<g>
	<rect fill="none" width="32" height="32"/>
	<g>
		<g>
			<g>
				<g>
					<rect id="SVGID_1_" x="5" y="10" fill="#64788D" width="3" height="3"/>
				</g>
				<g>
					<g>
						<defs>
							<rect id="SVGID_2_" x="5" y="10" width="3" height="3"/>
						</defs>
						<use xlink:href="#SVGID_2_"  overflow="visible" fill="#64788D"/>
						<clipPath id="SVGID_4_">
							<use xlink:href="#SVGID_2_"  overflow="visible"/>
						</clipPath>
						<rect x="5" y="10" clip-path="url(#SVGID_4_)" fill="#64788D" width="3" height="3"/>
					</g>
				</g>
			</g>
		</g>
	</g>
	<g>
		<g>
			<g>
				<g>
					<rect id="SVGID_3_" x="5" y="16.5" fill="#64788D" width="3" height="3"/>
				</g>
				<g>
					<g>
						<defs>
							<rect id="SVGID_6_" x="5" y="16.5" width="3" height="3"/>
						</defs>
						<use xlink:href="#SVGID_6_"  overflow="visible" fill="#64788D"/>
						<clipPath id="SVGID_8_">
							<use xlink:href="#SVGID_6_"  overflow="visible"/>
						</clipPath>
						<rect x="5" y="16.5" clip-path="url(#SVGID_8_)" fill="#64788D" width="3" height="3"/>
					</g>
				</g>
			</g>
		</g>
	</g>
	<g>
		<g>
			<g>
				<g>
					<rect id="SVGID_5_" x="5" y="23" fill="#64788D" width="3" height="3"/>
				</g>
				<g>
					<g>
						<defs>
							<rect id="SVGID_9_" x="5" y="23" width="3" height="3"/>
						</defs>
						<use xlink:href="#SVGID_9_"  overflow="visible" fill="#64788D"/>
						<clipPath id="SVGID_10_">
							<use xlink:href="#SVGID_9_"  overflow="visible"/>
						</clipPath>
						<rect x="5" y="23" clip-path="url(#SVGID_10_)" fill="#64788D" width="3" height="3"/>
					</g>
				</g>
			</g>
		</g>
	</g>
	<g>
		<path fill="#64788D" d="M27.999,8.001V4.5c0,0,0-0.499-0.5-0.499h-17c0,0-0.5,0-0.5,0.499v5c0,0,0.001,0.008,0.001,0.009v18.493
			h13V28l4.999-4.999H28L27.999,8.001L27.999,8.001z M22,22.001v5H11V10h16v12.001H22z"/>
		<polygon fill="#FFFFFF" points="22,22.001 22,27.001 11,27.001 11,10 27,10 27,22.001 		"/>
		<g>
			<g>
				<g>
					<g>
						<path id="SVGID_7_" fill="#D6002B" d="M16.244,13.001l-0.092,4.778c0.67-0.195,1.292-0.293,1.866-0.293
							c0.281,0,0.551,0.022,0.809,0.074c0.256,0.049,0.479,0.129,0.668,0.246c0.188,0.112,0.342,0.267,0.457,0.457
							c0.111,0.188,0.172,0.432,0.172,0.723c0,0.311-0.061,0.568-0.173,0.777c-0.115,0.209-0.269,0.371-0.458,0.495
							c-0.19,0.124-0.413,0.218-0.672,0.272c-0.258,0.058-0.529,0.087-0.821,0.087c-0.337,0-0.679-0.029-1.021-0.087
							c-0.348-0.059-0.673-0.148-0.982-0.272l-0.079,1.396c0.372,0.125,0.765,0.213,1.181,0.266s0.823,0.081,1.221,0.081
							c0.461,0,0.916-0.063,1.369-0.187c0.451-0.123,0.855-0.312,1.211-0.56c0.357-0.247,0.646-0.562,0.863-0.94
							c0.219-0.381,0.327-0.832,0.327-1.354c0-0.487-0.086-0.897-0.259-1.235c-0.172-0.334-0.402-0.605-0.689-0.813
							s-0.623-0.354-1.002-0.444c-0.382-0.089-0.779-0.133-1.195-0.133c-0.168,0-0.346,0.007-0.529,0.02
							c-0.188,0.014-0.367,0.042-0.544,0.087l0.093-2.125h3.703v-1.313L16.244,13.001L16.244,13.001z"/>
					</g>
					<g>
						<g>
							<path id="SVGID_11_" fill="#D6002B" d="M16.244,13.001l-0.092,4.778c0.67-0.195,1.292-0.293,1.866-0.293
								c0.281,0,0.551,0.022,0.809,0.074c0.256,0.049,0.479,0.129,0.668,0.246c0.188,0.112,0.342,0.267,0.457,0.457
								c0.111,0.188,0.172,0.432,0.172,0.723c0,0.311-0.061,0.568-0.173,0.777c-0.115,0.209-0.269,0.371-0.458,0.495
								c-0.19,0.124-0.413,0.218-0.672,0.272c-0.258,0.058-0.529,0.087-0.821,0.087c-0.337,0-0.679-0.029-1.021-0.087
								c-0.348-0.059-0.673-0.148-0.982-0.272l-0.079,1.396c0.372,0.125,0.765,0.213,1.181,0.266s0.823,0.081,1.221,0.081
								c0.461,0,0.916-0.063,1.369-0.187c0.451-0.123,0.855-0.312,1.211-0.56c0.357-0.247,0.646-0.562,0.863-0.94
								c0.219-0.381,0.327-0.832,0.327-1.354c0-0.487-0.086-0.897-0.259-1.235c-0.172-0.334-0.402-0.605-0.689-0.813
								s-0.623-0.354-1.002-0.444c-0.382-0.089-0.779-0.133-1.195-0.133c-0.168,0-0.346,0.007-0.529,0.02
								c-0.188,0.014-0.367,0.042-0.544,0.087l0.093-2.125h3.703v-1.313L16.244,13.001L16.244,13.001z"/>
						</g>
						<g>
							<defs>
								<path id="SVGID_12_" d="M16.244,13.001l-0.092,4.778c0.67-0.195,1.292-0.293,1.866-0.293c0.281,0,0.551,0.022,0.809,0.074
									c0.256,0.049,0.479,0.129,0.668,0.246c0.188,0.112,0.342,0.267,0.457,0.457c0.111,0.188,0.172,0.432,0.172,0.723
									c0,0.311-0.061,0.568-0.173,0.777c-0.115,0.209-0.269,0.371-0.458,0.495c-0.19,0.124-0.413,0.218-0.672,0.272
									c-0.258,0.058-0.529,0.087-0.821,0.087c-0.337,0-0.679-0.029-1.021-0.087c-0.348-0.059-0.673-0.148-0.982-0.272
									l-0.079,1.396c0.372,0.125,0.765,0.213,1.181,0.266s0.823,0.081,1.221,0.081c0.461,0,0.916-0.063,1.369-0.187
									c0.451-0.123,0.855-0.312,1.211-0.56c0.357-0.247,0.646-0.562,0.863-0.94c0.219-0.381,0.327-0.832,0.327-1.354
									c0-0.487-0.086-0.897-0.259-1.235c-0.172-0.334-0.402-0.605-0.689-0.813s-0.623-0.354-1.002-0.444
									c-0.382-0.089-0.779-0.133-1.195-0.133c-0.168,0-0.346,0.007-0.529,0.02c-0.188,0.014-0.367,0.042-0.544,0.087l0.093-2.125
									h3.703v-1.313L16.244,13.001L16.244,13.001z"/>
							</defs>
							<clipPath id="SVGID_13_">
								<use xlink:href="#SVGID_12_"  overflow="visible"/>
							</clipPath>
							<rect x="15.913" y="13.001" clip-path="url(#SVGID_13_)" fill="#D6002B" width="6.172" height="9"/>
						</g>
					</g>
				</g>
			</g>
		</g>
	</g>
</g>
</svg>
