<?xml version="1.0" encoding="utf-8"?>
<!-- Generator: Adobe Illustrator 15.0.2, SVG Export Plug-In . SVG Version: 6.00 Build 0)  -->
<!DOCTYPE svg PUBLIC "-//W3C//DTD SVG 1.1//EN" "http://www.w3.org/Graphics/SVG/1.1/DTD/svg11.dtd">
<svg version="1.1" id="Layer_1" xmlns="http://www.w3.org/2000/svg" xmlns:xlink="http://www.w3.org/1999/xlink" x="0px" y="0px"
	 width="32px" height="32px" viewBox="0 0 32 32" enable-background="new 0 0 32 32" xml:space="preserve">
<rect fill="none" width="32" height="32"/>
<g>
	<g>
		<g>
			<g>
				<path id="SVGID_4_" fill="#D6002B" d="M8.336,22.026c-0.426,0.256-2.47,1.703-2.47,3.236v0.085v0.085
					c0,0.512,0.255,1.107,1.277,1.618c0.34,0.171,0.767,0.256,1.193,0.256c1.363,0,3.151-0.596,5.11-1.277
					c3.151-1.023,6.813-2.214,7.579-0.598c0.426,0.852,0.936,1.279,1.447,1.448c0.766,0.254,1.533-0.255,2.043-0.597
					c0.342-0.254,0.682-0.427,0.938-0.427c0.34,0,0.682-0.254,0.682-0.681c0-0.34-0.256-0.682-0.682-0.682
					c-0.596,0-1.191,0.341-1.619,0.682c-0.338,0.255-0.764,0.512-1.021,0.427c-0.084,0-0.34-0.171-0.682-0.767
					c-1.361-2.64-5.535-1.277-9.197-0.085c-1.958,0.767-4.428,1.532-5.195,1.107c-0.34-0.17-0.511-0.34-0.511-0.511
					c0-0.597,1.108-1.703,1.874-2.214c0.256-0.256,0.34-0.597,0.17-0.937c-0.085-0.171-0.34-0.256-0.511-0.256
					C8.589,21.941,8.42,21.941,8.336,22.026"/>
			</g>
			<g>
				<defs>
					<path id="SVGID_1_" d="M8.336,22.026c-0.426,0.256-2.47,1.703-2.47,3.236v0.085v0.085c0,0.512,0.255,1.107,1.277,1.618
						c0.34,0.171,0.767,0.256,1.193,0.256c1.363,0,3.151-0.596,5.11-1.277c3.151-1.023,6.813-2.214,7.579-0.598
						c0.426,0.852,0.936,1.279,1.447,1.448c0.766,0.254,1.533-0.255,2.043-0.597c0.342-0.254,0.682-0.427,0.938-0.427
						c0.34,0,0.682-0.254,0.682-0.681c0-0.34-0.256-0.682-0.682-0.682c-0.596,0-1.191,0.341-1.619,0.682
						c-0.338,0.255-0.764,0.512-1.021,0.427c-0.084,0-0.34-0.171-0.682-0.767c-1.361-2.64-5.535-1.277-9.197-0.085
						c-1.958,0.767-4.428,1.532-5.195,1.107c-0.34-0.17-0.511-0.34-0.511-0.511c0-0.597,1.108-1.703,1.874-2.214
						c0.256-0.256,0.34-0.597,0.17-0.937c-0.085-0.171-0.34-0.256-0.511-0.256C8.589,21.941,8.42,21.941,8.336,22.026"/>
				</defs>
				<clipPath id="SVGID_2_">
					<use xlink:href="#SVGID_1_"  overflow="visible"/>
				</clipPath>
				<rect x="5.866" y="21.941" clip-path="url(#SVGID_2_)" fill="#D6002B" width="20.353" height="5.365"/>
			</g>
		</g>
	</g>
	<g>
		<g>
			<g>
				<defs>
					
						<rect id="SVGID_3_" x="11.419" y="9.134" transform="matrix(0.4695 -0.8829 0.8829 0.4695 -0.9724 22.4401)" width="13.539" height="5.791"/>
				</defs>
				<clipPath id="SVGID_5_">
					<use xlink:href="#SVGID_3_"  overflow="visible"/>
				</clipPath>
				<polygon clip-path="url(#SVGID_5_)" fill="#64788D" points="14.978,-0.115 29.967,7.89 21.365,24.155 6.292,16.15 				"/>
			</g>
		</g>
	</g>
	<g>
		<g>
			<g>
				<defs>
					<polygon id="SVGID_6_" points="12.424,16.661 12.168,23.304 17.533,19.387 					"/>
				</defs>
				<clipPath id="SVGID_7_">
					<use xlink:href="#SVGID_6_"  overflow="visible"/>
				</clipPath>
				
					<linearGradient id="SVGID_8_" gradientUnits="userSpaceOnUse" x1="95.8213" y1="24.4414" x2="96.9106" y2="24.4414" gradientTransform="matrix(4.7104 2.5045 2.5045 -4.7104 -500.9972 -106.6231)">
					<stop  offset="0" style="stop-color:#DCB496"/>
					<stop  offset="0.0198" style="stop-color:#DCB496"/>
					<stop  offset="1" style="stop-color:#EBC3A5"/>
				</linearGradient>
				<polygon clip-path="url(#SVGID_7_)" fill="url(#SVGID_8_)" points="13.36,14.447 20.258,18.109 16.34,25.519 9.442,21.771 				
					"/>
			</g>
		</g>
	</g>
	<g>
		<g>
			<g>
				<defs>
					<polygon id="SVGID_9_" points="12.252,20.664 12.168,23.304 14.296,21.771 					"/>
				</defs>
				<clipPath id="SVGID_10_">
					<use xlink:href="#SVGID_9_"  overflow="visible"/>
				</clipPath>
				<polygon clip-path="url(#SVGID_10_)" fill="#D6002B" points="12.679,19.812 15.404,21.26 13.871,24.155 11.061,22.708 				"/>
			</g>
		</g>
	</g>
</g>
</svg>
