<svg id="cat-pg" xmlns="http://www.w3.org/2000/svg" width="32" height="32" viewBox="0 0 32 32"><defs><style>.cls-1,.cls-2{fill:none;stroke:#000;stroke-linejoin:round;stroke-width:1.45px;}.cls-1{stroke-linecap:round;}</style></defs><path class="cls-1" d="M16.3,17.8a.4.4,0,0,0-.4.4V25a.4.4,0,0,0,.4.4H26.9s.5,0,.5-.4V18.2s0-.4-.5-.4Z"/><polygon class="cls-1" points="17.1 25.4 15.3 28 28 28 26.1 25.4 17.1 25.4"/><path class="cls-2" d="M4,22.9h7.8M8.7,26.4l3.6-3.5L8.7,19.3"/><path class="cls-1" d="M15.7,4s.4,0,.4.5v6.8a.4.4,0,0,1-.4.4H5.1s-.5,0-.5-.4V4.5A.5.5,0,0,1,5.1,4Z"/><polygon class="cls-1" points="14.9 11.7 16.7 14.2 4 14.2 5.9 11.7 14.9 11.7"/><path class="cls-2" d="M20.2,9.1H28M23.3,5.6,19.7,9.1l3.6,3.6"/></svg>