<?xml version="1.0" encoding="utf-8"?>
<!-- Generator: Adobe Illustrator 15.0.2, SVG Export Plug-In . SVG Version: 6.00 Build 0)  -->
<!DOCTYPE svg PUBLIC "-//W3C//DTD SVG 1.1//EN" "http://www.w3.org/Graphics/SVG/1.1/DTD/svg11.dtd">
<svg version="1.1" id="Layer_1" xmlns="http://www.w3.org/2000/svg" xmlns:xlink="http://www.w3.org/1999/xlink" x="0px" y="0px"
	 width="32px" height="32px" viewBox="0 0 32 32" enable-background="new 0 0 32 32" xml:space="preserve">
<g>
	<g>
		<g>
			<g>
				<defs>
					<path id="SVGID_1_" d="M16,16.9c-1.4,0-2.6-0.5-3.5-1.103C10.4,16.8,9,18.4,9,20.4V27.8h14V20.4c0-1.9-1.4-3.603-3.5-4.5
						C18.6,16.5,17.4,16.9,16,16.9"/>
				</defs>
				<use xlink:href="#SVGID_1_"  overflow="visible" fill="#64788D"/>
				<clipPath id="SVGID_2_">
					<use xlink:href="#SVGID_1_"  overflow="visible"/>
				</clipPath>
				<rect x="9" y="15.9" clip-path="url(#SVGID_2_)" fill="#64788D" width="14" height="12"/>
			</g>
		</g>
	</g>
</g>
<g>
	<g>
		<g>
			<g>
				<defs>
					<ellipse id="SVGID_3_" cx="16" cy="9.4" rx="4.8" ry="5.2"/>
				</defs>
				<clipPath id="SVGID_4_">
					<use xlink:href="#SVGID_3_"  overflow="visible"/>
				</clipPath>
				
					<linearGradient id="SVGID_5_" gradientUnits="userSpaceOnUse" x1="-40.5" y1="-55.8301" x2="-39.5005" y2="-55.8301" gradientTransform="matrix(9.625 0 0 9.625 401 546.8125)">
					<stop  offset="0" style="stop-color:#DBB395"/>
					<stop  offset="0.0198" style="stop-color:#DBB395"/>
					<stop  offset="1" style="stop-color:#EAC2A4"/>
				</linearGradient>
				<rect x="11.2" y="4.2" clip-path="url(#SVGID_4_)" fill="url(#SVGID_5_)" width="9.6" height="10.5"/>
			</g>
		</g>
	</g>
</g>
<polygon fill="#FFFFFF" points="13,15.8 16,19.8 19,15.8 "/>
<g>
	<g>
		<g>
			<polygon id="SVGID_6_" fill="#64788D" points="14.1,16.3 16,18.8 17.9,16.3 			"/>
		</g>
		<g>
			<g>
				<polygon id="SVGID_7_" fill="#64788D" points="14.1,16.3 16,18.8 17.9,16.3 				"/>
			</g>
			<g>
				<defs>
					<polygon id="SVGID_8_" points="14.1,16.3 16,18.8 17.9,16.3 					"/>
				</defs>
				<clipPath id="SVGID_9_">
					<use xlink:href="#SVGID_8_"  overflow="visible"/>
				</clipPath>
				<rect x="14.1" y="16.3" clip-path="url(#SVGID_9_)" fill="#64788D" width="3.8" height="2.5"/>
			</g>
		</g>
	</g>
</g>
</svg>
