<svg id="cat-pg" xmlns="http://www.w3.org/2000/svg" width="32" height="32" viewBox="0 0 32 32"><defs><style>.cls-1{fill:none;stroke:#000;stroke-linejoin:round;stroke-width:1.45px;}</style></defs><path class="cls-1" d="M13.3,20.8c0,3.1,3.4,5.6,7.5,5.6a9.1,9.1,0,0,0,4.1-.9l3.3,2.8-1.1-4.6a4.4,4.4,0,0,0,1.1-2.9c0-3.1-3.3-5.6-7.4-5.6s-7.5,2.5-7.5,5.6"/><path class="cls-1" d="M10.2,18.5A18.4,18.4,0,0,1,7.4,17L3.8,19.7,5,14.8a5.8,5.8,0,0,1-1.2-3.6h0c0-4.1,4.5-7.5,10-7.5s10,3.4,10,7.5a1.7,1.7,0,0,1-.1.7v.4"/></svg>