<?xml version="1.0" encoding="utf-8"?>
<!-- Generator: Adobe Illustrator 15.0.2, SVG Export Plug-In . SVG Version: 6.00 Build 0)  -->
<!DOCTYPE svg PUBLIC "-//W3C//DTD SVG 1.1//EN" "http://www.w3.org/Graphics/SVG/1.1/DTD/svg11.dtd">
<svg version="1.1" id="Layer_1" xmlns="http://www.w3.org/2000/svg" xmlns:xlink="http://www.w3.org/1999/xlink" x="0px" y="0px"
	 width="32px" height="32px" viewBox="0 0 32 32" enable-background="new 0 0 32 32" xml:space="preserve">
<rect x="1" y="19.5" fill="#D6002B" width="7" height="7"/>
<rect x="24" y="19.5" fill="#D6002B" width="7" height="7"/>
<polygon fill="#D6002B" points="9.04,26.5 22.96,26.5 23.94,29.269 7.98,29.269 "/>
<rect x="9.04" y="15.5" fill="#D6002B" width="13.92" height="11.239"/>
<path fill="#FFFFFF" d="M16.859,25.66H15.14v-4.7c0-0.475,0.385-0.859,0.86-0.859l0,0c0.475,0,0.859,0.385,0.859,0.859V25.66z"/>
<path fill="#FFFFFF" d="M20.26,25.66h-1.72v-4.7c0-0.475,0.385-0.859,0.86-0.859l0,0c0.475,0,0.859,0.385,0.859,0.859V25.66z"/>
<path fill="#FFFFFF" d="M13.38,25.66h-1.72v-4.7c0-0.475,0.385-0.859,0.86-0.859l0,0c0.475,0,0.86,0.385,0.86,0.859V25.66z"/>
<path fill="#D6002B" d="M5.72,17.676h-4.7c0-1.299,1.052-2.352,2.35-2.352S5.72,16.376,5.72,17.676z"/>
<rect x="1.02" y="17.548" fill="#D6002B" width="6.96" height="1.079"/>
<path fill="#D6002B" d="M26.28,17.676h4.7c0-1.299-1.053-2.352-2.35-2.352C27.332,15.324,26.28,16.376,26.28,17.676z"/>
<rect x="24.021" y="17.548" fill="#D6002B" width="6.96" height="1.079"/>
<path fill="#D6002B" d="M21.76,14.5h-11.6c0-3.203,2.597-5.8,5.8-5.8S21.76,11.297,21.76,14.5z"/>
<rect x="15.59" y="3.66" fill="#D6002B" width="0.82" height="5.724"/>
<rect x="3.165" y="12.243" fill="#D6002B" width="0.41" height="3.757"/>
<rect x="28.426" y="12.243" fill="#D6002B" width="0.41" height="3.757"/>
<path fill="#FFFFFF" d="M17.68,14.598h-3.36c0-1.3,0.752-2.354,1.68-2.354S17.68,13.297,17.68,14.598z"/>
</svg>
