<?xml version="1.0" encoding="utf-8"?>
<!-- Generator: Adobe Illustrator 15.0.2, SVG Export Plug-In . SVG Version: 6.00 Build 0)  -->
<!DOCTYPE svg PUBLIC "-//W3C//DTD SVG 1.1//EN" "http://www.w3.org/Graphics/SVG/1.1/DTD/svg11.dtd">
<svg version="1.1" id="Layer_1" xmlns="http://www.w3.org/2000/svg" xmlns:xlink="http://www.w3.org/1999/xlink" x="0px" y="0px"
	 width="32px" height="32px" viewBox="0 0 32 32" enable-background="new 0 0 32 32" xml:space="preserve">
<g>
	<rect x="-1" y="-1" fill="none" width="32" height="32"/>
	<g>
		<g>
			<g>
				<g>
					<path id="SVGID_1_" fill="#64788D" d="M5,3c0,0-2,0-2,2v11c0,0,0,2,2,2h1v5l4.166-5H14v-3c0-2,2-2,2-2h7V5c0,0,0-2-2-2H5z"/>
				</g>
				<g>
					<g>
						<path id="SVGID_2_" fill="#64788D" d="M5,3c0,0-2,0-2,2v11c0,0,0,2,2,2h1v5l4.166-5H14v-3c0-2,2-2,2-2h7V5c0,0,0-2-2-2H5z"/>
					</g>
					<g>
						<defs>
							<path id="SVGID_4_" d="M5,3c0,0-2,0-2,2v11c0,0,0,2,2,2h1v5l4.166-5H14v-3c0-2,2-2,2-2h7V5c0,0,0-2-2-2H5z"/>
						</defs>
						<clipPath id="SVGID_6_">
							<use xlink:href="#SVGID_4_"  overflow="visible"/>
						</clipPath>
						<rect x="3" y="3" clip-path="url(#SVGID_6_)" fill="#64788D" width="20" height="20"/>
					</g>
				</g>
			</g>
		</g>
	</g>
	<rect x="6" y="6" fill="#FFFFFF" width="13.999" height="1"/>
	<rect x="6" y="9" fill="#FFFFFF" width="13.999" height="1"/>
	<rect x="6" y="12" fill="#FFFFFF" width="5.5" height="1"/>
	<g>
		<g>
			<g>
				<g>
					<path id="SVGID_3_" fill="#D6002B" d="M16.6,14c-1.5,0-1.5,1.549-1.5,1.549v6.197c0,1.549,1.5,1.549,1.5,1.549h4.375v3.873
						l3.125-3.873h1.5c1.5,0,1.5-1.549,1.5-1.549v-6.197C27.1,14,25.6,14,25.6,14H16.6z"/>
				</g>
				<g>
					<g>
						<path id="SVGID_5_" fill="#D6002B" d="M16.6,14c-1.5,0-1.5,1.549-1.5,1.549v6.197c0,1.549,1.5,1.549,1.5,1.549h4.375v3.873
							l3.125-3.873h1.5c1.5,0,1.5-1.549,1.5-1.549v-6.197C27.1,14,25.6,14,25.6,14H16.6z"/>
					</g>
					<g>
						<defs>
							<path id="SVGID_7_" d="M16.6,14c-1.5,0-1.5,1.549-1.5,1.549v6.197c0,1.549,1.5,1.549,1.5,1.549h4.375v3.873l3.125-3.873h1.5
								c1.5,0,1.5-1.549,1.5-1.549v-6.197C27.1,14,25.6,14,25.6,14H16.6z"/>
						</defs>
						<clipPath id="SVGID_8_">
							<use xlink:href="#SVGID_7_"  overflow="visible"/>
						</clipPath>
						<rect x="15.1" y="14" clip-path="url(#SVGID_8_)" fill="#D6002B" width="12" height="13.168"/>
					</g>
				</g>
			</g>
		</g>
	</g>
	<rect x="17.1" y="16" fill="#FFFFFF" width="8" height="1"/>
	<rect x="17.1" y="19" fill="#FFFFFF" width="5.5" height="1"/>
</g>
</svg>
