<svg id="cat-pg" xmlns="http://www.w3.org/2000/svg" width="32" height="32" viewBox="0 0 32 32"><defs><style>.cls-1{fill:none;stroke:#000;stroke-linecap:round;stroke-linejoin:round;stroke-width:1.45px;}</style></defs><ellipse class="cls-1" cx="9.3" cy="13.2" rx="3.2" ry="3.6"/><path class="cls-1" d="M11.8,18.6h0l-.6.3a4.3,4.3,0,0,1-1.9.4,4.1,4.1,0,0,1-1.9-.4h0l-.6-.3h0a3.7,3.7,0,0,0-2.5,3.3v5.3h10V21.9A3.7,3.7,0,0,0,11.8,18.6Z"/><ellipse class="cls-1" cx="22.9" cy="7.8" rx="3.2" ry="3.6"/><path class="cls-1" d="M25.4,13.1h0a.9.9,0,0,1-.6.3,4.1,4.1,0,0,1-1.9.4,4.1,4.1,0,0,1-1.9-.4h0l-.6-.3h0a3.8,3.8,0,0,0-2.5,3.3v5.3h10V16.4A3.8,3.8,0,0,0,25.4,13.1Z"/></svg>