<?xml version="1.0" encoding="utf-8"?>
<!-- Generator: Adobe Illustrator 15.0.2, SVG Export Plug-In . SVG Version: 6.00 Build 0)  -->
<!DOCTYPE svg PUBLIC "-//W3C//DTD SVG 1.1//EN" "http://www.w3.org/Graphics/SVG/1.1/DTD/svg11.dtd">
<svg version="1.1" id="Layer_1" xmlns="http://www.w3.org/2000/svg" xmlns:xlink="http://www.w3.org/1999/xlink" x="0px" y="0px"
	 width="32px" height="32px" viewBox="0 0 32 32" enable-background="new 0 0 32 32" xml:space="preserve">
<rect fill="none" width="32" height="32"/>
<g>
	<g>
		<g>
			<polygon id="SVGID_1_" fill="#64788D" points="24.124,6.862 23.114,8.892 13.022,18.303 14.107,19.468 24.201,10.057 
				26.296,9.191 28.081,6.438 28.081,6.436 26.996,5.272 			"/>
		</g>
		<g>
			<defs>
				<polygon id="SVGID_2_" points="24.124,6.862 23.114,8.892 13.022,18.303 14.107,19.468 24.201,10.057 26.296,9.191 
					28.081,6.438 28.081,6.436 26.996,5.272 				"/>
			</defs>
			<use xlink:href="#SVGID_2_"  overflow="visible" fill="#64788D"/>
			<clipPath id="SVGID_4_">
				<use xlink:href="#SVGID_2_"  overflow="visible"/>
			</clipPath>
			<polygon clip-path="url(#SVGID_4_)" fill="#64788D" points="5.941,11.875 20.025,26.979 35.162,12.865 21.077,-2.239 			"/>
		</g>
	</g>
</g>
<g>
	<g>
		<g>
			<path id="SVGID_3_" fill="#D6002B" d="M4.96,24.176c-0.861,0.803-0.949,2.109-0.196,2.917c0.753,0.808,2.063,0.812,2.924,0.009
				l8.143-8.277l-2.045-2.194L4.96,24.176z"/>
		</g>
		<g>
			<defs>
				<path id="SVGID_6_" d="M4.96,24.176c-0.861,0.803-0.949,2.109-0.196,2.917c0.753,0.808,2.063,0.812,2.924,0.009l8.143-8.277
					l-2.045-2.194L4.96,24.176z"/>
			</defs>
			<use xlink:href="#SVGID_6_"  overflow="visible" fill="#D6002B"/>
			<clipPath id="SVGID_7_">
				<use xlink:href="#SVGID_6_"  overflow="visible"/>
			</clipPath>
			<polygon clip-path="url(#SVGID_7_)" fill="#D6002B" points="10.333,10.733 21.455,22.66 9.509,33.8 -1.613,21.873 			"/>
		</g>
	</g>
</g>
<g>
	<g>
		<g>
			<path id="SVGID_5_" fill="#64788D" d="M23.939,26.068c-0.592-0.551-0.623-1.48-0.071-2.071c0.552-0.593,1.479-0.625,2.071-0.074
				c0.592,0.554,0.625,1.479,0.074,2.073c-0.289,0.309-0.683,0.466-1.074,0.466C24.581,26.462,24.223,26.331,23.939,26.068 M8.568,5
				c-0.603,0.013-0.88,0.29-0.459,0.849C8.44,6.288,9.991,8.346,9.991,8.346s0.016,1.178-0.945,1.902
				c-0.962,0.724-2.089,0.384-2.089,0.384S5.405,8.574,5.076,8.135C4.468,7.329,4.024,8.079,4,9.3v0.215
				c0.02,1.047,0.335,2.373,1.086,3.369c1.025,1.36,3.412,2.128,5.519,1.15l11.43,10.657c-0.092,0.884,0.206,1.797,0.906,2.447
				c1.184,1.104,3.039,1.041,4.143-0.144s1.04-3.04-0.145-4.146c-0.699-0.65-1.633-0.885-2.506-0.731L13.031,11.485
				c0.633-1.543,0.43-3.27-0.36-4.316C11.619,5.771,9.708,5.021,8.654,5H8.568z"/>
		</g>
		<g>
			<defs>
				<path id="SVGID_8_" d="M23.939,26.068c-0.592-0.551-0.623-1.48-0.071-2.071c0.552-0.593,1.479-0.625,2.071-0.074
					c0.592,0.554,0.625,1.479,0.074,2.073c-0.289,0.309-0.683,0.466-1.074,0.466C24.581,26.462,24.223,26.331,23.939,26.068
					 M8.568,5c-0.603,0.013-0.88,0.29-0.459,0.849C8.44,6.288,9.991,8.346,9.991,8.346s0.016,1.178-0.945,1.902
					c-0.962,0.724-2.089,0.384-2.089,0.384S5.405,8.574,5.076,8.135C4.468,7.329,4.024,8.079,4,9.3v0.215
					c0.02,1.047,0.335,2.373,1.086,3.369c1.025,1.36,3.412,2.128,5.519,1.15l11.43,10.657c-0.092,0.884,0.206,1.797,0.906,2.447
					c1.184,1.104,3.039,1.041,4.143-0.144s1.04-3.04-0.145-4.146c-0.699-0.65-1.633-0.885-2.506-0.731L13.031,11.485
					c0.633-1.543,0.43-3.27-0.36-4.316C11.619,5.771,9.708,5.021,8.654,5H8.568z"/>
			</defs>
			<use xlink:href="#SVGID_8_"  overflow="visible" fill="#64788D"/>
			<clipPath id="SVGID_9_">
				<use xlink:href="#SVGID_8_"  overflow="visible"/>
			</clipPath>
			<polygon clip-path="url(#SVGID_9_)" fill="#64788D" points="-7.593,17.432 15.25,-7.064 39.779,15.811 16.938,40.307 			"/>
		</g>
	</g>
</g>
</svg>
