<?xml version="1.0" encoding="utf-8"?>
<!-- Generator: Adobe Illustrator 15.0.2, SVG Export Plug-In . SVG Version: 6.00 Build 0)  -->
<!DOCTYPE svg PUBLIC "-//W3C//DTD SVG 1.1//EN" "http://www.w3.org/Graphics/SVG/1.1/DTD/svg11.dtd">
<svg version="1.1" id="Layer_1" xmlns="http://www.w3.org/2000/svg" xmlns:xlink="http://www.w3.org/1999/xlink" x="0px" y="0px"
	 width="32px" height="32px" viewBox="0 0 32 32" enable-background="new 0 0 32 32" xml:space="preserve">
<rect fill="none" width="32" height="32"/>
<g>
	<g>
		<g>
			<g>
				<polygon id="SVGID_6_" fill="#64788D" points="7.429,10.857 8.457,28 23.543,28 24.571,10.857 				"/>
			</g>
			<g>
				<g>
					<polygon id="SVGID_4_" fill="#64788D" points="7.429,10.857 8.457,28 23.543,28 24.571,10.857 					"/>
				</g>
				<g>
					<defs>
						<polygon id="SVGID_1_" points="7.429,10.857 8.457,28 23.543,28 24.571,10.857 						"/>
					</defs>
					<clipPath id="SVGID_2_">
						<use xlink:href="#SVGID_1_"  overflow="visible"/>
					</clipPath>
					<rect x="7.429" y="10.857" clip-path="url(#SVGID_2_)" fill="#64788D" width="17.143" height="17.143"/>
				</g>
			</g>
		</g>
	</g>
	<g>
		<g>
			<g>
				<path id="SVGID_3_" fill="#64788D" d="M7.429,8.028L7.429,8.028L7.429,8.028 M7.429,7.943C7.429,7.943,7.429,8.028,7.429,7.943
					C7.429,7.943,7.429,7.858,7.429,7.943C7.429,7.858,7.429,7.943,7.429,7.943 M14.971,5.115h2.143v1.2c-0.342,0-0.685,0-1.028,0
					c-0.344,0-0.686,0-1.115,0V5.115L14.971,5.115z M13.857,4v2.314c-3.429,0.171-6.428,0.771-6.428,1.713c0,0.171,0,0.686,0,1.714
					h17.143V8.028c0-0.856-2.998-1.457-6.427-1.628V4H13.857z"/>
			</g>
			<g>
				<g>
					<path id="SVGID_5_" fill="#64788D" d="M7.429,8.028L7.429,8.028L7.429,8.028 M7.429,7.943C7.429,7.943,7.429,8.028,7.429,7.943
						C7.429,7.943,7.429,7.858,7.429,7.943C7.429,7.858,7.429,7.943,7.429,7.943 M14.971,5.115h2.143v1.2c-0.342,0-0.685,0-1.028,0
						c-0.344,0-0.686,0-1.115,0V5.115L14.971,5.115z M13.857,4v2.314c-3.429,0.171-6.428,0.771-6.428,1.713c0,0.171,0,0.686,0,1.714
						h17.143V8.028c0-0.856-2.998-1.457-6.427-1.628V4H13.857z"/>
				</g>
				<g>
					<defs>
						<path id="SVGID_7_" d="M7.429,8.028L7.429,8.028L7.429,8.028 M7.429,7.943C7.429,7.943,7.429,8.028,7.429,7.943
							C7.429,7.943,7.429,7.858,7.429,7.943C7.429,7.858,7.429,7.943,7.429,7.943 M14.971,5.115h2.143v1.2c-0.342,0-0.685,0-1.028,0
							c-0.344,0-0.686,0-1.115,0V5.115L14.971,5.115z M13.857,4v2.314c-3.429,0.171-6.428,0.771-6.428,1.713
							c0,0.171,0,0.686,0,1.714h17.143V8.028c0-0.856-2.998-1.457-6.427-1.628V4H13.857z"/>
					</defs>
					<clipPath id="SVGID_8_">
						<use xlink:href="#SVGID_7_"  overflow="visible"/>
					</clipPath>
					<rect x="7.429" y="4" clip-path="url(#SVGID_8_)" fill="#64788D" width="17.143" height="5.742"/>
				</g>
			</g>
		</g>
	</g>
	<polygon fill="#FFFFFF" points="9.914,13.258 10.771,26.113 12.571,26.113 11.714,13.258 	"/>
	<polygon fill="#FFFFFF" points="22.085,13.258 21.229,26.113 19.428,26.113 20.285,13.258 	"/>
	<rect x="15.143" y="13.258" fill="#FFFFFF" width="1.715" height="12.941"/>
</g>
</svg>
