<svg id="cat-pg" xmlns="http://www.w3.org/2000/svg" width="32" height="32" viewBox="0 0 32 32"><defs><style>.cls-1,.cls-2{fill:none;stroke:#000;stroke-width:1.45px;}.cls-1{stroke-linejoin:round;}.cls-2{stroke-miterlimit:10;}</style></defs><polyline class="cls-1" points="26.6 6.7 30.2 6.7 30.2 24.7 1.8 24.7 1.8 6.7 4.4 6.7"/><polyline class="cls-1" points="9.3 29.4 16 29.4 22.7 29.4"/><line class="cls-1" x1="16" y1="24.7" x2="16" y2="29.4"/><polyline class="cls-2" points="18.9 5.3 16.7 4.5 15.3 2.2 12.7 2.9 12.5 5.6 10.7 7.2"/><polyline class="cls-2" points="12.5 5.6 10.7 7.2 8 7.2 7.3 9.8 9.6 11.3 10 13.7"/><polyline class="cls-2" points="9.6 11.3 10 13.7 8.7 16 10.7 17.9 13.1 16.7 15.3 17.5"/><polyline class="cls-2" points="13.1 16.7 15.3 17.5 16.7 19.8 19.3 19.1 19.5 16.4 21.3 14.9"/><polyline class="cls-2" points="19.5 16.4 21.3 14.9 24 14.8 24.7 12.2 22.4 10.7 22 8.4"/><polyline class="cls-2" points="22.4 10.7 22 8.4 23.3 6 21.3 4.1 18.9 5.3 16.7 4.5"/><circle class="cls-2" cx="16" cy="11" r="2.7"/></svg>