<svg id="cat-pg" xmlns="http://www.w3.org/2000/svg" width="32" height="32" viewBox="0 0 32 32"><defs><style>.cls-1{fill:none;stroke:#000;stroke-miterlimit:10;stroke-width:1.45px;}</style></defs><path class="cls-1" d="M21.7,9.9H20.3v-2c0-2-1.9-2.9-4.3-2.9s-4.2.9-4.2,2.9v2H10.3c-.3,0-.6.5-.6.9s.2,1,.6,1h1.8a3.4,3.4,0,0,0-.1,1,3.7,3.7,0,0,0,4,3.8,3.8,3.8,0,0,0,4.1-3.8c0-.2-.1-.8-.1-1h1.7c.4-.1.6-.7.6-1S22.1,9.9,21.7,9.9Z"/><path class="cls-1" d="M19.4,18A6.7,6.7,0,0,1,16,19a6,6,0,0,1-3.4-1.1,4.4,4.4,0,0,0-2.5,3.7V27H22V21.6A4.3,4.3,0,0,0,19.4,18Z"/></svg>