<?xml version="1.0" encoding="utf-8"?>
<!-- Generator: Adobe Illustrator 15.0.2, SVG Export Plug-In . SVG Version: 6.00 Build 0)  -->
<!DOCTYPE svg PUBLIC "-//W3C//DTD SVG 1.1//EN" "http://www.w3.org/Graphics/SVG/1.1/DTD/svg11.dtd">
<svg version="1.1" id="Layer_1" xmlns="http://www.w3.org/2000/svg" xmlns:xlink="http://www.w3.org/1999/xlink" x="0px" y="0px"
	 width="32px" height="32px" viewBox="0 0 32 32" enable-background="new 0 0 32 32" xml:space="preserve">
<rect fill="none" width="32" height="32"/>
<g>
	<g>
		<g>
			<g>
				<defs>
					<path id="SVGID_1_" d="M8.5,6.5c0,0-0.5,0-0.5,0.5v4c0,0,0,0.5,0.5,0.5h8c0,0,0.5,0,0.5-0.5V7c0,0,0-0.5-0.5-0.5H8.5z"/>
				</defs>
				<clipPath id="SVGID_2_">
					<use xlink:href="#SVGID_1_"  overflow="visible"/>
				</clipPath>
				<rect x="8" y="6.5" clip-path="url(#SVGID_2_)" fill="#FD9AAE" width="9" height="5"/>
			</g>
		</g>
	</g>
</g>
<g>
	<g>
		<g>
			<g>
				<defs>
					<path id="SVGID_3_" d="M8.5,13.5c0,0-0.5,0-0.5,0.5v4c0,0,0,0.5,0.5,0.5h18c0,0,0.5,0,0.5-0.5v-4c0,0,0-0.5-0.5-0.5H8.5z"/>
				</defs>
				<clipPath id="SVGID_4_">
					<use xlink:href="#SVGID_3_"  overflow="visible"/>
				</clipPath>
				<rect x="8" y="13.5" clip-path="url(#SVGID_4_)" fill="#D6002B" width="19" height="5"/>
			</g>
		</g>
	</g>
</g>
<g>
	<g>
		<g>
			<g>
				<defs>
					<path id="SVGID_5_" d="M8.5,20.5c0,0-0.5,0-0.5,0.5v4c0,0,0,0.5,0.5,0.5h14c0,0,0.5,0,0.5-0.5v-4c0,0,0-0.5-0.5-0.5H8.5z"/>
				</defs>
				<use xlink:href="#SVGID_5_"  overflow="visible" fill="#64788D"/>
				<clipPath id="SVGID_6_">
					<use xlink:href="#SVGID_5_"  overflow="visible"/>
				</clipPath>
				<rect x="8" y="20.5" clip-path="url(#SVGID_6_)" fill="#64788D" width="15" height="5"/>
			</g>
		</g>
	</g>
</g>
<g>
	<g>
		<g>
			<g>
				<defs>
					<path id="SVGID_7_" d="M4.5,4C4.5,4,4,4,4,4.5v23c0,0,0,0.5,0.5,0.5h1c0,0,0.5,0,0.5-0.5v-23C6,4.5,6,4,5.5,4H4.5z"/>
				</defs>
				<clipPath id="SVGID_8_">
					<use xlink:href="#SVGID_7_"  overflow="visible"/>
				</clipPath>
				<rect x="4" y="4" clip-path="url(#SVGID_8_)" fill="#64788D" width="2" height="24"/>
			</g>
		</g>
	</g>
</g>
</svg>
