<?xml version="1.0" encoding="utf-8"?>
<!-- Generator: Adobe Illustrator 19.1.0, SVG Export Plug-In . SVG Version: 6.00 Build 0)  -->
<svg version="1.1" id="Layer_1" xmlns="http://www.w3.org/2000/svg" xmlns:xlink="http://www.w3.org/1999/xlink" x="0px" y="0px"
	 viewBox="-183 185 32 32" style="enable-background:new -183 185 32 32;" xml:space="preserve">
<style type="text/css">
	.st0{fill:#5B6D93;}
	.st1{fill:#FFFFFF;}
	.st2{fill:none;}
</style>
<g>
	<path class="st0" d="M-153.6,192.4c0,0.5-0.4,0.8-0.8,0.8H-180c-0.5,0-0.4-0.3-0.4-0.8v-2.5c0-0.5,0-0.9,0.4-0.9h25.5
		c0.5,0,0.8,0.4,0.8,0.9L-153.6,192.4L-153.6,192.4z"/>
	<path class="st0" d="M-155,212.1c0,0.5-0.4,0.9-0.9,0.9h-22.3c-0.5,0-0.9-0.4-0.9-0.9v-16.6c0-0.5,0.4-0.9,0.9-0.9h22.3
		c0.5,0,0.9,0.4,0.9,0.9L-155,212.1L-155,212.1z"/>
	<path class="st1" d="M-162.1,200.9c0,0.5-0.4,0.9-0.9,0.9h-8.2c-0.5,0-0.9-0.4-0.9-0.9v-1.1c0-0.5,0.4-0.9,0.9-0.9h8.2
		c0.5,0,0.9,0.4,0.9,0.9V200.9z"/>
</g>
<rect x="-183" y="185" class="st2" width="32" height="32"/>
</svg>
