<?xml version="1.0" encoding="utf-8"?>
<!-- Generator: Adobe Illustrator 15.0.2, SVG Export Plug-In . SVG Version: 6.00 Build 0)  -->
<!DOCTYPE svg PUBLIC "-//W3C//DTD SVG 1.1//EN" "http://www.w3.org/Graphics/SVG/1.1/DTD/svg11.dtd">
<svg version="1.1" id="Layer_1" xmlns="http://www.w3.org/2000/svg" xmlns:xlink="http://www.w3.org/1999/xlink" x="0px" y="0px"
	 width="32px" height="32px" viewBox="0 0 32 32" enable-background="new 0 0 32 32" xml:space="preserve">
<g>
	<g>
		<g>
			<rect id="SVGID_1_" fill="#64788D" width="32" height="32"/>
		</g>
		<g>
			<g>
				<rect id="SVGID_2_" fill="#64788D" width="32" height="32"/>
			</g>
			<g>
				<g>
					<rect id="SVGID_3_" fill="#64788D" width="32" height="32"/>
				</g>
				<g>
					<defs>
						<rect id="SVGID_4_" width="32" height="32"/>
					</defs>
					<use xlink:href="#SVGID_4_"  overflow="visible" fill="#64788D"/>
					<clipPath id="SVGID_5_">
						<use xlink:href="#SVGID_4_"  overflow="visible"/>
					</clipPath>
					<rect clip-path="url(#SVGID_5_)" fill="#64788D" width="32" height="32"/>
				</g>
			</g>
		</g>
	</g>
</g>
<g>
	<g>
		<g>
			<g>
				<g>
					<defs>
						<rect id="SVGID_6_" width="32" height="32"/>
					</defs>
					<clipPath id="SVGID_7_">
						<use xlink:href="#SVGID_6_"  overflow="visible"/>
					</clipPath>
					<path clip-path="url(#SVGID_7_)" fill="#FFFFFF" d="M21.6,26.3V20.4c0-1.5-1.1-2.9-2.8-3.604c-0.7,0.5-1.7,0.9-2.8,0.9
						c-1.1,0-2.1-0.4-2.8-0.9c-1.7,0.7-2.8,2.104-2.8,3.604V26.3H21.6z"/>
				</g>
			</g>
		</g>
	</g>
	<g>
		<g>
			<g>
				<g>
					<defs>
						<rect id="SVGID_8_" width="32" height="32"/>
					</defs>
					<clipPath id="SVGID_9_">
						<use xlink:href="#SVGID_8_"  overflow="visible"/>
					</clipPath>
					<path clip-path="url(#SVGID_9_)" fill="#FFFFFF" d="M16,15.8c2.1,0,3.8-1.9,3.8-4.2c0-2.3-1.7-4.2-3.8-4.2
						c-2.1,0-3.9,1.9-3.9,4.2C12.1,13.9,13.9,15.8,16,15.8"/>
				</g>
			</g>
		</g>
	</g>
	<g>
		<g>
			<g>
				<g>
					<defs>
						<rect id="SVGID_10_" width="32" height="32"/>
					</defs>
					<clipPath id="SVGID_11_">
						<use xlink:href="#SVGID_10_"  overflow="visible"/>
					</clipPath>
					<path clip-path="url(#SVGID_11_)" fill="#FFFFFF" d="M20.1,10.1V7.4c0-1.9-1.8-2.7-4.1-2.7s-4.1,0.8-4.1,2.7v2.7H20.1z"/>
				</g>
			</g>
		</g>
	</g>
	<g>
		<g>
			<g>
				<g>
					<defs>
						<rect id="SVGID_12_" width="32" height="32"/>
					</defs>
					<clipPath id="SVGID_13_">
						<use xlink:href="#SVGID_12_"  overflow="visible"/>
					</clipPath>
					<path clip-path="url(#SVGID_13_)" fill="#FFFFFF" d="M22,10c0-0.4-0.3-0.7-0.6-0.7H10.6C10.3,9.3,10,9.6,10,10s0.3,0.7,0.6,0.7
						h10.8C21.7,10.7,22,10.4,22,10"/>
				</g>
			</g>
		</g>
	</g>
</g>
</svg>
