<svg id="cat-pg" xmlns="http://www.w3.org/2000/svg" width="32" height="32" viewBox="0 0 32 32"><defs><style>.cls-1{fill:none;stroke:#000;stroke-linejoin:round;stroke-width:1.45px;}</style></defs><path class="cls-1" d="M16,2.8a7.9,7.9,0,0,1,6.6,3.5A3.4,3.4,0,0,1,23.1,8v5.1a11,11,0,0,1-3,6.6.9.9,0,0,0,.2,1.3c1.8,1.3,4.1,2.2,7.9,4.1a2,2,0,0,1,1.1,1.7v2.5H16M16,2.8A7.9,7.9,0,0,0,9.4,6.3,3.4,3.4,0,0,0,8.9,8v5.1a11,11,0,0,0,3,6.6.9.9,0,0,1-.1,1.3c-1.8,1.3-4.2,2.2-8,4.1a1.9,1.9,0,0,0-1,1.7v2.5H16"/></svg>