<?xml version="1.0" encoding="utf-8"?>
<!-- Generator: Adobe Illustrator 15.0.2, SVG Export Plug-In . SVG Version: 6.00 Build 0)  -->
<!DOCTYPE svg PUBLIC "-//W3C//DTD SVG 1.1//EN" "http://www.w3.org/Graphics/SVG/1.1/DTD/svg11.dtd">
<svg version="1.1" id="Layer_1" xmlns="http://www.w3.org/2000/svg" xmlns:xlink="http://www.w3.org/1999/xlink" x="0px" y="0px"
	 width="32px" height="32px" viewBox="0 0 32 32" enable-background="new 0 0 32 32" xml:space="preserve">
<polyline fill="none" points="31.999,0 31.999,32 0,32 0,0 "/>
<g>
	<g>
		<g>
			<g>
				<path id="SVGID_1_" fill="#64788D" d="M3.999,8c11.046,0,20,8.954,20,20H28C28,14.745,17.255,4,3.999,4V8z"/>
			</g>
			<g>
				<g>
					<path id="SVGID_2_" fill="#64788D" d="M3.999,8c11.046,0,20,8.954,20,20H28C28,14.745,17.255,4,3.999,4V8z"/>
				</g>
				<g>
					<defs>
						<path id="SVGID_4_" d="M3.999,8c11.046,0,20,8.954,20,20H28C28,14.745,17.255,4,3.999,4V8z"/>
					</defs>
					<clipPath id="SVGID_7_">
						<use xlink:href="#SVGID_4_"  overflow="visible"/>
					</clipPath>
					<rect x="3.999" y="4" clip-path="url(#SVGID_7_)" fill="#64788D" width="24.001" height="24"/>
				</g>
			</g>
		</g>
	</g>
</g>
<g>
	<g>
		<g>
			<g>
				<path id="SVGID_3_" fill="#64788D" d="M3.999,16c6.628,0,12,5.372,12,12H20c0-8.837-7.164-16-16.001-16V16z"/>
			</g>
			<g>
				<g>
					<path id="SVGID_6_" fill="#64788D" d="M3.999,16c6.628,0,12,5.372,12,12H20c0-8.837-7.164-16-16.001-16V16z"/>
				</g>
				<g>
					<defs>
						<path id="SVGID_9_" d="M3.999,16c6.628,0,12,5.372,12,12H20c0-8.837-7.164-16-16.001-16V16z"/>
					</defs>
					<clipPath id="SVGID_10_">
						<use xlink:href="#SVGID_9_"  overflow="visible"/>
					</clipPath>
					<rect x="3.999" y="12" clip-path="url(#SVGID_10_)" fill="#64788D" width="16.001" height="16"/>
				</g>
			</g>
		</g>
	</g>
</g>
<g>
	<g>
		<g>
			<g>
				<path id="SVGID_5_" fill="#D6002B" d="M3.999,24.5c0,1.934,1.567,3.5,3.501,3.5c1.933,0,3.5-1.566,3.5-3.5S9.433,21,7.5,21
					C5.566,21,3.999,22.566,3.999,24.5"/>
			</g>
			<g>
				<g>
					<path id="SVGID_8_" fill="#D6002B" d="M3.999,24.5c0,1.934,1.567,3.5,3.501,3.5c1.933,0,3.5-1.566,3.5-3.5S9.433,21,7.5,21
						C5.566,21,3.999,22.566,3.999,24.5"/>
				</g>
				<g>
					<defs>
						<path id="SVGID_11_" d="M3.999,24.5c0,1.934,1.567,3.5,3.501,3.5c1.933,0,3.5-1.566,3.5-3.5S9.433,21,7.5,21
							C5.566,21,3.999,22.566,3.999,24.5"/>
					</defs>
					<use xlink:href="#SVGID_11_"  overflow="visible" fill="#D6002B"/>
					<clipPath id="SVGID_12_">
						<use xlink:href="#SVGID_11_"  overflow="visible"/>
					</clipPath>
					<rect x="3.999" y="21" clip-path="url(#SVGID_12_)" fill="#D6002B" width="7.001" height="7"/>
				</g>
			</g>
		</g>
	</g>
</g>
</svg>
