<svg id="cat-pg" xmlns="http://www.w3.org/2000/svg" viewBox="0 0 32 32"><defs><style>.cls-1{fill:none;stroke:#000;stroke-linejoin:round;stroke-width:1.45px;}</style></defs><line class="cls-1" x1="16" y1="4.68" x2="16" y2="1.19"/><path class="cls-1" d="M16,5a6.3,6.3,0,0,0-6.31,6.31v.07H13.5a2.52,2.52,0,0,1,5,0h3.81v-.07A6.3,6.3,0,0,0,16,5Z"/><rect class="cls-1" x="8.3" y="14.13" width="15.39" height="11.27"/><polygon class="cls-1" points="8.54 25.4 5.89 28.81 26.11 28.81 23.54 25.4 8.54 25.4"/><line class="cls-1" x1="12.56" y1="18.84" x2="12.56" y2="25.39"/><line class="cls-1" x1="16" y1="18.84" x2="16" y2="25.39"/><line class="cls-1" x1="19.44" y1="18.84" x2="19.44" y2="25.39"/><rect class="cls-1" x="1.63" y="16.06" width="3.84" height="9.23"/><line class="cls-1" x1="3.55" y1="15.89" x2="3.55" y2="12.4"/><rect class="cls-1" x="26.48" y="15.99" width="3.84" height="9.23"/><line class="cls-1" x1="28.47" y1="16.09" x2="28.47" y2="12.6"/></svg>