<?xml version="1.0" encoding="utf-8"?>
<!-- Generator: Adobe Illustrator 15.0.2, SVG Export Plug-In . SVG Version: 6.00 Build 0)  -->
<!DOCTYPE svg PUBLIC "-//W3C//DTD SVG 1.1//EN" "http://www.w3.org/Graphics/SVG/1.1/DTD/svg11.dtd">
<svg version="1.1" id="Layer_1" xmlns="http://www.w3.org/2000/svg" xmlns:xlink="http://www.w3.org/1999/xlink" x="0px" y="0px"
	 width="32px" height="32px" viewBox="0 0 32 32" enable-background="new 0 0 32 32" xml:space="preserve">
<g>
	<g>
		<g>
			<path id="SVGID_1_" fill="#FD9AAE" d="M5.188,4.808c0,0-0.468,0-0.468,0.468v20.578c0,0,0,0.467,0.468,0.467h18.239
				c0,0,0.468,0,0.468-0.467V5.275c0,0,0-0.468-0.468-0.468L5.188,4.808L5.188,4.808z"/>
		</g>
		<g>
			<defs>
				<path id="SVGID_2_" d="M5.188,4.808c0,0-0.468,0-0.468,0.468v20.578c0,0,0,0.467,0.468,0.467h18.239c0,0,0.468,0,0.468-0.467
					V5.275c0,0,0-0.468-0.468-0.468L5.188,4.808L5.188,4.808z"/>
			</defs>
			<clipPath id="SVGID_4_">
				<use xlink:href="#SVGID_2_"  overflow="visible"/>
			</clipPath>
			<rect x="4.72" y="4.808" clip-path="url(#SVGID_4_)" fill="#FD9AAE" width="19.174" height="21.512"/>
		</g>
	</g>
</g>
<g>
	<g>
		<g>
			<path id="SVGID_3_" fill="#64788D" d="M6.5,6.5H22v18H6.5V6.5z M4.6,4C4.6,4,4,4,4,4.5v21.9c0,0,0,0.5,0.6,0.5H24
				c0,0,0.6,0,0.6-0.5V4.5c0,0,0-0.5-0.6-0.5H4.6z"/>
		</g>
		<g>
			<defs>
				<path id="SVGID_5_" d="M6.5,6.5H22v18H6.5V6.5z M4.6,4C4.6,4,4,4,4,4.5v21.9c0,0,0,0.5,0.6,0.5H24c0,0,0.6,0,0.6-0.5V4.5
					c0,0,0-0.5-0.6-0.5H4.6z"/>
			</defs>
			<use xlink:href="#SVGID_5_"  overflow="visible" fill="#64788D"/>
			<clipPath id="SVGID_6_">
				<use xlink:href="#SVGID_5_"  overflow="visible"/>
			</clipPath>
			<rect x="4" y="4" clip-path="url(#SVGID_6_)" fill="#64788D" width="20.5" height="23"/>
		</g>
	</g>
</g>
</svg>
