<?xml version="1.0" encoding="utf-8"?>
<!-- Generator: Adobe Illustrator 15.0.2, SVG Export Plug-In . SVG Version: 6.00 Build 0)  -->
<!DOCTYPE svg PUBLIC "-//W3C//DTD SVG 1.1//EN" "http://www.w3.org/Graphics/SVG/1.1/DTD/svg11.dtd">
<svg version="1.1" id="Layer_1" xmlns="http://www.w3.org/2000/svg" xmlns:xlink="http://www.w3.org/1999/xlink" x="0px" y="0px"
	 width="32px" height="32px" viewBox="0 0 32 32" enable-background="new 0 0 32 32" xml:space="preserve">
<rect y="-0.008" fill="none" width="32" height="32"/>
<polygon fill="#D4B592" points="24,20.07 25.245,24.993 27.951,20.697 "/>
<g>
	<g>
		<g>
			<defs>
				
					<rect id="SVGID_1_" x="20.067" y="11.464" transform="matrix(0.1564 -0.9877 0.9877 0.1564 9.5363 38.0918)" width="14" height="3.999"/>
			</defs>
			<use xlink:href="#SVGID_1_"  overflow="visible" fill="#D6002B"/>
			<clipPath id="SVGID_2_">
				<use xlink:href="#SVGID_1_"  overflow="visible"/>
			</clipPath>
			<polygon clip-path="url(#SVGID_2_)" fill="#D6002B" points="24.15,5.294 32.375,6.596 29.991,21.645 21.768,20.343 			"/>
		</g>
	</g>
</g>
<polygon fill="#D6002B" points="26.018,23.766 24.889,23.586 25.245,24.993 "/>
<g>
	<g>
		<g>
			<defs>
				<path id="SVGID_3_" d="M8.5,3.992c0,0-0.501,0-0.854,0.354L3.354,8.639c0,0-0.354,0.353-0.354,0.853v18c0,0,0,0.5,0.499,0.5
					H20.5c0,0,0.5,0,0.5-0.5v-23c0,0,0-0.5-0.5-0.5H8.5z"/>
			</defs>
			<use xlink:href="#SVGID_3_"  overflow="visible" fill="#64788D"/>
			<clipPath id="SVGID_4_">
				<use xlink:href="#SVGID_3_"  overflow="visible"/>
			</clipPath>
			<rect x="3" y="3.992" clip-path="url(#SVGID_4_)" fill="#64788D" width="18" height="24"/>
		</g>
	</g>
</g>
<polygon fill="#FFFFFF" points="5,10.992 5,25.992 19,25.992 19,5.992 10,5.992 10,10.992 "/>
<g>
	<g>
		<g>
			<defs>
				<rect id="SVGID_5_" x="7" y="12.992" width="9" height="2"/>
			</defs>
			<use xlink:href="#SVGID_5_"  overflow="visible" fill="#64788D"/>
			<clipPath id="SVGID_6_">
				<use xlink:href="#SVGID_5_"  overflow="visible"/>
			</clipPath>
			<rect x="7" y="12.992" clip-path="url(#SVGID_6_)" fill="#64788D" width="9" height="2"/>
		</g>
	</g>
</g>
<g>
	<g>
		<g>
			<defs>
				<rect id="SVGID_7_" x="7" y="16.992" width="7" height="2"/>
			</defs>
			<use xlink:href="#SVGID_7_"  overflow="visible" fill="#64788D"/>
			<clipPath id="SVGID_8_">
				<use xlink:href="#SVGID_7_"  overflow="visible"/>
			</clipPath>
			<rect x="7" y="16.992" clip-path="url(#SVGID_8_)" fill="#64788D" width="7" height="2"/>
		</g>
	</g>
</g>
<g>
	<g>
		<g>
			<defs>
				<rect id="SVGID_9_" x="7" y="20.992" width="10" height="2"/>
			</defs>
			<use xlink:href="#SVGID_9_"  overflow="visible" fill="#64788D"/>
			<clipPath id="SVGID_10_">
				<use xlink:href="#SVGID_9_"  overflow="visible"/>
			</clipPath>
			<rect x="7" y="20.992" clip-path="url(#SVGID_10_)" fill="#64788D" width="10" height="2"/>
		</g>
	</g>
</g>
</svg>
