<?xml version="1.0" encoding="utf-8"?>
<!-- Generator: Adobe Illustrator 15.0.2, SVG Export Plug-In . SVG Version: 6.00 Build 0)  -->
<!DOCTYPE svg PUBLIC "-//W3C//DTD SVG 1.1//EN" "http://www.w3.org/Graphics/SVG/1.1/DTD/svg11.dtd">
<svg version="1.1" id="Layer_1" xmlns="http://www.w3.org/2000/svg" xmlns:xlink="http://www.w3.org/1999/xlink" x="0px" y="0px"
	 width="32px" height="32px" viewBox="0 0 32 32" enable-background="new 0 0 32 32" xml:space="preserve">
<g>
	<g>
		<defs>
			<path id="SVGID_1_" d="M13.6,5.3c0,0-2.3,1.7-2,3.7c0.1,0.8,2.5,0.7,3.3,1.6c0.9,1,0.7,2.8-1.1,4.3c-1.7,1.4-3.8,1.2-4.5,0.4
				c-0.7-0.7-0.5-3-1.5-3.7c-1-0.8-2.3,0.7-2.7,1.1c-0.4,0.4-2,2.3-2.5,3.3c0,0.1-0.1,0.2-0.1,0.2l0,0c0,1.1,2.9,2.6,2.9,2.6
				s2.7,1.9,2.1,2.8c-0.7,0.9-2.2,0.9-3.1,1.7c-0.9,0.9-0.3,3.101,0.3,4c0.6,0.9,3,1.2,4,0.5c1.7-1,1-2.7,1.5-3.3
				c0.5-0.5,1.2-0.5,2,0.2c0.8,0.8,2.8,3,2.8,3c0.4,0.6,0.9,0.8,1.3,0.8l0,0c0.7,0,1.4-0.5,2.3-1.2c1.5-1.1,2.301-2.899,2-3.8
				c-0.3-0.9-2.6-0.7-3.6-1.6c-1-1,0.2-3.5,1.1-4.4c0.9-0.9,2-1.5,3.801-0.8c1.899,0.8,1.1,2.7,2,4.3c0.8,1.5,2.699-1,2.699-1
				s2.5-2.4,3.2-3.3c0.7-0.9-2.2-2.6-3.2-3.4C26.4,13.2,26.3,13,26.2,12.9c-0.5,0.1-1,0.2-1.5,0.2c-3.3,0-6-2.7-6-6
				c0-0.6,0.1-1.2,0.3-1.7c-0.2-0.2-0.4-0.5-0.5-0.7c-0.8-1-1.4-1.9-2.6-1.9L13.6,5.3z"/>
		</defs>
		<use xlink:href="#SVGID_1_"  overflow="visible" fill="#D6002B"/>
		<clipPath id="SVGID_2_">
			<use xlink:href="#SVGID_1_"  overflow="visible"/>
		</clipPath>
		<rect x="2.5" y="3.2" clip-path="url(#SVGID_2_)" fill="#D6002B" width="28.1" height="25.6"/>
	</g>
</g>
<g>
	<g>
		<defs>
			<circle id="SVGID_3_" cx="24.7" cy="7.5" r="5"/>
		</defs>
		<use xlink:href="#SVGID_3_"  overflow="visible" fill="#64788D"/>
		<clipPath id="SVGID_4_">
			<use xlink:href="#SVGID_3_"  overflow="visible"/>
		</clipPath>
		<rect x="19.7" y="2.5" clip-path="url(#SVGID_4_)" fill="#64788D" width="10" height="10"/>
	</g>
</g>
<g>
	<g>
		<defs>
			<rect id="SVGID_5_" x="2.5" y="2.5" width="27.5" height="26.3"/>
		</defs>
		<clipPath id="SVGID_6_">
			<use xlink:href="#SVGID_5_"  overflow="visible"/>
		</clipPath>
		<path clip-path="url(#SVGID_6_)" fill="#FFFFFF" d="M26.2,4.9C25.1,6,24.1,4.9,24.1,6S26.2,7.1,26.2,9.2c0,1.1,2.1-1.1,2.1-2.1
			S27,4.2,26.2,4.9"/>
	</g>
	<g>
		<defs>
			<rect id="SVGID_7_" x="2.5" y="2.5" width="27.5" height="26.3"/>
		</defs>
		<clipPath id="SVGID_8_">
			<use xlink:href="#SVGID_7_"  overflow="visible"/>
		</clipPath>
		<path clip-path="url(#SVGID_8_)" fill="#FFFFFF" d="M23.3,7.4C23.4,6.4,21.9,6.5,21.4,7S21.8,8.7,22.1,9.5
			c0.2,0.7,0.2,0.8,0.801-0.2C23.3,8.7,23.2,8.6,23.3,7.4"/>
	</g>
</g>
</svg>
