<svg id="cat-pg" xmlns="http://www.w3.org/2000/svg" width="32" height="32" viewBox="0 0 32 32"><defs><style>.cls-1{fill:none;stroke:#000;stroke-linejoin:round;stroke-width:1.45px;}</style></defs><rect class="cls-1" x="5" y="5" width="22" height="22"/><path d="M15.8,8a3.6,3.6,0,0,0-2.4.7,2.7,2.7,0,0,0-.9,2,2.9,2.9,0,0,0,.2.9,2.4,2.4,0,0,0,.6.9,2.5,2.5,0,0,0-1.1,1.2,2.8,2.8,0,0,0-.4,1.5,2.8,2.8,0,0,0,.6,1.8,9.1,9.1,0,0,0,2.4,2l2.3,1.5a1.3,1.3,0,0,1,.3.8,1.1,1.1,0,0,1-.3.7l-.9.2a2,2,0,0,1-1.1-.3,2.3,2.3,0,0,1-.6-1.2l-2.3.3a4,4,0,0,0,1.2,2.2,4,4,0,0,0,2.7.8,3.6,3.6,0,0,0,2.7-.8,2.7,2.7,0,0,0,.9-2.1,4.3,4.3,0,0,0-.2-1.1,3.9,3.9,0,0,0-.8-1,4,4,0,0,0,1.1-1.2,2.3,2.3,0,0,0,.4-1.4,2.5,2.5,0,0,0-.3-1.3,5.7,5.7,0,0,0-1-1.3l-2-1.3-1.7-1.2a1.2,1.2,0,0,1-.4-.8.5.5,0,0,1,.3-.5c.2-.2.5-.2.9-.2l.9.3a1.2,1.2,0,0,1,.3.9l2.3-.2a2.9,2.9,0,0,0-1.1-2.1A4,4,0,0,0,15.8,8Zm1.6,10L15,16.4c-.7-.6-1.1-1.1-1.1-1.7a1.4,1.4,0,0,1,.2-.6l.5-.5,2.3,1.7,1.1.9a1.4,1.4,0,0,1,.2.6l-.2.5a1.9,1.9,0,0,1-.6.7Z"/></svg>