<?xml version="1.0" encoding="utf-8"?>
<!-- Generator: Adobe Illustrator 15.0.2, SVG Export Plug-In . SVG Version: 6.00 Build 0)  -->
<!DOCTYPE svg PUBLIC "-//W3C//DTD SVG 1.1//EN" "http://www.w3.org/Graphics/SVG/1.1/DTD/svg11.dtd">
<svg version="1.1" id="Layer_1" xmlns="http://www.w3.org/2000/svg" xmlns:xlink="http://www.w3.org/1999/xlink" x="0px" y="0px"
	 width="32px" height="32px" viewBox="0 0 32 32" enable-background="new 0 0 32 32" xml:space="preserve">
<g>
	<g>
		<defs>
			<path id="SVGID_1_" d="M4.5,4C4.5,4,4,4,4,4.5v23c0,0,0,0.5,0.5,0.5h23c0,0,0.5,0,0.5-0.5v-1c0,0,0-0.5-0.5-0.5H6V4.5
				C6,4.5,6,4,5.5,4H4.5z"/>
		</defs>
		<use xlink:href="#SVGID_1_"  overflow="visible" fill="#64788D"/>
		<clipPath id="SVGID_2_">
			<use xlink:href="#SVGID_1_"  overflow="visible"/>
		</clipPath>
		<rect x="4" y="4" clip-path="url(#SVGID_2_)" fill="#64788D" width="24" height="24"/>
	</g>
</g>
<g>
	<g>
		<defs>
			<polygon id="SVGID_3_" points="26.709,26 26.709,11.874 23.709,9.874 18.126,17.583 13.126,14.874 6,24.618 6,26 			"/>
		</defs>
		<use xlink:href="#SVGID_3_"  overflow="visible" fill="#D6002B"/>
		<clipPath id="SVGID_4_">
			<use xlink:href="#SVGID_3_"  overflow="visible"/>
		</clipPath>
		<rect x="6" y="9.874" clip-path="url(#SVGID_4_)" fill="#D6002B" width="20.709" height="16.126"/>
	</g>
</g>
</svg>
