<svg id="cat-pg" xmlns="http://www.w3.org/2000/svg" width="32" height="32" viewBox="0 0 32 32"><defs><style>.cls-1,.cls-2{fill:none;stroke:#000;stroke-width:1.45px;}.cls-1{stroke-linejoin:round;}.cls-2{stroke-miterlimit:10;}</style></defs><polyline class="cls-1" points="24.5 23.5 24.5 2.5 12.5 2.5 7.5 7.5 7.5 23.5"/><polyline class="cls-1" points="12.5 2.5 12.5 7.5 7.5 7.5"/><polyline class="cls-2" points="18 20.1 16.5 19.6 15.5 18.1 13.8 18.5 13.7 20.3 12.5 21.4"/><polyline class="cls-2" points="13.7 20.3 12.5 21.4 10.7 21.4 10.2 23.1 11.7 24.1 12 25.7"/><polyline class="cls-2" points="11.7 24.1 12 25.7 11.2 27.2 12.4 28.5 14 27.7 15.5 28.2"/><polyline class="cls-2" points="14 27.7 15.5 28.2 16.5 29.8 18.2 29.3 18.3 27.5 19.5 26.5"/><polyline class="cls-2" points="18.3 27.5 19.5 26.5 21.3 26.4 21.8 24.7 20.3 23.7 20 22.2"/><polyline class="cls-2" points="20.3 23.7 20 22.2 20.8 20.6 19.6 19.3 18 20.1 16.5 19.6"/><circle class="cls-2" cx="16" cy="23.9" r="1.8"/></svg>