<svg id="cat-pg" xmlns="http://www.w3.org/2000/svg" width="32" height="32" viewBox="0 0 32 32">
  <defs>
    <style>
      .cls-1 {
        fill: none;
        stroke: #000;
        stroke-linejoin: round;
        stroke-width: 1.45px;
      }
    </style>
  </defs>
  <line class="cls-1" x1="16" y1="8.21" x2="16" y2="29.59"/>
  <circle class="cls-1" cx="16" cy="5.93" r="2.36"/>
  <path class="cls-1" d="M23.86,11H10.1a2,2,0,0,0-2,2v.12a2,2,0,0,0,2,2h9.2a2,2,0,0,1,2,2v.12a2,2,0,0,1-2,1.95H12.61a2,2,0,0,0-2,2v.2a2,2,0,0,0,2,2h4.08a2,2,0,0,1,2,2h0a2,2,0,0,1-2,2H13.38"/>
</svg>
