<svg id="cat-pg" xmlns="http://www.w3.org/2000/svg" width="32" height="32" viewBox="0 0 32 32"><defs><style>.cls-1{fill:none;stroke:#000;stroke-linecap:round;stroke-linejoin:round;stroke-width:1.45px;}</style></defs><ellipse class="cls-1" cx="8.3" cy="10.6" rx="3.3" ry="3.7"/><path class="cls-1" d="M10.9,16.2h0l-.6.3a4.5,4.5,0,0,1-2,.4,4.1,4.1,0,0,1-1.9-.4h0l-.7-.3h0a3.9,3.9,0,0,0-2.6,3.4v5.5H13.5V19.6A3.8,3.8,0,0,0,10.9,16.2Z"/><ellipse class="cls-1" cx="23.7" cy="10.6" rx="3.3" ry="3.7"/><path class="cls-1" d="M26.3,16.2h0l-.7.3a4.1,4.1,0,0,1-1.9.4,4.5,4.5,0,0,1-2-.4h0l-.6-.3h0a3.8,3.8,0,0,0-2.6,3.4v5.5H28.9V19.6A3.9,3.9,0,0,0,26.3,16.2Z"/></svg>