<?xml version="1.0" encoding="utf-8"?>
<!-- Generator: Adobe Illustrator 15.0.2, SVG Export Plug-In . SVG Version: 6.00 Build 0)  -->
<!DOCTYPE svg PUBLIC "-//W3C//DTD SVG 1.1//EN" "http://www.w3.org/Graphics/SVG/1.1/DTD/svg11.dtd">
<svg version="1.1" id="Layer_1" xmlns="http://www.w3.org/2000/svg" xmlns:xlink="http://www.w3.org/1999/xlink" x="0px" y="0px"
	 width="31.999px" height="32px" viewBox="-5.793 -15.551 31.999 32" enable-background="new -5.793 -15.551 31.999 32"
	 xml:space="preserve">
<g>
	<rect x="-5.793" y="-15.551" fill="none" width="31.999" height="32"/>
	<g>
		<g>
			<g>
				<path id="SVGID_1_" fill="#64788D" d="M12.016-9.359c-1.173,0.702-1.642,2.108-1.25,3.28L3.188-1.312H0.532
					c0,0-0.469,0-0.469,0.469v4.688c0,0,0,0.469,0.469,0.469H3.11l7.578,4.766c-0.392,1.25,0.078,2.578,1.25,3.281
					c1.405,0.859,3.203,0.469,4.062-0.938c0.859-1.406,0.469-3.201-0.938-4.062c-1.172-0.703-2.578-0.547-3.518,0.312L6.076,4.235
					h2.891c0,0,0.47,0,0.47-0.469V2.204H16c0.312,1.25,1.484,2.188,2.812,2.188c1.562,0,2.891-1.25,2.891-2.893V1.344
					c0-1.562-1.328-2.891-2.891-2.891c-1.328,0-2.5,0.938-2.812,2.109H9.438V-1c0,0,0-0.469-0.47-0.469H6.078l5.469-3.438
					c0.938,0.859,2.345,1.017,3.517,0.312c1.405-0.703,1.797-2.5,0.938-3.828c-0.547-0.859-1.482-1.406-2.5-1.406
					C13.031-9.828,12.484-9.672,12.016-9.359"/>
			</g>
			<g>
				<g>
					<defs>
						<path id="SVGID_2_" d="M12.016-9.359c-1.173,0.702-1.642,2.108-1.25,3.28L3.188-1.312H0.532c0,0-0.469,0-0.469,0.469v4.688
							c0,0,0,0.469,0.469,0.469H3.11l7.578,4.766c-0.392,1.25,0.078,2.578,1.25,3.281c1.405,0.859,3.203,0.469,4.062-0.938
							c0.859-1.406,0.469-3.201-0.938-4.062c-1.172-0.703-2.578-0.547-3.518,0.312L6.076,4.235h2.891c0,0,0.47,0,0.47-0.469V2.204
							H16c0.312,1.25,1.484,2.188,2.812,2.188c1.562,0,2.891-1.25,2.891-2.893V1.344c0-1.562-1.328-2.891-2.891-2.891
							c-1.328,0-2.5,0.938-2.812,2.109H9.438V-1c0,0,0-0.469-0.47-0.469H6.078l5.469-3.438c0.938,0.859,2.345,1.017,3.517,0.312
							c1.405-0.703,1.797-2.5,0.938-3.828c-0.547-0.859-1.482-1.406-2.5-1.406C13.031-9.828,12.484-9.672,12.016-9.359"/>
					</defs>
					<use xlink:href="#SVGID_2_"  overflow="visible" fill="#64788D"/>
					<clipPath id="SVGID_3_">
						<use xlink:href="#SVGID_2_"  overflow="visible"/>
					</clipPath>
					<polygon clip-path="url(#SVGID_3_)" fill="#64788D" points="-10.484,6.422 15.297,23.141 32.25,-2.953 6.469,-19.75 					"/>
				</g>
			</g>
		</g>
	</g>
</g>
</svg>
