<?xml version="1.0" encoding="utf-8"?>
<!-- Generator: Adobe Illustrator 15.0.2, SVG Export Plug-In . SVG Version: 6.00 Build 0)  -->
<!DOCTYPE svg PUBLIC "-//W3C//DTD SVG 1.1//EN" "http://www.w3.org/Graphics/SVG/1.1/DTD/svg11.dtd">
<svg version="1.1" id="Layer_1" xmlns="http://www.w3.org/2000/svg" xmlns:xlink="http://www.w3.org/1999/xlink" x="0px" y="0px"
	 width="32px" height="32px" viewBox="0 0 32 32" enable-background="new 0 0 32 32" xml:space="preserve">
<rect fill="none" width="32" height="32"/>
<g>
	<g>
		<g>
			<g>
				<g>
					<polygon id="SVGID_4_" fill="#D6002B" points="21.576,18.403 20.807,22.248 11.194,22.248 10.425,18.403 2.542,18.403 
						2.542,28.016 29.458,28.016 29.458,18.403 					"/>
				</g>
				<g>
					<defs>
						<polygon id="SVGID_1_" points="21.576,18.403 20.807,22.248 11.194,22.248 10.425,18.403 2.542,18.403 2.542,28.016 
							29.458,28.016 29.458,18.403 						"/>
					</defs>
					<clipPath id="SVGID_2_">
						<use xlink:href="#SVGID_1_"  overflow="visible"/>
					</clipPath>
					<rect x="2.542" y="18.403" clip-path="url(#SVGID_2_)" fill="#D6002B" width="26.916" height="9.611"/>
				</g>
			</g>
		</g>
	</g>
	<g>
		<g>
			<g>
				<g>
					<polygon id="SVGID_3_" fill="#64788D" points="12.54,3.984 12.54,11.963 8.598,11.963 16.001,18.403 23.402,11.963 
						19.461,11.963 19.461,3.984 					"/>
				</g>
				<g>
					<defs>
						<polygon id="SVGID_5_" points="12.54,3.984 12.54,11.963 8.598,11.963 16.001,18.403 23.402,11.963 19.461,11.963 
							19.461,3.984 						"/>
					</defs>
					<clipPath id="SVGID_6_">
						<use xlink:href="#SVGID_5_"  overflow="visible"/>
					</clipPath>
					<rect x="8.598" y="3.984" clip-path="url(#SVGID_6_)" fill="#64788D" width="14.805" height="14.419"/>
				</g>
			</g>
		</g>
	</g>
</g>
</svg>
