<?xml version="1.0" encoding="utf-8"?>
<!-- Generator: Adobe Illustrator 19.1.0, SVG Export Plug-In . SVG Version: 6.00 Build 0)  -->
<svg version="1.1" id="Layer_1" xmlns="http://www.w3.org/2000/svg" xmlns:xlink="http://www.w3.org/1999/xlink" x="0px" y="0px"
	 viewBox="-183 185 32 32" style="enable-background:new -183 185 32 32;" xml:space="preserve">
<style type="text/css">
	.st0{fill:none;}
	.st1{fill:#5B6D93;}
	.st2{fill:#FFFFFF;}
	.st3{fill:#E65722;}
	.st4{clip-path:url(#SVGID_2_);fill:#E65722;}
</style>
<rect x="-183" y="185" class="st0" width="32" height="32"/>
<g>
	<path class="st1" d="M-153.6,192.5c0,0.5-0.4,0.8-0.8,0.8H-180c-0.4,0-0.4-0.3-0.4-0.8V190c0-0.5,0-0.9,0.4-0.9h25.5
		c0.5,0,0.8,0.4,0.8,0.9L-153.6,192.5L-153.6,192.5z"/>
	<path class="st1" d="M-155,212.2c0,0.5-0.4,0.9-0.9,0.9H-172l2.4-3l-6.5-7.1v4.8h-2.9v-4.4v-4.5l0-3.2c0-0.5,0.4-0.9,0.8-0.9h22.3
		c0.5,0,0.9,0.4,0.9,0.9L-155,212.2L-155,212.2L-155,212.2z"/>
	<path class="st2" d="M-162.1,200.9c0,0.5-0.4,0.9-0.9,0.9h-8.2c-0.5,0-0.9-0.4-0.9-0.9v-1.1c0-0.5,0.4-0.9,0.9-0.9h8.2
		c0.5,0,0.9,0.4,0.9,0.9V200.9z"/>
</g>
<g>
	<g>
		<g>
			<g>
				<polygon id="SVGID_3_" class="st3" points="-175,205.6 -171,210.1 -175,214.6 -175,211.6 -179,211.6 -179,208.6 -175,208.6 				
					"/>
			</g>
			<g>
				<g>
					<g>
						<polygon id="SVGID_4_" class="st3" points="-175,205.6 -171,210.1 -175,214.6 -175,211.6 -179,211.6 -179,208.6 -175,208.6 
													"/>
					</g>
					<g>
						<g>
							<g>
								<g>
									<defs>
										<polygon id="SVGID_1_" points="-175,205.6 -171,210.1 -175,214.6 -175,211.6 -179,211.6 -179,208.6 -175,208.6 										
											"/>
									</defs>
									<clipPath id="SVGID_2_">
										<use xlink:href="#SVGID_1_"  style="overflow:visible;"/>
									</clipPath>
									<rect x="-179" y="205.6" class="st4" width="8" height="9"/>
								</g>
							</g>
						</g>
					</g>
				</g>
			</g>
		</g>
	</g>
</g>
</svg>
