<svg id="cat-pg" xmlns="http://www.w3.org/2000/svg" width="32" height="32" viewBox="0 0 32 32"><defs><style>.cls-1{fill:none;stroke:#000;stroke-miterlimit:10;stroke-width:1.45px;}</style></defs><circle class="cls-1" cx="16" cy="16" r="11.6"/><path class="cls-1" d="M18.5,17.4c-1.2-.8-2.8-1.3-3.7-.5a1.6,1.6,0,0,0,0,2.3c.5.6,1.4,2.3,1.2,3.3s-.5,2.6-.1,3.2,1.2,1.1,1.8-.8a13.3,13.3,0,0,1,1.7-4.3c.6-.4,1.7-1.5.9-2.2S19.3,17.9,18.5,17.4Z"/><path class="cls-1" d="M27.6,17.5c-5.5.6-3.1-1.7-4.4-3S19,14,16.8,13.4s.5-4.7,1-5.4a7.4,7.4,0,0,1,3.5-2.3"/><path class="cls-1" d="M10.9,5.6a11.2,11.2,0,0,1-1.8,4.6c-2.1,3.4-3,1.9-4.5,7.9"/></svg>