<svg id="cat-pg" xmlns="http://www.w3.org/2000/svg" width="32" height="32" viewBox="0 0 32 32"><defs><style>.cls-1,.cls-2{fill:none;stroke:#000;stroke-width:1.45px;}.cls-1{stroke-linejoin:round;}.cls-2{stroke-miterlimit:10;}</style></defs><path class="cls-1" d="M9.3,12.7H6.6a.6.6,0,0,0-.6.6v5.1a.5.5,0,0,0,.6.5H9.3l.5.3,5.4,3.6a.2.2,0,0,0,.3-.2V9c0-.3-.3-.1-.3-.1L9.8,12.4Z"/><polygon class="cls-1" points="2 30 2 8 8 2 30 2 30 23.8 24.1 30 2 30"/><path class="cls-2" d="M22.4,7.2a12.1,12.1,0,0,1-.2,17.4"/><path class="cls-2" d="M19.8,9.9a8.3,8.3,0,0,1-.1,12"/></svg>