<?xml version="1.0" encoding="utf-8"?>
<!-- Generator: Adobe Illustrator 15.0.2, SVG Export Plug-In . SVG Version: 6.00 Build 0)  -->
<!DOCTYPE svg PUBLIC "-//W3C//DTD SVG 1.1//EN" "http://www.w3.org/Graphics/SVG/1.1/DTD/svg11.dtd">
<svg version="1.1" id="Layer_1" xmlns="http://www.w3.org/2000/svg" xmlns:xlink="http://www.w3.org/1999/xlink" x="0px" y="0px"
	 width="32px" height="32px" viewBox="0 0 32 32" enable-background="new 0 0 32 32" xml:space="preserve">
<rect fill="none" width="32" height="32"/>
<g>
	<g>
		<g>
			<path id="SVGID_4_" fill="#64788D" d="M24.673,8.364L13,24.728v-4.364L24.673,8.364z M27.728,25.818V4L4.272,20.363h7.637V28
				l6.218-7.637L27.728,25.818z"/>
		</g>
		<g>
			<g>
				<path id="SVGID_3_" fill="#64788D" d="M24.673,8.364L13,24.728v-4.364L24.673,8.364z M27.728,25.818V4L4.272,20.363h7.637V28
					l6.218-7.637L27.728,25.818z"/>
			</g>
			<g>
				<defs>
					<path id="SVGID_1_" d="M24.673,8.364L13,24.728v-4.364L24.673,8.364z M27.728,25.818V4L4.272,20.363h7.637V28l6.218-7.637
						L27.728,25.818z"/>
				</defs>
				<clipPath id="SVGID_2_">
					<use xlink:href="#SVGID_1_"  overflow="visible"/>
				</clipPath>
				<rect x="4.272" y="4" clip-path="url(#SVGID_2_)" fill="#64788D" width="23.455" height="24"/>
			</g>
		</g>
	</g>
</g>
</svg>
