<svg id="cat-pg" xmlns="http://www.w3.org/2000/svg" width="32" height="32" viewBox="0 0 32 32"><defs><style>.cls-1{fill:none;stroke:#000;stroke-linejoin:round;stroke-width:1.45px;}</style></defs><path class="cls-1" d="M23.8,11.6V6.4a3.6,3.6,0,0,0-1.1-2.5h0a3.2,3.2,0,0,0-2.5-1H6.5a3.5,3.5,0,0,0-2.6,1h0a3.9,3.9,0,0,0-1,2.5v9.1a3.4,3.4,0,0,0,.5,1.7h0a3.1,3.1,0,0,0,2.5,1.3H6v5.2l4.4-5.2h2.4"/><path class="cls-1" d="M28.3,16.2h0a2.7,2.7,0,0,1,.8,1.9v4.3a2.7,2.7,0,0,1-.8,1.9h0a2.7,2.7,0,0,1-1.9.8H26l-3.3,4v-4H19.3a3.2,3.2,0,0,1-2-.8h0a2.6,2.6,0,0,1-.7-1.9V18.1a2.6,2.6,0,0,1,.7-1.9h0a3.2,3.2,0,0,1,2-.8h7.1A2.7,2.7,0,0,1,28.3,16.2Z"/><polyline class="cls-1" points="20.2 20.4 22 22.2 25.9 18.3"/><path class="cls-1" d="M10.5,8.7s0-1.9,2.7-1.9h0c1.8,0,2.7,1.6,1.8,2.8l-2,2.6v1"/><line class="cls-1" x1="13" y1="14" x2="13" y2="15.1"/></svg>