<svg id="cat-pg" xmlns="http://www.w3.org/2000/svg" width="32" height="32" viewBox="0 0 32 32"><defs><style>.cls-1,.cls-2{fill:none;stroke:#000;stroke-linejoin:round;stroke-width:1.45px;}.cls-1{stroke-linecap:round;}</style></defs><path class="cls-1" d="M27.9,12.4a.7.7,0,0,1,.7.7V24.8s0,.8-.7.8H9.6a.7.7,0,0,1-.7-.8V13.1a.7.7,0,0,1,.7-.7Z"/><polyline class="cls-2" points="15.2 8.8 15.2 2 6.1 2 2.3 5.9 2.3 18 5.2 18"/><polygon class="cls-1" points="26.5 25.6 29.7 30 7.8 30 11 25.6 26.5 25.6"/><polyline class="cls-1" points="6.1 2 6.1 5.9 2.3 5.9"/></svg>