<svg id="cat-pg" xmlns="http://www.w3.org/2000/svg" width="32" height="32" viewBox="0 0 32 32"><defs><style>.cls-1{fill:none;stroke:#000;stroke-linejoin:round;stroke-width:1.45px;}</style></defs><path class="cls-1" d="M16.1,9.9c-3.6,0-6.6,3.3-6.6,3.3s3,3.4,6.6,3.4,6.5-3.4,6.5-3.4S19.6,9.9,16.1,9.9Zm0,6.3a2.8,2.8,0,0,1-2.9-2.8,2.9,2.9,0,0,1,2.9-2.9,2.8,2.8,0,0,1,2.8,2.9A2.7,2.7,0,0,1,16.1,16.2Z"/><circle class="cls-1" cx="16.1" cy="13" r="10.2"/><path class="cls-1" d="M5.9,13H3.7s.4,12.4,12.4,12.4S28.3,13,28.3,13h-2"/><line class="cls-1" x1="8.9" y1="29.2" x2="23.2" y2="29.2"/><circle class="cls-1" cx="16.1" cy="27.2" r="1.8"/></svg>