<?xml version="1.0" encoding="utf-8"?>
<!-- Generator: Adobe Illustrator 15.0.2, SVG Export Plug-In . SVG Version: 6.00 Build 0)  -->
<!DOCTYPE svg PUBLIC "-//W3C//DTD SVG 1.1//EN" "http://www.w3.org/Graphics/SVG/1.1/DTD/svg11.dtd">
<svg version="1.1" id="Layer_1" xmlns="http://www.w3.org/2000/svg" xmlns:xlink="http://www.w3.org/1999/xlink" x="0px" y="0px"
	 width="32px" height="32px" viewBox="0 0 32 32" enable-background="new 0 0 32 32" xml:space="preserve">
<g>
	<g>
		<g>
			<path id="SVGID_1_" fill="#FD9AAE" d="M5.452,5.122c0,0-0.452,0-0.452,0.452v19.896c0,0,0,0.451,0.452,0.451h17.636
				c0,0,0.452,0,0.452-0.451V5.574c0,0,0-0.452-0.452-0.452H5.452z"/>
		</g>
		<g>
			<defs>
				<path id="SVGID_2_" d="M5.452,5.122c0,0-0.452,0-0.452,0.452v19.896c0,0,0,0.451,0.452,0.451h17.636c0,0,0.452,0,0.452-0.451
					V5.574c0,0,0-0.452-0.452-0.452H5.452z"/>
			</defs>
			<clipPath id="SVGID_3_">
				<use xlink:href="#SVGID_2_"  overflow="visible"/>
			</clipPath>
			<rect x="5" y="5.122" clip-path="url(#SVGID_3_)" fill="#FD9AAE" width="18.54" height="20.801"/>
		</g>
	</g>
</g>
<rect x="6.5" y="6.5" fill="#FFFFFF" width="15.5" height="3"/>
<rect x="6.5" y="12.5" fill="#FFFFFF" width="15.5" height="3"/>
<g>
	<g>
		<g>
			<defs>
				<path id="SVGID_4_" d="M6.5,6.5H22v18H6.5V6.5z M4.6,4C4.6,4,4,4,4,4.5v21.9c0,0,0,0.5,0.6,0.5H24c0,0,0.6,0,0.6-0.5V4.5
					c0,0,0-0.5-0.6-0.5H4.6z"/>
			</defs>
			<clipPath id="SVGID_5_">
				<use xlink:href="#SVGID_4_"  overflow="visible"/>
			</clipPath>
			<rect x="4" y="4" clip-path="url(#SVGID_5_)" fill="#64788D" width="20.5" height="23"/>
		</g>
	</g>
</g>
<rect x="6.5" y="18.5" fill="#FFFFFF" width="15.5" height="3"/>
</svg>
