<?xml version="1.0" encoding="utf-8"?>
<!-- Generator: Adobe Illustrator 15.0.2, SVG Export Plug-In . SVG Version: 6.00 Build 0)  -->
<!DOCTYPE svg PUBLIC "-//W3C//DTD SVG 1.1//EN" "http://www.w3.org/Graphics/SVG/1.1/DTD/svg11.dtd">
<svg version="1.1" id="Layer_1" xmlns="http://www.w3.org/2000/svg" xmlns:xlink="http://www.w3.org/1999/xlink" x="0px" y="0px"
	 width="32px" height="32px" viewBox="0 0 32 32" enable-background="new 0 0 32 32" xml:space="preserve">
<rect fill="none" width="32" height="32"/>
<g>
	<g>
		<g>
			<defs>
				<path id="SVGID_1_" d="M4.499,4.001c0,0-0.499,0-0.499,0.499v21c0,0,0,0.5,0.499,0.5h17c0,0,0.501,0,0.501-0.5v-21
					c0,0,0-0.499-0.501-0.499H4.499z"/>
			</defs>
			<use xlink:href="#SVGID_1_"  overflow="visible" fill="#64788D"/>
			<clipPath id="SVGID_2_">
				<use xlink:href="#SVGID_1_"  overflow="visible"/>
			</clipPath>
			<rect x="4" y="4.001" clip-path="url(#SVGID_2_)" fill="#64788D" width="18" height="21.999"/>
		</g>
	</g>
</g>
<rect x="6" y="6" fill="#FFFFFF" width="14" height="18"/>
<g>
	<g>
		<g>
			<defs>
				<rect id="SVGID_3_" x="8" y="8" width="9" height="2"/>
			</defs>
			<use xlink:href="#SVGID_3_"  overflow="visible" fill="#64788D"/>
			<clipPath id="SVGID_4_">
				<use xlink:href="#SVGID_3_"  overflow="visible"/>
			</clipPath>
			<rect x="8" y="8" clip-path="url(#SVGID_4_)" fill="#64788D" width="9" height="2"/>
		</g>
	</g>
</g>
<g>
	<g>
		<g>
			<defs>
				<rect id="SVGID_5_" x="8" y="12" width="7" height="2"/>
			</defs>
			<use xlink:href="#SVGID_5_"  overflow="visible" fill="#64788D"/>
			<clipPath id="SVGID_6_">
				<use xlink:href="#SVGID_5_"  overflow="visible"/>
			</clipPath>
			<rect x="8" y="12" clip-path="url(#SVGID_6_)" fill="#64788D" width="7" height="2"/>
		</g>
	</g>
</g>
<g>
	<g>
		<g>
			<defs>
				<rect id="SVGID_7_" x="8" y="16" width="4" height="2"/>
			</defs>
			<use xlink:href="#SVGID_7_"  overflow="visible" fill="#64788D"/>
			<clipPath id="SVGID_8_">
				<use xlink:href="#SVGID_7_"  overflow="visible"/>
			</clipPath>
			<rect x="8" y="16" clip-path="url(#SVGID_8_)" fill="#64788D" width="4" height="2"/>
		</g>
	</g>
</g>
<g>
	<g>
		<g>
			<defs>
				<path id="SVGID_9_" d="M14,21.001C14,24.866,17.134,28,21,28s6.999-3.134,6.999-6.999C27.999,17.134,24.866,14,21,14
					S14,17.134,14,21.001"/>
			</defs>
			<use xlink:href="#SVGID_9_"  overflow="visible" fill="#D6002B"/>
			<clipPath id="SVGID_10_">
				<use xlink:href="#SVGID_9_"  overflow="visible"/>
			</clipPath>
			<rect x="14" y="14" clip-path="url(#SVGID_10_)" fill="#D6002B" width="13.999" height="14"/>
		</g>
	</g>
</g>
<polyline fill="none" stroke="#FFFFFF" stroke-linecap="round" stroke-linejoin="round" points="21,17.001 21,21.001 25,23.001 "/>
</svg>
