<?xml version="1.0" encoding="utf-8"?>
<!-- Generator: Adobe Illustrator 15.0.2, SVG Export Plug-In . SVG Version: 6.00 Build 0)  -->
<!DOCTYPE svg PUBLIC "-//W3C//DTD SVG 1.1//EN" "http://www.w3.org/Graphics/SVG/1.1/DTD/svg11.dtd">
<svg version="1.1" id="Layer_1" xmlns="http://www.w3.org/2000/svg" xmlns:xlink="http://www.w3.org/1999/xlink" x="0px" y="0px"
	 width="32px" height="32px" viewBox="0 0 32 32" enable-background="new 0 0 32 32" xml:space="preserve">
<g>
	<g>
		<g>
			<g>
				<path id="SVGID_1_" fill="#64788D" d="M16,18.1c-1.4,0-2.6-0.5-3.5-1.1C10.4,18,9,19.6,9,21.6V29h14v-7.4
					c0-1.896-1.4-3.6-3.5-4.5C18.6,17.6,17.4,18.1,16,18.1"/>
			</g>
			<g>
				<g>
					<g>
						<path id="SVGID_2_" fill="#64788D" d="M16,18.1c-1.4,0-2.6-0.5-3.5-1.1C10.4,18,9,19.6,9,21.6V29h14v-7.4
							c0-1.896-1.4-3.6-3.5-4.5C18.6,17.6,17.4,18.1,16,18.1"/>
					</g>
					<g>
						<defs>
							<path id="SVGID_3_" d="M16,18.1c-1.4,0-2.6-0.5-3.5-1.1C10.4,18,9,19.6,9,21.6V29h14v-7.4c0-1.896-1.4-3.6-3.5-4.5
								C18.6,17.6,17.4,18.1,16,18.1"/>
						</defs>
						<clipPath id="SVGID_4_">
							<use xlink:href="#SVGID_3_"  overflow="visible"/>
						</clipPath>
						<rect x="9" y="17" clip-path="url(#SVGID_4_)" fill="#64788D" width="14" height="12"/>
					</g>
				</g>
			</g>
		</g>
	</g>
	<g>
		<g>
			<g>
				<g>
					<g>
						<defs>
							<path id="SVGID_5_" d="M11.2,10.6c0,2.9,2.2,5.2,4.8,5.2c2.6,0,4.8-2.4,4.8-5.2c0-2.8-2.1-5.2-4.8-5.2S11.2,7.7,11.2,10.6"/>
						</defs>
						<clipPath id="SVGID_6_">
							<use xlink:href="#SVGID_5_"  overflow="visible"/>
						</clipPath>
						
							<linearGradient id="SVGID_7_" gradientUnits="userSpaceOnUse" x1="-271.5181" y1="368.4648" x2="-270.5189" y2="368.4648" gradientTransform="matrix(9.625 0 0 -9.625 2624.5625 3557.125)">
							<stop  offset="0" style="stop-color:#DBB395"/>
							<stop  offset="0.0198" style="stop-color:#DBB395"/>
							<stop  offset="1" style="stop-color:#EAC2A4"/>
						</linearGradient>
						<rect x="11.2" y="5.4" clip-path="url(#SVGID_6_)" fill="url(#SVGID_7_)" width="9.6" height="10.5"/>
					</g>
				</g>
			</g>
		</g>
	</g>
	<g>
		<g>
			<g>
				<g>
					<g>
						<defs>
							<rect id="SVGID_8_" x="8.5" y="2" width="15" height="27"/>
						</defs>
						<clipPath id="SVGID_9_">
							<use xlink:href="#SVGID_8_"  overflow="visible"/>
						</clipPath>
						<path clip-path="url(#SVGID_9_)" fill="#64788D" d="M21.1,8.8V5.4C21.1,3.1,18.8,2,16,2s-5.1,1.1-5.1,3.4v3.4H21.1z"/>
					</g>
				</g>
			</g>
		</g>
		<g>
			<g>
				<g>
					<g>
						<defs>
							<rect id="SVGID_10_" x="8.5" y="2" width="15" height="27"/>
						</defs>
						<clipPath id="SVGID_11_">
							<use xlink:href="#SVGID_10_"  overflow="visible"/>
						</clipPath>
						<path clip-path="url(#SVGID_11_)" fill="#D6002B" d="M23.5,8.7c0-0.5-0.3-0.9-0.8-0.9H9.2c-0.4,0-0.8,0.4-0.8,0.9
							s0.3,0.9,0.8,0.9h13.5C23.2,9.5,23.5,9.1,23.5,8.7"/>
					</g>
				</g>
			</g>
		</g>
	</g>
</g>
</svg>
