<?xml version="1.0" encoding="utf-8"?>
<!-- Generator: Adobe Illustrator 15.0.2, SVG Export Plug-In . SVG Version: 6.00 Build 0)  -->
<!DOCTYPE svg PUBLIC "-//W3C//DTD SVG 1.1//EN" "http://www.w3.org/Graphics/SVG/1.1/DTD/svg11.dtd">
<svg version="1.1" id="Layer_1" xmlns="http://www.w3.org/2000/svg" xmlns:xlink="http://www.w3.org/1999/xlink" x="0px" y="0px"
	 width="32px" height="32px" viewBox="0 0 32 32" enable-background="new 0 0 32 32" xml:space="preserve">
<g>
	<g>
		<g>
			<path id="SVGID_1_" fill="#64788D" d="M4,5.2v1v1.3v18.2l2,1h14.5c0,0,0.5,0,0.5-0.5V12.4c-1.5-1.1-2.5-2.9-2.5-4.9
				c0-0.3,0-0.5,0.1-0.8H6l-1.5-1h14.3c0-0.1,0.101-0.2,0.101-0.3c-0.101-0.1-0.199-0.2-0.399-0.2H4z"/>
		</g>
		<g>
			<defs>
				<path id="SVGID_2_" d="M4,5.2v1v1.3v18.2l2,1h14.5c0,0,0.5,0,0.5-0.5V12.4c-1.5-1.1-2.5-2.9-2.5-4.9c0-0.3,0-0.5,0.1-0.8H6
					l-1.5-1h14.3c0-0.1,0.101-0.2,0.101-0.3c-0.101-0.1-0.199-0.2-0.399-0.2H4z"/>
			</defs>
			<use xlink:href="#SVGID_2_"  overflow="visible" fill="#64788D"/>
			<clipPath id="SVGID_4_">
				<use xlink:href="#SVGID_2_"  overflow="visible"/>
			</clipPath>
			<rect x="4" y="5.2" clip-path="url(#SVGID_4_)" fill="#64788D" width="17" height="21.5"/>
		</g>
	</g>
</g>
<rect x="9.3" y="10.9" fill="#FFFFFF" width="8.3" height="5"/>
<g>
	<g>
		<g>
			<circle id="SVGID_3_" fill="#64788D" cx="24.5" cy="7.5" r="5"/>
		</g>
		<g>
			<defs>
				<circle id="SVGID_5_" cx="24.5" cy="7.5" r="5"/>
			</defs>
			<clipPath id="SVGID_6_">
				<use xlink:href="#SVGID_5_"  overflow="visible"/>
			</clipPath>
			<rect x="19.5" y="2.5" clip-path="url(#SVGID_6_)" fill="#64788D" width="10" height="10"/>
		</g>
	</g>
</g>
<g>
	<g>
		<g>
			<defs>
				<rect id="SVGID_7_" x="4" y="2.5" width="25.5" height="24.2"/>
			</defs>
			<clipPath id="SVGID_8_">
				<use xlink:href="#SVGID_7_"  overflow="visible"/>
			</clipPath>
			<path clip-path="url(#SVGID_8_)" fill="#FFFFFF" d="M26,4.9c-1.1,1.1-2.1,0-2.1,1.1S26,7.1,26,9.2c0,1.1,2.1-1.1,2.1-2.1
				S26.7,4.2,26,4.9"/>
		</g>
	</g>
	<g>
		<g>
			<defs>
				<rect id="SVGID_9_" x="4" y="2.5" width="25.5" height="24.2"/>
			</defs>
			<clipPath id="SVGID_10_">
				<use xlink:href="#SVGID_9_"  overflow="visible"/>
			</clipPath>
			<path clip-path="url(#SVGID_10_)" fill="#FFFFFF" d="M23.1,7.4C23.2,6.4,21.7,6.5,21.2,7s0.399,1.7,0.7,2.5
				c0.199,0.7,0.199,0.8,0.8-0.2C23,8.7,23,8.6,23.1,7.4"/>
		</g>
	</g>
</g>
</svg>
