<?xml version="1.0" encoding="utf-8"?>
<!-- Generator: Adobe Illustrator 15.0.2, SVG Export Plug-In . SVG Version: 6.00 Build 0)  -->
<!DOCTYPE svg PUBLIC "-//W3C//DTD SVG 1.1//EN" "http://www.w3.org/Graphics/SVG/1.1/DTD/svg11.dtd">
<svg version="1.1" id="Layer_1" xmlns="http://www.w3.org/2000/svg" xmlns:xlink="http://www.w3.org/1999/xlink" x="0px" y="0px"
	 width="32px" height="32px" viewBox="0 0 32 32" enable-background="new 0 0 32 32" xml:space="preserve">
<rect x="-1" y="-1" fill="none" width="32" height="32"/>
<g>
	<g>
		<g>
			<g>
				<rect id="SVGID_1_" x="5.008" y="3" fill="#64788D" width="19.984" height="12.146"/>
			</g>
			<g>
				<g>
					<g>
						<rect id="SVGID_2_" x="5.008" y="3" fill="#64788D" width="19.984" height="12.146"/>
					</g>
					<g>
						<defs>
							<rect id="SVGID_3_" x="5.008" y="3" width="19.984" height="12.146"/>
						</defs>
						<clipPath id="SVGID_4_">
							<use xlink:href="#SVGID_3_"  overflow="visible"/>
						</clipPath>
						<rect x="5.008" y="3" clip-path="url(#SVGID_4_)" fill="#64788D" width="19.984" height="12.146"/>
					</g>
				</g>
			</g>
		</g>
	</g>
</g>
<path fill="#D6002B" d="M25,15H5v2h5.284l-3.943,8.582c-0.23,0.502-0.011,1.096,0.491,1.326C6.968,26.971,7.11,27,7.25,27
	c0.378,0,0.741-0.216,0.909-0.582l1.496-3.256h10.691l1.496,3.256C22.01,26.784,22.372,27,22.751,27c0.14,0,0.282-0.029,0.417-0.092
	c0.502-0.23,0.723-0.824,0.491-1.326L19.716,17H25V15z M17.591,17.168l1.835,3.994h-8.853l1.835-3.994
	c0.025-0.054,0.025-0.111,0.04-0.168h5.104C17.566,17.057,17.566,17.113,17.591,17.168z"/>
</svg>
