<svg id="cat-pg" xmlns="http://www.w3.org/2000/svg" width="32" height="32" viewBox="0 0 32 32"><defs><style>.cls-1{fill:none;stroke:#000;stroke-linejoin:round;stroke-width:1.45px;}</style></defs><path class="cls-1" d="M8,4.1c-.6.1-.9.3-.4.9L9.5,7.5a2.5,2.5,0,0,1-1,1.9,2.7,2.7,0,0,1-2.1.4S4.9,7.7,4.5,7.3s-1-.1-1,1.1v.3a6,6,0,0,0,1,3.3,4.7,4.7,0,0,0,5.6,1.2L21.5,23.8a3,3,0,0,0,.9,2.5,2.9,2.9,0,0,0,4-4.3,2.6,2.6,0,0,0-2.5-.7L12.5,10.6a4.6,4.6,0,0,0-.4-4.3,6,6,0,0,0-4-2.2Z"/><polyline class="cls-1" points="20.9 13.7 24.7 10.2 26.8 9.3 28.5 6.6 26.8 4.8 24 6.4 22.9 8.5 19.2 11.9"/><path class="cls-1" d="M10.8,18.9,5,23.9a2.1,2.1,0,0,0,0,3,3.4,3.4,0,0,0,1.6,1,2.6,2.6,0,0,0,1.6-.7l5.4-5.5"/></svg>