<?xml version="1.0" encoding="utf-8"?>
<!-- Generator: Adobe Illustrator 15.0.2, SVG Export Plug-In . SVG Version: 6.00 Build 0)  -->
<!DOCTYPE svg PUBLIC "-//W3C//DTD SVG 1.1//EN" "http://www.w3.org/Graphics/SVG/1.1/DTD/svg11.dtd">
<svg version="1.1" id="Layer_1" xmlns="http://www.w3.org/2000/svg" xmlns:xlink="http://www.w3.org/1999/xlink" x="0px" y="0px"
	 width="25px" height="25px" viewBox="22.5 0 25 25" enable-background="new 22.5 0 25 25" xml:space="preserve">
<g>
	<g>
		<g>
			<rect id="SVGID_1_" x="22.5" fill="#64788D" width="25" height="25"/>
		</g>
		<g>
			<g>
				<rect id="SVGID_2_" x="22.5" fill="#64788D" width="25" height="25"/>
			</g>
			<g>
				<g>
					<rect id="SVGID_3_" x="22.5" fill="#64788D" width="25" height="25"/>
				</g>
				<g>
					<defs>
						<rect id="SVGID_4_" x="22.5" width="25" height="25"/>
					</defs>
					<clipPath id="SVGID_5_">
						<use xlink:href="#SVGID_4_"  overflow="visible"/>
					</clipPath>
					<rect x="22.5" clip-path="url(#SVGID_5_)" fill="#64788D" width="25" height="25"/>
				</g>
			</g>
		</g>
	</g>
</g>
<polygon fill="#FFFFFF" points="42.812,19.062 42.812,19.062 42.812,20.312 27.188,20.312 27.188,19.062 "/>
<g>
	<g>
		<g>
			<g>
				<g>
					<defs>
						<rect id="SVGID_6_" x="22.5" width="25" height="25"/>
					</defs>
					<clipPath id="SVGID_7_">
						<use xlink:href="#SVGID_6_"  overflow="visible"/>
					</clipPath>
					<path clip-path="url(#SVGID_7_)" fill="#FFFFFF" d="M41.875,18.047v-0.625c0-0.312-0.312-0.312-0.312-0.312h-1.016
						c0,0,0,0,0-0.075V10.94c0,0,0-0.312-0.312-0.312h-1.95c0,0-0.312,0-0.312,0.312v6.094c0,0,0,0,0,0.075H36.33c0,0,0,0,0-0.075
						V10.94c0,0,0-0.312-0.312-0.312h-1.955c0,0-0.312,0-0.312,0.312v6.094c0,0,0,0,0,0.075H32.11c0,0,0,0,0-0.075V10.94
						c0,0,0-0.312-0.312-0.312h-2.031c0,0-0.312,0-0.312,0.312v6.094c0,0,0,0,0,0.075h-0.938c-0.312,0-0.312,0.312-0.312,0.312
						v0.625c0,0.312,0.312,0.312,0.312,0.312h13.045C41.875,18.359,41.875,18.047,41.875,18.047"/>
				</g>
			</g>
		</g>
	</g>
	<g>
		<g>
			<g>
				<g>
					<defs>
						<rect id="SVGID_8_" x="22.5" width="25" height="25"/>
					</defs>
					<clipPath id="SVGID_9_">
						<use xlink:href="#SVGID_8_"  overflow="visible"/>
					</clipPath>
					<path clip-path="url(#SVGID_9_)" fill="#FFFFFF" d="M27.891,9.922c0,0-0.781,0-0.156-0.469l6.562-4.375
						c0,0,0.625-0.469,1.328,0l6.562,4.375c0,0,0.625,0.469-0.156,0.469H27.891z"/>
				</g>
			</g>
		</g>
	</g>
</g>
</svg>
