<?xml version="1.0" encoding="utf-8"?>
<!-- Generator: Adobe Illustrator 15.0.2, SVG Export Plug-In . SVG Version: 6.00 Build 0)  -->
<!DOCTYPE svg PUBLIC "-//W3C//DTD SVG 1.1//EN" "http://www.w3.org/Graphics/SVG/1.1/DTD/svg11.dtd">
<svg version="1.1" id="Layer_1" xmlns="http://www.w3.org/2000/svg" xmlns:xlink="http://www.w3.org/1999/xlink" x="0px" y="0px"
	 width="32px" height="32px" viewBox="0 0 32 32" enable-background="new 0 0 32 32" xml:space="preserve">
<g>
	<rect x="-1" fill="none" width="32" height="32"/>
	<g>
		<g>
			<g>
				<g>
					<polygon id="SVGID_1_" fill="#64788D" points="13.768,15.764 20.359,27.184 22.266,26.083 15.673,14.664 14.445,14.738 					
						"/>
				</g>
				<g>
					<defs>
						<polygon id="SVGID_2_" points="13.768,15.764 20.359,27.184 22.266,26.083 15.673,14.664 14.445,14.738 						"/>
					</defs>
					<clipPath id="SVGID_4_">
						<use xlink:href="#SVGID_2_"  overflow="visible"/>
					</clipPath>
					<polygon clip-path="url(#SVGID_4_)" fill="#64788D" points="8.348,17.794 20.143,10.985 27.688,24.055 15.893,30.863 					"/>
				</g>
			</g>
		</g>
	</g>
	<g>
		<g>
			<g>
				<g>
					<polygon id="SVGID_3_" fill="#D6002B" points="18.736,13.372 13.827,13.666 11.116,17.771 9.869,13.411 5.361,12.203 
						9.172,10.003 8.877,5.093 12.982,7.803 16.792,5.604 15.584,10.111 					"/>
				</g>
				<g>
					<defs>
						<polygon id="SVGID_5_" points="18.736,13.372 13.827,13.666 11.116,17.771 9.869,13.411 5.361,12.203 9.172,10.003 
							8.877,5.093 12.982,7.803 16.792,5.604 15.584,10.111 						"/>
					</defs>
					<clipPath id="SVGID_6_">
						<use xlink:href="#SVGID_5_"  overflow="visible"/>
					</clipPath>
					<polygon clip-path="url(#SVGID_6_)" fill="#D6002B" points="15.393,-0.699 24.229,14.603 8.705,23.564 -0.129,8.263 					"/>
				</g>
			</g>
		</g>
	</g>
</g>
</svg>
