<?xml version="1.0" encoding="utf-8"?>
<!-- Generator: Adobe Illustrator 15.0.2, SVG Export Plug-In . SVG Version: 6.00 Build 0)  -->
<!DOCTYPE svg PUBLIC "-//W3C//DTD SVG 1.1//EN" "http://www.w3.org/Graphics/SVG/1.1/DTD/svg11.dtd">
<svg version="1.1" id="Layer_1" xmlns="http://www.w3.org/2000/svg" xmlns:xlink="http://www.w3.org/1999/xlink" x="0px" y="0px"
	 width="32px" height="32px" viewBox="0 0 32 32" enable-background="new 0 0 32 32" xml:space="preserve">
<g>
	<rect x="-1" y="-1" fill="none" width="32" height="32"/>
	<g>
		<g>
			<g>
				<g>
					<path id="SVGID_1_" fill="#64788D" d="M3,10.5c0,1.304,0.445,2.53,1.225,3.598L3,19l3.628-2.721
						c1.131,0.703,2.486,1.197,3.956,1.473c0.738-2.989,4.217-5.255,8.416-5.255c1.211,0,2.359,0.192,3.404,0.533
						C22.783,12.239,23,11.389,23,10.5C23,6.358,18.523,3,13,3C7.477,3,3,6.358,3,10.5"/>
				</g>
				<g>
					<g>
						<path id="SVGID_2_" fill="#64788D" d="M3,10.5c0,1.304,0.445,2.53,1.225,3.598L3,19l3.628-2.721
							c1.131,0.703,2.486,1.197,3.956,1.473c0.738-2.989,4.217-5.255,8.416-5.255c1.211,0,2.359,0.192,3.404,0.533
							C22.783,12.239,23,11.389,23,10.5C23,6.358,18.523,3,13,3C7.477,3,3,6.358,3,10.5"/>
					</g>
					<g>
						<defs>
							<path id="SVGID_4_" d="M3,10.5c0,1.304,0.445,2.53,1.225,3.598L3,19l3.628-2.721c1.131,0.703,2.486,1.197,3.956,1.473
								c0.738-2.989,4.217-5.255,8.416-5.255c1.211,0,2.359,0.192,3.404,0.533C22.783,12.239,23,11.389,23,10.5
								C23,6.358,18.523,3,13,3C7.477,3,3,6.358,3,10.5"/>
						</defs>
						<clipPath id="SVGID_6_">
							<use xlink:href="#SVGID_4_"  overflow="visible"/>
						</clipPath>
						<rect x="3" y="3" clip-path="url(#SVGID_6_)" fill="#64788D" width="20" height="16"/>
					</g>
				</g>
			</g>
		</g>
	</g>
	<g>
		<g>
			<g>
				<g>
					<path id="SVGID_3_" fill="#D6002B" d="M11.551,19.068c0,3.086,3.335,5.586,7.449,5.586c1.512,0,2.913-0.342,4.088-0.922
						l3.361,2.785l-1.131-4.521c0.705-0.854,1.131-1.852,1.131-2.928c0-3.086-3.335-5.586-7.449-5.586S11.551,15.982,11.551,19.068"
						/>
				</g>
				<g>
					<g>
						<path id="SVGID_5_" fill="#D6002B" d="M11.551,19.068c0,3.086,3.335,5.586,7.449,5.586c1.512,0,2.913-0.342,4.088-0.922
							l3.361,2.785l-1.131-4.521c0.705-0.854,1.131-1.852,1.131-2.928c0-3.086-3.335-5.586-7.449-5.586S11.551,15.982,11.551,19.068
							"/>
					</g>
					<g>
						<defs>
							<path id="SVGID_7_" d="M11.551,19.068c0,3.086,3.335,5.586,7.449,5.586c1.512,0,2.913-0.342,4.088-0.922l3.361,2.785
								l-1.131-4.521c0.705-0.854,1.131-1.852,1.131-2.928c0-3.086-3.335-5.586-7.449-5.586S11.551,15.982,11.551,19.068"/>
						</defs>
						<clipPath id="SVGID_8_">
							<use xlink:href="#SVGID_7_"  overflow="visible"/>
						</clipPath>
						<rect x="11.551" y="13.482" clip-path="url(#SVGID_8_)" fill="#D6002B" width="14.898" height="13.036"/>
					</g>
				</g>
			</g>
		</g>
	</g>
</g>
</svg>
