<?xml version="1.0" encoding="utf-8"?>
<!-- Generator: Adobe Illustrator 15.0.2, SVG Export Plug-In . SVG Version: 6.00 Build 0)  -->
<!DOCTYPE svg PUBLIC "-//W3C//DTD SVG 1.1//EN" "http://www.w3.org/Graphics/SVG/1.1/DTD/svg11.dtd">
<svg version="1.1" id="Layer_1" xmlns="http://www.w3.org/2000/svg" xmlns:xlink="http://www.w3.org/1999/xlink" x="0px" y="0px"
	 width="32px" height="32px" viewBox="0 0 32 32" enable-background="new 0 0 32 32" xml:space="preserve">
<g>
	<path fill="#64788D" d="M29.39,7.445c0,0.495-0.365,0.803-0.817,0.803H3.026c-0.451,0-0.415-0.31-0.415-0.803V4.913
		c0-0.493-0.036-0.893,0.415-0.893h25.546c0.452,0,0.817,0.4,0.817,0.893V7.445z"/>
	<path fill="#64788D" d="M27.98,27.129c0,0.468-0.38,0.851-0.851,0.851H4.871c-0.47,0-0.85-0.383-0.85-0.851v-16.62
		c0-0.469,0.38-0.851,0.85-0.851h22.262c0.468,0,0.851,0.38,0.851,0.851v16.62H27.98z"/>
	<path fill="#FFFFFF" d="M20.934,15.854c0,0.469-0.383,0.852-0.851,0.852h-8.165c-0.469,0-0.852-0.382-0.852-0.852v-1.118
		c0-0.469,0.381-0.852,0.852-0.852h8.165c0.468,0,0.851,0.381,0.851,0.852V15.854z"/>
</g>
<rect fill="none" width="32" height="32"/>
</svg>
