<?xml version="1.0" encoding="utf-8"?>
<!-- Generator: Adobe Illustrator 15.0.2, SVG Export Plug-In . SVG Version: 6.00 Build 0)  -->
<!DOCTYPE svg PUBLIC "-//W3C//DTD SVG 1.1//EN" "http://www.w3.org/Graphics/SVG/1.1/DTD/svg11.dtd">
<svg version="1.1" id="Layer_1" xmlns="http://www.w3.org/2000/svg" xmlns:xlink="http://www.w3.org/1999/xlink" x="0px" y="0px"
	 width="32px" height="32px" viewBox="0 0 32 32" enable-background="new 0 0 32 32" xml:space="preserve">
<g>
	<g>
		<g>
			<defs>
				<rect id="SVGID_1_" x="6" y="6" width="20" height="19.516"/>
			</defs>
			<clipPath id="SVGID_2_">
				<use xlink:href="#SVGID_1_"  overflow="visible"/>
			</clipPath>
			<path clip-path="url(#SVGID_2_)" fill="#D6002B" d="M22,10.889v-4c0,0-3-2-8.237,0C9.782,8.41,6,6.889,6,6.889v4
				c0,0,3.782,1.521,7.763,0C19,8.889,22,10.889,22,10.889"/>
		</g>
	</g>
	<g>
		<g>
			<defs>
				<rect id="SVGID_3_" x="6" y="6" width="20" height="19.516"/>
			</defs>
			<clipPath id="SVGID_4_">
				<use xlink:href="#SVGID_3_"  overflow="visible"/>
			</clipPath>
			<path clip-path="url(#SVGID_4_)" fill="#D6002B" d="M22,18.889v-4c0,0-3-2-8.237,0c-3.981,1.521-7.763,0-7.763,0v4
				c0,0,3.782,1.521,7.763,0C19,16.889,22,18.889,22,18.889"/>
		</g>
	</g>
	<g>
		<g>
			<defs>
				<rect id="SVGID_5_" x="6" y="6" width="20" height="19.516"/>
			</defs>
			<clipPath id="SVGID_6_">
				<use xlink:href="#SVGID_5_"  overflow="visible"/>
			</clipPath>
			<path clip-path="url(#SVGID_6_)" fill="#F8C78E" d="M22,14.889v-4c0,0-3-2-8.237,0c-3.981,1.521-7.763,0-7.763,0v4
				c0,0,3.782,1.521,7.763,0C19,12.889,22,14.889,22,14.889"/>
		</g>
	</g>
	<g>
		<g>
			<defs>
				<rect id="SVGID_7_" x="6" y="6" width="20" height="19.516"/>
			</defs>
			<clipPath id="SVGID_8_">
				<use xlink:href="#SVGID_7_"  overflow="visible"/>
			</clipPath>
			<path clip-path="url(#SVGID_8_)" fill="#FFFFFF" d="M20.667,24.114v-12c-0.878,0.126-1.831,0.337-2.903,0.746
				c-0.832,0.318-1.646,0.482-2.43,0.574v12c0.782-0.093,1.598-0.256,2.43-0.574C18.836,24.45,19.789,24.239,20.667,24.114"/>
		</g>
	</g>
	<g>
		<g>
			<defs>
				<rect id="SVGID_9_" x="6" y="6" width="20" height="19.516"/>
			</defs>
			<clipPath id="SVGID_10_">
				<use xlink:href="#SVGID_9_"  overflow="visible"/>
			</clipPath>
			<path clip-path="url(#SVGID_10_)" fill="#D6002B" d="M15.333,13.435C12.375,13.789,10,12.86,10,12.86v12
				c0,0,2.375,0.931,5.333,0.574V13.435z"/>
		</g>
	</g>
	<g>
		<g>
			<defs>
				<rect id="SVGID_11_" x="6" y="6" width="20" height="19.516"/>
			</defs>
			<clipPath id="SVGID_12_">
				<use xlink:href="#SVGID_11_"  overflow="visible"/>
			</clipPath>
			<path clip-path="url(#SVGID_12_)" fill="#64788D" d="M26,24.859v-12c0,0-1.923-1.233-5.333-0.746v12
				C24.077,23.626,26,24.859,26,24.859"/>
		</g>
	</g>
</g>
</svg>
