<?xml version="1.0" encoding="utf-8"?>
<!-- Generator: Adobe Illustrator 15.0.2, SVG Export Plug-In . SVG Version: 6.00 Build 0)  -->
<!DOCTYPE svg PUBLIC "-//W3C//DTD SVG 1.1//EN" "http://www.w3.org/Graphics/SVG/1.1/DTD/svg11.dtd">
<svg version="1.1" id="Layer_1" xmlns="http://www.w3.org/2000/svg" xmlns:xlink="http://www.w3.org/1999/xlink" x="0px" y="0px"
	 width="23.457px" height="23.516px" viewBox="24.043 1.562 23.457 23.516" enable-background="new 24.043 1.562 23.457 23.516"
	 xml:space="preserve">
<g>
	<g>
		<g>
			<path id="SVGID_1_" fill="#D6002B" d="M34.219,1.562c-2.578,0-5.234,1.016-7.188,2.969c-3.984,3.984-3.984,10.391,0,14.375
				c3.125,3.125,7.656,3.75,11.406,2.031c0.078,0.233,0.155,0.391,0.391,0.547c0.547,0.547,1.406,0.625,1.875,0.233l0.156-0.155
				l3.203,3.516H47.5v-3.438l-3.516-3.203l0.156-0.156c0.469-0.469,0.391-1.25-0.234-1.875c-0.156-0.156-0.391-0.312-0.547-0.391
				c1.719-3.75,1.094-8.359-2.031-11.407C39.453,2.578,36.797,1.562,34.219,1.562z"/>
		</g>
		<g>
			<defs>
				<path id="SVGID_2_" d="M34.219,1.562c-2.578,0-5.234,1.016-7.188,2.969c-3.984,3.984-3.984,10.391,0,14.375
					c3.125,3.125,7.656,3.75,11.406,2.031c0.078,0.233,0.155,0.391,0.391,0.547c0.547,0.547,1.406,0.625,1.875,0.233l0.156-0.155
					l3.203,3.516H47.5v-3.438l-3.516-3.203l0.156-0.156c0.469-0.469,0.391-1.25-0.234-1.875c-0.156-0.156-0.391-0.312-0.547-0.391
					c1.719-3.75,1.094-8.359-2.031-11.407C39.453,2.578,36.797,1.562,34.219,1.562z"/>
			</defs>
			<clipPath id="SVGID_3_">
				<use xlink:href="#SVGID_2_"  overflow="visible"/>
			</clipPath>
			<polygon clip-path="url(#SVGID_3_)" fill="#D6002B" points="11.328,13.281 35.312,-10.625 59.219,13.281 35.312,37.188 			"/>
		</g>
	</g>
</g>
<g>
	<g>
		<g>
			<defs>
				<rect id="SVGID_4_" x="24.062" y="1.562" width="23.438" height="23.438"/>
			</defs>
			<clipPath id="SVGID_6_">
				<use xlink:href="#SVGID_4_"  overflow="visible"/>
			</clipPath>
			<path clip-path="url(#SVGID_6_)" fill="#FFFFFF" d="M39.844,17.344c3.125-3.125,3.125-8.203,0-11.25
				c-3.125-3.125-8.203-3.125-11.25,0c-3.125,3.125-3.125,8.203,0,11.25C31.719,20.469,36.719,20.469,39.844,17.344"/>
		</g>
	</g>
</g>
<g>
	<g>
		<g>
			<path id="SVGID_5_" fill="#64788D" d="M29.609,7.109c-1.094,1.094-1.719,2.5-1.875,3.984c0.156-0.156,0.234-0.312,0.312-0.391
				c3.438-3.438,8.906-3.438,12.345,0c0.155,0.156,0.233,0.234,0.312,0.391C40.547,9.609,40,8.203,38.828,7.109
				c-1.25-1.25-2.969-1.875-4.609-1.875C32.578,5.156,30.859,5.859,29.609,7.109"/>
		</g>
		<g>
			<defs>
				<path id="SVGID_7_" d="M29.609,7.109c-1.094,1.094-1.719,2.5-1.875,3.984c0.156-0.156,0.234-0.312,0.312-0.391
					c3.438-3.438,8.906-3.438,12.345,0c0.155,0.156,0.233,0.234,0.312,0.391C40.547,9.609,40,8.203,38.828,7.109
					c-1.25-1.25-2.969-1.875-4.609-1.875C32.578,5.156,30.859,5.859,29.609,7.109"/>
			</defs>
			<clipPath id="SVGID_8_">
				<use xlink:href="#SVGID_7_"  overflow="visible"/>
			</clipPath>
			<polygon clip-path="url(#SVGID_8_)" fill="#64788D" points="24.844,8.125 34.219,-1.25 43.594,8.125 34.219,17.578 			"/>
		</g>
	</g>
</g>
</svg>
