<svg id="cat-pg" xmlns="http://www.w3.org/2000/svg" width="32" height="32" viewBox="0 0 32 32"><defs><style>.cls-1,.cls-2,.cls-3{fill:none;stroke:#000;stroke-width:1.45px;}.cls-1{stroke-miterlimit:10;}.cls-2{stroke-linecap:round;}.cls-2,.cls-3{stroke-linejoin:round;}</style></defs><path class="cls-1" d="M24.7,2.9H7.8A1.7,1.7,0,0,0,6.2,4.6V28a1.1,1.1,0,0,0,1.1,1.1H24.7A1.1,1.1,0,0,0,25.8,28V7.3a1.1,1.1,0,0,0-1.1-1.1H7.8A1.6,1.6,0,0,1,6.2,4.6h0"/><ellipse class="cls-2" cx="16" cy="14" rx="3.6" ry="4"/><path class="cls-3" d="M21.5,25.9V23.5a4.3,4.3,0,0,0-2.7-3.6h0l-.7.3a5.4,5.4,0,0,1-2.1.5,5.4,5.4,0,0,1-2.1-.5h0l-.7-.3h0a4.3,4.3,0,0,0-2.7,3.6v2.4"/></svg>