<?xml version="1.0" encoding="utf-8"?>
<!-- Generator: Adobe Illustrator 15.0.2, SVG Export Plug-In . SVG Version: 6.00 Build 0)  -->
<!DOCTYPE svg PUBLIC "-//W3C//DTD SVG 1.1//EN" "http://www.w3.org/Graphics/SVG/1.1/DTD/svg11.dtd">
<svg version="1.1" id="Layer_1" xmlns="http://www.w3.org/2000/svg" xmlns:xlink="http://www.w3.org/1999/xlink" x="0px" y="0px"
	 width="32px" height="32px" viewBox="0 0 32 32" enable-background="new 0 0 32 32" xml:space="preserve">
<g>
	<rect fill="none" width="32" height="32"/>
	<g>
		<g>
			<g>
				<g>
					<defs>
						<rect id="SVGID_1_" width="32" height="32"/>
					</defs>
					<clipPath id="SVGID_2_">
						<use xlink:href="#SVGID_1_"  overflow="visible"/>
					</clipPath>
					<path clip-path="url(#SVGID_2_)" fill="#64788D" d="M24.5,11.5c2.209,0,4-1.791,4-4s-1.791-4-4-4s-4,1.791-4,4
						S22.291,11.5,24.5,11.5"/>
				</g>
			</g>
		</g>
		<g>
			<g>
				<g>
					<defs>
						<rect id="SVGID_3_" width="32" height="32"/>
					</defs>
					<clipPath id="SVGID_4_">
						<use xlink:href="#SVGID_3_"  overflow="visible"/>
					</clipPath>
					<circle clip-path="url(#SVGID_4_)" fill="none" stroke="#FFFFFF" cx="24.5" cy="7.5" r="4"/>
				</g>
			</g>
		</g>
		<g>
			<g>
				<g>
					<defs>
						<rect id="SVGID_5_" width="32" height="32"/>
					</defs>
					<clipPath id="SVGID_6_">
						<use xlink:href="#SVGID_5_"  overflow="visible"/>
					</clipPath>
					<path clip-path="url(#SVGID_6_)" fill="#FFFFFF" d="M25.604,5.575c-0.802,0.802-1.603,0-1.603,0.802
						c0,0.802,1.603,0.802,1.603,2.405c0,0.801,1.604-0.802,1.604-1.603C27.207,6.377,26.171,5.008,25.604,5.575"/>
				</g>
			</g>
		</g>
		<g>
			<g>
				<g>
					<defs>
						<rect id="SVGID_7_" width="32" height="32"/>
					</defs>
					<clipPath id="SVGID_8_">
						<use xlink:href="#SVGID_7_"  overflow="visible"/>
					</clipPath>
					<path clip-path="url(#SVGID_8_)" fill="#FFFFFF" d="M23.416,7.454c0.057-0.733-1.08-0.684-1.422-0.291s0.336,1.254,0.504,1.881
						c0.135,0.503,0.168,0.627,0.627-0.168C23.385,8.425,23.352,8.295,23.416,7.454"/>
				</g>
			</g>
		</g>
	</g>
	<g>
		<path fill="#64788D" d="M20.766,9.5H6.794C6.474,9.5,6.5,9.28,6.5,8.93V7.134C6.5,6.784,6.474,6.5,6.794,6.5h13.597
			C20.109,7.906,20.234,8.406,20.766,9.5z"/>
		<path fill="#64788D" d="M24.5,22.896c0,0.332-0.27,0.604-0.604,0.604H8.103C7.77,23.5,7.5,23.229,7.5,22.896V11.104
			c0-0.333,0.27-0.604,0.603-0.604h13.131c0,0,0.844,1.047,3.267,1.391L24.5,22.896L24.5,22.896z"/>
		<path fill="#FFFFFF" d="M19.5,14.896c0,0.333-0.271,0.604-0.604,0.604h-5.793c-0.333,0-0.604-0.271-0.604-0.604v-0.793
			c0-0.333,0.27-0.604,0.604-0.604h5.793c0.332,0,0.604,0.27,0.604,0.604V14.896z"/>
	</g>
</g>
<g>
	<rect x="-32" fill="none" width="32" height="32"/>
</g>
</svg>
