<?xml version="1.0" encoding="utf-8"?>
<!-- Generator: Adobe Illustrator 15.0.2, SVG Export Plug-In . SVG Version: 6.00 Build 0)  -->
<!DOCTYPE svg PUBLIC "-//W3C//DTD SVG 1.1//EN" "http://www.w3.org/Graphics/SVG/1.1/DTD/svg11.dtd">
<svg version="1.1" id="Layer_1" xmlns="http://www.w3.org/2000/svg" xmlns:xlink="http://www.w3.org/1999/xlink" x="0px" y="0px"
	 width="31.999px" height="32px" viewBox="-5.582 -5.842 31.999 32" enable-background="new -5.582 -5.842 31.999 32"
	 xml:space="preserve">
<g>
	<rect x="-5.582" y="-5.842" fill="none" width="31.999" height="32"/>
	<polygon fill="#64788D" points="2.331,-1.913 -1.654,2.072 -0.247,9.415 12.488,22.228 12.488,22.228 22.488,12.229 22.488,12.229 
		9.675,-0.507 	"/>
	<g>
		<g>
			<g>
				<g>
					<defs>
						<rect id="SVGID_1_" x="-1.614" y="-1.873" width="24.062" height="24.062"/>
					</defs>
					<clipPath id="SVGID_2_">
						<use xlink:href="#SVGID_1_"  overflow="visible"/>
					</clipPath>
					<path clip-path="url(#SVGID_2_)" fill="#FFFFFF" d="M4.168,3.908c0.469-0.469,0.469-1.172,0-1.641
						c-0.469-0.47-1.172-0.47-1.641,0c-0.47,0.469-0.47,1.172,0,1.641C2.918,4.299,3.699,4.299,4.168,3.908"/>
				</g>
			</g>
		</g>
	</g>
	
		<rect x="4.167" y="5.861" transform="matrix(0.7071 0.7071 -0.7071 0.7071 10.2333 -4.391)" fill="#FFFFFF" width="12.5" height="8.593"/>
</g>
</svg>
