<?xml version="1.0" encoding="utf-8"?>
<!-- Generator: Adobe Illustrator 15.0.2, SVG Export Plug-In . SVG Version: 6.00 Build 0)  -->
<!DOCTYPE svg PUBLIC "-//W3C//DTD SVG 1.1//EN" "http://www.w3.org/Graphics/SVG/1.1/DTD/svg11.dtd">
<svg version="1.1" id="Layer_1" xmlns="http://www.w3.org/2000/svg" xmlns:xlink="http://www.w3.org/1999/xlink" x="0px" y="0px"
	 width="32px" height="32px" viewBox="0 0 32 32" enable-background="new 0 0 32 32" xml:space="preserve">
<rect fill="none" width="32" height="32"/>
<g>
	<g>
		<g>
			<defs>
				<path id="SVGID_1_" d="M6.5,3.999c0,0-0.501,0-0.501,0.501v22.999c0,0,0,0.501,0.501,0.501h8c0,0,0.499,0,0.499-0.501V4.5
					c0,0,0-0.501-0.499-0.501H6.5z"/>
			</defs>
			<use xlink:href="#SVGID_1_"  overflow="visible" fill="#64788D"/>
			<clipPath id="SVGID_2_">
				<use xlink:href="#SVGID_1_"  overflow="visible"/>
			</clipPath>
			<rect x="5.999" y="3.999" clip-path="url(#SVGID_2_)" fill="#64788D" width="9" height="24.001"/>
		</g>
	</g>
</g>
<rect x="8.25" y="7" fill="#FFFFFF" width="4.5" height="1.5"/>
<rect x="8.25" y="10" fill="#FFFFFF" width="4.5" height="1.5"/>
<g>
	<g>
		<g>
			<defs>
				<polygon id="SVGID_3_" points="24.096,19.208 19.014,19.208 19.014,20.52 22.081,20.52 18.927,24.434 18.927,25.839 
					24.114,25.839 24.114,24.527 20.846,24.527 24.096,20.614 				"/>
			</defs>
			<use xlink:href="#SVGID_3_"  overflow="visible" fill="#D6002B"/>
			<clipPath id="SVGID_4_">
				<use xlink:href="#SVGID_3_"  overflow="visible"/>
			</clipPath>
			<rect x="18.927" y="19.208" clip-path="url(#SVGID_4_)" fill="#D6002B" width="5.188" height="6.631"/>
		</g>
	</g>
</g>
<g>
	<g>
		<g>
			<defs>
				<rect id="SVGID_5_" x="20.227" y="14.689" width="2.711" height="1.32"/>
			</defs>
			<use xlink:href="#SVGID_5_"  overflow="visible" fill="#D6002B"/>
			<clipPath id="SVGID_6_">
				<use xlink:href="#SVGID_5_"  overflow="visible"/>
			</clipPath>
			<rect x="20.227" y="14.689" clip-path="url(#SVGID_6_)" fill="#D6002B" width="2.711" height="1.32"/>
		</g>
	</g>
</g>
<g>
	<g>
		<g>
			<defs>
				<path id="SVGID_7_" d="M22.311,9.31h-1.574l0.81-2.457h0.019L22.311,9.31z M18.152,11.839h1.701l0.496-1.341h2.357l0.468,1.341
					h1.836L22.59,5.557h-2.052L18.152,11.839z"/>
			</defs>
			<use xlink:href="#SVGID_7_"  overflow="visible" fill="#D6002B"/>
			<clipPath id="SVGID_8_">
				<use xlink:href="#SVGID_7_"  overflow="visible"/>
			</clipPath>
			<rect x="18.152" y="5.557" clip-path="url(#SVGID_8_)" fill="#D6002B" width="6.858" height="6.282"/>
		</g>
	</g>
</g>
</svg>
