<svg id="cat-pg" xmlns="http://www.w3.org/2000/svg" width="32" height="32" viewBox="0 0 32 32"><defs><style>.cls-1{fill:none;stroke:#000;stroke-miterlimit:10;stroke-width:1.45px;}</style></defs><path d="M11.5,4.8a3,3,0,0,1,.9.2l.4.4h.6c2.4,0,3.7.4,6.1,2.5a6.5,6.5,0,0,0,4.6,1.8H25c-.6,1.9-3.8,3.2-6.6,3.5h-.2a17.5,17.5,0,0,0-3.7,1,6.4,6.4,0,0,1-1.2.6l-1,.3v9.8H11.1V4.8h.4m0-1.5c-1.1,0-1.9.4-1.9,1V25.7c0,.3,1.1.5,2.2.5s2-.2,2-.5V16c2.2-.8,1.1-.8,4.7-1.5s7.4-2,8-4.8c.2-1,.1-1.6-.4-1.6h-2a5.2,5.2,0,0,1-3.7-1.4C17.7,4.4,16.1,4,13.4,4a2.8,2.8,0,0,0-1.9-.7Z"/><path class="cls-1" d="M7.9,25c-1.4.4-2.5.9-2.5,1.7s3.3,2,6.4,2,6.3-.6,6.3-2S17,25.4,15.6,25"/></svg>