<svg id="cat-pg" xmlns="http://www.w3.org/2000/svg" width="32" height="32" viewBox="0 0 32 32"><defs><style>.cls-1,.cls-2,.cls-3{fill:none;stroke:#000;stroke-width:1.45px;}.cls-1,.cls-2{stroke-miterlimit:10;}.cls-2{stroke-linecap:square;}.cls-3{stroke-linejoin:round;}</style></defs><path class="cls-1" d="M15.4,7.5H7A1.5,1.5,0,0,1,5.5,6h0"/><path class="cls-1" d="M16.1,4.5H7A1.5,1.5,0,0,0,5.5,6V27.5a.9.9,0,0,0,1,1h16a.9.9,0,0,0,1-1V14.6"/><line class="cls-2" x1="9" y1="18.5" x2="14.1" y2="18.5"/><line class="cls-2" x1="9" y1="21.5" x2="17.5" y2="21.5"/><ellipse class="cls-1" cx="23" cy="7" rx="4" ry="4"/><path class="cls-3" d="M23,3s1.2.6,1.2,4S23,11,23,11"/><path class="cls-3" d="M27,7s-.6,1-4,1-4-1-4-1"/></svg>