<svg id="cat-pg" xmlns="http://www.w3.org/2000/svg" width="32" height="32" viewBox="0 0 32 32"><defs><style>.cls-1,.cls-2{fill:none;stroke:#000;stroke-linejoin:round;stroke-width:1.45px;}.cls-2{stroke-linecap:round;}</style></defs><polygon class="cls-1" points="29.7 27.2 2.3 27.2 2.3 23.9 14 23.9 16 25.2 18.2 23.9 29.7 23.9 29.7 27.2"/><polyline class="cls-1" points="4 23.9 4 5.2 28 5.2 28 23.9"/><ellipse class="cls-2" cx="12.1" cy="14.6" rx="2.1" ry="2.4"/><path class="cls-2" d="M15.4,20.3a2.7,2.7,0,0,0-1.7-2.2h0l-.4.3-1.2.2-1.3-.2h0l-.4-.3h0a2.5,2.5,0,0,0-1.6,2.2"/><ellipse class="cls-2" cx="19.9" cy="11.5" rx="2.1" ry="2.4"/><path class="cls-2" d="M16.6,17.2A2.7,2.7,0,0,1,18.3,15h0l.4.3h0l1.2.2,1.3-.2.4-.3h0a2.5,2.5,0,0,1,1.6,2.2v3.1"/></svg>