<svg id="cat-pg" xmlns="http://www.w3.org/2000/svg" width="32" height="32" viewBox="0 0 32 32">
  <defs>
    <style>
      .cls-1 {
        fill: none;
        stroke-linejoin: round;
        stroke-width: 1.45px;
      }

      .cls-1, .cls-2 {
        stroke: #000;
      }

      .cls-2 {
        stroke-miterlimit: 10;
        stroke-width: 0.7px;
      }
    </style>
  </defs>
  <g>
    <polygon class="cls-1" points="13.48 11.7 13.48 7.6 16.29 9.7 19.09 11.7 16.29 13.8 13.48 15.8 13.48 11.7"/>
    <path class="cls-1" d="M13.28,23.3H3.08a1.37,1.37,0,0,1-1.4-1.4V4.1a1.37,1.37,0,0,1,1.4-1.4h25a1.37,1.37,0,0,1,1.4,1.4V15.8"/>
    <path class="cls-2" d="M29.12,20.6l-3-3.3a1.57,1.57,0,0,0-2.2,0,1.61,1.61,0,0,0-.4.7,1.52,1.52,0,0,0-2,.1,1.61,1.61,0,0,0-.4.7,1.52,1.52,0,0,0-2,.1,2.09,2.09,0,0,0-.4.6l-1.5-1.4A1.56,1.56,0,0,0,15,20.3l5.5,5.5-3.2.5a1.75,1.75,0,0,0-1.5,1.8A1.16,1.16,0,0,0,17,29.3h7.6a4.39,4.39,0,0,0,3.1-1.3L29,26.7a4.39,4.39,0,0,0,1.3-3.1A5.33,5.33,0,0,0,29.12,20.6Zm-4.6-1.1a.38.38,0,0,0,0-.6h0a.73.73,0,0,1,0-1,.67.67,0,0,1,1,0l3,3.3a3.58,3.58,0,0,1,.9,2.4,3.63,3.63,0,0,1-1.1,2.6L27,27.5a3.63,3.63,0,0,1-2.6,1.1h-7.6a.43.43,0,0,1-.4-.4,1.06,1.06,0,0,1,.9-1l4-.6a.32.32,0,0,0,.3-.3.6.6,0,0,0-.1-.4l-6-6a.67.67,0,0,1,0-1,.73.73,0,0,1,1,0l4,4a.37.37,0,0,0,.6,0,.5.5,0,0,0,0-.6l-1.6-1.6a.71.71,0,0,1,1-1l1.6,1.6a.37.37,0,0,0,.6,0,.5.5,0,0,0,0-.6l-.8-.8a.71.71,0,0,1,1-1,6,6,0,0,1,.8.8C23.72,19.8,24.32,19.7,24.52,19.5Z"/>
  </g>
</svg>
