<?xml version="1.0" encoding="utf-8"?>
<!-- Generator: Adobe Illustrator 15.0.2, SVG Export Plug-In . SVG Version: 6.00 Build 0)  -->
<!DOCTYPE svg PUBLIC "-//W3C//DTD SVG 1.1//EN" "http://www.w3.org/Graphics/SVG/1.1/DTD/svg11.dtd">
<svg version="1.1" id="Layer_1" xmlns="http://www.w3.org/2000/svg" xmlns:xlink="http://www.w3.org/1999/xlink" x="0px" y="0px"
	 width="32px" height="32px" viewBox="0 0 32 32" enable-background="new 0 0 32 32" xml:space="preserve">
<g>
	<g>
		<g>
			<path id="SVGID_1_" fill="#64788D" d="M6,26.5c0,0.8,2.2,1.5,5,1.5s5-0.7,5-1.5S13.8,25,11,25S6,25.7,6,26.5"/>
		</g>
		<g>
			<defs>
				<path id="SVGID_2_" d="M6,26.5c0,0.8,2.2,1.5,5,1.5s5-0.7,5-1.5S13.8,25,11,25S6,25.7,6,26.5"/>
			</defs>
			<clipPath id="SVGID_4_">
				<use xlink:href="#SVGID_2_"  overflow="visible"/>
			</clipPath>
			<rect x="6" y="25" clip-path="url(#SVGID_4_)" fill="#64788D" width="10" height="3"/>
		</g>
	</g>
</g>
<g>
	<g>
		<g>
			<path id="SVGID_3_" fill="#99CC33" d="M11,4C9.9,4,9.7,4.4,9.7,5l0,0l0,0v1.2V18.6V26.4c0,0.3,0.2,0.5,1.3,0.5s1.3-0.2,1.3-0.5
				v-9.7c2.2-0.8,2.7-0.8,6.3-1.5c3.4-0.3,7.4-2,8-4.8c0.2-1,0.102-1.6-0.398-1.6c-1.4,0-3.4,0.7-5.7-1.3c-2.7-2.4-5.6-2.9-8.3-2.9
				C11.9,4.3,11.9,4,11,4z"/>
		</g>
		<g>
			<defs>
				<path id="SVGID_5_" d="M11,4C9.9,4,9.7,4.4,9.7,5l0,0l0,0v1.2V18.6V26.4c0,0.3,0.2,0.5,1.3,0.5s1.3-0.2,1.3-0.5v-9.7
					c2.2-0.8,2.7-0.8,6.3-1.5c3.4-0.3,7.4-2,8-4.8c0.2-1,0.102-1.6-0.398-1.6c-1.4,0-3.4,0.7-5.7-1.3c-2.7-2.4-5.6-2.9-8.3-2.9
					C11.9,4.3,11.9,4,11,4z"/>
			</defs>
			<use xlink:href="#SVGID_5_"  overflow="visible" fill="#99CC33"/>
			<clipPath id="SVGID_6_">
				<use xlink:href="#SVGID_5_"  overflow="visible"/>
			</clipPath>
			<rect x="9.7" y="4" clip-path="url(#SVGID_6_)" fill="#99CC33" width="17.1" height="23"/>
		</g>
	</g>
</g>
</svg>
