<?xml version="1.0" encoding="utf-8"?>
<!-- Generator: Adobe Illustrator 15.0.2, SVG Export Plug-In . SVG Version: 6.00 Build 0)  -->
<!DOCTYPE svg PUBLIC "-//W3C//DTD SVG 1.1//EN" "http://www.w3.org/Graphics/SVG/1.1/DTD/svg11.dtd">
<svg version="1.1" id="Layer_1" xmlns="http://www.w3.org/2000/svg" xmlns:xlink="http://www.w3.org/1999/xlink" x="0px" y="0px"
	 width="32px" height="32px" viewBox="0 0 32 32" enable-background="new 0 0 32 32" xml:space="preserve">
<g>
	<g>
		<defs>
			<path id="SVGID_1_" d="M9,16.9c-1.2,0-2.2-0.4-3-0.9c-1.8,0.8-3,2.2-3,3.9V26.3h12V19.9c0-1.7-1.2-3.101-3-3.9
				C11.2,16.5,10.2,16.9,9,16.9"/>
		</defs>
		<use xlink:href="#SVGID_1_"  overflow="visible" fill="#64788D"/>
		<clipPath id="SVGID_2_">
			<use xlink:href="#SVGID_1_"  overflow="visible"/>
		</clipPath>
		<rect x="3" y="16" clip-path="url(#SVGID_2_)" fill="#64788D" width="12" height="10.2"/>
	</g>
</g>
<g>
	<g>
		<defs>
			<path id="SVGID_3_" d="M4.9,10.5C4.9,13,6.7,15,9,15s4.1-2,4.1-4.5S11.3,6,9,6S4.9,8,4.9,10.5"/>
		</defs>
		<clipPath id="SVGID_4_">
			<use xlink:href="#SVGID_3_"  overflow="visible"/>
		</clipPath>
		
			<linearGradient id="SVGID_5_" gradientUnits="userSpaceOnUse" x1="-328.5303" y1="-430.3179" x2="-327.5303" y2="-430.3179" gradientTransform="matrix(8.25 0 0 8.25 2715.25 3560.625)">
			<stop  offset="0" style="stop-color:#DCB496"/>
			<stop  offset="0.0198" style="stop-color:#DCB496"/>
			<stop  offset="1" style="stop-color:#EBC3A5"/>
		</linearGradient>
		<rect x="4.9" y="6" clip-path="url(#SVGID_4_)" fill="url(#SVGID_5_)" width="8.2" height="9"/>
	</g>
</g>
<g>
	<g>
		<defs>
			
				<rect id="SVGID_6_" x="16.856" y="10.227" transform="matrix(-0.4694 0.883 -0.883 -0.4694 46.9247 -1.6447)" width="14.2" height="6.1"/>
		</defs>
		<use xlink:href="#SVGID_6_"  overflow="visible" fill="#D6002B"/>
		<clipPath id="SVGID_7_">
			<use xlink:href="#SVGID_6_"  overflow="visible"/>
		</clipPath>
		<polygon clip-path="url(#SVGID_7_)" fill="#D6002B" points="20.6,0.5 36.4,8.9 27.3,25.9 11.5,17.5 		"/>
	</g>
</g>
<g>
	<g>
		<defs>
			<polygon id="SVGID_8_" points="17.9,18.1 17.7,25 23.3,20.9 			"/>
		</defs>
		<clipPath id="SVGID_9_">
			<use xlink:href="#SVGID_8_"  overflow="visible"/>
		</clipPath>
		
			<linearGradient id="SVGID_10_" gradientUnits="userSpaceOnUse" x1="-319.5112" y1="-496.5854" x2="-318.5116" y2="-496.5854" gradientTransform="matrix(5.3792 2.8602 -2.8602 5.3792 315.4293 3604.8096)">
			<stop  offset="0" style="stop-color:#DCB496"/>
			<stop  offset="0.0198" style="stop-color:#DCB496"/>
			<stop  offset="1" style="stop-color:#EBC3A5"/>
		</linearGradient>
		<polygon clip-path="url(#SVGID_9_)" fill="url(#SVGID_10_)" points="18.9,15.7 26.2,19.6 22.1,27.3 14.8,23.5 		"/>
	</g>
</g>
<g>
	<g>
		<defs>
			<polygon id="SVGID_11_" points="17.8,22.3 17.7,25 19.9,23.4 			"/>
		</defs>
		<use xlink:href="#SVGID_11_"  overflow="visible" fill="#D6002B"/>
		<clipPath id="SVGID_12_">
			<use xlink:href="#SVGID_11_"  overflow="visible"/>
		</clipPath>
		<polygon clip-path="url(#SVGID_12_)" fill="#D6002B" points="18.2,21.3 21,22.9 19.4,25.9 16.6,24.4 		"/>
	</g>
</g>
</svg>
