<?xml version="1.0" encoding="utf-8"?>
<!-- Generator: Adobe Illustrator 15.0.2, SVG Export Plug-In . SVG Version: 6.00 Build 0)  -->
<!DOCTYPE svg PUBLIC "-//W3C//DTD SVG 1.1//EN" "http://www.w3.org/Graphics/SVG/1.1/DTD/svg11.dtd">
<svg version="1.1" id="Layer_1" xmlns="http://www.w3.org/2000/svg" xmlns:xlink="http://www.w3.org/1999/xlink" x="0px" y="0px"
	 width="32px" height="32px" viewBox="0 0 32 32" enable-background="new 0 0 32 32" xml:space="preserve">
<g>
	<g>
		<defs>
			<path id="SVGID_1_" d="M11.718,4.796c-1.766,0.019-3.525,0.703-4.872,2.05c-2.733,2.733-2.733,7.166,0,9.899
				c2.134,2.134,5.293,2.579,7.882,1.382c0.056,0.137,0.134,0.27,0.25,0.387c0.39,0.389,0.961,0.452,1.275,0.139l0.117-0.117
				l7.353,8.016c0.432,0.432,0.99,0.65,1.537,0.653h0.021c0.502-0.003,0.992-0.188,1.363-0.56c0.365-0.363,0.551-0.843,0.56-1.334
				v-0.08c-0.011-0.539-0.229-1.084-0.653-1.508l-8.016-7.354l0.117-0.117c0.314-0.313,0.252-0.884-0.139-1.275
				c-0.117-0.116-0.25-0.193-0.387-0.25c1.197-2.588,0.752-5.747-1.382-7.881c-1.346-1.347-3.106-2.031-4.871-2.05H11.718z"/>
		</defs>
		<use xlink:href="#SVGID_1_"  overflow="visible" fill="#D6002B"/>
		<clipPath id="SVGID_2_">
			<use xlink:href="#SVGID_1_"  overflow="visible"/>
		</clipPath>
		<polygon clip-path="url(#SVGID_2_)" fill="#D6002B" points="-7.091,16 15.658,-6.749 38.408,16 15.658,38.75 		"/>
	</g>
</g>
<g>
	<g>
		<defs>
			<rect id="SVGID_3_" x="4.796" y="4.796" width="22.408" height="22.408"/>
		</defs>
		<clipPath id="SVGID_4_">
			<use xlink:href="#SVGID_3_"  overflow="visible"/>
		</clipPath>
		<path clip-path="url(#SVGID_4_)" fill="#FFFFFF" d="M15.685,15.685c2.148-2.148,2.147-5.632,0-7.779
			c-2.147-2.148-5.63-2.148-7.778,0.001c-2.148,2.147-2.148,5.63,0,7.777C10.054,17.831,13.538,17.832,15.685,15.685"/>
	</g>
</g>
<g>
	<g>
		<defs>
			<path id="SVGID_5_" d="M8.614,8.614c-0.765,0.764-1.177,1.738-1.276,2.737c0.076-0.085,0.133-0.181,0.215-0.263
				c2.342-2.343,6.141-2.343,8.485,0.001c0.081,0.081,0.138,0.177,0.215,0.261c-0.1-0.998-0.51-1.971-1.276-2.736
				c-0.879-0.879-2.03-1.319-3.182-1.319C10.644,7.295,9.493,7.734,8.614,8.614"/>
		</defs>
		<use xlink:href="#SVGID_5_"  overflow="visible" fill="#64788D"/>
		<clipPath id="SVGID_6_">
			<use xlink:href="#SVGID_5_"  overflow="visible"/>
		</clipPath>
		<polygon clip-path="url(#SVGID_6_)" fill="#64788D" points="5.31,9.323 11.795,2.838 18.281,9.323 11.795,15.809 		"/>
	</g>
</g>
</svg>
