<svg id="cat-pg" xmlns="http://www.w3.org/2000/svg" width="32" height="32" viewBox="0 0 32 32"><defs><style>.cls-1,.cls-2{fill:none;stroke:#000;stroke-linejoin:round;stroke-width:1.45px;}.cls-2{stroke-linecap:square;}</style></defs><rect class="cls-1" x="5" y="5" width="22" height="22"/><path d="M11,15.6h-.9v.5a3.3,3.3,0,0,0-1.7.7,1.8,1.8,0,0,0-.6,1.4,2,2,0,0,0,.6,1.4,3.8,3.8,0,0,0,1.7.8l.9.2a1.5,1.5,0,0,1,.8.4,1,1,0,0,1,0,1.2l-.8.4h-.9l-.6-.4a.9.9,0,0,1-.3-.7H7.6a2.7,2.7,0,0,0,.8,1.6,3.8,3.8,0,0,0,1.7.6v.9H11v-.9a3.7,3.7,0,0,0,1.9-.8,2.1,2.1,0,0,0,.7-1.5,1.6,1.6,0,0,0-.6-1.3,3.4,3.4,0,0,0-2-.9l-.9-.2-.6-.4c-.1-.2-.2-.3-.2-.5a.8.8,0,0,1,.2-.5l.6-.4H11c.4.2.7.5.7.8h1.6a2.4,2.4,0,0,0-.7-1.2,3.4,3.4,0,0,0-1.6-.6v-.5Z"/><polyline class="cls-2" points="16.2 17.5 18.9 20.2 16.4 22.7"/></svg>