<?xml version="1.0" encoding="utf-8"?>
<!-- Generator: Adobe Illustrator 15.0.2, SVG Export Plug-In . SVG Version: 6.00 Build 0)  -->
<!DOCTYPE svg PUBLIC "-//W3C//DTD SVG 1.1//EN" "http://www.w3.org/Graphics/SVG/1.1/DTD/svg11.dtd">
<svg version="1.1" id="Layer_1" xmlns="http://www.w3.org/2000/svg" xmlns:xlink="http://www.w3.org/1999/xlink" x="0px" y="0px"
	 width="21.875px" height="15.86px" viewBox="24.062 4.687 21.875 15.86" enable-background="new 24.062 4.687 21.875 15.86"
	 xml:space="preserve">
<rect x="35.781" y="9.922" fill="#D6002B" width="10.156" height="1.562"/>
<rect x="35.781" y="13.047" fill="#D6002B" width="10.156" height="1.562"/>
<rect x="35.781" y="16.172" fill="#D6002B" width="10.156" height="1.562"/>
<g>
	<g>
		<g>
			<defs>
				<path id="SVGID_1_" d="M28.75,13.203c-0.938,0-1.719-0.312-2.344-0.703c-1.406,0.625-2.344,1.719-2.344,3.047v5h9.375v-5
					c0-1.328-0.938-2.422-2.344-3.047C30.469,12.891,29.688,13.203,28.75,13.203"/>
			</defs>
			<clipPath id="SVGID_2_">
				<use xlink:href="#SVGID_1_"  overflow="visible"/>
			</clipPath>
			<rect x="24.062" y="12.5" clip-path="url(#SVGID_2_)" fill="#64788D" width="9.375" height="7.969"/>
		</g>
	</g>
</g>
<g>
	<g>
		<g>
			<defs>
				<ellipse id="SVGID_3_" cx="28.75" cy="8.203" rx="3.203" ry="3.516"/>
			</defs>
			<clipPath id="SVGID_4_">
				<use xlink:href="#SVGID_3_"  overflow="visible"/>
			</clipPath>
			
				<linearGradient id="SVGID_5_" gradientUnits="userSpaceOnUse" x1="-238.5596" y1="404.5039" x2="-237.5596" y2="404.5039" gradientTransform="matrix(6.4453 0 0 -6.4453 1563.1211 2615.3513)">
				<stop  offset="0" style="stop-color:#DBB395"/>
				<stop  offset="0.0198" style="stop-color:#DBB395"/>
				<stop  offset="1" style="stop-color:#EAC2A4"/>
			</linearGradient>
			<rect x="25.547" y="4.688" clip-path="url(#SVGID_4_)" fill="url(#SVGID_5_)" width="6.406" height="7.031"/>
		</g>
	</g>
</g>
</svg>
