<?xml version="1.0" encoding="utf-8"?>
<!-- Generator: Adobe Illustrator 15.0.2, SVG Export Plug-In . SVG Version: 6.00 Build 0)  -->
<!DOCTYPE svg PUBLIC "-//W3C//DTD SVG 1.1//EN" "http://www.w3.org/Graphics/SVG/1.1/DTD/svg11.dtd">
<svg version="1.1" id="Layer_1" xmlns="http://www.w3.org/2000/svg" xmlns:xlink="http://www.w3.org/1999/xlink" x="0px" y="0px"
	 width="32px" height="32px" viewBox="0 0 32 32" enable-background="new 0 0 32 32" xml:space="preserve">
<g>
	<g>
		<g>
			<path id="SVGID_17_" fill="#FD9AAE" d="M4.5,18c-0.9,0-1.7-0.3-2.3-0.7C0.9,17.9,0,19,0,20.2V25h9v-4.8c0-1.2-0.9-2.3-2.2-2.9
				C6.2,17.7,5.4,18,4.5,18"/>
		</g>
		<g>
			<g>
				<path id="SVGID_18_" fill="#FD9AAE" d="M4.5,18c-0.9,0-1.7-0.3-2.3-0.7C0.9,17.9,0,19,0,20.2V25h9v-4.8c0-1.2-0.9-2.3-2.2-2.9
					C6.2,17.7,5.4,18,4.5,18"/>
			</g>
			<g>
				<defs>
					<path id="SVGID_1_" d="M4.5,18c-0.9,0-1.7-0.3-2.3-0.7C0.9,17.9,0,19,0,20.2V25h9v-4.8c0-1.2-0.9-2.3-2.2-2.9
						C6.2,17.7,5.4,18,4.5,18"/>
				</defs>
				<clipPath id="SVGID_2_">
					<use xlink:href="#SVGID_1_"  overflow="visible"/>
				</clipPath>
				<rect y="17.3" clip-path="url(#SVGID_2_)" fill="#FD9AAE" width="9" height="7.7"/>
			</g>
		</g>
	</g>
</g>
<g>
	<g>
		<g>
			<g>
				<defs>
					<path id="SVGID_3_" d="M1.4,13.2c0,1.9,1.4,3.399,3.1,3.399s3.1-1.5,3.1-3.399c0-1.9-1.4-3.4-3.1-3.4S1.4,11.3,1.4,13.2"/>
				</defs>
				<clipPath id="SVGID_4_">
					<use xlink:href="#SVGID_3_"  overflow="visible"/>
				</clipPath>
				
					<linearGradient id="SVGID_5_" gradientUnits="userSpaceOnUse" x1="-202.2788" y1="-344.9609" x2="-201.2779" y2="-344.9609" gradientTransform="matrix(6.1875 0 0 6.1875 1253 2147.5938)">
					<stop  offset="0" style="stop-color:#DCB496"/>
					<stop  offset="0.0198" style="stop-color:#DCB496"/>
					<stop  offset="1" style="stop-color:#EBC3A5"/>
				</linearGradient>
				<rect x="1.4" y="9.8" clip-path="url(#SVGID_4_)" fill="url(#SVGID_5_)" width="6.2" height="6.7"/>
			</g>
		</g>
	</g>
</g>
<g>
	<g>
		<g>
			<g>
				<defs>
					<rect id="SVGID_6_" y="5.3" width="30" height="19.7"/>
				</defs>
				<clipPath id="SVGID_7_">
					<use xlink:href="#SVGID_6_"  overflow="visible"/>
				</clipPath>
				<path clip-path="url(#SVGID_7_)" fill="#7C655E" d="M25.5,16.6c1.7,0,3.1-1.5,3.1-3.397c0-1.9-1.397-3.4-3.1-3.4
					s-3.1,1.5-3.1,3.4C22.4,15.1,23.8,16.6,25.5,16.6"/>
			</g>
		</g>
	</g>
	<g>
		<g>
			<g>
				<defs>
					<rect id="SVGID_8_" y="5.3" width="30" height="19.7"/>
				</defs>
				<clipPath id="SVGID_9_">
					<use xlink:href="#SVGID_8_"  overflow="visible"/>
				</clipPath>
				<path clip-path="url(#SVGID_9_)" fill="#DCB496" d="M15,12.1c1.7,0,3.1-1.5,3.1-3.4c0-1.9-1.397-3.4-3.1-3.4s-3.1,1.5-3.1,3.4
					C11.9,10.6,13.3,12.1,15,12.1"/>
			</g>
		</g>
	</g>
</g>
<g>
	<g>
		<g>
			<g>
				<defs>
					<path id="SVGID_10_" d="M15,13.5c-0.9,0-1.7-0.3-2.3-0.7c-1.3,0.6-2.2,1.7-2.2,2.9v4.8h9v-4.8c0-1.2-0.9-2.3-2.2-2.9
						C16.7,13.2,15.9,13.5,15,13.5"/>
				</defs>
				<clipPath id="SVGID_11_">
					<use xlink:href="#SVGID_10_"  overflow="visible"/>
				</clipPath>
				<rect x="10.5" y="12.8" clip-path="url(#SVGID_11_)" fill="#D6002B" width="9" height="7.7"/>
			</g>
		</g>
	</g>
</g>
<g>
	<g>
		<g>
			<path id="SVGID_28_" fill="#64788D" d="M25.5,18c-0.9,0-1.7-0.3-2.3-0.7C21.9,17.9,21,19,21,20.2V25h9v-4.8
				c0-1.2-0.9-2.3-2.2-2.9C27.2,17.7,26.4,18,25.5,18"/>
		</g>
		<g>
			<g>
				<defs>
					<path id="SVGID_12_" d="M25.5,18c-0.9,0-1.7-0.3-2.3-0.7C21.9,17.9,21,19,21,20.2V25h9v-4.8c0-1.2-0.9-2.3-2.2-2.9
						C27.2,17.7,26.4,18,25.5,18"/>
				</defs>
				<clipPath id="SVGID_13_">
					<use xlink:href="#SVGID_12_"  overflow="visible"/>
				</clipPath>
				<rect x="21" y="17.3" clip-path="url(#SVGID_13_)" fill="#64788D" width="9" height="7.7"/>
			</g>
		</g>
	</g>
</g>
</svg>
