<svg id="cat-pg" xmlns="http://www.w3.org/2000/svg" width="32" height="32" viewBox="0 0 32 32"><path d="M15.9,8.9c2.3,0,4.7,1.4,5.6,5l1.3-.2a4.5,4.5,0,0,1,4.7,4.7c.1,3.4-3.2,4.7-5.1,4.7H8.9a4.4,4.4,0,0,1-4.3-5.2,4,4,0,0,1,3.7-3.2,2.8,2.8,0,0,1,1.8.6,5,5,0,0,1,1.9-5,5.8,5.8,0,0,1,3.9-1.4m0-1.4a8.1,8.1,0,0,0-4.8,1.6,6.6,6.6,0,0,0-2.5,4.2H8.3a5.3,5.3,0,0,0-5.1,4.3,5.8,5.8,0,0,0,1.2,4.8,5.5,5.5,0,0,0,4.5,2.1H22.4a6.9,6.9,0,0,0,4.9-2,5.2,5.2,0,0,0,1.6-4.1c0-4.5-3.3-6.1-6.1-6.1h-.3a6.8,6.8,0,0,0-6.6-4.8Z"/></svg>