<?xml version="1.0" encoding="utf-8"?>
<!-- Generator: Adobe Illustrator 15.0.2, SVG Export Plug-In . SVG Version: 6.00 Build 0)  -->
<!DOCTYPE svg PUBLIC "-//W3C//DTD SVG 1.1//EN" "http://www.w3.org/Graphics/SVG/1.1/DTD/svg11.dtd">
<svg version="1.1" id="Layer_1" xmlns="http://www.w3.org/2000/svg" xmlns:xlink="http://www.w3.org/1999/xlink" x="0px" y="0px"
	 width="32px" height="32px" viewBox="0 0 32 32" enable-background="new 0 0 32 32" xml:space="preserve">
<g>
	<g>
		<g>
			<path id="SVGID_1_" fill="#64788D" d="M7,4c0,0-0.5,0-0.5,0.5v23c0,0,0,0.5,0.5,0.5h1c0,0,0.5,0,0.5-0.5v-23c0,0,0-0.5-0.5-0.5H7
				z"/>
		</g>
		<g>
			<defs>
				<path id="SVGID_2_" d="M7,4c0,0-0.5,0-0.5,0.5v23c0,0,0,0.5,0.5,0.5h1c0,0,0.5,0,0.5-0.5v-23c0,0,0-0.5-0.5-0.5H7z"/>
			</defs>
			<use xlink:href="#SVGID_2_"  overflow="visible" fill="#64788D"/>
			<clipPath id="SVGID_4_">
				<use xlink:href="#SVGID_2_"  overflow="visible"/>
			</clipPath>
			<rect x="6.5" y="4" clip-path="url(#SVGID_4_)" fill="#64788D" width="2" height="24"/>
		</g>
	</g>
</g>
<g>
	<g>
		<g>
			<path id="SVGID_3_" fill="#64788D" d="M24,4c0,0-0.5,0-0.5,0.5v23c0,0,0,0.5,0.5,0.5h1c0,0,0.5,0,0.5-0.5v-23c0,0,0-0.5-0.5-0.5
				H24z"/>
		</g>
		<g>
			<defs>
				<path id="SVGID_6_" d="M24,4c0,0-0.5,0-0.5,0.5v23c0,0,0,0.5,0.5,0.5h1c0,0,0.5,0,0.5-0.5v-23c0,0,0-0.5-0.5-0.5H24z"/>
			</defs>
			<use xlink:href="#SVGID_6_"  overflow="visible" fill="#64788D"/>
			<clipPath id="SVGID_8_">
				<use xlink:href="#SVGID_6_"  overflow="visible"/>
			</clipPath>
			<rect x="23.5" y="4" clip-path="url(#SVGID_8_)" fill="#64788D" width="2" height="24"/>
		</g>
	</g>
</g>
<g>
	<g>
		<g>
			<path id="SVGID_5_" fill="#64788D" d="M15.5,4c0,0-0.5,0-0.5,0.5v23c0,0,0,0.5,0.5,0.5h1c0,0,0.5,0,0.5-0.5v-23
				c0,0,0-0.5-0.5-0.5H15.5z"/>
		</g>
		<g>
			<defs>
				<path id="SVGID_10_" d="M15.5,4c0,0-0.5,0-0.5,0.5v23c0,0,0,0.5,0.5,0.5h1c0,0,0.5,0,0.5-0.5v-23c0,0,0-0.5-0.5-0.5H15.5z"/>
			</defs>
			<use xlink:href="#SVGID_10_"  overflow="visible" fill="#64788D"/>
			<clipPath id="SVGID_12_">
				<use xlink:href="#SVGID_10_"  overflow="visible"/>
			</clipPath>
			<rect x="15" y="4" clip-path="url(#SVGID_12_)" fill="#64788D" width="2" height="24"/>
		</g>
	</g>
</g>
<g>
	<g>
		<g>
			<path id="SVGID_7_" fill="#D6002B" d="M4.5,8C4.5,8,4,8,4,8.5v4c0,0,0,0.5,0.5,0.5h6c0,0,0.5,0,0.5-0.5v-4c0,0,0-0.5-0.5-0.5H4.5
				z"/>
		</g>
		<g>
			<defs>
				<path id="SVGID_13_" d="M4.5,8C4.5,8,4,8,4,8.5v4c0,0,0,0.5,0.5,0.5h6c0,0,0.5,0,0.5-0.5v-4c0,0,0-0.5-0.5-0.5H4.5z"/>
			</defs>
			<use xlink:href="#SVGID_13_"  overflow="visible" fill="#D6002B"/>
			<clipPath id="SVGID_14_">
				<use xlink:href="#SVGID_13_"  overflow="visible"/>
			</clipPath>
			<polygon clip-path="url(#SVGID_14_)" fill="#D6002B" points="7.5,16.5 1.5,10.5 7.5,4.5 13.5,10.5 			"/>
		</g>
	</g>
</g>
<g>
	<g>
		<g>
			<path id="SVGID_9_" fill="#D6002B" d="M13,17c0,0-0.5,0-0.5,0.5v4c0,0,0,0.5,0.5,0.5h6c0,0,0.5,0,0.5-0.5v-4c0,0,0-0.5-0.5-0.5
				H13z"/>
		</g>
		<g>
			<defs>
				<path id="SVGID_15_" d="M13,17c0,0-0.5,0-0.5,0.5v4c0,0,0,0.5,0.5,0.5h6c0,0,0.5,0,0.5-0.5v-4c0,0,0-0.5-0.5-0.5H13z"/>
			</defs>
			<use xlink:href="#SVGID_15_"  overflow="visible" fill="#D6002B"/>
			<clipPath id="SVGID_16_">
				<use xlink:href="#SVGID_15_"  overflow="visible"/>
			</clipPath>
			<polygon clip-path="url(#SVGID_16_)" fill="#D6002B" points="16,25.5 10,19.5 16,13.5 22,19.5 			"/>
		</g>
	</g>
</g>
<g>
	<g>
		<g>
			<path id="SVGID_11_" fill="#D6002B" d="M21.5,8c0,0-0.5,0-0.5,0.5v4c0,0,0,0.5,0.5,0.5h6c0,0,0.5,0,0.5-0.5v-4c0,0,0-0.5-0.5-0.5
				H21.5z"/>
		</g>
		<g>
			<defs>
				<path id="SVGID_17_" d="M21.5,8c0,0-0.5,0-0.5,0.5v4c0,0,0,0.5,0.5,0.5h6c0,0,0.5,0,0.5-0.5v-4c0,0,0-0.5-0.5-0.5H21.5z"/>
			</defs>
			<use xlink:href="#SVGID_17_"  overflow="visible" fill="#D6002B"/>
			<clipPath id="SVGID_18_">
				<use xlink:href="#SVGID_17_"  overflow="visible"/>
			</clipPath>
			<polygon clip-path="url(#SVGID_18_)" fill="#D6002B" points="24.5,16.5 18.5,10.5 24.5,4.5 30.5,10.5 			"/>
		</g>
	</g>
</g>
</svg>
