<svg id="cat-pg" xmlns="http://www.w3.org/2000/svg" width="32" height="32" viewBox="0 0 32 32"><defs><style>.cls-1,.cls-2,.cls-3{fill:none;stroke:#000;stroke-width:1.45px;}.cls-1{stroke-linecap:round;}.cls-1,.cls-2{stroke-linejoin:round;}.cls-3{stroke-miterlimit:10;}</style></defs><ellipse class="cls-1" cx="9.3" cy="11.2" rx="3.7" ry="4.2"/><path class="cls-1" d="M12.2,17h0l-.7.4a5.4,5.4,0,0,1-2.2.4,5.4,5.4,0,0,1-2.2-.4h0L6.4,17h0a4.3,4.3,0,0,0-2.9,3.8V27H15.1V20.8A4.3,4.3,0,0,0,12.2,17Z"/><polygon class="cls-2" points="22.4 24.1 18.1 26.6 18.1 21.6 22.4 24.1"/><ellipse class="cls-3" cx="23" cy="9" rx="4" ry="4"/><path class="cls-2" d="M23,5s1.2.6,1.2,4S23,13,23,13"/><path class="cls-2" d="M27,9s-.6,1-4,1-4-1-4-1"/><line class="cls-2" x1="22.4" y1="24.1" x2="29.4" y2="12.1"/><line class="cls-2" x1="21.4" y1="16" x2="18.1" y2="21.6"/></svg>