<?xml version="1.0" encoding="utf-8"?>
<!-- Generator: Adobe Illustrator 15.0.2, SVG Export Plug-In . SVG Version: 6.00 Build 0)  -->
<!DOCTYPE svg PUBLIC "-//W3C//DTD SVG 1.1//EN" "http://www.w3.org/Graphics/SVG/1.1/DTD/svg11.dtd">
<svg version="1.1" id="Layer_1" xmlns="http://www.w3.org/2000/svg" xmlns:xlink="http://www.w3.org/1999/xlink" x="0px" y="0px"
	 width="20px" height="20px" viewBox="0 0 20 20" enable-background="new 0 0 20 20" xml:space="preserve">
<g>
	<g>
		<defs>
			<path id="SVGID_1_" d="M3.75,16.562c0,0.5,1.375,0.938,3.125,0.938S10,17.062,10,16.562s-1.375-0.938-3.125-0.938
				S3.75,16.062,3.75,16.562"/>
		</defs>
		<use xlink:href="#SVGID_1_"  overflow="visible" fill="#64788D"/>
		<clipPath id="SVGID_2_">
			<use xlink:href="#SVGID_1_"  overflow="visible"/>
		</clipPath>
		<rect x="3.75" y="15.625" clip-path="url(#SVGID_2_)" fill="#64788D" width="6.25" height="1.875"/>
	</g>
</g>
<g>
	<g>
		<defs>
			<path id="SVGID_3_" d="M6.875,2.5c-0.688,0-0.812,0.25-0.812,0.625l0,0l0,0v0.75v7.75V16.5c0,0.188,0.125,0.312,0.812,0.312
				s0.812-0.125,0.812-0.312v-6.062c1.375-0.5,1.688-0.5,3.938-0.938c2.125-0.188,4.625-1.25,5-3c0.125-0.625,0.062-1-0.25-1
				c-0.875,0-2.125,0.438-3.562-0.812c-1.688-1.5-3.5-1.812-5.188-1.812C7.438,2.688,7.438,2.5,6.875,2.5z"/>
		</defs>
		<use xlink:href="#SVGID_3_"  overflow="visible" fill="#D6002B"/>
		<clipPath id="SVGID_4_">
			<use xlink:href="#SVGID_3_"  overflow="visible"/>
		</clipPath>
		<rect x="6.062" y="2.5" clip-path="url(#SVGID_4_)" fill="#D6002B" width="10.688" height="14.375"/>
	</g>
</g>
</svg>
