<svg id="cat-pg" xmlns="http://www.w3.org/2000/svg" width="32" height="32" viewBox="0 0 32 32"><defs><style>.cls-1,.cls-2,.cls-3{fill:none;stroke:#000;stroke-linejoin:round;stroke-width:1.45px;}.cls-1{stroke-linecap:square;}.cls-3{stroke-linecap:round;}</style></defs><ellipse class="cls-1" cx="25.4" cy="13.5" rx="1.9" ry="2.1"/><path class="cls-2" d="M25.1,23.6H29V19.7a2.6,2.6,0,0,0-1.8-2.3h0l-.4.2a3.5,3.5,0,0,1-1.4.3,3.1,3.1,0,0,1-1.3-.3"/><ellipse class="cls-3" cx="16" cy="10.1" rx="2.9" ry="3.2"/><path class="cls-3" d="M21.5,25.1v-6c0-1.5-1.1-2.8-2.8-3.6h0l-.6.4a5.2,5.2,0,0,1-2.1.4,5.2,5.2,0,0,1-2.1-.4h0l-.6-.4h0c-1.7.8-2.8,2.1-2.8,3.6v6Z"/><ellipse class="cls-1" cx="6.6" cy="13.7" rx="1.9" ry="2.1"/><path class="cls-2" d="M7.9,17.6a3.1,3.1,0,0,1-1.3.3,3.5,3.5,0,0,1-1.4-.3l-.4-.2h0A2.6,2.6,0,0,0,3,19.7v3.1H6.8"/></svg>