<?xml version="1.0" encoding="utf-8"?>
<!-- Generator: Adobe Illustrator 15.0.2, SVG Export Plug-In . SVG Version: 6.00 Build 0)  -->
<!DOCTYPE svg PUBLIC "-//W3C//DTD SVG 1.1//EN" "http://www.w3.org/Graphics/SVG/1.1/DTD/svg11.dtd">
<svg version="1.1" id="Layer_1" xmlns="http://www.w3.org/2000/svg" xmlns:xlink="http://www.w3.org/1999/xlink" x="0px" y="0px"
	 width="32px" height="32px" viewBox="0 0 32 32" enable-background="new 0 0 32 32" xml:space="preserve">
<rect x="-1" y="-1" fill="none" width="32" height="32"/>
<path fill="#64788D" d="M22.123,24.291h-6.609l-7.383-8.796c-0.251,0.532-0.755,0.896-1.357,0.987l6.553,7.809H8.941
	c-1.094,0,0,2.49,0,2.49h13.182C22.123,26.781,23.158,24.291,22.123,24.291z"/>
<g>
	<g>
		<g>
			<path id="SVGID_2_" fill="#64788D" d="M5.262,14.735c0,0.691,0.56,1.25,1.25,1.25c0.691,0,1.25-0.559,1.25-1.25
				c0-0.69-0.559-1.25-1.25-1.25C5.822,13.485,5.262,14.045,5.262,14.735"/>
		</g>
	</g>
</g>
<path fill="#64788D" d="M20.486,4.294c-1.928-0.035-3.579,0.711-3.579,0.711l-2.269-1.894c0,0-0.304-0.216-0.697-0.216
	c-0.284,0-0.615,0.113-0.909,0.503c-0.7,0.929-1.552,1.961-1.552,1.961S10.551,6.383,11.379,7.1c0.198,0.171,0.396,0.344,0.59,0.513
	l-5.116,5.391c0.625,0.085,1.131,0.455,1.335,1.026l5.043-5.316c0.138,0.121,0.225,0.197,0.225,0.197s-0.11,1.371,0.248,3.185
	s1.326,3.053,1.326,3.053s0.914,0.813,1.621-0.076c0.705-0.889,6.873-8.164,7.062-8.866C23.895,5.505,22.415,4.329,20.486,4.294z"/>
</svg>
