<?xml version="1.0" encoding="utf-8"?>
<!-- Generator: Adobe Illustrator 15.0.2, SVG Export Plug-In . SVG Version: 6.00 Build 0)  -->
<!DOCTYPE svg PUBLIC "-//W3C//DTD SVG 1.1//EN" "http://www.w3.org/Graphics/SVG/1.1/DTD/svg11.dtd">
<svg version="1.1" id="Layer_1" xmlns="http://www.w3.org/2000/svg" xmlns:xlink="http://www.w3.org/1999/xlink" x="0px" y="0px"
	 width="32px" height="32px" viewBox="0 0 32 32" enable-background="new 0 0 32 32" xml:space="preserve">
<rect x="-1" y="-0.008" fill="none" width="32" height="32"/>
<polygon fill="#D4B592" points="23,20.07 24.245,24.993 26.951,20.697 "/>
<g>
	<g>
		<g>
			<g>
				
					<rect id="SVGID_1_" x="19.067" y="11.464" transform="matrix(-0.1564 0.9877 -0.9877 -0.1564 43.4418 -10.1777)" fill="#D6002B" width="14" height="3.998"/>
			</g>
			<g>
				<defs>
					
						<rect id="SVGID_2_" x="19.067" y="11.464" transform="matrix(-0.1564 0.9877 -0.9877 -0.1564 43.4418 -10.1777)" width="14" height="3.998"/>
				</defs>
				<clipPath id="SVGID_4_">
					<use xlink:href="#SVGID_2_"  overflow="visible"/>
				</clipPath>
				<polygon clip-path="url(#SVGID_4_)" fill="#D6002B" points="23.15,5.294 31.375,6.596 28.991,21.645 20.768,20.343 				"/>
			</g>
		</g>
	</g>
</g>
<polygon fill="#D6002B" points="25.018,23.766 23.889,23.586 24.245,24.993 "/>
<g>
	<g>
		<g>
			<g>
				<path id="SVGID_3_" fill="#64788D" d="M7.5,3.992c0,0-0.501,0-0.854,0.354L2.354,8.639c0,0-0.354,0.353-0.354,0.853v18
					c0,0,0,0.5,0.499,0.5H19.5c0,0,0.5,0,0.5-0.5v-23c0,0,0-0.5-0.5-0.5H7.5z"/>
			</g>
			<g>
				<defs>
					<path id="SVGID_6_" d="M7.5,3.992c0,0-0.501,0-0.854,0.354L2.354,8.639c0,0-0.354,0.353-0.354,0.853v18c0,0,0,0.5,0.499,0.5
						H19.5c0,0,0.5,0,0.5-0.5v-23c0,0,0-0.5-0.5-0.5H7.5z"/>
				</defs>
				<clipPath id="SVGID_8_">
					<use xlink:href="#SVGID_6_"  overflow="visible"/>
				</clipPath>
				<rect x="2" y="3.992" clip-path="url(#SVGID_8_)" fill="#64788D" width="18" height="24"/>
			</g>
		</g>
	</g>
</g>
<polygon fill="#FFFFFF" points="4,10.992 4,25.992 18,25.992 18,5.992 9,5.992 9,10.992 "/>
<g>
	<g>
		<g>
			<g>
				<rect id="SVGID_5_" x="6" y="12.992" fill="#64788D" width="9" height="2"/>
			</g>
			<g>
				<defs>
					<rect id="SVGID_10_" x="6" y="12.992" width="9" height="2"/>
				</defs>
				<clipPath id="SVGID_11_">
					<use xlink:href="#SVGID_10_"  overflow="visible"/>
				</clipPath>
				<rect x="6" y="12.992" clip-path="url(#SVGID_11_)" fill="#64788D" width="9" height="2"/>
			</g>
		</g>
	</g>
</g>
<g>
	<g>
		<g>
			<g>
				<rect id="SVGID_7_" x="6" y="16.992" fill="#64788D" width="7" height="2"/>
			</g>
			<g>
				<defs>
					<rect id="SVGID_12_" x="6" y="16.992" width="7" height="2"/>
				</defs>
				<clipPath id="SVGID_13_">
					<use xlink:href="#SVGID_12_"  overflow="visible"/>
				</clipPath>
				<rect x="6" y="16.992" clip-path="url(#SVGID_13_)" fill="#64788D" width="7" height="2"/>
			</g>
		</g>
	</g>
</g>
<g>
	<g>
		<g>
			<g>
				<rect id="SVGID_9_" x="6" y="20.992" fill="#64788D" width="10" height="2"/>
			</g>
			<g>
				<defs>
					<rect id="SVGID_14_" x="6" y="20.992" width="10" height="2"/>
				</defs>
				<clipPath id="SVGID_15_">
					<use xlink:href="#SVGID_14_"  overflow="visible"/>
				</clipPath>
				<rect x="6" y="20.992" clip-path="url(#SVGID_15_)" fill="#64788D" width="10" height="2"/>
			</g>
		</g>
	</g>
</g>
</svg>
