<?xml version="1.0" encoding="utf-8"?>
<!-- Generator: Adobe Illustrator 15.0.2, SVG Export Plug-In . SVG Version: 6.00 Build 0)  -->
<!DOCTYPE svg PUBLIC "-//W3C//DTD SVG 1.1//EN" "http://www.w3.org/Graphics/SVG/1.1/DTD/svg11.dtd">
<svg version="1.1" id="Layer_1" xmlns="http://www.w3.org/2000/svg" xmlns:xlink="http://www.w3.org/1999/xlink" x="0px" y="0px"
	 width="32px" height="32px" viewBox="0 0 32 32" enable-background="new 0 0 32 32" xml:space="preserve">
<g>
	<g>
		<g>
			<defs>
				<path id="SVGID_1_" d="M15.104,19.793c-0.426-0.29-0.723-0.754-0.723-1.309c0-0.889,0.72-1.608,1.61-1.608
					c0.888,0,1.608,0.72,1.608,1.608c0,0.554-0.298,1.018-0.724,1.308l0.526,3.179h-2.828L15.104,19.793z M16.001,7.633
					c3.106,0,5.716,2.096,6.451,4.918H9.549C10.284,9.729,12.894,7.633,16.001,7.633 M16.001,4C10.359,4,5.768,8.501,5.706,14.053
					c0,0.016-0.005,0.027-0.005,0.043v12.359c0,0,0,1.545,1.545,1.545h17.508c0,0,1.545,0,1.545-1.545V14.096
					c0,0-0.002-0.052-0.01-0.123C26.186,8.458,21.615,4,16.001,4z"/>
			</defs>
			<use xlink:href="#SVGID_1_"  overflow="visible" fill="#64788D"/>
			<clipPath id="SVGID_2_">
				<use xlink:href="#SVGID_1_"  overflow="visible"/>
			</clipPath>
			<rect x="5.701" y="4" clip-path="url(#SVGID_2_)" fill="#64788D" width="20.598" height="24"/>
		</g>
	</g>
</g>
</svg>
