<?xml version="1.0" encoding="utf-8"?>
<!-- Generator: Adobe Illustrator 15.0.2, SVG Export Plug-In . SVG Version: 6.00 Build 0)  -->
<!DOCTYPE svg PUBLIC "-//W3C//DTD SVG 1.1//EN" "http://www.w3.org/Graphics/SVG/1.1/DTD/svg11.dtd">
<svg version="1.1" id="Layer_1" xmlns="http://www.w3.org/2000/svg" xmlns:xlink="http://www.w3.org/1999/xlink" x="0px" y="0px"
	 width="32px" height="32px" viewBox="0 0 32 32" enable-background="new 0 0 32 32" xml:space="preserve">
<g>
	<rect y="-0.008" fill="none" width="32" height="32"/>
	<g>
		<g>
			<g>
				<g>
					<rect id="SVGID_1_" x="3" y="4.992" fill="#64788D" width="26" height="22"/>
				</g>
				<g>
					<g>
						<g>
							<g>
								<rect id="SVGID_2_" x="3" y="4.992" fill="#64788D" width="26" height="22"/>
							</g>
							<g>
								<defs>
									<rect id="SVGID_4_" x="3" y="4.992" width="26" height="22"/>
								</defs>
								<clipPath id="SVGID_11_">
									<use xlink:href="#SVGID_4_"  overflow="visible"/>
								</clipPath>
								<rect x="3" y="4.992" clip-path="url(#SVGID_11_)" fill="#64788D" width="26" height="22"/>
							</g>
						</g>
					</g>
				</g>
			</g>
		</g>
	</g>
	<g>
		<g>
			<g>
				<g>
					<rect id="SVGID_3_" x="5" y="6.992" fill="#D6002B" width="5" height="5"/>
				</g>
				<g>
					<g>
						<rect id="SVGID_6_" x="5" y="6.992" fill="#D6002B" width="5" height="5"/>
					</g>
					<g>
						<g>
							<rect id="SVGID_7_" x="5" y="6.992" fill="#D6002B" width="5" height="5"/>
						</g>
						<g>
							<g>
								<rect id="SVGID_9_" x="5" y="6.992" fill="#D6002B" width="5" height="5"/>
							</g>
							<g>
								<defs>
									<rect id="SVGID_13_" x="5" y="6.992" width="5" height="5"/>
								</defs>
								<clipPath id="SVGID_14_">
									<use xlink:href="#SVGID_13_"  overflow="visible"/>
								</clipPath>
								<rect x="5" y="6.992" clip-path="url(#SVGID_14_)" fill="#FD9AAE" width="5" height="5"/>
							</g>
						</g>
					</g>
				</g>
			</g>
		</g>
	</g>
	<g>
		<g>
			<g>
				<g>
					<rect id="SVGID_5_" x="11" y="6.992" fill="#FD9AAE" width="16" height="5"/>
				</g>
				<g>
					<g>
						<rect id="SVGID_8_" x="11" y="6.992" fill="#FD9AAE" width="16" height="5"/>
					</g>
					<g>
						<g>
							<rect id="SVGID_10_" x="11" y="6.992" fill="#FD9AAE" width="16" height="5"/>
						</g>
						<g>
							<g>
								<rect id="SVGID_12_" x="11" y="6.992" fill="#FD9AAE" width="16" height="5"/>
							</g>
							<g>
								<defs>
									<rect id="SVGID_15_" x="11" y="6.992" width="16" height="5"/>
								</defs>
								<use xlink:href="#SVGID_15_"  overflow="visible" fill="#FD9AAE"/>
								<clipPath id="SVGID_16_">
									<use xlink:href="#SVGID_15_"  overflow="visible"/>
								</clipPath>
								<rect x="11" y="6.992" clip-path="url(#SVGID_16_)" fill="#FD9AAE" width="16" height="5"/>
							</g>
						</g>
					</g>
				</g>
			</g>
		</g>
	</g>
	<rect x="11" y="13.992" fill="#FFFFFF" width="16" height="5"/>
	<rect x="5" y="13.992" fill="#FFFFFF" width="5" height="5"/>
	<rect x="11" y="19.992" fill="#FFFFFF" width="16" height="5"/>
	<rect x="5" y="19.992" fill="#FFFFFF" width="5" height="5"/>
</g>
</svg>
