<?xml version="1.0" encoding="utf-8"?>
<!-- Generator: Adobe Illustrator 15.0.2, SVG Export Plug-In . SVG Version: 6.00 Build 0)  -->
<!DOCTYPE svg PUBLIC "-//W3C//DTD SVG 1.1//EN" "http://www.w3.org/Graphics/SVG/1.1/DTD/svg11.dtd">
<svg version="1.1" id="Layer_1" xmlns="http://www.w3.org/2000/svg" xmlns:xlink="http://www.w3.org/1999/xlink" x="0px" y="0px"
	 width="32px" height="32px" viewBox="0 0 32 32" enable-background="new 0 0 32 32" xml:space="preserve">
<g>
	<g>
		<g>
			<defs>
				<path id="SVGID_1_" d="M4.5,843.4c-0.9,0-1.7-0.302-2.3-0.7C0.9,843.3,0,844.4,0,845.6v4.802h9V845.6c0-1.198-0.9-2.3-2.2-2.898
					C6.2,843.1,5.4,843.4,4.5,843.4"/>
			</defs>
			<clipPath id="SVGID_2_">
				<use xlink:href="#SVGID_1_"  overflow="visible"/>
			</clipPath>
			
				<linearGradient id="SVGID_3_" gradientUnits="userSpaceOnUse" x1="-310.667" y1="334.4941" x2="-309.667" y2="334.4941" gradientTransform="matrix(9 0 0 -9 2796 3857)">
				<stop  offset="0" style="stop-color:#4B823C"/>
				<stop  offset="0.0198" style="stop-color:#4B823C"/>
				<stop  offset="1" style="stop-color:#6EA03C"/>
			</linearGradient>
			<rect y="842.7" clip-path="url(#SVGID_2_)" fill="url(#SVGID_3_)" width="9" height="7.7"/>
		</g>
	</g>
</g>
<g>
	<g>
		<g>
			<defs>
				<path id="SVGID_4_" d="M1.4,838.6c0,1.9,1.4,3.4,3.1,3.4s3.1-1.5,3.1-3.4c0-1.898-1.4-3.398-3.1-3.398S1.4,836.7,1.4,838.6"/>
			</defs>
			<clipPath id="SVGID_5_">
				<use xlink:href="#SVGID_4_"  overflow="visible"/>
			</clipPath>
			
				<linearGradient id="SVGID_6_" gradientUnits="userSpaceOnUse" x1="-249.1528" y1="285.5586" x2="-248.1524" y2="285.5586" gradientTransform="matrix(6.1875 0 0 -6.1875 1543.0312 2605.4375)">
				<stop  offset="0" style="stop-color:#DCB496"/>
				<stop  offset="0.0198" style="stop-color:#DCB496"/>
				<stop  offset="1" style="stop-color:#EBC3A5"/>
			</linearGradient>
			<rect x="1.4" y="835.2" clip-path="url(#SVGID_5_)" fill="url(#SVGID_6_)" width="6.2" height="6.7"/>
		</g>
	</g>
</g>
<g>
	<g>
		<g>
			<defs>
				<rect id="SVGID_7_" y="830.7" width="30" height="19.7"/>
			</defs>
			<clipPath id="SVGID_8_">
				<use xlink:href="#SVGID_7_"  overflow="visible"/>
			</clipPath>
			<path clip-path="url(#SVGID_8_)" fill="#7C655E" d="M25.5,842c1.7,0,3.1-1.5,3.1-3.4c0-1.898-1.398-3.398-3.1-3.398
				s-3.1,1.5-3.1,3.398C22.4,840.5,23.8,842,25.5,842"/>
		</g>
	</g>
	<g>
		<g>
			<defs>
				<rect id="SVGID_9_" y="830.7" width="30" height="19.7"/>
			</defs>
			<clipPath id="SVGID_10_">
				<use xlink:href="#SVGID_9_"  overflow="visible"/>
			</clipPath>
			<path clip-path="url(#SVGID_10_)" fill="#DCB496" d="M15,837.5c1.7,0,3.1-1.5,3.1-3.4c0-1.898-1.398-3.398-3.1-3.398
				s-3.1,1.5-3.1,3.398C11.9,836,13.3,837.5,15,837.5"/>
		</g>
	</g>
</g>
<g>
	<g>
		<g>
			<defs>
				<path id="SVGID_11_" d="M15,838.9c-0.9,0-1.7-0.302-2.3-0.7c-1.3,0.6-2.2,1.7-2.2,2.898v4.802h9V841.1
					c0-1.198-0.9-2.3-2.2-2.898C16.7,838.6,15.9,838.9,15,838.9"/>
			</defs>
			<clipPath id="SVGID_12_">
				<use xlink:href="#SVGID_11_"  overflow="visible"/>
			</clipPath>
			
				<linearGradient id="SVGID_13_" gradientUnits="userSpaceOnUse" x1="-310.667" y1="334.4941" x2="-309.667" y2="334.4941" gradientTransform="matrix(9 0 0 -9 2806.5156 3852.5)">
				<stop  offset="0" style="stop-color:#002555"/>
				<stop  offset="0.0198" style="stop-color:#002555"/>
				<stop  offset="1" style="stop-color:#0F4187"/>
			</linearGradient>
			<rect x="10.5" y="838.2" clip-path="url(#SVGID_12_)" fill="url(#SVGID_13_)" width="9" height="7.7"/>
		</g>
	</g>
</g>
<g>
	<g>
		<g>
			<defs>
				<path id="SVGID_14_" d="M25.5,843.4c-0.9,0-1.7-0.302-2.3-0.7c-1.3,0.6-2.2,1.7-2.2,2.898v4.802h9V845.6
					c0-1.198-0.9-2.3-2.2-2.898C27.2,843.1,26.4,843.4,25.5,843.4"/>
			</defs>
			<clipPath id="SVGID_15_">
				<use xlink:href="#SVGID_14_"  overflow="visible"/>
			</clipPath>
			
				<linearGradient id="SVGID_16_" gradientUnits="userSpaceOnUse" x1="-310.6665" y1="334.4941" x2="-309.6665" y2="334.4941" gradientTransform="matrix(9 0 0 -9 2817 3857)">
				<stop  offset="0" style="stop-color:#4C6586"/>
				<stop  offset="0.0198" style="stop-color:#4C6586"/>
				<stop  offset="1" style="stop-color:#5A78A0"/>
			</linearGradient>
			<rect x="21" y="842.7" clip-path="url(#SVGID_15_)" fill="url(#SVGID_16_)" width="9" height="7.7"/>
		</g>
	</g>
</g>
<g>
	<g>
		<g>
			<path id="SVGID_17_" fill="#FD9AAE" d="M5.5,18c-0.9,0-1.7-0.3-2.3-0.7C1.9,17.9,1,19,1,20.2V25h9v-4.8c0-1.2-0.9-2.3-2.2-2.9
				C7.2,17.7,6.4,18,5.5,18"/>
		</g>
		<g>
			<defs>
				<path id="SVGID_18_" d="M5.5,18c-0.9,0-1.7-0.3-2.3-0.7C1.9,17.9,1,19,1,20.2V25h9v-4.8c0-1.2-0.9-2.3-2.2-2.9
					C7.2,17.7,6.4,18,5.5,18"/>
			</defs>
			<use xlink:href="#SVGID_18_"  overflow="visible" fill="#FD9AAE"/>
			<clipPath id="SVGID_19_">
				<use xlink:href="#SVGID_18_"  overflow="visible"/>
			</clipPath>
			<rect x="1" y="17.3" clip-path="url(#SVGID_19_)" fill="#FD9AAE" width="9" height="7.7"/>
		</g>
	</g>
</g>
<g>
	<g>
		<g>
			<defs>
				<path id="SVGID_20_" d="M2.4,13.2c0,1.9,1.4,3.399,3.1,3.399s3.1-1.5,3.1-3.399c0-1.9-1.4-3.4-3.1-3.4S2.4,11.3,2.4,13.2"/>
			</defs>
			<clipPath id="SVGID_21_">
				<use xlink:href="#SVGID_20_"  overflow="visible"/>
			</clipPath>
			
				<linearGradient id="SVGID_22_" gradientUnits="userSpaceOnUse" x1="-248.9912" y1="418.9551" x2="-247.9908" y2="418.9551" gradientTransform="matrix(6.1875 0 0 -6.1875 1543.0312 2605.4375)">
				<stop  offset="0" style="stop-color:#DCB496"/>
				<stop  offset="0.0198" style="stop-color:#DCB496"/>
				<stop  offset="1" style="stop-color:#EBC3A5"/>
			</linearGradient>
			<rect x="2.4" y="9.8" clip-path="url(#SVGID_21_)" fill="url(#SVGID_22_)" width="6.2" height="6.7"/>
		</g>
	</g>
</g>
<g>
	<g>
		<g>
			<defs>
				<rect id="SVGID_23_" x="1" y="5.3" width="30" height="19.7"/>
			</defs>
			<clipPath id="SVGID_24_">
				<use xlink:href="#SVGID_23_"  overflow="visible"/>
			</clipPath>
			<path clip-path="url(#SVGID_24_)" fill="#7C655E" d="M26.5,16.6c1.7,0,3.1-1.5,3.1-3.398c0-1.9-1.398-3.4-3.1-3.4
				s-3.1,1.5-3.1,3.4C23.4,15.1,24.8,16.6,26.5,16.6"/>
		</g>
	</g>
	<g>
		<g>
			<defs>
				<rect id="SVGID_25_" x="1" y="5.3" width="30" height="19.7"/>
			</defs>
			<clipPath id="SVGID_26_">
				<use xlink:href="#SVGID_25_"  overflow="visible"/>
			</clipPath>
			<path clip-path="url(#SVGID_26_)" fill="#DCB496" d="M16,12.1c1.7,0,3.1-1.5,3.1-3.4c0-1.9-1.398-3.4-3.1-3.4s-3.1,1.5-3.1,3.4
				C12.9,10.6,14.3,12.1,16,12.1"/>
		</g>
	</g>
</g>
<g>
	<g>
		<g>
			<defs>
				<path id="SVGID_27_" d="M16,13.5c-0.9,0-1.7-0.3-2.3-0.7c-1.3,0.6-2.2,1.7-2.2,2.9v4.8h9v-4.8c0-1.2-0.9-2.3-2.2-2.9
					C17.7,13.2,16.9,13.5,16,13.5"/>
			</defs>
			<clipPath id="SVGID_29_">
				<use xlink:href="#SVGID_27_"  overflow="visible"/>
			</clipPath>
			<rect x="11.5" y="12.8" clip-path="url(#SVGID_29_)" fill="#D6002B" width="9" height="7.7"/>
		</g>
	</g>
</g>
<g>
	<g>
		<g>
			<path id="SVGID_28_" fill="#64788D" d="M26.5,18c-0.9,0-1.7-0.3-2.3-0.7C22.9,17.9,22,19,22,20.2V25h9v-4.8
				c0-1.2-0.9-2.3-2.2-2.9C28.2,17.7,27.4,18,26.5,18"/>
		</g>
		<g>
			<defs>
				<path id="SVGID_30_" d="M26.5,18c-0.9,0-1.7-0.3-2.3-0.7C22.9,17.9,22,19,22,20.2V25h9v-4.8c0-1.2-0.9-2.3-2.2-2.9
					C28.2,17.7,27.4,18,26.5,18"/>
			</defs>
			<clipPath id="SVGID_31_">
				<use xlink:href="#SVGID_30_"  overflow="visible"/>
			</clipPath>
			<rect x="22" y="17.3" clip-path="url(#SVGID_31_)" fill="#64788D" width="9" height="7.7"/>
		</g>
	</g>
</g>
</svg>
