<?xml version="1.0" encoding="utf-8"?>
<!-- Generator: Adobe Illustrator 15.0.2, SVG Export Plug-In . SVG Version: 6.00 Build 0)  -->
<!DOCTYPE svg PUBLIC "-//W3C//DTD SVG 1.1//EN" "http://www.w3.org/Graphics/SVG/1.1/DTD/svg11.dtd">
<svg version="1.1" id="Layer_1" xmlns="http://www.w3.org/2000/svg" xmlns:xlink="http://www.w3.org/1999/xlink" x="0px" y="0px"
	 width="32px" height="32px" viewBox="0 0 32 32" enable-background="new 0 0 32 32" xml:space="preserve">
<rect fill="#FFFFFF" width="32" height="32"/>
<g>
	<g>
		<g>
			<defs>
				<path id="SVGID_1_" d="M2,7.999L7.999,2H30v22l-6,6H2V7.999z M0,0v10v22h22h10V22V0H0z"/>
			</defs>
			<use xlink:href="#SVGID_1_"  overflow="visible" fill="#64788D"/>
			<clipPath id="SVGID_2_">
				<use xlink:href="#SVGID_1_"  overflow="visible"/>
			</clipPath>
			<rect clip-path="url(#SVGID_2_)" fill="#64788D" width="32" height="32"/>
		</g>
	</g>
</g>
<g>
	<g>
		<g>
			<defs>
				<path id="SVGID_3_" d="M14.092,8.265c0,0-1.652,1.258-1.455,2.675c0.077,0.551,1.77,0.472,2.4,1.18
					c0.629,0.707,0.472,2.046-0.787,3.068c-1.259,1.023-2.754,0.833-3.227,0.315c-0.472-0.518-0.392-2.125-1.102-2.676
					c-0.708-0.551-1.652,0.472-1.966,0.787c-0.314,0.314-1.416,1.652-1.81,2.406c-0.393,0.753,2.047,2.039,2.047,2.039
					s1.966,1.377,1.494,2.006c-0.472,0.631-1.574,0.631-2.197,1.26c-0.625,0.63-0.242,2.201,0.229,2.912
					c0.472,0.707,2.161,0.853,2.912,0.392c1.219-0.747,0.707-1.966,1.101-2.36c0.393-0.393,0.866-0.393,1.417,0.157
					c0.551,0.552,2.045,2.194,2.045,2.194c0.803,1.07,1.496,0.561,2.597-0.227s1.652-2.125,1.416-2.754
					c-0.236-0.63-1.889-0.473-2.596-1.176c-0.708-0.705,0.158-2.521,0.787-3.15c0.629-0.631,1.416-1.103,2.754-0.552
					c1.337,0.552,0.806,1.966,1.416,3.068c0.611,1.103,1.967-0.708,1.967-0.708s1.766-1.73,2.281-2.36
					c0.517-0.63-1.573-1.888-2.281-2.439c-0.708-0.551-1.357-1.449-0.944-2.047c0.708-1.021,1.495-0.551,2.361-1.455
					c0.476-0.498,0.235-1.613-0.945-2.556C23,7.457,21.725,7.319,21.253,7.87c-0.471,0.551-0.194,3.62-1.966,2.361
					c0,0-1.062-1.337-1.652-2.085c-0.554-0.698-1.025-1.376-1.891-1.376L14.092,8.265z"/>
			</defs>
			<use xlink:href="#SVGID_3_"  overflow="visible" fill="#D6002B"/>
			<clipPath id="SVGID_4_">
				<use xlink:href="#SVGID_3_"  overflow="visible"/>
			</clipPath>
			<rect x="5.753" y="6.77" clip-path="url(#SVGID_4_)" fill="#D6002B" width="20.579" height="18.921"/>
		</g>
	</g>
</g>
</svg>
