<?xml version="1.0" encoding="utf-8"?>
<!-- Generator: Adobe Illustrator 15.0.2, SVG Export Plug-In . SVG Version: 6.00 Build 0)  -->
<!DOCTYPE svg PUBLIC "-//W3C//DTD SVG 1.1//EN" "http://www.w3.org/Graphics/SVG/1.1/DTD/svg11.dtd">
<svg version="1.1" id="Layer_1" xmlns="http://www.w3.org/2000/svg" xmlns:xlink="http://www.w3.org/1999/xlink" x="0px" y="0px"
	 width="32px" height="32px" viewBox="0 0 32 32" enable-background="new 0 0 32 32" xml:space="preserve">
<rect fill="none" width="32" height="32"/>
<g>
	<rect x="17.019" y="12.487" fill="#D6002B" width="13.239" height="2.037"/>
	<rect x="17.019" y="16.561" fill="#D6002B" width="13.239" height="2.037"/>
	<rect x="17.019" y="20.635" fill="#D6002B" width="13.239" height="2.036"/>
	<g>
		<g>
			<g>
				<defs>
					<path id="SVGID_1_" d="M7.853,16.765c-1.223,0-2.24-0.407-3.055-0.917c-1.833,0.814-3.056,2.241-3.056,3.972v6.517h12.221
						V19.82c0-1.731-1.223-3.158-3.056-3.972C10.094,16.357,9.076,16.765,7.853,16.765"/>
				</defs>
				<clipPath id="SVGID_2_">
					<use xlink:href="#SVGID_1_"  overflow="visible"/>
				</clipPath>
				<rect x="1.742" y="15.848" clip-path="url(#SVGID_2_)" fill="#64788D" width="12.221" height="10.386"/>
			</g>
		</g>
	</g>
	<g>
		<g>
			<g>
				<defs>
					<ellipse id="SVGID_3_" cx="7.853" cy="10.246" rx="4.176" ry="4.583"/>
				</defs>
				<clipPath id="SVGID_4_">
					<use xlink:href="#SVGID_3_"  overflow="visible"/>
				</clipPath>
				
					<linearGradient id="SVGID_5_" gradientUnits="userSpaceOnUse" x1="-323.0054" y1="421.3076" x2="-321.7018" y2="421.3076" gradientTransform="matrix(6.4453 0 0 -6.4453 2085.5264 2725.6987)">
					<stop  offset="0" style="stop-color:#DBB395"/>
					<stop  offset="0.0198" style="stop-color:#DBB395"/>
					<stop  offset="1" style="stop-color:#EAC2A4"/>
				</linearGradient>
				<rect x="3.678" y="5.664" clip-path="url(#SVGID_4_)" fill="url(#SVGID_5_)" width="8.351" height="9.166"/>
			</g>
		</g>
	</g>
</g>
</svg>
