<?xml version="1.0" encoding="utf-8"?>
<!-- Generator: Adobe Illustrator 15.0.2, SVG Export Plug-In . SVG Version: 6.00 Build 0)  -->
<!DOCTYPE svg PUBLIC "-//W3C//DTD SVG 1.1//EN" "http://www.w3.org/Graphics/SVG/1.1/DTD/svg11.dtd">
<svg version="1.1" id="Layer_1" xmlns="http://www.w3.org/2000/svg" xmlns:xlink="http://www.w3.org/1999/xlink" x="0px" y="0px"
	 width="32px" height="32px" viewBox="0 0 32 32" enable-background="new 0 0 32 32" xml:space="preserve">
<rect x="0.387" y="2.127" fill="none" width="31.999" height="32"/>
<g>
	<g>
		<g>
			<g>
				<g>
					<g>
						<path id="SVGID_1_" fill="#64788D" d="M16.935,21.443L6.543,16.13l1.641,9.454c0,0,0.078,0.393,0.469,0.312l17.58-3.125
							c0,0,0.392-0.078,0.392-0.469l-1.642-9.455L16.935,21.443z M24.122,10.428L6.543,13.553c0,0-0.39,0.077-0.39,0.468v0.156
							l10.469,5.312l7.969-8.594v-0.156c0,0-0.078-0.391-0.392-0.391C24.2,10.428,24.122,10.428,24.122,10.428"/>
					</g>
					<g>
						<defs>
							<path id="SVGID_2_" d="M16.935,21.443L6.543,16.13l1.641,9.454c0,0,0.078,0.393,0.469,0.312l17.58-3.125
								c0,0,0.392-0.078,0.392-0.469l-1.642-9.455L16.935,21.443z M24.122,10.428L6.543,13.553c0,0-0.39,0.077-0.39,0.468v0.156
								l10.469,5.312l7.969-8.594v-0.156c0,0-0.078-0.391-0.392-0.391C24.2,10.428,24.122,10.428,24.122,10.428"/>
						</defs>
						<clipPath id="SVGID_3_">
							<use xlink:href="#SVGID_2_"  overflow="visible"/>
						</clipPath>
						<polygon clip-path="url(#SVGID_3_)" fill="#64788D" points="3.418,10.896 26.075,6.912 29.356,25.506 6.699,29.49 						"/>
					</g>
				</g>
			</g>
		</g>
	</g>
</g>
</svg>
