<svg id="cat-pg" xmlns="http://www.w3.org/2000/svg" width="32" height="32" viewBox="0 0 32 32"><defs><style>.cls-1{fill:none;stroke:#000;stroke-linejoin:round;stroke-width:1.45px;}</style></defs><path class="cls-1" d="M4,22.9h7.8M8.7,26.4l3.6-3.5L8.7,19.3"/><path class="cls-1" d="M20.2,8.5H28M23.3,4.9,19.7,8.5l3.6,3.6"/><polygon class="cls-1" points="12.2 6.5 16.3 7.1 13.4 10 14.1 14.2 10.4 12.2 6.7 14.2 7.4 10.1 4.3 7.1 8.5 6.5 10.3 2.8 12.2 6.5"/><polygon class="cls-1" points="23.5 20.7 27.6 21.3 24.7 24.2 25.4 28.3 21.7 26.4 18 28.4 18.7 24.2 15.6 21.3 19.8 20.7 21.6 16.9 23.5 20.7"/></svg>