<?xml version="1.0" encoding="utf-8"?>
<!-- Generator: Adobe Illustrator 15.0.2, SVG Export Plug-In . SVG Version: 6.00 Build 0)  -->
<!DOCTYPE svg PUBLIC "-//W3C//DTD SVG 1.1//EN" "http://www.w3.org/Graphics/SVG/1.1/DTD/svg11.dtd">
<svg version="1.1" id="Layer_1" xmlns="http://www.w3.org/2000/svg" xmlns:xlink="http://www.w3.org/1999/xlink" x="0px" y="0px"
	 width="32px" height="32px" viewBox="0 0 32 32" enable-background="new 0 0 32 32" xml:space="preserve">
<g>
	<g>
		<defs>
			<path id="SVGID_1_" d="M5.5,19c-0.9,0-1.7-0.3-2.3-0.7C1.9,18.9,1,20,1,21.2V26h9v-4.8c0-1.2-0.9-2.3-2.2-2.9
				C7.2,18.7,6.4,19,5.5,19"/>
		</defs>
		<use xlink:href="#SVGID_1_"  overflow="visible" fill="#FD9AAE"/>
		<clipPath id="SVGID_2_">
			<use xlink:href="#SVGID_1_"  overflow="visible"/>
		</clipPath>
		<rect x="1" y="18.3" clip-path="url(#SVGID_2_)" fill="#FD9AAE" width="9" height="7.7"/>
	</g>
</g>
<g>
	<g>
		<defs>
			<path id="SVGID_3_" d="M2.4,14.2c0,1.9,1.4,3.399,3.1,3.399s3.1-1.5,3.1-3.399c0-1.9-1.4-3.4-3.1-3.4S2.4,12.3,2.4,14.2"/>
		</defs>
		<clipPath id="SVGID_4_">
			<use xlink:href="#SVGID_3_"  overflow="visible"/>
		</clipPath>
		
			<linearGradient id="SVGID_5_" gradientUnits="userSpaceOnUse" x1="-57.7637" y1="-105.397" x2="-56.7638" y2="-105.397" gradientTransform="matrix(6.1875 0 0 6.1875 359.8125 666.3438)">
			<stop  offset="0" style="stop-color:#DBB395"/>
			<stop  offset="0.0198" style="stop-color:#DBB395"/>
			<stop  offset="1" style="stop-color:#EAC2A4"/>
		</linearGradient>
		<rect x="2.4" y="10.8" clip-path="url(#SVGID_4_)" fill="url(#SVGID_5_)" width="6.2" height="6.8"/>
	</g>
</g>
<g>
	<g>
		<defs>
			<rect id="SVGID_6_" x="1" y="2.5" width="30" height="26.5"/>
		</defs>
		<clipPath id="SVGID_7_">
			<use xlink:href="#SVGID_6_"  overflow="visible"/>
		</clipPath>
		<path clip-path="url(#SVGID_7_)" fill="#DBB395" d="M16,15.6c1.7,0,3.1-1.5,3.1-3.4c0-1.9-1.399-3.4-3.1-3.4s-3.1,1.5-3.1,3.4
			C12.9,14.1,14.3,15.6,16,15.6"/>
	</g>
</g>
<g>
	<g>
		<defs>
			<path id="SVGID_8_" d="M16,17c-0.9,0-1.7-0.3-2.3-0.7c-1.3,0.601-2.2,1.7-2.2,2.9V24h9v-4.8c0-1.2-0.9-2.3-2.2-2.9
				C17.7,16.7,16.9,17,16,17"/>
		</defs>
		<use xlink:href="#SVGID_8_"  overflow="visible" fill="#D6002B"/>
		<clipPath id="SVGID_9_">
			<use xlink:href="#SVGID_8_"  overflow="visible"/>
		</clipPath>
		<rect x="11.5" y="16.3" clip-path="url(#SVGID_9_)" fill="#D6002B" width="9" height="7.7"/>
	</g>
</g>
<g>
	<g>
		<defs>
			<rect id="SVGID_10_" x="1" y="2.5" width="30" height="26.5"/>
		</defs>
		<clipPath id="SVGID_11_">
			<use xlink:href="#SVGID_10_"  overflow="visible"/>
		</clipPath>
		<path clip-path="url(#SVGID_11_)" fill="#7C655E" d="M26.5,20.6c1.7,0,3.1-1.5,3.1-3.399c0-1.9-1.399-3.4-3.1-3.4
			s-3.1,1.5-3.1,3.4C23.4,19.1,24.8,20.6,26.5,20.6"/>
	</g>
</g>
<g>
	<g>
		<defs>
			<path id="SVGID_12_" d="M26.5,22c-0.9,0-1.7-0.3-2.3-0.7C22.9,21.9,22,23,22,24.2V29h9v-4.8c0-1.2-0.9-2.3-2.2-2.9
				C28.2,21.7,27.4,22,26.5,22"/>
		</defs>
		<use xlink:href="#SVGID_12_"  overflow="visible" fill="#64788D"/>
		<clipPath id="SVGID_13_">
			<use xlink:href="#SVGID_12_"  overflow="visible"/>
		</clipPath>
		<rect x="22" y="21.3" clip-path="url(#SVGID_13_)" fill="#64788D" width="9" height="7.7"/>
	</g>
</g>
<g>
	<g>
		<defs>
			<circle id="SVGID_14_" cx="24.5" cy="7.5" r="5"/>
		</defs>
		<use xlink:href="#SVGID_14_"  overflow="visible" fill="#64788D"/>
		<clipPath id="SVGID_15_">
			<use xlink:href="#SVGID_14_"  overflow="visible"/>
		</clipPath>
		<rect x="19.5" y="2.5" clip-path="url(#SVGID_15_)" fill="#64788D" width="10" height="10"/>
	</g>
</g>
<g>
	<g>
		<defs>
			<rect id="SVGID_16_" x="1" y="2.5" width="30" height="26.5"/>
		</defs>
		<clipPath id="SVGID_17_">
			<use xlink:href="#SVGID_16_"  overflow="visible"/>
		</clipPath>
		<path clip-path="url(#SVGID_17_)" fill="#FFFFFF" d="M26,4.9c-1.1,1.1-2.1,0-2.1,1.1S26,7.1,26,9.2c0,1.1,2.1-1.1,2.1-2.1
			S26.7,4.2,26,4.9"/>
	</g>
	<g>
		<defs>
			<rect id="SVGID_18_" x="1" y="2.5" width="30" height="26.5"/>
		</defs>
		<clipPath id="SVGID_19_">
			<use xlink:href="#SVGID_18_"  overflow="visible"/>
		</clipPath>
		<path clip-path="url(#SVGID_19_)" fill="#FFFFFF" d="M23.1,7.4C23.2,6.4,21.7,6.5,21.2,7s0.399,1.7,0.7,2.5
			c0.199,0.7,0.199,0.8,0.8-0.2C23,8.7,23,8.6,23.1,7.4"/>
	</g>
</g>
</svg>
