<svg id="cat-pg" xmlns="http://www.w3.org/2000/svg" width="32" height="32" viewBox="0 0 32 32"><defs><style>.cls-1{fill:none;stroke:#000;stroke-miterlimit:10;stroke-width:1.45px;}</style></defs><path d="M13.5,9.6l.3.3h.6c1.3,0,1.9.2,3.4,1.5a4.7,4.7,0,0,0,2.7,1.2,6.7,6.7,0,0,1-3.1,1h-.1a10.7,10.7,0,0,0-2.4.6l-.8.4-.6.2V9.6m-.3-1.5c-.7,0-1.2.2-1.2.6V22.1c0,.2.7.3,1.4.3s1.2-.1,1.2-.3V16a8.9,8.9,0,0,1,3-.9c2.1-.2,4.6-1.3,5-3s0-1-.3-1H21a3.8,3.8,0,0,1-2.3-.9,5.3,5.3,0,0,0-4.3-1.8,1.7,1.7,0,0,0-1.2-.4Z"/><path class="cls-1" d="M11,21.6c-1,.2-1.6.6-1.6,1.1s2,1.2,3.9,1.2,4-.4,4-1.2-.7-.9-1.6-1.1"/></svg>