<?xml version="1.0" encoding="utf-8"?>
<!-- Generator: Adobe Illustrator 15.0.2, SVG Export Plug-In . SVG Version: 6.00 Build 0)  -->
<!DOCTYPE svg PUBLIC "-//W3C//DTD SVG 1.1//EN" "http://www.w3.org/Graphics/SVG/1.1/DTD/svg11.dtd">
<svg version="1.1" id="Layer_1" xmlns="http://www.w3.org/2000/svg" xmlns:xlink="http://www.w3.org/1999/xlink" x="0px" y="0px"
	 width="32px" height="32px" viewBox="0 0 32 32" enable-background="new 0 0 32 32" xml:space="preserve">
<g>
	<g>
		<g>
			<path id="SVGID_1_" fill="#64788D" d="M4.5,26C4,26,4,26.5,4,26.5v1C4,28,4.5,28,4.5,28h23c0.5,0,0.5-0.5,0.5-0.5v-1
				c0-0.5-0.5-0.5-0.5-0.5H4.5z"/>
		</g>
		<g>
			<defs>
				<path id="SVGID_2_" d="M4.5,26C4,26,4,26.5,4,26.5v1C4,28,4.5,28,4.5,28h23c0.5,0,0.5-0.5,0.5-0.5v-1c0-0.5-0.5-0.5-0.5-0.5H4.5
					z"/>
			</defs>
			<use xlink:href="#SVGID_2_"  overflow="visible" fill="#64788D"/>
			<clipPath id="SVGID_4_">
				<use xlink:href="#SVGID_2_"  overflow="visible"/>
			</clipPath>
			<rect x="4" y="26" clip-path="url(#SVGID_4_)" fill="#64788D" width="24" height="2"/>
		</g>
	</g>
</g>
<g>
	<g>
		<g>
			<path id="SVGID_3_" fill="#64788D" d="M21,13c0,0-0.5,0-0.5,0.5v9.417c0,0,0.001,0.033,0.01,0.083h-2.531
				C17.982,22.969,18,22.953,18,22.917V13.5c0,0,0-0.5-0.5-0.5h-3c0,0-0.5,0-0.5,0.5v9.417c0,0,0.001,0.033,0.009,0.083h-2.531
				c0.005-0.031,0.022-0.047,0.022-0.083V13.5c0,0,0-0.5-0.5-0.5H8c0,0-0.5,0-0.5,0.5v9.417c0,0,0.001,0.033,0.009,0.083H6
				c-0.5,0-0.5,0.5-0.5,0.5v1C5.5,25,6,25,6,25h20c0.5,0,0.5-0.5,0.5-0.5v-1C26.5,23,26,23,26,23h-1.521
				c0.004-0.031,0.021-0.047,0.021-0.083V13.5c0,0,0-0.5-0.5-0.5H21z"/>
		</g>
		<g>
			<defs>
				<path id="SVGID_6_" d="M21,13c0,0-0.5,0-0.5,0.5v9.417c0,0,0.001,0.033,0.01,0.083h-2.531C17.982,22.969,18,22.953,18,22.917
					V13.5c0,0,0-0.5-0.5-0.5h-3c0,0-0.5,0-0.5,0.5v9.417c0,0,0.001,0.033,0.009,0.083h-2.531c0.005-0.031,0.022-0.047,0.022-0.083
					V13.5c0,0,0-0.5-0.5-0.5H8c0,0-0.5,0-0.5,0.5v9.417c0,0,0.001,0.033,0.009,0.083H6c-0.5,0-0.5,0.5-0.5,0.5v1C5.5,25,6,25,6,25
					h20c0.5,0,0.5-0.5,0.5-0.5v-1C26.5,23,26,23,26,23h-1.521c0.004-0.031,0.021-0.047,0.021-0.083V13.5c0,0,0-0.5-0.5-0.5H21z"/>
			</defs>
			<use xlink:href="#SVGID_6_"  overflow="visible" fill="#64788D"/>
			<clipPath id="SVGID_7_">
				<use xlink:href="#SVGID_6_"  overflow="visible"/>
			</clipPath>
			<rect x="5.5" y="13" clip-path="url(#SVGID_7_)" fill="#64788D" width="21" height="12"/>
		</g>
	</g>
</g>
<g>
	<g>
		<g>
			<path id="SVGID_5_" fill="#64788D" d="M16.007,4.308c-0.481,0.008-0.839,0.247-0.839,0.247l-10.336,6.89C4,12,5,12,5,12h22
				c1,0,0.168-0.555,0.168-0.555l-10.336-6.89c-0.268-0.179-0.537-0.243-0.778-0.247H16.007z"/>
		</g>
		<g>
			<defs>
				<path id="SVGID_8_" d="M16.007,4.308c-0.481,0.008-0.839,0.247-0.839,0.247l-10.336,6.89C4,12,5,12,5,12h22
					c1,0,0.168-0.555,0.168-0.555l-10.336-6.89c-0.268-0.179-0.537-0.243-0.778-0.247H16.007z"/>
			</defs>
			<use xlink:href="#SVGID_8_"  overflow="visible" fill="#64788D"/>
			<clipPath id="SVGID_9_">
				<use xlink:href="#SVGID_8_"  overflow="visible"/>
			</clipPath>
			<rect x="4" y="4.308" clip-path="url(#SVGID_9_)" fill="#64788D" width="24" height="7.692"/>
		</g>
	</g>
</g>
</svg>
