<svg id="cat-pg" xmlns="http://www.w3.org/2000/svg" width="32" height="32" viewBox="0 0 32 32"><defs><style>.cls-1,.cls-2{fill:none;stroke:#000;stroke-linejoin:round;stroke-width:1.45px;}.cls-1{stroke-linecap:round;}</style></defs><ellipse class="cls-1" cx="9.3" cy="9.8" rx="3.7" ry="4.2"/><path class="cls-1" d="M12.2,16h0l-.7.4a5.4,5.4,0,0,1-2.2.4,5.4,5.4,0,0,1-2.2-.4h0L6.4,16h0a4.3,4.3,0,0,0-2.9,3.8V26H15.1V19.8A4.3,4.3,0,0,0,12.2,16Z"/><polygon class="cls-2" points="23 23.5 18.8 26.1 18.7 21.2 23 23.5"/><polyline class="cls-1" points="23 23.5 29.6 11.5 25.3 9.1 18.7 21.2"/></svg>