<?xml version="1.0" encoding="utf-8"?>
<!-- Generator: Adobe Illustrator 15.0.2, SVG Export Plug-In . SVG Version: 6.00 Build 0)  -->
<!DOCTYPE svg PUBLIC "-//W3C//DTD SVG 1.1//EN" "http://www.w3.org/Graphics/SVG/1.1/DTD/svg11.dtd">
<svg version="1.1" id="Layer_1" xmlns="http://www.w3.org/2000/svg" xmlns:xlink="http://www.w3.org/1999/xlink" x="0px" y="0px"
	 width="32px" height="32px" viewBox="0 0 32 32" enable-background="new 0 0 32 32" xml:space="preserve">
<g>
	<g>
		<g>
			<path id="SVGID_1_" fill="#D6002B" d="M6,20.744C6,24.751,9.249,28,13.256,28c3.108,0,5.727-1.971,6.756-4.719l-1.197-2.075
				c-0.235,2.866-2.63,5.119-5.559,5.119c-3.083,0-5.582-2.499-5.582-5.581c0-1.45,0.587-2.736,1.499-3.721v-2.217
				C7.269,16.108,6,18.264,6,20.744"/>
		</g>
		<g>
			<defs>
				<path id="SVGID_2_" d="M6,20.744C6,24.751,9.249,28,13.256,28c3.108,0,5.727-1.971,6.756-4.719l-1.197-2.075
					c-0.235,2.866-2.63,5.119-5.559,5.119c-3.083,0-5.582-2.499-5.582-5.581c0-1.45,0.587-2.736,1.499-3.721v-2.217
					C7.269,16.108,6,18.264,6,20.744"/>
			</defs>
			<clipPath id="SVGID_4_">
				<use xlink:href="#SVGID_2_"  overflow="visible"/>
			</clipPath>
			<rect x="6" y="14.806" clip-path="url(#SVGID_4_)" fill="#D6002B" width="14.012" height="13.194"/>
		</g>
	</g>
</g>
<g>
	<g>
		<g>
			<circle id="SVGID_3_" fill="#64788D" cx="12.475" cy="6.233" r="2.233"/>
		</g>
		<g>
			<defs>
				<circle id="SVGID_6_" cx="12.475" cy="6.233" r="2.233"/>
			</defs>
			<use xlink:href="#SVGID_6_"  overflow="visible" fill="#64788D"/>
			<clipPath id="SVGID_7_">
				<use xlink:href="#SVGID_6_"  overflow="visible"/>
			</clipPath>
			<rect x="10.242" y="4" clip-path="url(#SVGID_7_)" fill="#64788D" width="4.465" height="4.465"/>
		</g>
	</g>
</g>
<g>
	<g>
		<g>
			<path id="SVGID_5_" fill="#64788D" d="M10.242,11.443v5.766c0,1.232,1,2.232,2.233,2.232h6.697l3.348,5.768h0.002l3.082-1.779
				c0.25-0.145,0.39-0.412,0.396-0.699v-0.049c-0.004-0.16-0.048-0.322-0.135-0.474c-0.258-0.442-0.789-0.615-1.189-0.385
				l-1.148,0.665l-3.537-6.129c-0.152-0.279-0.514-0.303-0.817-0.303h-4.465v-1.173h2.897c0.463,0,0.838-0.374,0.838-0.836
				c0-0.463-0.375-0.838-0.838-0.838h-2.897v-1.766c0-1.234-0.999-2.233-2.232-2.233S10.242,10.209,10.242,11.443"/>
		</g>
		<g>
			<defs>
				<path id="SVGID_8_" d="M10.242,11.443v5.766c0,1.232,1,2.232,2.233,2.232h6.697l3.348,5.768h0.002l3.082-1.779
					c0.25-0.145,0.39-0.412,0.396-0.699v-0.049c-0.004-0.16-0.048-0.322-0.135-0.474c-0.258-0.442-0.789-0.615-1.189-0.385
					l-1.148,0.665l-3.537-6.129c-0.152-0.279-0.514-0.303-0.817-0.303h-4.465v-1.173h2.897c0.463,0,0.838-0.374,0.838-0.836
					c0-0.463-0.375-0.838-0.838-0.838h-2.897v-1.766c0-1.234-0.999-2.233-2.232-2.233S10.242,10.209,10.242,11.443"/>
			</defs>
			<use xlink:href="#SVGID_8_"  overflow="visible" fill="#64788D"/>
			<clipPath id="SVGID_9_">
				<use xlink:href="#SVGID_8_"  overflow="visible"/>
			</clipPath>
			<rect x="10.242" y="9.21" clip-path="url(#SVGID_9_)" fill="#64788D" width="15.758" height="15.999"/>
		</g>
	</g>
</g>
</svg>
