<?xml version="1.0" encoding="utf-8"?>
<!-- Generator: Adobe Illustrator 15.0.2, SVG Export Plug-In . SVG Version: 6.00 Build 0)  -->
<!DOCTYPE svg PUBLIC "-//W3C//DTD SVG 1.1//EN" "http://www.w3.org/Graphics/SVG/1.1/DTD/svg11.dtd">
<svg version="1.1" id="Layer_1" xmlns="http://www.w3.org/2000/svg" xmlns:xlink="http://www.w3.org/1999/xlink" x="0px" y="0px"
	 width="32px" height="32px" viewBox="0 0 32 32" enable-background="new 0 0 32 32" xml:space="preserve">
<g>
	<g>
		<defs>
			<path id="SVGID_1_" d="M3.2,2c0,0-0.5,0-0.5,0.5v8c0,0,0,0.5,0.5,0.5h12.5c0,0,0.5,0,0.5-0.5v-8c0,0,0-0.5-0.5-0.5H3.2z"/>
		</defs>
		<use xlink:href="#SVGID_1_"  overflow="visible" fill="#64788D"/>
		<clipPath id="SVGID_2_">
			<use xlink:href="#SVGID_1_"  overflow="visible"/>
		</clipPath>
		<rect x="2.8" y="2" clip-path="url(#SVGID_2_)" fill="#64788D" width="13.5" height="9"/>
	</g>
</g>
<g>
	<g>
		<defs>
			<polygon id="SVGID_3_" points="4.2,12 2,15 17,15 14.8,12 			"/>
		</defs>
		<use xlink:href="#SVGID_3_"  overflow="visible" fill="#64788D"/>
		<clipPath id="SVGID_4_">
			<use xlink:href="#SVGID_3_"  overflow="visible"/>
		</clipPath>
		<rect x="2" y="12" clip-path="url(#SVGID_4_)" fill="#64788D" width="15" height="3"/>
	</g>
</g>
<g>
	<g>
		<defs>
			<path id="SVGID_5_" d="M16.2,17c0,0-0.5,0-0.5,0.5v8c0,0,0,0.5,0.5,0.5h12.5c0,0,0.5,0,0.5-0.5v-8c0,0,0-0.5-0.5-0.5H16.2z"/>
		</defs>
		<use xlink:href="#SVGID_5_"  overflow="visible" fill="#D6002B"/>
		<clipPath id="SVGID_6_">
			<use xlink:href="#SVGID_5_"  overflow="visible"/>
		</clipPath>
		<rect x="15.8" y="17" clip-path="url(#SVGID_6_)" fill="#D6002B" width="13.5" height="9"/>
	</g>
</g>
<g>
	<g>
		<defs>
			<polygon id="SVGID_7_" points="17.2,27 15,30 30,30 27.8,27 			"/>
		</defs>
		<use xlink:href="#SVGID_7_"  overflow="visible" fill="#D6002B"/>
		<clipPath id="SVGID_8_">
			<use xlink:href="#SVGID_7_"  overflow="visible"/>
		</clipPath>
		<rect x="15" y="27" clip-path="url(#SVGID_8_)" fill="#D6002B" width="15" height="3"/>
	</g>
</g>
<g>
	<g>
		<defs>
			<polygon id="SVGID_9_" points="5.5,20.5 5.5,23.5 9.5,23.5 9.5,26.5 13.5,22 9.5,17.5 9.5,20.5 			"/>
		</defs>
		<use xlink:href="#SVGID_9_"  overflow="visible" fill="#64788D"/>
		<clipPath id="SVGID_10_">
			<use xlink:href="#SVGID_9_"  overflow="visible"/>
		</clipPath>
		<rect x="5.5" y="17.5" clip-path="url(#SVGID_10_)" fill="#64788D" width="8" height="9"/>
	</g>
</g>
<g>
	<g>
		<defs>
			<polygon id="SVGID_11_" points="22.5,12.5 22.5,9.5 26.5,9.5 26.5,6.5 22.5,6.5 22.5,3.5 18.5,8 			"/>
		</defs>
		<use xlink:href="#SVGID_11_"  overflow="visible" fill="#64788D"/>
		<clipPath id="SVGID_12_">
			<use xlink:href="#SVGID_11_"  overflow="visible"/>
		</clipPath>
		<rect x="18.5" y="3.5" clip-path="url(#SVGID_12_)" fill="#64788D" width="8" height="9"/>
	</g>
</g>
</svg>
