<?xml version="1.0" encoding="utf-8"?>
<!-- Generator: Adobe Illustrator 15.0.2, SVG Export Plug-In . SVG Version: 6.00 Build 0)  -->
<!DOCTYPE svg PUBLIC "-//W3C//DTD SVG 1.1//EN" "http://www.w3.org/Graphics/SVG/1.1/DTD/svg11.dtd">
<svg version="1.1" id="Layer_1" xmlns="http://www.w3.org/2000/svg" xmlns:xlink="http://www.w3.org/1999/xlink" x="0px" y="0px"
	 width="32px" height="32px" viewBox="0 0 32 32" enable-background="new 0 0 32 32" xml:space="preserve">
<rect fill="none" width="32" height="32"/>
<g>
	<path fill="#64788D" d="M29.391,7.485c0,0.495-0.365,0.803-0.816,0.803H3.025c-0.45,0-0.414-0.31-0.414-0.803V4.953
		c0-0.493-0.036-0.893,0.414-0.893h25.547c0.451,0,0.816,0.4,0.816,0.893v2.532H29.391z"/>
	<path fill="#64788D" d="M27.98,27.169c0,0.468-0.381,0.851-0.853,0.851H10.98l2.4-2.959L6.9,17.962v4.759H4.02v-4.438v-4.521
		l0.002-3.213c0-0.469,0.38-0.851,0.85-0.851h22.262c0.468,0,0.851,0.38,0.851,0.851v16.62L27.98,27.169L27.98,27.169z"/>
	<path fill="#FFFFFF" d="M20.934,15.894c0,0.469-0.383,0.852-0.851,0.852h-8.165c-0.469,0-0.852-0.382-0.852-0.852v-1.118
		c0-0.469,0.381-0.852,0.852-0.852h8.165c0.468,0,0.851,0.381,0.851,0.852V15.894z"/>
</g>
<g>
	<g>
		<g>
			<g>
				<polygon id="SVGID_3_" fill="#E65722" points="8,20.641 12,25.141 8,29.641 8,26.641 4,26.641 4,23.641 8,23.641 				"/>
			</g>
			<g>
				<g>
					<g>
						<polygon id="SVGID_4_" fill="#E65722" points="8,20.641 12,25.141 8,29.641 8,26.641 4,26.641 4,23.641 8,23.641 						"/>
					</g>
					<g>
						<g>
							<g>
								<defs>
									<polygon id="SVGID_1_" points="8,20.641 12,25.141 8,29.641 8,26.641 4,26.641 4,23.641 8,23.641 									"/>
								</defs>
								<clipPath id="SVGID_2_">
									<use xlink:href="#SVGID_1_"  overflow="visible"/>
								</clipPath>
								<rect x="4" y="20.641" clip-path="url(#SVGID_2_)" fill="#E65722" width="8" height="9"/>
							</g>
						</g>
					</g>
				</g>
			</g>
		</g>
	</g>
</g>
</svg>
