<?xml version="1.0" encoding="utf-8"?>
<!-- Generator: Adobe Illustrator 15.0.2, SVG Export Plug-In . SVG Version: 6.00 Build 0)  -->
<!DOCTYPE svg PUBLIC "-//W3C//DTD SVG 1.1//EN" "http://www.w3.org/Graphics/SVG/1.1/DTD/svg11.dtd">
<svg version="1.1" id="Layer_1" xmlns="http://www.w3.org/2000/svg" xmlns:xlink="http://www.w3.org/1999/xlink" x="0px" y="0px"
	 width="32px" height="32px" viewBox="0 0 32 32" enable-background="new 0 0 32 32" xml:space="preserve">
<rect y="-0.008" fill="none" width="31.999" height="32"/>
<g>
	<g>
		<g>
			<g>
				<path id="SVGID_1_" fill="#64788D" d="M7.5,5.242v1.025v1.258v18.217l1.999,1h14.5c0,0,0.501,0,0.501-0.501v-19
					c0,0,0-0.499-0.501-0.499H22.5H9.499L8,5.742h14.5c0,0,0-0.5-0.467-0.5H7.5L7.5,5.242z"/>
			</g>
			<g>
				<g>
					<defs>
						<path id="SVGID_2_" d="M7.5,5.242v1.025v1.258v18.217l1.999,1h14.5c0,0,0.501,0,0.501-0.501v-19c0,0,0-0.499-0.501-0.499H22.5
							H9.499L8,5.742h14.5c0,0,0-0.5-0.467-0.5H7.5L7.5,5.242z"/>
					</defs>
					<use xlink:href="#SVGID_2_"  overflow="visible" fill="#64788D"/>
					<clipPath id="SVGID_3_">
						<use xlink:href="#SVGID_2_"  overflow="visible"/>
					</clipPath>
					<rect x="7.5" y="5.242" clip-path="url(#SVGID_3_)" fill="#64788D" width="17" height="21.5"/>
				</g>
			</g>
		</g>
	</g>
</g>
<rect x="12.833" y="10.909" fill="#FFFFFF" width="8.333" height="5"/>
</svg>
