<svg id="cat-pg" xmlns="http://www.w3.org/2000/svg" width="32" height="32" viewBox="0 0 32 32"><defs><style>.cls-1,.cls-2,.cls-3{fill:none;stroke:#000;stroke-width:1.45px;}.cls-1{stroke-miterlimit:10;}.cls-2{stroke-linecap:square;}.cls-2,.cls-3{stroke-linejoin:round;}</style></defs><polyline class="cls-1" points="25.1 15.4 22.8 14.6 21.3 12.3 18.6 13 18.5 15.8 16.6 17.4"/><polyline class="cls-1" points="18.5 15.8 16.6 17.4 13.9 17.4 13.2 20.1 15.5 21.6 15.9 24"/><polyline class="cls-1" points="15.5 21.6 15.9 24 14.6 26.4 16.6 28.4 19 27.2 21.3 28"/><polyline class="cls-1" points="19 27.2 21.3 28 22.8 30.3 25.5 29.6 25.6 26.9 27.5 25.3"/><polyline class="cls-1" points="25.6 26.9 27.5 25.3 30.2 25.2 31 22.5 28.6 21 28.2 18.6"/><polyline class="cls-1" points="28.6 21 28.2 18.6 29.5 16.2 27.5 14.2 25.1 15.4 22.8 14.6"/><circle class="cls-1" cx="22.1" cy="21.3" r="2.8"/><ellipse class="cls-2" cx="8.5" cy="5.3" rx="3.9" ry="4.3"/><path class="cls-3" d="M11.1,13.4a5.8,5.8,0,0,1-2.6.6,6.4,6.4,0,0,1-2.8-.6l-.9-.5h0C2.5,14,1.1,15.7,1.1,17.8v6.4H9"/></svg>