<svg id="cat-pg" xmlns="http://www.w3.org/2000/svg" width="32" height="32" viewBox="0 0 32 32"><defs><style>.cls-1{fill:none;stroke:#000;stroke-linejoin:round;stroke-width:1.45px;}</style></defs><polyline class="cls-1" points="9.2 6.5 9.2 11.5 4.2 11.5"/><polyline class="cls-1" points="21.2 16.8 21.2 27.5 4.2 27.5 4.2 11.5 9.2 6.5 11.8 6.5"/><path d="M21.2,4.5a3.3,3.3,0,0,1,3.2,2.8h.7a2.6,2.6,0,0,1,2.7,2.7,2.7,2.7,0,0,1-2.9,2.6H17.3a2.5,2.5,0,0,1-2.5-2.9,2.3,2.3,0,0,1,2.1-1.8,1.5,1.5,0,0,1,1,.3A2.9,2.9,0,0,1,19,5.3a3.5,3.5,0,0,1,2.2-.8m0-1.4a5,5,0,0,0-3.1,1,4.8,4.8,0,0,0-1.5,2.2,3.9,3.9,0,0,0-3.2,3,4.2,4.2,0,0,0,.8,3.2,3.8,3.8,0,0,0,3.1,1.4h7.6a4.4,4.4,0,0,0,3.2-1.3,3.6,3.6,0,0,0,1.1-2.8,3.8,3.8,0,0,0-3.8-4,4.6,4.6,0,0,0-4.2-2.7Z"/></svg>