<svg id="cat-pg" xmlns="http://www.w3.org/2000/svg" width="32" height="32" viewBox="0 0 32 32"><defs><style>.cls-1,.cls-2{fill:none;stroke:#000;stroke-linejoin:round;stroke-width:1.45px;}.cls-1{stroke-linecap:round;}</style></defs><path class="cls-1" d="M16.5,17.4s-.4,0-.4.6v9.8s0,.6.4.6H26.7s.4,0,.4-.6V18s0-.6-.4-.6Z"/><path class="cls-2" d="M4,22.9h7.8M8.7,26.4l3.6-3.5L8.7,19.3"/><path class="cls-1" d="M15.5,3s.4,0,.4.6v9.8s0,.6-.4.6H5.3s-.4,0-.4-.6V3.6s0-.6.4-.6Z"/><path class="cls-2" d="M20.2,8.5H28M23.3,4.9,19.7,8.5l3.6,3.6"/></svg>