<?xml version="1.0" encoding="utf-8"?>
<!-- Generator: Adobe Illustrator 15.0.2, SVG Export Plug-In . SVG Version: 6.00 Build 0)  -->
<!DOCTYPE svg PUBLIC "-//W3C//DTD SVG 1.1//EN" "http://www.w3.org/Graphics/SVG/1.1/DTD/svg11.dtd">
<svg version="1.1" id="Layer_1" xmlns="http://www.w3.org/2000/svg" xmlns:xlink="http://www.w3.org/1999/xlink" x="0px" y="0px"
	 width="32px" height="32px" viewBox="0 0 32 32" enable-background="new 0 0 32 32" xml:space="preserve">
<g>
	<g>
		<g>
			<defs>
				<path id="SVGID_1_" d="M8,22.3C8,21,9.1,20,10.4,20c1.3,0,2.4,1.1,2.4,2.4c0,1.3-1.1,2.398-2.4,2.398C9.1,24.8,8,23.6,8,22.3
					 M4.5,15.7c0-1.4,1.1-2.5,2.5-2.5s2.5,1.1,2.5,2.5c0,1.399-1.1,2.5-2.5,2.5C5.7,18.2,4.5,17.1,4.5,15.7 M14.5,6.6
					c0-1.1,0.9-1.9,2-1.9c1.1,0,2,0.9,2,1.9c0,1.1-0.9,1.9-2,1.9C15.3,8.5,14.5,7.7,14.5,6.6 M16.7,2C10.3,2.1,2,7.2,2,16.4
					c0,2.6,1.3,10.3,9.1,12.9c7.5,2.5,13-2.6,15.6-7.8c1.5-3,3.3-6.4,3.3-8.4V13c0-1.1-0.6-1.8-2-1.8c-2.6,0-2.6,2.6-6.5,1.3
					s3.9-9.1-2.6-10.3C18.3,2.1,17.6,2,17,2H16.7z"/>
			</defs>
			<clipPath id="SVGID_2_">
				<use xlink:href="#SVGID_1_"  overflow="visible"/>
			</clipPath>
			<rect x="2" y="2" clip-path="url(#SVGID_2_)" fill="#64788D" width="28" height="29.8"/>
		</g>
	</g>
</g>
<g>
	<g>
		<g>
			<defs>
				<rect id="SVGID_3_" x="2" y="2" width="28" height="28"/>
			</defs>
			<clipPath id="SVGID_4_">
				<use xlink:href="#SVGID_3_"  overflow="visible"/>
			</clipPath>
			<path clip-path="url(#SVGID_4_)" fill="#FFFFFF" d="M17.3,25.6c1,0,1.9-0.8,1.9-1.8S18.4,22,17.3,22c-1.1,0-1.9,0.8-1.9,1.8
				S16.3,25.6,17.3,25.6"/>
		</g>
	</g>
</g>
</svg>
