<?xml version="1.0" encoding="utf-8"?>
<!-- Generator: Adobe Illustrator 15.0.2, SVG Export Plug-In . SVG Version: 6.00 Build 0)  -->
<!DOCTYPE svg PUBLIC "-//W3C//DTD SVG 1.1//EN" "http://www.w3.org/Graphics/SVG/1.1/DTD/svg11.dtd">
<svg version="1.1" id="Layer_1" xmlns="http://www.w3.org/2000/svg" xmlns:xlink="http://www.w3.org/1999/xlink" x="0px" y="0px"
	 width="32px" height="32px" viewBox="0 0 32 32" enable-background="new 0 0 32 32" xml:space="preserve">
<rect fill="none" width="32" height="32"/>
<g>
	<g>
		<g>
			<defs>
				<path id="SVGID_1_" d="M13.88,7.406c0,0-1.835,1.398-1.617,2.972c0.085,0.612,1.967,0.524,2.667,1.311
					c0.699,0.786,0.524,2.273-0.874,3.409c-1.399,1.137-3.06,0.925-3.585,0.35c-0.525-0.576-0.436-2.361-1.224-2.973
					C8.46,11.863,7.412,13,7.062,13.35c-0.349,0.349-1.573,1.835-2.011,2.673c-0.437,0.838,2.274,2.266,2.274,2.266
					s2.185,1.529,1.66,2.229c-0.525,0.7-1.749,0.7-2.441,1.399c-0.694,0.7-0.269,2.447,0.256,3.235
					c0.525,0.787,2.401,0.947,3.235,0.436c1.354-0.83,0.786-2.186,1.223-2.622s0.962-0.437,1.574,0.175s2.272,2.438,2.272,2.438
					c0.892,1.189,1.662,0.622,2.886-0.252c1.223-0.874,1.835-2.36,1.572-3.061c-0.262-0.699-2.098-0.523-2.885-1.306
					c-0.787-0.783,0.176-2.802,0.874-3.501c0.7-0.7,1.573-1.224,3.06-0.611c1.486,0.611,0.896,2.185,1.574,3.408
					c0.679,1.225,2.186-0.787,2.186-0.787s1.962-1.923,2.535-2.621c0.572-0.701-1.749-2.099-2.535-2.71
					c-0.787-0.612-1.508-1.61-1.049-2.274c0.787-1.135,1.66-0.612,2.623-1.617c0.529-0.553,0.262-1.792-1.051-2.84
					c-1.119-0.897-2.535-1.05-3.06-0.438c-0.522,0.612-0.217,4.022-2.185,2.623c0,0-1.18-1.486-1.836-2.317
					c-0.613-0.776-1.137-1.53-2.099-1.53L13.88,7.406z"/>
			</defs>
			<use xlink:href="#SVGID_1_"  overflow="visible" fill="#D6002B"/>
			<clipPath id="SVGID_2_">
				<use xlink:href="#SVGID_1_"  overflow="visible"/>
			</clipPath>
			<rect x="4.614" y="5.744" clip-path="url(#SVGID_2_)" fill="#D6002B" width="22.864" height="21.023"/>
		</g>
	</g>
</g>
</svg>
