<?xml version="1.0" encoding="utf-8"?>
<!-- Generator: Adobe Illustrator 15.0.2, SVG Export Plug-In . SVG Version: 6.00 Build 0)  -->
<!DOCTYPE svg PUBLIC "-//W3C//DTD SVG 1.1//EN" "http://www.w3.org/Graphics/SVG/1.1/DTD/svg11.dtd">
<svg version="1.1" id="Layer_1" xmlns="http://www.w3.org/2000/svg" xmlns:xlink="http://www.w3.org/1999/xlink" x="0px" y="0px"
	 width="32px" height="32px" viewBox="0 0 32 32" enable-background="new 0 0 32 32" xml:space="preserve">
<g>
	<rect x="-1" y="-1" fill="none" width="32" height="32"/>
	<g>
		<g>
			<g>
				<g>
					<path id="SVGID_1_" fill="#64788D" d="M11.5,0.5c0,0-0.5,0-0.854,0.354L6.354,5.146C6.354,5.146,6,5.5,6,6v17
						c0,0,0,0.5,0.5,0.5h17c0,0,0.5,0,0.5-0.5V1c0,0,0-0.5-0.5-0.5H11.5z"/>
				</g>
				<g>
					<defs>
						<path id="SVGID_2_" d="M11.5,0.5c0,0-0.5,0-0.854,0.354L6.354,5.146C6.354,5.146,6,5.5,6,6v17c0,0,0,0.5,0.5,0.5h17
							c0,0,0.5,0,0.5-0.5V1c0,0,0-0.5-0.5-0.5H11.5z"/>
					</defs>
					<clipPath id="SVGID_4_">
						<use xlink:href="#SVGID_2_"  overflow="visible"/>
					</clipPath>
					<rect x="6" y="0.5" clip-path="url(#SVGID_4_)" fill="#64788D" width="18" height="23"/>
				</g>
			</g>
		</g>
	</g>
	<polygon fill="#FFFFFF" points="22,21.5 22,2.5 13,2.5 13,7.5 8,7.5 8,21.5 12,21.5 12,23.5 18,23.5 18,21.5 	"/>
	<g>
		<g>
			<g>
				<g>
					<polygon id="SVGID_3_" fill="#D6002B" points="9.408,24.839 15,29.678 20.592,24.839 16.864,24.839 16.864,18.8 13.136,18.8 
						13.136,24.839 					"/>
				</g>
				<g>
					<defs>
						<polygon id="SVGID_5_" points="9.408,24.839 15,29.678 20.592,24.839 16.864,24.839 16.864,18.8 13.136,18.8 13.136,24.839 
													"/>
					</defs>
					<clipPath id="SVGID_6_">
						<use xlink:href="#SVGID_5_"  overflow="visible"/>
					</clipPath>
					<rect x="9.408" y="18.8" clip-path="url(#SVGID_6_)" fill="#D6002B" width="11.184" height="10.878"/>
				</g>
			</g>
		</g>
	</g>
</g>
</svg>
