<?xml version="1.0" encoding="utf-8"?>
<!-- Generator: Adobe Illustrator 15.0.2, SVG Export Plug-In . SVG Version: 6.00 Build 0)  -->
<!DOCTYPE svg PUBLIC "-//W3C//DTD SVG 1.1//EN" "http://www.w3.org/Graphics/SVG/1.1/DTD/svg11.dtd">
<svg version="1.1" id="Layer_1" xmlns="http://www.w3.org/2000/svg" xmlns:xlink="http://www.w3.org/1999/xlink" x="0px" y="0px"
	 width="32px" height="32px" viewBox="0 0 32 32" enable-background="new 0 0 32 32" xml:space="preserve">
<g>
	<rect fill="none" width="32" height="32"/>
	<g>
		<g>
			<g>
				<defs>
					<rect id="SVGID_1_" width="32" height="32"/>
				</defs>
				<clipPath id="SVGID_2_">
					<use xlink:href="#SVGID_1_"  overflow="visible"/>
				</clipPath>
			</g>
		</g>
	</g>
	<rect x="6" y="10" fill="#FFFFFF" width="20" height="14"/>
</g>
<g>
	<g>
		<g>
			<g>
				<defs>
					<path id="SVGID_3_" d="M14.75,3.891c-2.733,0-5,2.266-5,5c0,0.469,0.078,0.938,0.234,1.405c-2.344,0.547-4.142,2.5-4.142,4.845
						c0,2.734,2.423,5,5.47,5c1.25,0,2.344-0.391,3.203-1.016c1.172,0.625,2.656,1.016,4.218,1.016c4.062,0,7.422-2.578,7.422-5.781
						c0-2.267-1.719-4.297-4.219-5.234c0.391-0.469,0.703-1.094,0.703-1.797c0-1.406-1.25-2.656-2.734-2.656
						c-0.625,0-1.25,0.234-1.719,0.625C17.328,4.438,16.079,3.891,14.75,3.891z"/>
				</defs>
				<clipPath id="SVGID_4_">
					<use xlink:href="#SVGID_3_"  overflow="visible"/>
				</clipPath>
				<rect x="5.844" y="3.891" clip-path="url(#SVGID_4_)" fill="#64788D" width="20.312" height="16.328"/>
			</g>
		</g>
	</g>
	<g>
		<g>
			<g>
				<defs>
					<rect id="SVGID_5_" x="5.844" y="3.891" width="20.312" height="24.219"/>
				</defs>
				<clipPath id="SVGID_6_">
					<use xlink:href="#SVGID_5_"  overflow="visible"/>
				</clipPath>
				<path clip-path="url(#SVGID_6_)" fill="#D6002B" d="M18.578,28.109c-0.859-3.984-1.094-12.5-1.094-12.5h-2.891
					c0,0-0.234,8.516-1.094,12.5H18.578z"/>
			</g>
		</g>
	</g>
</g>
</svg>
