<?xml version="1.0" encoding="utf-8"?>
<!-- Generator: Adobe Illustrator 15.0.2, SVG Export Plug-In . SVG Version: 6.00 Build 0)  -->
<!DOCTYPE svg PUBLIC "-//W3C//DTD SVG 1.1//EN" "http://www.w3.org/Graphics/SVG/1.1/DTD/svg11.dtd">
<svg version="1.1" id="Layer_1" xmlns="http://www.w3.org/2000/svg" xmlns:xlink="http://www.w3.org/1999/xlink" x="0px" y="0px"
	 width="32px" height="32px" viewBox="0 0 32 32" enable-background="new 0 0 32 32" xml:space="preserve">
<g>
	<rect fill="none" width="32" height="32"/>
	<g>
		<g>
			<g>
				<g>
					<path id="SVGID_1_" fill="#64788D" d="M25,7v2.501C25,10.439,24.236,11,23.5,11h-3c-0.939,0-1.5-0.762-1.5-1.499V7h-6v2.501
						C13,10.439,12.237,11,11.5,11h-3C7.562,11,7,10.238,7,9.501V7H4c0,0-0.5,0-0.5,0.5v21c0,0,0,0.5,0.5,0.5h24c0,0,0.5,0,0.5-0.5
						v-21c0,0,0-0.5-0.5-0.5H25z"/>
				</g>
				<g>
					<defs>
						<path id="SVGID_2_" d="M25,7v2.501C25,10.439,24.236,11,23.5,11h-3c-0.939,0-1.5-0.762-1.5-1.499V7h-6v2.501
							C13,10.439,12.237,11,11.5,11h-3C7.562,11,7,10.238,7,9.501V7H4c0,0-0.5,0-0.5,0.5v21c0,0,0,0.5,0.5,0.5h24c0,0,0.5,0,0.5-0.5
							v-21c0,0,0-0.5-0.5-0.5H25z"/>
					</defs>
					<use xlink:href="#SVGID_2_"  overflow="visible" fill="#64788D"/>
					<clipPath id="SVGID_4_">
						<use xlink:href="#SVGID_2_"  overflow="visible"/>
					</clipPath>
					<rect x="3.5" y="7" clip-path="url(#SVGID_4_)" fill="#64788D" width="25" height="22"/>
				</g>
			</g>
		</g>
	</g>
	<rect x="6.75" y="15" fill="#D6002B" width="4.5" height="4"/>
	<rect x="13.75" y="15" fill="#FFFFFF" width="4.5" height="4"/>
	<rect x="20.75" y="15" fill="#FFFFFF" width="4.5" height="4"/>
	<rect x="6.75" y="21.5" fill="#FFFFFF" width="4.5" height="4"/>
	<rect x="13.75" y="21.5" fill="#FFFFFF" width="4.5" height="4"/>
	<rect x="20.75" y="21.5" fill="#FFFFFF" width="4.5" height="4"/>
	<g>
		<g>
			<g>
				<g>
					<path id="SVGID_3_" fill="#64788D" d="M8.5,4C8.5,4,8,4,8,4.5v5c0,0,0,0.5,0.5,0.5h3c0,0,0.5,0,0.5-0.5v-5c0,0,0-0.5-0.5-0.5
						H8.5z"/>
				</g>
				<g>
					<defs>
						<path id="SVGID_6_" d="M8.5,4C8.5,4,8,4,8,4.5v5c0,0,0,0.5,0.5,0.5h3c0,0,0.5,0,0.5-0.5v-5c0,0,0-0.5-0.5-0.5H8.5z"/>
					</defs>
					<clipPath id="SVGID_7_">
						<use xlink:href="#SVGID_6_"  overflow="visible"/>
					</clipPath>
					<rect x="8" y="4" clip-path="url(#SVGID_7_)" fill="#64788D" width="4" height="6"/>
				</g>
			</g>
		</g>
	</g>
	<g>
		<g>
			<g>
				<g>
					<path id="SVGID_5_" fill="#64788D" d="M20.5,4c0,0-0.5,0-0.5,0.5v5c0,0,0,0.5,0.5,0.5h3c0,0,0.5,0,0.5-0.5v-5
						c0,0,0-0.5-0.5-0.5H20.5z"/>
				</g>
				<g>
					<defs>
						<path id="SVGID_8_" d="M20.5,4c0,0-0.5,0-0.5,0.5v5c0,0,0,0.5,0.5,0.5h3c0,0,0.5,0,0.5-0.5v-5c0,0,0-0.5-0.5-0.5H20.5z"/>
					</defs>
					<clipPath id="SVGID_9_">
						<use xlink:href="#SVGID_8_"  overflow="visible"/>
					</clipPath>
					<rect x="20" y="4" clip-path="url(#SVGID_9_)" fill="#64788D" width="4" height="6"/>
				</g>
			</g>
		</g>
	</g>
</g>
</svg>
