<?xml version="1.0" encoding="utf-8"?>
<!-- Generator: Adobe Illustrator 15.0.2, SVG Export Plug-In . SVG Version: 6.00 Build 0)  -->
<!DOCTYPE svg PUBLIC "-//W3C//DTD SVG 1.1//EN" "http://www.w3.org/Graphics/SVG/1.1/DTD/svg11.dtd">
<svg version="1.1" id="Layer_1" xmlns="http://www.w3.org/2000/svg" xmlns:xlink="http://www.w3.org/1999/xlink" x="0px" y="0px"
	 width="32px" height="32px" viewBox="0 0 32 32" enable-background="new 0 0 32 32" xml:space="preserve">
<g>
	<rect fill="none" width="32" height="32"/>
	<g>
		<g>
			<g>
				<defs>
					<path id="SVGID_1_" d="M12.5,1.5c0,0-0.5,0-0.854,0.354L7.354,6.146C7.354,6.146,7,6.5,7,7v17c0,0,0,0.5,0.5,0.5h17
						c0,0,0.5,0,0.5-0.5V2c0,0,0-0.5-0.5-0.5H12.5z"/>
				</defs>
				<use xlink:href="#SVGID_1_"  overflow="visible" fill="#64788D"/>
				<clipPath id="SVGID_2_">
					<use xlink:href="#SVGID_1_"  overflow="visible"/>
				</clipPath>
				<rect x="7" y="1.5" clip-path="url(#SVGID_2_)" fill="#64788D" width="18" height="23"/>
			</g>
		</g>
	</g>
	<polygon fill="#FFFFFF" points="23,22.5 23,3.5 14,3.5 14,8.5 9,8.5 9,22.5 13,22.5 13,24.5 19,24.5 19,22.5 	"/>
	<g>
		<g>
			<g>
				<defs>
					<polygon id="SVGID_3_" points="10.408,25.839 16,30.678 21.592,25.839 17.864,25.839 17.864,19.8 14.136,19.8 14.136,25.839 
											"/>
				</defs>
				<use xlink:href="#SVGID_3_"  overflow="visible" fill="#D6002B"/>
				<clipPath id="SVGID_4_">
					<use xlink:href="#SVGID_3_"  overflow="visible"/>
				</clipPath>
				<rect x="10.408" y="19.8" clip-path="url(#SVGID_4_)" fill="#D6002B" width="11.184" height="10.878"/>
			</g>
		</g>
	</g>
</g>
</svg>
