<svg id="cat-pg" xmlns="http://www.w3.org/2000/svg" width="32" height="32" viewBox="0 0 32 32"><defs><style>.cls-1{fill:none;stroke-linejoin:round;stroke-width:1.45px;}.cls-1,.cls-2{stroke:#000;}.cls-2{stroke-miterlimit:10;stroke-width:0.7px;}</style></defs><polygon class="cls-1" points="13.5 11.7 13.5 7.6 16.3 9.7 19.1 11.7 16.3 13.8 13.5 15.8 13.5 11.7"/><path class="cls-1" d="M13.3,23.3H3.1a1.4,1.4,0,0,1-1.4-1.4V4.1A1.4,1.4,0,0,1,3.1,2.7h25a1.4,1.4,0,0,1,1.4,1.4V15.8"/><path class="cls-2" d="M29.1,20.6l-3-3.3a1.6,1.6,0,0,0-2.2,0,1.6,1.6,0,0,0-.4.7,1.5,1.5,0,0,0-2,.1,1.6,1.6,0,0,0-.4.7,1.5,1.5,0,0,0-2,.1,2.1,2.1,0,0,0-.4.6l-1.5-1.4A1.6,1.6,0,0,0,15,20.3l5.5,5.5-3.2.5a1.7,1.7,0,0,0-1.5,1.8A1.2,1.2,0,0,0,17,29.3h7.6A4.4,4.4,0,0,0,27.7,28L29,26.7a4.4,4.4,0,0,0,1.3-3.1A5.3,5.3,0,0,0,29.1,20.6Zm-4.6-1.1a.4.4,0,0,0,0-.6h0a.7.7,0,0,1,0-1,.7.7,0,0,1,1,0l3,3.3a3.6,3.6,0,0,1,.9,2.4,3.6,3.6,0,0,1-1.1,2.6L27,27.5a3.6,3.6,0,0,1-2.6,1.1H16.8a.4.4,0,0,1-.4-.4,1.1,1.1,0,0,1,.9-1l4-.6a.3.3,0,0,0,.3-.3.6.6,0,0,0-.1-.4l-6-6a.7.7,0,0,1,0-1l.5-.2.5.2,4,4a.4.4,0,0,0,.6,0,.5.5,0,0,0,0-.6l-1.6-1.6a.7.7,0,0,1,1-1l1.6,1.6a.4.4,0,0,0,.6,0,.5.5,0,0,0,0-.6l-.8-.8a.7.7,0,0,1,1-1l.8.8C23.7,19.8,24.3,19.7,24.5,19.5Z"/></svg>