<?xml version="1.0" encoding="utf-8"?>
<!-- Generator: Adobe Illustrator 15.0.2, SVG Export Plug-In . SVG Version: 6.00 Build 0)  -->
<!DOCTYPE svg PUBLIC "-//W3C//DTD SVG 1.1//EN" "http://www.w3.org/Graphics/SVG/1.1/DTD/svg11.dtd">
<svg version="1.1" id="Layer_1" xmlns="http://www.w3.org/2000/svg" xmlns:xlink="http://www.w3.org/1999/xlink" x="0px" y="0px"
	 width="32px" height="32px" viewBox="0 0 32 32" enable-background="new 0 0 32 32" xml:space="preserve">
<rect fill="#FFFFFF" width="32" height="32"/>
<path fill="#D6002B" d="M6.543,12.88c0,0-0.542,0-0.542,0.542v5.117c0,0,0,0.543,0.542,0.543h2.915c0,0,0.543,0,0.543-0.543v-5.117
	c0,0,0-0.542-0.543-0.542H6.543z"/>
<path fill="#D6002B" d="M11,13.067c0,0,0-0.325,0.273-0.502l5.454-3.534c0,0,0.273-0.177,0.273,0.149v13.602
	c0,0,0,0.325-0.273,0.149l-5.454-3.535c0,0-0.273-0.176-0.273-0.502V13.067z"/>
<path fill="#64788D" d="M19.75,22.277c-0.191,0-0.384-0.073-0.529-0.221c-0.294-0.293-0.294-0.769,0-1.062
	c0.059-0.062,1.549-1.636,1.549-4.997c0-3.362-1.49-4.935-1.554-5c-0.286-0.296-0.284-0.77,0.011-1.059
	c0.293-0.29,0.766-0.29,1.056,0.002c0.079,0.081,1.987,2.035,1.987,6.057c0,4.021-1.908,5.979-1.987,6.059
	C20.134,22.204,19.941,22.277,19.75,22.277z"/>
<path fill="#64788D" d="M22.333,24.962c-0.205,0-0.409-0.084-0.558-0.248c-0.276-0.308-0.252-0.782,0.056-1.06
	C21.855,23.633,24.5,21.146,24.5,16c0-5.146-2.645-7.632-2.672-7.657c-0.305-0.279-0.326-0.752-0.049-1.058
	c0.277-0.306,0.75-0.329,1.056-0.054C22.964,7.347,26,10.149,26,16c0,5.852-3.036,8.652-3.165,8.77
	C22.691,24.898,22.512,24.962,22.333,24.962z"/>
<g>
	<g>
		<g>
			<g>
				<path id="SVGID_1_" fill="#64788D" d="M2,7.999L7.999,2H30v22l-6,6H2V7.999z M0,0v10v22h22h10V22V0H0z"/>
			</g>
			<g>
				<defs>
					<path id="SVGID_2_" d="M2,7.999L7.999,2H30v22l-6,6H2V7.999z M0,0v10v22h22h10V22V0H0z"/>
				</defs>
				<use xlink:href="#SVGID_2_"  overflow="visible" fill="#64788D"/>
				<clipPath id="SVGID_3_">
					<use xlink:href="#SVGID_2_"  overflow="visible"/>
				</clipPath>
				<rect clip-path="url(#SVGID_3_)" fill="#64788D" width="32" height="32"/>
			</g>
		</g>
	</g>
</g>
</svg>
