<svg id="cat-pg" xmlns="http://www.w3.org/2000/svg" width="32" height="32" viewBox="0 0 32 32"><defs><style>.cls-1,.cls-2{fill:none;stroke:#000;stroke-linejoin:round;stroke-width:1.45px;}.cls-2{stroke-linecap:round;}</style></defs><path class="cls-1" d="M16,14.5h8.5m-2.5,3,3-3-3-3"/><polyline class="cls-1" points="19.3 20.5 28 20.5 28 4.5 6 4.5 6 6"/><ellipse class="cls-2" cx="9.8" cy="11.7" rx="3.7" ry="4.2"/><path class="cls-2" d="M12.7,17.5h0l-.7.4a5.4,5.4,0,0,1-2.2.4,5.4,5.4,0,0,1-2.2-.4h0l-.7-.4h0A4.5,4.5,0,0,0,4,21.3v6.2H15.7V21.3C15.7,19.7,14.5,18.3,12.7,17.5Z"/></svg>