<?xml version="1.0" encoding="utf-8"?>
<!-- Generator: Adobe Illustrator 15.0.2, SVG Export Plug-In . SVG Version: 6.00 Build 0)  -->
<!DOCTYPE svg PUBLIC "-//W3C//DTD SVG 1.1//EN" "http://www.w3.org/Graphics/SVG/1.1/DTD/svg11.dtd">
<svg version="1.1" id="Layer_1" xmlns="http://www.w3.org/2000/svg" xmlns:xlink="http://www.w3.org/1999/xlink" x="0px" y="0px"
	 width="15.625px" height="22.656px" viewBox="0 0 15.625 22.656" enable-background="new 0 0 15.625 22.656" xml:space="preserve">
<g>
	<g>
		<g>
			<polygon id="SVGID_1_" fill="#64788D" points="-0.052,21.067 -0.052,21.067 2.682,20.521 4.401,22.708 8.229,12.083 
				3.854,10.521 			"/>
		</g>
		<g>
			<g>
				<g>
					<defs>
						<polygon id="SVGID_2_" points="-0.052,21.067 -0.052,21.067 2.682,20.521 4.401,22.708 8.229,12.083 3.854,10.521 						"/>
					</defs>
					<clipPath id="SVGID_4_">
						<use xlink:href="#SVGID_2_"  overflow="visible"/>
					</clipPath>
					<polygon clip-path="url(#SVGID_4_)" fill="#64788D" points="0.963,7.864 12.135,11.927 7.292,25.286 -3.958,21.224 					"/>
				</g>
			</g>
		</g>
	</g>
</g>
<g>
	<g>
		<g>
			<polygon id="SVGID_3_" fill="#64788D" points="7.292,12.083 11.119,22.708 12.838,20.521 15.572,21.067 11.666,10.521 			"/>
		</g>
		<g>
			<g>
				<g>
					<defs>
						<polygon id="SVGID_6_" points="7.292,12.083 11.119,22.708 12.838,20.521 15.572,21.067 11.666,10.521 						"/>
					</defs>
					<clipPath id="SVGID_7_">
						<use xlink:href="#SVGID_6_"  overflow="visible"/>
					</clipPath>
					<polygon clip-path="url(#SVGID_7_)" fill="#64788D" points="14.557,7.864 3.385,11.927 8.229,25.286 19.479,21.224 					"/>
				</g>
			</g>
		</g>
	</g>
</g>
<g>
	<g>
		<g>
			<path id="SVGID_5_" fill="#D6002B" d="M8.385,0.052c-1.015,0-1.171,0.391-1.718,0.547C5.963,0.833,4.088,0.833,2.995,2.396
				c-0.781,1.094-2.031,1.172-2.5,3.047c-0.234,1.016-0.312,2.031,0,2.969c0.312,0.859,0.391,1.094,0.391,2.031s0,1.406,0.625,2.266
				c0.547,0.938,1.172,1.25,2.344,1.719c0.547,0.234,0.859,0.234,1.172,0.156c0.312,0,0.547-0.078,1.094,0.155
				c1.018,0.47,1.328,0.625,2.109,0.548c0.703-0.078,1.328-0.47,1.64-0.625c0.314-0.156,1.176-0.156,2.031-0.47
				c0.859-0.312,1.328-0.547,2.109-1.562s0.859-1.953,0.938-3.203c0.08-1.25-0.938-2.892-0.938-3.204
				c0-0.312,0.156-1.172,0.078-1.719s-0.312-1.094-0.859-1.797s-1.641-2.188-3.203-2.5C9.4,0.052,8.932,0.052,8.545,0.052H8.385z"/>
		</g>
		<g>
			<g>
				<g>
					<defs>
						<path id="SVGID_8_" d="M8.385,0.052c-1.015,0-1.171,0.391-1.718,0.547C5.963,0.833,4.088,0.833,2.995,2.396
							c-0.781,1.094-2.031,1.172-2.5,3.047c-0.234,1.016-0.312,2.031,0,2.969c0.312,0.859,0.391,1.094,0.391,2.031
							s0,1.406,0.625,2.266c0.547,0.938,1.172,1.25,2.344,1.719c0.547,0.234,0.859,0.234,1.172,0.156
							c0.312,0,0.547-0.078,1.094,0.155c1.018,0.47,1.328,0.625,2.109,0.548c0.703-0.078,1.328-0.47,1.64-0.625
							c0.314-0.156,1.176-0.156,2.031-0.47c0.859-0.312,1.328-0.547,2.109-1.562s0.859-1.953,0.938-3.203
							c0.08-1.25-0.938-2.892-0.938-3.204c0-0.312,0.156-1.172,0.078-1.719s-0.312-1.094-0.859-1.797s-1.641-2.188-3.203-2.5
							C9.4,0.052,8.932,0.052,8.545,0.052H8.385z"/>
					</defs>
					<clipPath id="SVGID_10_">
						<use xlink:href="#SVGID_8_"  overflow="visible"/>
					</clipPath>
					<polygon clip-path="url(#SVGID_10_)" fill="#D6002B" points="1.198,-3.62 18.775,1.068 14.01,19.036 -3.646,14.349 					"/>
				</g>
			</g>
		</g>
	</g>
</g>
<g>
	<g>
		<g>
			<g>
				<g>
					<defs>
						<rect id="SVGID_11_" x="-0.052" y="0.052" width="15.546" height="22.656"/>
					</defs>
					<clipPath id="SVGID_12_">
						<use xlink:href="#SVGID_11_"  overflow="visible"/>
					</clipPath>
					<path clip-path="url(#SVGID_12_)" fill="#FFFFFF" d="M7.76,12.942c2.812,0,5.156-2.347,5.156-5.156
						c0-2.812-2.344-5.156-5.156-5.156c-2.812,0-5.156,2.344-5.156,5.156C2.604,10.598,4.948,12.942,7.76,12.942"/>
				</g>
			</g>
		</g>
	</g>
</g>
<g>
	<g>
		<g>
			<path id="SVGID_9_" fill="#D6002B" d="M3.463,7.864c0,2.344,1.953,4.297,4.297,4.297c2.343,0,4.296-1.953,4.296-4.297
				c0-2.344-1.953-4.296-4.296-4.296C5.417,3.568,3.463,5.521,3.463,7.864"/>
		</g>
		<g>
			<g>
				<g>
					<path id="SVGID_13_" fill="#D6002B" d="M3.463,7.864c0,2.344,1.953,4.297,4.297,4.297c2.343,0,4.296-1.953,4.296-4.297
						c0-2.344-1.953-4.296-4.296-4.296C5.417,3.568,3.463,5.521,3.463,7.864"/>
				</g>
				<g>
					<defs>
						<path id="SVGID_14_" d="M3.463,7.864c0,2.344,1.953,4.297,4.297,4.297c2.343,0,4.296-1.953,4.296-4.297
							c0-2.344-1.953-4.296-4.296-4.296C5.417,3.568,3.463,5.521,3.463,7.864"/>
					</defs>
					<use xlink:href="#SVGID_14_"  overflow="visible" fill="#D6002B"/>
					<clipPath id="SVGID_15_">
						<use xlink:href="#SVGID_14_"  overflow="visible"/>
					</clipPath>
					<rect x="3.463" y="3.489" clip-path="url(#SVGID_15_)" fill="#D6002B" width="8.593" height="8.594"/>
				</g>
			</g>
		</g>
	</g>
</g>
</svg>
