<?xml version="1.0" encoding="utf-8"?>
<!-- Generator: Adobe Illustrator 15.0.2, SVG Export Plug-In . SVG Version: 6.00 Build 0)  -->
<!DOCTYPE svg PUBLIC "-//W3C//DTD SVG 1.1//EN" "http://www.w3.org/Graphics/SVG/1.1/DTD/svg11.dtd">
<svg version="1.1" id="Layer_1" xmlns="http://www.w3.org/2000/svg" xmlns:xlink="http://www.w3.org/1999/xlink" x="0px" y="0px"
	 width="32px" height="32px" viewBox="0 0 32 32" enable-background="new 0 0 32 32" xml:space="preserve">
<g>
	<rect fill="none" width="32" height="32"/>
	<path fill="none" stroke="#503227" stroke-width="2" stroke-linecap="round" stroke-linejoin="round" d="M12.5,17.75"/>
	<path fill="none" stroke="#503227" stroke-width="2" stroke-linecap="round" stroke-linejoin="round" d="M19.5,17.75"/>
	<g>
		<g>
			<g>
				<defs>
					<path id="SVGID_1_" d="M6,4v14h20v-6.275C25.529,11.892,25.029,12,24.5,12C22.016,12,20,9.985,20,7.5
						c0-1.423,0.673-2.676,1.704-3.5H6z"/>
				</defs>
				<use xlink:href="#SVGID_1_"  overflow="visible" fill="#64788D"/>
				<clipPath id="SVGID_2_">
					<use xlink:href="#SVGID_1_"  overflow="visible"/>
				</clipPath>
				<rect x="6" y="4" clip-path="url(#SVGID_2_)" fill="#64788D" width="20" height="14"/>
			</g>
		</g>
	</g>
	<path fill="none" stroke="#503227" stroke-width="2" stroke-linejoin="round" d="M22.25,23.162"/>
	<path fill="none" stroke="#503227" stroke-width="2" stroke-linejoin="round" d="M9.75,23.162"/>
	<path fill="none" stroke="#1A1A18" stroke-width="0.5" d="M26.527,8"/>
	<g>
		<g>
			<g>
				<defs>
					<path id="SVGID_3_" d="M21,7.5c0,1.933,1.566,3.5,3.5,3.5S28,9.433,28,7.5S26.434,4,24.5,4S21,5.567,21,7.5"/>
				</defs>
				<use xlink:href="#SVGID_3_"  overflow="visible" fill="#64788D"/>
				<clipPath id="SVGID_4_">
					<use xlink:href="#SVGID_3_"  overflow="visible"/>
				</clipPath>
				<rect x="21" y="4" clip-path="url(#SVGID_4_)" fill="#64788D" width="7" height="7"/>
			</g>
		</g>
	</g>
	<g>
		<g>
			<g>
				<defs>
					<rect id="SVGID_5_" width="32" height="32"/>
				</defs>
				<clipPath id="SVGID_6_">
					<use xlink:href="#SVGID_5_"  overflow="visible"/>
				</clipPath>
				<path clip-path="url(#SVGID_6_)" fill="#FFFFFF" d="M25.604,5.575c-0.802,0.802-1.603,0-1.603,0.802
					c0,0.802,1.603,0.802,1.603,2.405c0,0.801,1.604-0.802,1.604-1.603C27.207,6.377,26.171,5.008,25.604,5.575"/>
			</g>
		</g>
		<g>
			<g>
				<defs>
					<rect id="SVGID_7_" width="32" height="32"/>
				</defs>
				<clipPath id="SVGID_8_">
					<use xlink:href="#SVGID_7_"  overflow="visible"/>
				</clipPath>
				<path clip-path="url(#SVGID_8_)" fill="#FFFFFF" d="M23.416,7.454c0.057-0.733-1.08-0.684-1.422-0.291s0.336,1.254,0.504,1.881
					c0.135,0.503,0.168,0.627,0.627-0.168C23.385,8.425,23.352,8.295,23.416,7.454"/>
			</g>
		</g>
	</g>
</g>
<path fill="#D6002B" d="M26,15.999H6v2h5.284l-3.943,8.582c-0.23,0.502-0.011,1.096,0.491,1.326
	c0.135,0.062,0.277,0.092,0.417,0.092c0.378,0,0.741-0.216,0.909-0.582l1.496-3.256h10.692l1.495,3.256
	c0.168,0.366,0.531,0.582,0.909,0.582c0.141,0,0.282-0.028,0.417-0.092c0.502-0.23,0.722-0.824,0.491-1.326l-3.943-8.582H26V15.999z
	 M18.591,18.167l1.835,3.994h-8.853l1.835-3.994c0.025-0.054,0.025-0.112,0.04-0.168h5.104
	C18.566,18.055,18.566,18.111,18.591,18.167z"/>
</svg>
