<?xml version="1.0" encoding="utf-8"?>
<!-- Generator: Adobe Illustrator 15.0.2, SVG Export Plug-In . SVG Version: 6.00 Build 0)  -->
<!DOCTYPE svg PUBLIC "-//W3C//DTD SVG 1.1//EN" "http://www.w3.org/Graphics/SVG/1.1/DTD/svg11.dtd">
<svg version="1.1" id="Layer_1" xmlns="http://www.w3.org/2000/svg" xmlns:xlink="http://www.w3.org/1999/xlink" x="0px" y="0px"
	 width="32px" height="32px" viewBox="0 0 32 32" enable-background="new 0 0 32 32" xml:space="preserve">
<rect x="-1" y="-1" fill="none" width="32" height="32"/>
<g>
	<g>
		<g>
			<g>
				<path id="SVGID_1_" fill="#64788D" d="M7,15c0,4.418,3.582,8,8,8v-8h8c0-4.418-3.582-8-8-8S7,10.582,7,15"/>
			</g>
			<g>
				<defs>
					<path id="SVGID_2_" d="M7,15c0,4.418,3.582,8,8,8v-8h8c0-4.418-3.582-8-8-8S7,10.582,7,15"/>
				</defs>
				<clipPath id="SVGID_4_">
					<use xlink:href="#SVGID_2_"  overflow="visible"/>
				</clipPath>
				<rect x="7" y="7" clip-path="url(#SVGID_4_)" fill="#64788D" width="16" height="16"/>
			</g>
		</g>
	</g>
</g>
<g>
	<g>
		<g>
			<g>
				<path id="SVGID_3_" fill="#D6002B" d="M17,17v8c4.418,0,8-3.581,8-8H17z"/>
			</g>
			<g>
				<defs>
					<path id="SVGID_5_" d="M17,17v8c4.418,0,8-3.581,8-8H17z"/>
				</defs>
				<clipPath id="SVGID_6_">
					<use xlink:href="#SVGID_5_"  overflow="visible"/>
				</clipPath>
				<rect x="17" y="17" clip-path="url(#SVGID_6_)" fill="#D6002B" width="8" height="8"/>
			</g>
		</g>
	</g>
</g>
</svg>
