<svg id="cat-pg" xmlns="http://www.w3.org/2000/svg" width="32" height="32" viewBox="0 0 32 32"><defs><style>.cls-1,.cls-2{fill:none;stroke:#000;stroke-linejoin:round;stroke-width:1.45px;}.cls-1{stroke-linecap:square;}</style></defs><path class="cls-1" d="M4.4,10.1V6.5a11.8,11.8,0,0,0,7.5,0c5.2-1.7,8.1,0,8.1,0v3.6M4.4,13.7v3.6a10.6,10.6,0,0,0,3.6.6m12-4.2,0-2.5V10.1s-2.9-1.8-8.1,0a11.8,11.8,0,0,1-7.5,0v3.6a10.6,10.6,0,0,0,3.6.6"/><path class="cls-2" d="M22.4,25a11.4,11.4,0,0,0-2.8.7l-2.4.5V15.4l2.4-.5a11.4,11.4,0,0,1,2.8-.7V25m-5.2-9.6a13.3,13.3,0,0,1-5.2-.5V25.7a13.3,13.3,0,0,0,5.2.5Zm10.4-.5a7.8,7.8,0,0,0-5.2-.7V25a7.8,7.8,0,0,1,5.2.7Z"/></svg>