<svg id="cat-pg" xmlns="http://www.w3.org/2000/svg" width="32" height="32" viewBox="0 0 32 32"><defs><style>.cls-1,.cls-2,.cls-3{fill:none;stroke:#000;stroke-linejoin:round;stroke-width:1.45px;}.cls-1{stroke-linecap:round;}.cls-3{stroke-linecap:square;}</style></defs><ellipse class="cls-1" cx="16" cy="8.8" rx="2.9" ry="3.2"/><path class="cls-2" d="M14.6,23.9h6.9v-6a4,4,0,0,0-2.8-3.6h0l-.7.3a4.5,4.5,0,0,1-2,.4,4.6,4.6,0,0,1-2.1-.4h0l-.7-.3h0a4,4,0,0,0-2.7,3.6"/><ellipse class="cls-3" cx="25.4" cy="12.3" rx="1.9" ry="2.1"/><path class="cls-2" d="M25.1,22.4H29V18.5a2.6,2.6,0,0,0-1.8-2.4h0l-.5.2a3,3,0,0,1-2.6,0"/><ellipse class="cls-3" cx="6.6" cy="12.4" rx="1.9" ry="2.1"/><path class="cls-3" d="M3,19.7V18.5a2.6,2.6,0,0,1,1.8-2.4h0l.4.2a3.2,3.2,0,0,0,1.4.3,3.1,3.1,0,0,0,1.3-.3"/><path class="cls-3" d="M3.3,23.7h7.9M8.1,27.3l3.5-3.6L8.1,20.1"/></svg>