<svg id="cat-pg" xmlns="http://www.w3.org/2000/svg" width="32" height="32" viewBox="0 0 32 32"><defs><style>.cls-1{fill:none;stroke:#000;stroke-linejoin:round;stroke-width:1.45px;}</style></defs><path class="cls-1" d="M12.9,6.5a6.4,6.4,0,0,1,5.5,3,2.4,2.4,0,0,1,.5,1.4v4.3a9.1,9.1,0,0,1-2.5,5.5.7.7,0,0,0,.1,1.1c1.5,1.1,3.5,1.8,6.7,3.5a1.5,1.5,0,0,1,.9,1.4v2.1H12.9m0-22.3a6.7,6.7,0,0,0-5.5,3A2.3,2.3,0,0,0,7,10.9v4.3a9.1,9.1,0,0,0,2.5,5.5.8.8,0,0,1-.1,1.1c-1.5,1.1-3.5,1.8-6.7,3.5a1.5,1.5,0,0,0-.9,1.4v2.1H12.9"/><path class="cls-1" d="M19.1,3.2a6.7,6.7,0,0,1,5.5,3A2.3,2.3,0,0,1,25,7.6v4.3a9.1,9.1,0,0,1-2.5,5.5.8.8,0,0,0,.1,1.1c1.5,1,3.5,1.8,6.7,3.5a1.5,1.5,0,0,1,.9,1.4v2.1H27.4M19.1,3.2a7.8,7.8,0,0,0-2.9.6"/></svg>