<?xml version="1.0" encoding="utf-8"?>
<!-- Generator: Adobe Illustrator 15.0.2, SVG Export Plug-In . SVG Version: 6.00 Build 0)  -->
<!DOCTYPE svg PUBLIC "-//W3C//DTD SVG 1.1//EN" "http://www.w3.org/Graphics/SVG/1.1/DTD/svg11.dtd">
<svg version="1.1" id="Layer_1" xmlns="http://www.w3.org/2000/svg" xmlns:xlink="http://www.w3.org/1999/xlink" x="0px" y="0px"
	 width="31.3px" height="31.029px" viewBox="18.4 -3.529 31.3 31.029" enable-background="new 18.4 -3.529 31.3 31.029"
	 xml:space="preserve">
<g>
	<path fill="#64788D" d="M39.9,19c-0.301,0-0.7-0.1-0.9-0.4c-0.5-0.5-0.4-1.3,0.1-1.8c0.104-0.1,2.4-2.3,2.4-7.2
		c0-4.8-2.3-7.1-2.4-7.2c-0.5-0.5-0.5-1.3-0.1-1.8c0.5-0.5,1.2-0.5,1.8-0.1c0.101,0.1,3.2,3,3.2,9s-3.1,8.9-3.2,9
		C40.5,18.9,40.2,19,39.9,19z"/>
	<path fill="#64788D" d="M43.9,22.9c-0.4,0-0.7-0.104-1-0.4c-0.4-0.5-0.4-1.3,0.1-1.8c0.2-0.101,4-3.601,4-11c0-7.5-4-11-4-11
		c-0.4-0.4-0.5-1.2,0-1.8c0.4-0.5,1.2-0.6,1.8-0.1C45-3,49.7,1.1,49.7,9.7c0,8.6-4.7,12.7-4.9,12.899C44.5,22.8,44.2,22.9,43.9,22.9
		z"/>
	<path fill="#64788D" d="M28.1,19c-0.3,0-0.6-0.1-0.8-0.3c-0.1-0.101-3.2-3-3.2-9s3.1-8.9,3.2-9c0.5-0.5,1.3-0.4,1.8,0.1
		c0.4,0.5,0.4,1.3-0.1,1.7c-0.1,0.1-2.4,2.4-2.4,7.2c0,4.8,2.3,7.1,2.4,7.2c0.5,0.5,0.5,1.3,0.1,1.8C28.8,18.9,28.5,19,28.1,19z"/>
	<path fill="#64788D" d="M24.1,22.9c-0.3,0-0.6-0.104-0.8-0.301C23.1,22.4,18.4,18.3,18.4,9.7c0-8.6,4.7-12.7,4.9-12.9
		c0.5-0.4,1.3-0.4,1.7,0.1c0.5,0.6,0.4,1.3-0.1,1.8c-0.2,0.2-4,3.6-4,11c0,7.399,3.9,10.899,4,11c0.5,0.399,0.6,1.2,0.1,1.8
		C24.8,22.7,24.4,22.9,24.1,22.9z"/>
</g>
<path fill="#D6002B" d="M36.9,6.7c-1.604-1.6-4.2-1.6-5.8,0c-1.6,1.6-1.6,4.2,0,5.8c0.5,0.5,1.2,0.9,1.9,1.1
	c-0.9,6.2-1.8,13.9-1.8,13.9h5.6c0,0-0.899-7.7-1.8-13.9c0.7-0.199,1.3-0.5,1.9-1.1C38.5,10.9,38.5,8.3,36.9,6.7"/>
</svg>
