<svg id="cat-pg" xmlns="http://www.w3.org/2000/svg" width="32" height="32" viewBox="0 0 32 32"><defs><style>.cls-1{fill:none;stroke:#000;stroke-linejoin:round;stroke-width:1.45px;}</style></defs><path class="cls-1" d="M23.4,11.8v-5a3.6,3.6,0,0,0-.9-2.4h-.1a3.5,3.5,0,0,0-2.4-1H6.9a3.5,3.5,0,0,0-2.4,1H4.4a3.7,3.7,0,0,0-1,2.4v8.7A2.7,2.7,0,0,0,4,17.2H4a2.9,2.9,0,0,0,2.3,1.2h.1v5l4.2-5h2.3"/><line class="cls-1" x1="6.4" y1="6.9" x2="20.4" y2="6.9"/><line class="cls-1" x1="6.5" y1="9.9" x2="20.4" y2="9.9"/><line class="cls-1" x1="6.4" y1="12.9" x2="11.9" y2="12.9"/><path class="cls-1" d="M27.8,16.2h0a2.5,2.5,0,0,1,.8,1.8v4.1a2.5,2.5,0,0,1-.8,1.8h0a2.6,2.6,0,0,1-1.9.8h-.3l-3.2,3.9V24.7H19.2a2.6,2.6,0,0,1-1.9-.8h0a2.4,2.4,0,0,1-.7-1.8V18a2.4,2.4,0,0,1,.7-1.8h0a2.6,2.6,0,0,1,1.9-.8h6.7A2.6,2.6,0,0,1,27.8,16.2Z"/><line class="cls-1" x1="18.9" y1="18.8" x2="26.2" y2="18.8"/><line class="cls-1" x1="18.9" y1="21.4" x2="23.1" y2="21.4"/></svg>