<?xml version="1.0" encoding="utf-8"?>
<!-- Generator: Adobe Illustrator 15.0.2, SVG Export Plug-In . SVG Version: 6.00 Build 0)  -->
<!DOCTYPE svg PUBLIC "-//W3C//DTD SVG 1.1//EN" "http://www.w3.org/Graphics/SVG/1.1/DTD/svg11.dtd">
<svg version="1.1" id="Layer_1" xmlns="http://www.w3.org/2000/svg" xmlns:xlink="http://www.w3.org/1999/xlink" x="0px" y="0px"
	 width="32px" height="32px" viewBox="0 0 32 32" enable-background="new 0 0 32 32" xml:space="preserve">
<g>
	<g>
		<g>
			<path id="SVGID_1_" fill="#FD9AAE" d="M5.315,4.965c0,0-0.456,0-0.456,0.456v20.046c0,0,0,0.456,0.456,0.456h17.769
				c0,0,0.456,0,0.456-0.456V5.42c0,0,0-0.456-0.456-0.456L5.315,4.965L5.315,4.965z"/>
		</g>
		<g>
			<defs>
				<path id="SVGID_2_" d="M5.315,4.965c0,0-0.456,0-0.456,0.456v20.046c0,0,0,0.456,0.456,0.456h17.769c0,0,0.456,0,0.456-0.456
					V5.42c0,0,0-0.456-0.456-0.456L5.315,4.965L5.315,4.965z"/>
			</defs>
			<clipPath id="SVGID_4_">
				<use xlink:href="#SVGID_2_"  overflow="visible"/>
			</clipPath>
			<rect x="4.86" y="4.965" clip-path="url(#SVGID_4_)" fill="#FD9AAE" width="18.68" height="20.958"/>
		</g>
	</g>
</g>
<rect x="6.5" y="6.5" fill="#FFFFFF" width="15.5" height="3"/>
<rect x="6.5" y="12.5" fill="#FFFFFF" width="15.5" height="3"/>
<g>
	<g>
		<g>
			<path id="SVGID_3_" fill="#D6002B" d="M6.5,6.5H22v18H6.5V6.5z M4.6,4C4.6,4,4,4,4,4.5v21.9c0,0,0,0.5,0.6,0.5H24
				c0,0,0.6,0,0.6-0.5V4.5c0,0,0-0.5-0.6-0.5H4.6z"/>
		</g>
		<g>
			<defs>
				<path id="SVGID_6_" d="M6.5,6.5H22v18H6.5V6.5z M4.6,4C4.6,4,4,4,4,4.5v21.9c0,0,0,0.5,0.6,0.5H24c0,0,0.6,0,0.6-0.5V4.5
					c0,0,0-0.5-0.6-0.5H4.6z"/>
			</defs>
			<use xlink:href="#SVGID_6_"  overflow="visible" fill="#64788D"/>
			<clipPath id="SVGID_7_">
				<use xlink:href="#SVGID_6_"  overflow="visible"/>
			</clipPath>
			<rect x="4" y="4" clip-path="url(#SVGID_7_)" fill="#64788D" width="20.5" height="23"/>
		</g>
	</g>
</g>
<rect x="6.5" y="18.5" fill="#FFFFFF" width="15.5" height="3"/>
<g>
	<g>
		<g>
			<path id="SVGID_5_" fill="#D6002B" d="M14,23c0,3.9,3.1,7,7,7s7-3.1,7-7s-3.1-7-7-7S14,19.1,14,23"/>
		</g>
		<g>
			<defs>
				<path id="SVGID_8_" d="M14,23c0,3.9,3.1,7,7,7s7-3.1,7-7s-3.1-7-7-7S14,19.1,14,23"/>
			</defs>
			<clipPath id="SVGID_9_">
				<use xlink:href="#SVGID_8_"  overflow="visible"/>
			</clipPath>
			<rect x="14" y="16" clip-path="url(#SVGID_9_)" fill="#D6002B" width="14" height="14"/>
		</g>
	</g>
</g>
<polyline fill="none" stroke="#FFFFFF" stroke-linecap="round" stroke-linejoin="round" points="21,19 21,23 25,25 "/>
</svg>
