<?xml version="1.0" encoding="utf-8"?>
<!-- Generator: Adobe Illustrator 15.0.2, SVG Export Plug-In . SVG Version: 6.00 Build 0)  -->
<!DOCTYPE svg PUBLIC "-//W3C//DTD SVG 1.1//EN" "http://www.w3.org/Graphics/SVG/1.1/DTD/svg11.dtd">
<svg version="1.1" id="Layer_1" xmlns="http://www.w3.org/2000/svg" xmlns:xlink="http://www.w3.org/1999/xlink" x="0px" y="0px"
	 width="32px" height="32px" viewBox="0 0 32 32" enable-background="new 0 0 32 32" xml:space="preserve">
<rect fill="none" width="32" height="32"/>
<g>
	<g>
		<g>
			<g>
				<path id="SVGID_1_" fill="#64788D" d="M4.5,8c0,0-0.499,0-0.499,0.5v15c0,0,0,0.5,0.499,0.5h5.001c0,0,0.499,0,0.499-0.5v-15
					c0,0,0-0.5-0.499-0.5H4.5z"/>
			</g>
			<g>
				<defs>
					<path id="SVGID_2_" d="M4.5,8c0,0-0.499,0-0.499,0.5v15c0,0,0,0.5,0.499,0.5h5.001c0,0,0.499,0,0.499-0.5v-15
						c0,0,0-0.5-0.499-0.5H4.5z"/>
				</defs>
				<use xlink:href="#SVGID_2_"  overflow="visible" fill="#64788D"/>
				<clipPath id="SVGID_4_">
					<use xlink:href="#SVGID_2_"  overflow="visible"/>
				</clipPath>
				<rect x="4.001" y="8" clip-path="url(#SVGID_4_)" fill="#64788D" width="5.999" height="16"/>
			</g>
		</g>
	</g>
</g>
<g>
	<g>
		<g>
			<g>
				<path id="SVGID_3_" fill="#64788D" d="M12.5,8c0,0-0.499,0-0.499,0.5v15c0,0,0,0.5,0.499,0.5h5.001c0,0,0.499,0,0.499-0.5v-15
					c0,0,0-0.5-0.499-0.5H12.5z"/>
			</g>
			<g>
				<defs>
					<path id="SVGID_6_" d="M12.5,8c0,0-0.499,0-0.499,0.5v15c0,0,0,0.5,0.499,0.5h5.001c0,0,0.499,0,0.499-0.5v-15
						c0,0,0-0.5-0.499-0.5H12.5z"/>
				</defs>
				<use xlink:href="#SVGID_6_"  overflow="visible" fill="#64788D"/>
				<clipPath id="SVGID_7_">
					<use xlink:href="#SVGID_6_"  overflow="visible"/>
				</clipPath>
				<rect x="12.001" y="8" clip-path="url(#SVGID_7_)" fill="#64788D" width="5.999" height="16"/>
			</g>
		</g>
	</g>
</g>
<rect x="5.5" y="10" fill="#FFFFFF" width="3.001" height="1"/>
<rect x="5.5" y="12" fill="#FFFFFF" width="3.001" height="1"/>
<rect x="13.5" y="10" fill="#FFFFFF" width="3.001" height="1"/>
<rect x="13.5" y="12" fill="#FFFFFF" width="3.001" height="1"/>
<g>
	<g>
		<g>
			<g>
				<path id="SVGID_5_" fill="#D6002B" d="M24.73,7.329l-4.924,0.869c0,0-0.494,0.086-0.406,0.579l2.604,14.772
					c0,0,0.087,0.493,0.579,0.406l4.924-0.868c0,0,0.493-0.087,0.406-0.58L25.309,7.735c0,0-0.072-0.416-0.467-0.416
					C24.807,7.319,24.77,7.322,24.73,7.329"/>
			</g>
			<g>
				<defs>
					<path id="SVGID_8_" d="M24.73,7.329l-4.924,0.869c0,0-0.494,0.086-0.406,0.579l2.604,14.772c0,0,0.087,0.493,0.579,0.406
						l4.924-0.868c0,0,0.493-0.087,0.406-0.58L25.309,7.735c0,0-0.072-0.416-0.467-0.416C24.807,7.319,24.77,7.322,24.73,7.329"/>
				</defs>
				<clipPath id="SVGID_9_">
					<use xlink:href="#SVGID_8_"  overflow="visible"/>
				</clipPath>
				<polygon clip-path="url(#SVGID_9_)" fill="#D6002B" points="16.454,7.824 27.739,5.834 30.861,23.538 19.575,25.527 				"/>
			</g>
		</g>
	</g>
</g>
<rect x="22.203" y="8.737" transform="matrix(0.174 0.9847 -0.9847 0.174 28.8329 -13.9003)" fill="#FFFFFF" width="0.999" height="2.999"/>
<rect x="22.549" y="10.708" transform="matrix(0.174 0.9847 -0.9847 0.174 31.0604 -12.6135)" fill="#FFFFFF" width="0.999" height="2.999"/>
</svg>
