<?xml version="1.0" encoding="utf-8"?>
<!-- Generator: Adobe Illustrator 15.0.2, SVG Export Plug-In . SVG Version: 6.00 Build 0)  -->
<!DOCTYPE svg PUBLIC "-//W3C//DTD SVG 1.1//EN" "http://www.w3.org/Graphics/SVG/1.1/DTD/svg11.dtd">
<svg version="1.1" id="Layer_1" xmlns="http://www.w3.org/2000/svg" xmlns:xlink="http://www.w3.org/1999/xlink" x="0px" y="0px"
	 width="32px" height="32px" viewBox="0 0 32 32" enable-background="new 0 0 32 32" xml:space="preserve">
<g>
	<g>
		<defs>
			<path id="SVGID_1_" d="M12.5,1.5c0,0-0.5,0-0.9,0.4L7.4,6.1C7.4,6.1,7,6.5,7,7v17c0,0,0,0.5,0.5,0.5h17c0,0,0.5,0,0.5-0.5V13.4
				c-0.2,0-0.3,0.1-0.5,0.1c-3.3,0-6-2.7-6-6s2.7-6,6-6H12.5z"/>
		</defs>
		<use xlink:href="#SVGID_1_"  overflow="visible" fill="#64788D"/>
		<clipPath id="SVGID_2_">
			<use xlink:href="#SVGID_1_"  overflow="visible"/>
		</clipPath>
		<rect x="7" y="1.5" clip-path="url(#SVGID_2_)" fill="#64788D" width="18" height="23"/>
	</g>
</g>
<polygon fill="#FFFFFF" points="23,22.5 23,3.5 14,3.5 14,8.5 9,8.5 9,22.5 13,22.5 13,24.5 19,24.5 19,22.5 "/>
<g>
	<g>
		<defs>
			<polygon id="SVGID_3_" points="14.1,19.8 14.1,25.8 10.4,25.8 16,30.7 21.6,25.8 17.9,25.8 17.9,19.8 			"/>
		</defs>
		<use xlink:href="#SVGID_3_"  overflow="visible" fill="#D6002B"/>
		<clipPath id="SVGID_4_">
			<use xlink:href="#SVGID_3_"  overflow="visible"/>
		</clipPath>
		<rect x="10.4" y="19.8" clip-path="url(#SVGID_4_)" fill="#D6002B" width="11.2" height="10.9"/>
	</g>
</g>
<g>
	<g>
		<defs>
			<path id="SVGID_5_" d="M19.5,7.5c0,2.8,2.2,5,5,5s5-2.2,5-5s-2.2-5-5-5S19.5,4.7,19.5,7.5"/>
		</defs>
		<use xlink:href="#SVGID_5_"  overflow="visible" fill="#64788D"/>
		<clipPath id="SVGID_6_">
			<use xlink:href="#SVGID_5_"  overflow="visible"/>
		</clipPath>
		<rect x="19.5" y="2.5" clip-path="url(#SVGID_6_)" fill="#64788D" width="10" height="10"/>
	</g>
</g>
<g>
	<g>
		<defs>
			<rect id="SVGID_7_" x="7" y="1.5" width="22.5" height="29.2"/>
		</defs>
		<clipPath id="SVGID_8_">
			<use xlink:href="#SVGID_7_"  overflow="visible"/>
		</clipPath>
		<path clip-path="url(#SVGID_8_)" fill="#FFFFFF" d="M26,4.9c-1.1,1.1-2.1,0-2.1,1.1S26,7.1,26,9.2c0,1.1,2.1-1.1,2.1-2.1
			S26.7,4.2,26,4.9"/>
	</g>
	<g>
		<defs>
			<rect id="SVGID_9_" x="7" y="1.5" width="22.5" height="29.2"/>
		</defs>
		<clipPath id="SVGID_10_">
			<use xlink:href="#SVGID_9_"  overflow="visible"/>
		</clipPath>
		<path clip-path="url(#SVGID_10_)" fill="#FFFFFF" d="M23.1,7.4C23.2,6.4,21.7,6.5,21.2,7s0.399,1.7,0.7,2.5
			c0.199,0.7,0.199,0.8,0.8-0.2C23,8.7,23,8.6,23.1,7.4"/>
	</g>
</g>
</svg>
