<?xml version="1.0" encoding="utf-8"?>
<!-- Generator: Adobe Illustrator 15.0.2, SVG Export Plug-In . SVG Version: 6.00 Build 0)  -->
<!DOCTYPE svg PUBLIC "-//W3C//DTD SVG 1.1//EN" "http://www.w3.org/Graphics/SVG/1.1/DTD/svg11.dtd">
<svg version="1.1" id="Layer_1" xmlns="http://www.w3.org/2000/svg" xmlns:xlink="http://www.w3.org/1999/xlink" x="0px" y="0px"
	 width="32px" height="32px" viewBox="0 0 32 32" enable-background="new 0 0 32 32" xml:space="preserve">
<g>
	<rect fill="none" width="32" height="32"/>
	<path fill="#64788D" d="M25,8.001V4.5c0,0,0-0.499-0.5-0.499h-17c0,0-0.5,0-0.5,0.499v5c0,0,0.001,0.008,0.001,0.009v18.493h13V28
		L25,23.001h0.001L25,8.001L25,8.001z M19.001,22.001v5h-11V10h16v12.001H19.001z"/>
	<polygon fill="#FFFFFF" points="19.001,22.001 19.001,27.001 8.001,27.001 8.001,10 24.001,10 24.001,22.001 	"/>
	<g>
		<g>
			<g>
				<g>
					<path id="SVGID_1_" fill="#D6002B" d="M13.245,13.001l-0.092,4.778c0.67-0.195,1.292-0.293,1.865-0.293
						c0.282,0,0.551,0.023,0.807,0.074c0.256,0.049,0.478,0.129,0.668,0.246c0.188,0.113,0.342,0.267,0.457,0.457
						c0.114,0.189,0.172,0.432,0.172,0.723c0,0.311-0.058,0.568-0.173,0.777s-0.268,0.372-0.458,0.496s-0.413,0.217-0.67,0.272
						c-0.257,0.058-0.531,0.087-0.823,0.087c-0.337,0-0.677-0.029-1.022-0.087c-0.346-0.058-0.673-0.148-0.983-0.272l-0.079,1.395
						c0.372,0.125,0.765,0.213,1.181,0.266c0.416,0.053,0.823,0.081,1.221,0.081c0.46,0,0.916-0.063,1.368-0.187
						c0.452-0.123,0.856-0.311,1.213-0.559c0.356-0.247,0.646-0.562,0.862-0.941c0.218-0.381,0.327-0.832,0.327-1.354
						c0-0.487-0.086-0.897-0.259-1.235c-0.173-0.334-0.402-0.606-0.69-0.814c-0.287-0.208-0.621-0.354-1.002-0.444
						c-0.381-0.089-0.779-0.133-1.195-0.133c-0.168,0-0.345,0.007-0.531,0.02c-0.186,0.014-0.367,0.042-0.544,0.087l0.093-2.125
						h3.703v-1.313L13.245,13.001L13.245,13.001z"/>
				</g>
				<g>
					<defs>
						<path id="SVGID_2_" d="M13.245,13.001l-0.092,4.778c0.67-0.195,1.292-0.293,1.865-0.293c0.282,0,0.551,0.023,0.807,0.074
							c0.256,0.049,0.478,0.129,0.668,0.246c0.188,0.113,0.342,0.267,0.457,0.457c0.114,0.189,0.172,0.432,0.172,0.723
							c0,0.311-0.058,0.568-0.173,0.777s-0.268,0.372-0.458,0.496s-0.413,0.217-0.67,0.272c-0.257,0.058-0.531,0.087-0.823,0.087
							c-0.337,0-0.677-0.029-1.022-0.087c-0.346-0.058-0.673-0.148-0.983-0.272l-0.079,1.395c0.372,0.125,0.765,0.213,1.181,0.266
							c0.416,0.053,0.823,0.081,1.221,0.081c0.46,0,0.916-0.063,1.368-0.187c0.452-0.123,0.856-0.311,1.213-0.559
							c0.356-0.247,0.646-0.562,0.862-0.941c0.218-0.381,0.327-0.832,0.327-1.354c0-0.487-0.086-0.897-0.259-1.235
							c-0.173-0.334-0.402-0.606-0.69-0.814c-0.287-0.208-0.621-0.354-1.002-0.444c-0.381-0.089-0.779-0.133-1.195-0.133
							c-0.168,0-0.345,0.007-0.531,0.02c-0.186,0.014-0.367,0.042-0.544,0.087l0.093-2.125h3.703v-1.313L13.245,13.001
							L13.245,13.001z"/>
					</defs>
					<use xlink:href="#SVGID_2_"  overflow="visible" fill="#D6002B"/>
					<clipPath id="SVGID_3_">
						<use xlink:href="#SVGID_2_"  overflow="visible"/>
					</clipPath>
					<rect x="12.914" y="13.001" clip-path="url(#SVGID_3_)" fill="#D6002B" width="6.172" height="9"/>
				</g>
			</g>
		</g>
	</g>
</g>
</svg>
