<svg id="cat-pg" xmlns="http://www.w3.org/2000/svg" width="32" height="32" viewBox="0 0 32 32">
  <defs>
    <style>
      .cls-1 {
        fill: none;
        stroke: #000;
        stroke-miterlimit: 10;
        stroke-width: 1.45px;
      }
    </style>
  </defs>
  <g>
    <path class="cls-1" d="M9.89,19.19a5.44,5.44,0,0,1-1.79-4V10.07a5.46,5.46,0,0,1,5.45-5.45h.38a5.46,5.46,0,0,1,5.45,5.45v5.09a5.45,5.45,0,0,1-4,5.25"/>
    <path class="cls-1" d="M22.12,12.82a5.44,5.44,0,0,1,1.78,4v5.09a5.46,5.46,0,0,1-5.45,5.45h-.38a5.46,5.46,0,0,1-5.45-5.45V16.84a5.46,5.46,0,0,1,4-5.25"/>
  </g>
</svg>
