<?xml version="1.0" encoding="utf-8"?>
<!-- Generator: Adobe Illustrator 15.0.2, SVG Export Plug-In . SVG Version: 6.00 Build 0)  -->
<!DOCTYPE svg PUBLIC "-//W3C//DTD SVG 1.1//EN" "http://www.w3.org/Graphics/SVG/1.1/DTD/svg11.dtd">
<svg version="1.1" id="Layer_1" xmlns="http://www.w3.org/2000/svg" xmlns:xlink="http://www.w3.org/1999/xlink" x="0px" y="0px"
	 width="24px" height="24px" viewBox="0 0 24 24" enable-background="new 0 0 24 24" xml:space="preserve">
<g>
	<g>
		<defs>
			<rect id="SVGID_1_" x="4.125" y="4.125" width="15.75" height="15.75"/>
		</defs>
		<use xlink:href="#SVGID_1_"  overflow="visible" fill="#64788D"/>
		<clipPath id="SVGID_2_">
			<use xlink:href="#SVGID_1_"  overflow="visible"/>
		</clipPath>
		<rect x="4.125" y="4.125" clip-path="url(#SVGID_2_)" fill="#64788D" width="15.75" height="15.75"/>
	</g>
</g>
<g>
	<g>
		<defs>
			<rect id="SVGID_3_" x="6" y="6" width="3" height="3"/>
		</defs>
		<use xlink:href="#SVGID_3_"  overflow="visible" fill="#FD9AAE"/>
		<clipPath id="SVGID_4_">
			<use xlink:href="#SVGID_3_"  overflow="visible"/>
		</clipPath>
		<rect x="6" y="6" clip-path="url(#SVGID_4_)" fill="#FD9AAE" width="3" height="3"/>
	</g>
</g>
<g>
	<g>
		<defs>
			<rect id="SVGID_5_" x="6" y="10.5" width="3" height="3"/>
		</defs>
		<use xlink:href="#SVGID_5_"  overflow="visible" fill="#FD9AAE"/>
		<clipPath id="SVGID_6_">
			<use xlink:href="#SVGID_5_"  overflow="visible"/>
		</clipPath>
		<rect x="6" y="10.5" clip-path="url(#SVGID_6_)" fill="#FD9AAE" width="3" height="3"/>
	</g>
</g>
<g>
	<g>
		<defs>
			<rect id="SVGID_7_" x="6" y="15" width="3" height="3"/>
		</defs>
		<clipPath id="SVGID_8_">
			<use xlink:href="#SVGID_7_"  overflow="visible"/>
		</clipPath>
		<rect x="6" y="15" clip-path="url(#SVGID_8_)" fill="#FD9AAE" width="3" height="3"/>
	</g>
</g>
<polygon fill="#FFFFFF" points="18.375,9 18.375,6 15.75,6 14.625,6 10.125,6 10.125,9 14.625,9 15.75,9 "/>
<polygon fill="#FFFFFF" points="18.375,13.5 18.375,10.5 15,10.5 14.625,10.5 10.125,10.5 10.125,13.5 14.625,13.5 15,13.5 "/>
<polygon fill="#FFFFFF" points="18.375,18 18.375,15 15.75,15 14.625,15 10.125,15 10.125,18 14.625,18 15.75,18 "/>
</svg>
