<?xml version="1.0" encoding="utf-8"?>
<!-- Generator: Adobe Illustrator 26.0.3, SVG Export Plug-In . SVG Version: 6.00 Build 0)  -->
<svg version="1.1" xmlns="http://www.w3.org/2000/svg" xmlns:xlink="http://www.w3.org/1999/xlink" x="0px" y="0px" width="32px"
	 height="32px" viewBox="0 0 32 32" style="enable-background:new 0 0 32 32;" xml:space="preserve">
<style type="text/css">
	.st0{fill:none;stroke:#000000;stroke-width:1.45;stroke-linejoin:round;stroke-miterlimit:10;}
	.st1{fill:none;stroke:#000000;stroke-width:1.45;stroke-linecap:square;stroke-linejoin:round;stroke-miterlimit:10;}
	.st2{fill:none;stroke:#000000;stroke-width:1.45;stroke-linecap:round;stroke-linejoin:round;stroke-miterlimit:10;}
	.st3{fill:none;stroke:#000000;stroke-width:1.45;stroke-miterlimit:10;}
	.st4{fill:none;stroke:#000000;stroke-width:1.45;stroke-linecap:round;stroke-miterlimit:10;}
	.st5{fill:none;stroke:#000000;stroke-width:1.45;stroke-linecap:square;stroke-linejoin:round;}
	.st6{fill:none;stroke:#000000;stroke-width:1.4;stroke-linejoin:round;stroke-miterlimit:10;}
	.st7{stroke:#000000;stroke-width:1.45;stroke-linejoin:round;stroke-miterlimit:10;}
	.st8{display:none;fill:none;stroke:#000000;stroke-width:1.45;stroke-linejoin:round;stroke-miterlimit:10;}
	.st9{fill:none;stroke:#000000;stroke-width:1.45;stroke-linejoin:round;}
	.st10{fill:#E0002D;stroke:#E0002D;stroke-width:1.45;stroke-linejoin:round;stroke-miterlimit:10;}
	.st11{fill:#227C7C;stroke:#227C7C;stroke-width:1.45;stroke-linejoin:round;stroke-miterlimit:10;}
	.st12{fill:none;stroke:#000000;stroke-width:1.45;stroke-linecap:square;stroke-miterlimit:10;}
	.st13{stroke:#000000;stroke-width:1.45;stroke-miterlimit:10;}
	.st14{fill:none;stroke:#000000;stroke-linejoin:round;stroke-miterlimit:10;}
	.st15{fill:#FFFFFF;}
	.st16{fill:#E6002E;}
	.st17{fill:none;}
	.st18{opacity:0.4;fill:#6EA03C;}
	.st19{fill:none;stroke:#000000;stroke-width:1.45;stroke-linejoin:round;stroke-dasharray:3.8466,3.8466;}
	.st20{fill:none;stroke:#000000;stroke-width:3;stroke-linejoin:round;stroke-miterlimit:10;}
	.st21{opacity:0.4;fill:none;stroke:#000000;stroke-width:1.45;stroke-linejoin:round;stroke-miterlimit:10;}
	.st22{fill:none;stroke:#707070;stroke-width:2;stroke-linejoin:round;stroke-miterlimit:10;}
	.st23{fill:#333333;}
	.st24{fill:#D6002B;}
	.st25{stroke:#000000;stroke-width:0.7;stroke-miterlimit:10;}
	.st26{fill:none;stroke:#000000;stroke-width:2;stroke-linejoin:round;stroke-miterlimit:10;}
	.st27{fill:none;stroke:#383838;stroke-width:1.45;stroke-linejoin:round;stroke-miterlimit:10;}
	.st28{fill:none;stroke:#1E1E1E;stroke-width:2;stroke-linejoin:round;stroke-miterlimit:10;}
	.st29{fill:none;stroke:#FFFFFF;stroke-width:2;stroke-linejoin:round;stroke-miterlimit:10;}
	.st30{fill:#757575;stroke:#757575;stroke-width:1.45;stroke-linejoin:round;stroke-miterlimit:10;}
	.st31{fill:none;stroke:#FFFFFF;stroke-width:1.45;stroke-linejoin:round;stroke-miterlimit:10;}
</style>
<g id="cat-pg">
	<g>
		<g>
			<polygon class="st16" points="16,2.7 21.4,10 30,12.9 24.8,20.2 24.7,29.3 16,26.6 7.3,29.3 7.2,20.2 2,12.9 10.6,10 			"/>
			<path class="st16" d="M24.7,30c-0.1,0-0.1,0-0.2,0L16,27.4L7.5,30c-0.2,0.1-0.5,0-0.6-0.1c-0.2-0.1-0.3-0.3-0.3-0.6l-0.1-8.9
				l-5.1-7.1c-0.1-0.2-0.2-0.4-0.1-0.6c0.1-0.2,0.2-0.4,0.5-0.5l8.4-2.8l5.3-7.1C15.6,2.1,15.8,2,16,2l0,0c0.2,0,0.4,0.1,0.6,0.3
				l5.3,7.1l8.4,2.8c0.2,0.1,0.4,0.2,0.5,0.5c0.1,0.2,0,0.5-0.1,0.6l-5.1,7.1l-0.1,8.9c0,0.2-0.1,0.4-0.3,0.6C25,30,24.9,30,24.7,30
				z M3.2,13.3l4.6,6.5c0.1,0.1,0.1,0.3,0.1,0.4L8,28.3l7.8-2.4c0.1,0,0.3,0,0.4,0l7.8,2.4l0.1-8.1c0-0.1,0-0.3,0.1-0.4l4.6-6.5
				l-7.7-2.6c-0.1,0-0.3-0.1-0.4-0.3L16,3.9l-4.8,6.5c-0.1,0.1-0.2,0.2-0.4,0.3L3.2,13.3z"/>
		</g>
	</g>
</g>
<g id="Guidelines">
</g>
</svg>
