<?xml version="1.0" encoding="utf-8"?>
<!-- Generator: Adobe Illustrator 15.0.2, SVG Export Plug-In . SVG Version: 6.00 Build 0)  -->
<!DOCTYPE svg PUBLIC "-//W3C//DTD SVG 1.1//EN" "http://www.w3.org/Graphics/SVG/1.1/DTD/svg11.dtd">
<svg version="1.1" id="Layer_1" xmlns="http://www.w3.org/2000/svg" xmlns:xlink="http://www.w3.org/1999/xlink" x="0px" y="0px"
	 width="320px" height="240px" viewBox="0 0 320 240" enable-background="new 0 0 320 240" xml:space="preserve">
<g>
	<g>
		<defs>
			<rect id="SVGID_1_" width="320" height="240"/>
		</defs>
		<clipPath id="SVGID_2_">
			<use xlink:href="#SVGID_1_"  overflow="visible"/>
		</clipPath>
		<g clip-path="url(#SVGID_2_)">
			<g>
				<defs>
					<rect id="SVGID_3_" width="320" height="240"/>
				</defs>
				<clipPath id="SVGID_4_">
					<use xlink:href="#SVGID_3_"  overflow="visible"/>
				</clipPath>
				<g clip-path="url(#SVGID_4_)">
					<g opacity="0.7">
						<g>
							<defs>
								<rect id="SVGID_5_" x="-9" y="-7" width="338" height="248"/>
							</defs>
							<clipPath id="SVGID_6_">
								<use xlink:href="#SVGID_5_"  overflow="visible"/>
							</clipPath>
							<rect clip-path="url(#SVGID_6_)" fill="#8B8B8B" width="320" height="240"/>
						</g>
					</g>
				</g>
			</g>
			<g>
				<defs>
					<rect id="SVGID_7_" width="320" height="240"/>
				</defs>
				<clipPath id="SVGID_8_">
					<use xlink:href="#SVGID_7_"  overflow="visible"/>
				</clipPath>
				<g clip-path="url(#SVGID_8_)">
					<g>
						<defs>
							<path id="SVGID_9_" d="M42,42h153v95H42V42z M27.2,23.5c0,0-3.7,0-3.7,3.7v124.5c0,0,0,3.7,3.7,3.7h76.3V167H86.8v12.7h63.3
								V167h-16.7v-11.6h76.3c0,0,3.7,0,3.7-3.7V27.2c0,0,0-3.7-3.7-3.7H27.2z"/>
						</defs>
						<clipPath id="SVGID_10_">
							<use xlink:href="#SVGID_9_"  overflow="visible"/>
						</clipPath>
						
							<linearGradient id="SVGID_11_" gradientUnits="userSpaceOnUse" x1="127.8657" y1="-107.9824" x2="128.8657" y2="-107.9824" gradientTransform="matrix(190 0 0 190 -24271 20618.25)">
							<stop  offset="0" style="stop-color:#505050"/>
							<stop  offset="0.0073" style="stop-color:#505050"/>
							<stop  offset="0.3484" style="stop-color:#6A6A6A"/>
							<stop  offset="0.7462" style="stop-color:#828282"/>
							<stop  offset="0.9912" style="stop-color:#8B8B8B"/>
							<stop  offset="1" style="stop-color:#8B8B8B"/>
						</linearGradient>
						<rect x="23.5" y="23.5" clip-path="url(#SVGID_10_)" fill="url(#SVGID_11_)" width="190" height="156.2"/>
					</g>
					<g>
						<defs>
							<rect id="SVGID_12_" width="320" height="240"/>
						</defs>
						<clipPath id="SVGID_13_">
							<use xlink:href="#SVGID_12_"  overflow="visible"/>
						</clipPath>
						<rect x="42" y="42" clip-path="url(#SVGID_13_)" fill="#FFFFFF" width="153" height="95"/>
					</g>
					<g>
						<defs>
							<rect id="SVGID_14_" width="320" height="240"/>
						</defs>
						<clipPath id="SVGID_15_">
							<use xlink:href="#SVGID_14_"  overflow="visible"/>
						</clipPath>
						<g clip-path="url(#SVGID_15_)">
							<g>
								<defs>
									<polygon id="SVGID_16_" points="262.5,90.8 296.5,76.8 296.5,124.8 262.5,112.8 									"/>
								</defs>
								<clipPath id="SVGID_17_">
									<use xlink:href="#SVGID_16_"  overflow="visible"/>
								</clipPath>
								
									<linearGradient id="SVGID_18_" gradientUnits="userSpaceOnUse" x1="134.1328" y1="-104.0142" x2="135.1328" y2="-104.0142" gradientTransform="matrix(34 0 0 34 -4298 3637.2812)">
									<stop  offset="0" style="stop-color:#002555"/>
									<stop  offset="0.0198" style="stop-color:#002555"/>
									<stop  offset="1" style="stop-color:#0F4186"/>
								</linearGradient>
								<rect x="262.5" y="76.8" clip-path="url(#SVGID_17_)" fill="url(#SVGID_18_)" width="34" height="48"/>
							</g>
							<g>
								<defs>
									<rect id="SVGID_19_" width="320" height="240"/>
								</defs>
								<clipPath id="SVGID_20_">
									<use xlink:href="#SVGID_19_"  overflow="visible"/>
								</clipPath>
								<g clip-path="url(#SVGID_20_)">
									<g>
										<defs>
											<path id="SVGID_21_" d="M155.5,74.8v52c0,0,0,4,4,4H191v11.9h6.3L171.7,213.1l9.399,3.4l25.301-69.6l24.1,66.199
												l9.4-3.399l-24.4-67h4.5v-11.9h31.5c0,0,4,0,4-4v-52c0,0,0-4-4-4h-92C159.5,70.8,155.5,70.8,155.5,74.8"/>
										</defs>
										<clipPath id="SVGID_22_">
											<use xlink:href="#SVGID_21_"  overflow="visible"/>
										</clipPath>
										
											<linearGradient id="SVGID_23_" gradientUnits="userSpaceOnUse" x1="144.8486" y1="-90.4209" x2="145.8486" y2="-90.4209" gradientTransform="matrix(9.3969 -3.4202 3.4202 9.3969 -846.5968 1488.806)">
											<stop  offset="0" style="stop-color:#002555"/>
											<stop  offset="0.0198" style="stop-color:#002555"/>
											<stop  offset="1" style="stop-color:#0F4186"/>
										</linearGradient>
										<polygon clip-path="url(#SVGID_22_)" fill="url(#SVGID_23_)" points="108.7,87.8 243.8,38.6 302.3,199.5 167.2,248.6 
																					"/>
									</g>
									<g>
										<defs>
											<rect id="SVGID_24_" width="320" height="240"/>
										</defs>
										<clipPath id="SVGID_25_">
											<use xlink:href="#SVGID_24_"  overflow="visible"/>
										</clipPath>
										<g clip-path="url(#SVGID_25_)">
											<g>
												<defs>
													<rect id="SVGID_26_" width="320" height="240"/>
												</defs>
												<clipPath id="SVGID_27_">
													<use xlink:href="#SVGID_26_"  overflow="visible"/>
												</clipPath>
												<g clip-path="url(#SVGID_27_)">
													<g opacity="0.5">
														<g>
															<defs>
																<rect id="SVGID_28_" x="-9" y="-7" width="338" height="248"/>
															</defs>
															<clipPath id="SVGID_29_">
																<use xlink:href="#SVGID_28_"  overflow="visible"/>
															</clipPath>
															<rect clip-path="url(#SVGID_29_)" fill="#666666" width="320" height="240"/>
														</g>
													</g>
												</g>
											</g>
										</g>
									</g>
								</g>
							</g>
						</g>
					</g>
				</g>
			</g>
		</g>
	</g>
</g>
</svg>
