<?xml version="1.0" encoding="utf-8"?>
<!-- Generator: Adobe Illustrator 15.0.2, SVG Export Plug-In . SVG Version: 6.00 Build 0)  -->
<!DOCTYPE svg PUBLIC "-//W3C//DTD SVG 1.1//EN" "http://www.w3.org/Graphics/SVG/1.1/DTD/svg11.dtd">
<svg version="1.1" id="Layer_1" xmlns="http://www.w3.org/2000/svg" xmlns:xlink="http://www.w3.org/1999/xlink" x="0px" y="0px"
	 width="16px" height="16px" viewBox="0 0 16 16" enable-background="new 0 0 16 16" xml:space="preserve">
<g>
	<g>
		<g>
			<polygon id="SVGID_1_" fill="#64788D" points="11.7,5.25 13.8,4.65 9.3,1.5 9.45,3.65 7.9,5.9 5.05,6.6 7.3,8.2 4.8,11.8 
				3.95,13.9 5.7,12.4 8.2,8.8 10.45,10.4 10.15,7.5 			"/>
		</g>
		<g>
			<defs>
				<polygon id="SVGID_2_" points="11.7,5.25 13.8,4.65 9.3,1.5 9.45,3.65 7.9,5.9 5.05,6.6 7.3,8.2 4.8,11.8 3.95,13.9 5.7,12.4 
					8.2,8.8 10.45,10.4 10.15,7.5 				"/>
			</defs>
			<use xlink:href="#SVGID_2_"  overflow="visible" fill="#64788D"/>
			<clipPath id="SVGID_3_">
				<use xlink:href="#SVGID_2_"  overflow="visible"/>
			</clipPath>
			<polygon clip-path="url(#SVGID_3_)" fill="#64788D" points="7.2,-3.1 19.6,5.6 10.55,18.5 -1.85,9.85 			"/>
		</g>
	</g>
</g>
</svg>
