<?xml version="1.0" encoding="utf-8"?>
<!-- Generator: Adobe Illustrator 15.0.2, SVG Export Plug-In . SVG Version: 6.00 Build 0)  -->
<!DOCTYPE svg PUBLIC "-//W3C//DTD SVG 1.1//EN" "http://www.w3.org/Graphics/SVG/1.1/DTD/svg11.dtd">
<svg version="1.1" id="Layer_1" xmlns="http://www.w3.org/2000/svg" xmlns:xlink="http://www.w3.org/1999/xlink" x="0px" y="0px"
	 width="16px" height="16px" viewBox="0 0 16 16" enable-background="new 0 0 16 16" xml:space="preserve">
<g>
	<g>
		<g>
			<path id="SVGID_1_" fill="#64788D" d="M6.3,13.5C6.4,14.35,7.1,15,8,15c0.9,0,1.6-0.65,1.7-1.5C9.15,13.55,6.85,13.55,6.3,13.5
				 M8,1C5.9,1.05,4.15,2.55,3.7,4.55c-0.05,0-0.1,1.75-0.1,2.65C3.6,8.95,2,9.85,2,9.85S1.75,11.8,2,12.5
				c0.15,0.45,11.8,0.45,11.95,0c0.25-0.7,0-2.65,0-2.65S12.35,8.95,12.35,7.2c0-0.9-0.05-2.65-0.1-2.65C11.85,2.55,10.1,1.05,8,1z"
				/>
		</g>
		<g>
			<defs>
				<path id="SVGID_2_" d="M6.3,13.5C6.4,14.35,7.1,15,8,15c0.9,0,1.6-0.65,1.7-1.5C9.15,13.55,6.85,13.55,6.3,13.5 M8,1
					C5.9,1.05,4.15,2.55,3.7,4.55c-0.05,0-0.1,1.75-0.1,2.65C3.6,8.95,2,9.85,2,9.85S1.75,11.8,2,12.5c0.15,0.45,11.8,0.45,11.95,0
					c0.25-0.7,0-2.65,0-2.65S12.35,8.95,12.35,7.2c0-0.9-0.05-2.65-0.1-2.65C11.85,2.55,10.1,1.05,8,1z"/>
			</defs>
			<use xlink:href="#SVGID_2_"  overflow="visible" fill="#64788D"/>
			<clipPath id="SVGID_3_">
				<use xlink:href="#SVGID_2_"  overflow="visible"/>
			</clipPath>
			<rect x="1.75" y="1" clip-path="url(#SVGID_3_)" fill="#64788D" width="12.5" height="14"/>
		</g>
	</g>
</g>
</svg>
