<?xml version="1.0" encoding="utf-8"?>
<!-- Generator: Adobe Illustrator 15.0.2, SVG Export Plug-In . SVG Version: 6.00 Build 0)  -->
<!DOCTYPE svg PUBLIC "-//W3C//DTD SVG 1.1//EN" "http://www.w3.org/Graphics/SVG/1.1/DTD/svg11.dtd">
<svg version="1.1" id="Layer_1" xmlns="http://www.w3.org/2000/svg" xmlns:xlink="http://www.w3.org/1999/xlink" x="0px" y="0px"
	 width="20px" height="20px" viewBox="0 0 20 20" enable-background="new 0 0 20 20" xml:space="preserve">
<g>
	<g>
		<defs>
			<circle id="SVGID_1_" cx="10" cy="10" r="8.125"/>
		</defs>
		<use xlink:href="#SVGID_1_"  overflow="visible" fill="#64788D"/>
		<clipPath id="SVGID_2_">
			<use xlink:href="#SVGID_1_"  overflow="visible"/>
		</clipPath>
		<rect x="1.875" y="1.875" clip-path="url(#SVGID_2_)" fill="#64788D" width="16.25" height="16.25"/>
	</g>
</g>
<g>
	<g>
		<defs>
			<path id="SVGID_3_" d="M6.5,9.375l-5.188,8.75c0,0-0.062,0.125-0.062,0.312l0,0c0,0.188,0.062,0.312,0.438,0.312h10.375
				c0,0,0.688,0,0.312-0.562l-5.188-8.75c0,0-0.125-0.25-0.375-0.25C6.75,9.125,6.625,9.188,6.5,9.375"/>
		</defs>
		<use xlink:href="#SVGID_3_"  overflow="visible" fill="#D6002B"/>
		<clipPath id="SVGID_4_">
			<use xlink:href="#SVGID_3_"  overflow="visible"/>
		</clipPath>
		<rect x="1.25" y="9.125" clip-path="url(#SVGID_4_)" fill="#D6002B" width="11.5" height="9.625"/>
	</g>
</g>
<polygon fill="#FFFFFF" points="3.188,17.562 10.562,17.562 6.875,11 "/>
<path fill="#64788D" d="M6.312,17.188h1.062v-1.062H6.312V17.188z M7.438,12.75H6.25l0.188,2.938h0.875L7.438,12.75z"/>
<polyline fill="none" stroke="#FFFFFF" stroke-width="2" stroke-linecap="round" stroke-linejoin="round" points="10,5.5 10,10.062 
	14.75,12.375 "/>
</svg>
